<svg width="684" height="125" viewBox="0 0 684 125" fill="none" xmlns="http://www.w3.org/2000/svg">
<rect width="684" height="124.341" rx="10" fill="#FAE7E3"/>
<rect x="13.4111" y="17.2051" width="6.35294" height="90.7144" fill="#D4496B"/>
<path d="M53.9883 20.7812H56.7324L56.7422 30.6348C56.7357 31.3118 56.6055 31.9303 56.3516 32.4902C56.1042 33.0436 55.7624 33.5221 55.3262 33.9258C54.89 34.3294 54.3757 34.6419 53.7832 34.8633C53.1973 35.0846 52.5658 35.1953 51.8887 35.1953C51.1725 35.1953 50.5215 35.1042 49.9355 34.9219C49.3496 34.7396 48.8483 34.4661 48.4316 34.1016C48.0085 33.7435 47.6797 33.291 47.4453 32.7441C47.2109 32.1973 47.0905 31.556 47.084 30.8203H49.8379C49.8379 31.1589 49.8704 31.4551 49.9355 31.709C50.0007 31.9629 50.0983 32.1777 50.2285 32.3535C50.3978 32.5684 50.6191 32.7279 50.8926 32.832C51.166 32.9362 51.498 32.9883 51.8887 32.9883C52.2012 32.9883 52.4876 32.9297 52.748 32.8125C53.0085 32.6888 53.2298 32.5228 53.4121 32.3145C53.5944 32.1061 53.7344 31.8587 53.832 31.5723C53.9362 31.2793 53.9883 30.9668 53.9883 30.6348V20.7812ZM66.2832 35L66.127 33.5156C65.7689 34.043 65.3359 34.4564 64.8281 34.7559C64.3268 35.0553 63.7767 35.2051 63.1777 35.2051C62.6309 35.2051 62.1296 35.1204 61.6738 34.9512C61.2181 34.7819 60.8275 34.5117 60.502 34.1406C60.1764 33.776 59.9225 33.3105 59.7402 32.7441C59.5645 32.1712 59.4766 31.4844 59.4766 30.6836V24.4336H62.1914V30.7031C62.1914 31.1328 62.2207 31.4941 62.2793 31.7871C62.3444 32.0801 62.4453 32.3145 62.582 32.4902C62.7188 32.6725 62.8978 32.8027 63.1191 32.8809C63.3405 32.959 63.6107 32.998 63.9297 32.998C64.2161 32.998 64.4733 32.9688 64.7012 32.9102C64.9355 32.8516 65.1406 32.7669 65.3164 32.6562C65.4661 32.5586 65.5996 32.4414 65.7168 32.3047C65.834 32.168 65.9349 32.015 66.0195 31.8457V24.4336H68.7441V35H66.2832ZM78.2168 32.0996C78.2168 31.9368 78.1777 31.7936 78.0996 31.6699C78.028 31.5462 77.8978 31.429 77.709 31.3184C77.5137 31.2142 77.2565 31.1165 76.9375 31.0254C76.6185 30.9342 76.2148 30.8431 75.7266 30.752C75.1081 30.6283 74.5417 30.4753 74.0273 30.293C73.5195 30.1042 73.0833 29.8763 72.7188 29.6094C72.3542 29.349 72.0677 29.0462 71.8594 28.7012C71.6576 28.3561 71.5566 27.959 71.5566 27.5098C71.5566 27.0736 71.6608 26.6569 71.8691 26.2598C72.0775 25.8626 72.377 25.5143 72.7676 25.2148C73.1582 24.9154 73.6335 24.6777 74.1934 24.502C74.7533 24.3262 75.3848 24.2383 76.0879 24.2383C76.8236 24.2383 77.4844 24.3262 78.0703 24.502C78.6562 24.6712 79.1543 24.9056 79.5645 25.2051C79.9681 25.5111 80.2773 25.8724 80.4922 26.2891C80.707 26.7057 80.8145 27.1582 80.8145 27.6465H78.0996C78.0996 27.4707 78.0703 27.3079 78.0117 27.1582C77.9531 27.002 77.8652 26.862 77.748 26.7383C77.5853 26.5755 77.3639 26.4453 77.084 26.3477C76.8105 26.25 76.4785 26.2012 76.0879 26.2012C75.7559 26.2012 75.4661 26.2337 75.2188 26.2988C74.9714 26.3639 74.7695 26.4551 74.6133 26.5723C74.4701 26.6764 74.3594 26.8001 74.2812 26.9434C74.2096 27.0801 74.1738 27.2266 74.1738 27.3828C74.1738 27.5391 74.2064 27.6855 74.2715 27.8223C74.3366 27.9525 74.4538 28.0697 74.623 28.1738C74.7858 28.2845 75.0104 28.3854 75.2969 28.4766C75.5833 28.5612 75.9479 28.6361 76.3906 28.7012C77.0286 28.8053 77.6211 28.9388 78.168 29.1016C78.7148 29.2643 79.1868 29.4727 79.584 29.7266C79.9811 29.987 80.2904 30.3027 80.5117 30.6738C80.7396 31.0384 80.8535 31.4746 80.8535 31.9824C80.8535 32.4512 80.7396 32.8841 80.5117 33.2812C80.2904 33.6719 79.9746 34.0104 79.5645 34.2969C79.1478 34.5833 78.6465 34.8079 78.0605 34.9707C77.4746 35.127 76.8203 35.2051 76.0977 35.2051C75.3034 35.2051 74.6003 35.1009 73.9883 34.8926C73.3828 34.6842 72.875 34.4108 72.4648 34.0723C72.0547 33.7402 71.7422 33.3626 71.5273 32.9395C71.319 32.5098 71.2148 32.0801 71.2148 31.6504H73.8027C73.8223 31.9368 73.9004 32.1842 74.0371 32.3926C74.1738 32.5944 74.3496 32.7572 74.5645 32.8809C74.7793 33.0111 75.0234 33.1055 75.2969 33.1641C75.5768 33.2227 75.8633 33.252 76.1562 33.252C76.5078 33.252 76.8138 33.2227 77.0742 33.1641C77.3411 33.099 77.5592 33.0143 77.7285 32.9102C77.8913 32.806 78.0117 32.6855 78.0898 32.5488C78.1745 32.4121 78.2168 32.2624 78.2168 32.0996ZM88.3926 21.8457V24.4336H92.3379V26.4355H88.3926V30.9766C88.3926 31.3607 88.4349 31.6829 88.5195 31.9434C88.6107 32.1973 88.7376 32.3991 88.9004 32.5488C89.0632 32.7051 89.2585 32.8158 89.4863 32.8809C89.7207 32.946 89.9811 32.9785 90.2676 32.9785C90.4759 32.9785 90.6875 32.9688 90.9023 32.9492C91.1237 32.9297 91.3353 32.9036 91.5371 32.8711C91.7324 32.8451 91.9147 32.8158 92.084 32.7832C92.2598 32.7507 92.4095 32.7181 92.5332 32.6855L92.7969 34.5508C92.6081 34.6615 92.3867 34.7591 92.1328 34.8438C91.8789 34.9219 91.6087 34.987 91.3223 35.0391C91.0358 35.0911 90.7363 35.1302 90.4238 35.1562C90.1178 35.1888 89.8151 35.2051 89.5156 35.2051C88.9362 35.2051 88.4089 35.1302 87.9336 34.9805C87.4648 34.8242 87.0645 34.5833 86.7324 34.2578C86.3939 33.9388 86.1335 33.5319 85.9512 33.0371C85.7689 32.5358 85.6777 31.9368 85.6777 31.2402V26.4355H83.2656V24.4336H85.6777V21.8457H88.3926ZM107.064 29.6191C107.064 28.8509 107.175 28.1413 107.396 27.4902C107.618 26.8327 107.943 26.263 108.373 25.7812C108.796 25.2995 109.314 24.9219 109.926 24.6484C110.544 24.375 111.251 24.2383 112.045 24.2383C112.839 24.2383 113.546 24.375 114.164 24.6484C114.783 24.9219 115.307 25.2995 115.736 25.7812C116.16 26.263 116.482 26.8327 116.703 27.4902C116.924 28.1413 117.035 28.8509 117.035 29.6191V29.8242C117.035 30.599 116.924 31.3151 116.703 31.9727C116.482 32.6237 116.16 33.1901 115.736 33.6719C115.313 34.1536 114.792 34.5312 114.174 34.8047C113.555 35.0716 112.852 35.2051 112.064 35.2051C111.27 35.2051 110.561 35.0716 109.936 34.8047C109.317 34.5312 108.796 34.1536 108.373 33.6719C107.943 33.1901 107.618 32.6237 107.396 31.9727C107.175 31.3151 107.064 30.599 107.064 29.8242V29.6191ZM109.779 29.8242C109.779 30.2669 109.822 30.6836 109.906 31.0742C109.991 31.4583 110.124 31.7936 110.307 32.0801C110.489 32.373 110.723 32.6042 111.01 32.7734C111.303 32.9427 111.654 33.0273 112.064 33.0273C112.462 33.0273 112.803 32.9427 113.09 32.7734C113.376 32.6042 113.611 32.373 113.793 32.0801C113.969 31.7936 114.099 31.4583 114.184 31.0742C114.268 30.6836 114.311 30.2669 114.311 29.8242V29.6191C114.311 29.1895 114.268 28.7826 114.184 28.3984C114.099 28.0143 113.969 27.6758 113.793 27.3828C113.611 27.0898 113.376 26.8587 113.09 26.6895C112.803 26.5202 112.455 26.4355 112.045 26.4355C111.641 26.4355 111.296 26.5202 111.01 26.6895C110.723 26.8587 110.489 27.0898 110.307 27.3828C110.124 27.6758 109.991 28.0143 109.906 28.3984C109.822 28.7826 109.779 29.1895 109.779 29.6191V29.8242ZM119.447 35V24.4336H121.908L122.074 25.8984C122.211 25.7031 122.361 25.5241 122.523 25.3613C122.686 25.1986 122.859 25.0521 123.041 24.9219C123.354 24.7005 123.695 24.5312 124.066 24.4141C124.438 24.2969 124.831 24.2383 125.248 24.2383C125.782 24.2383 126.27 24.3164 126.713 24.4727C127.156 24.6289 127.54 24.8763 127.865 25.2148C128.184 25.5599 128.432 26.0026 128.607 26.543C128.79 27.0768 128.881 27.7279 128.881 28.4961V35H126.166V28.5352C126.166 28.1185 126.117 27.7767 126.02 27.5098C125.928 27.2363 125.795 27.0215 125.619 26.8652C125.443 26.709 125.232 26.6016 124.984 26.543C124.737 26.4779 124.457 26.4453 124.145 26.4453C123.884 26.4453 123.643 26.4746 123.422 26.5332C123.207 26.5918 123.015 26.6797 122.846 26.7969C122.709 26.8815 122.585 26.9824 122.475 27.0996C122.364 27.2168 122.263 27.347 122.172 27.4902V35H119.447ZM136.586 35.1953C135.772 35.1953 135.033 35.0618 134.369 34.7949C133.705 34.528 133.135 34.1634 132.66 33.7012C132.185 33.2454 131.817 32.7083 131.557 32.0898C131.303 31.4648 131.176 30.7975 131.176 30.0879V29.6973C131.176 28.89 131.303 28.1543 131.557 27.4902C131.811 26.8197 132.165 26.2435 132.621 25.7617C133.077 25.2799 133.617 24.9056 134.242 24.6387C134.867 24.3717 135.548 24.2383 136.283 24.2383C137.045 24.2383 137.722 24.3652 138.314 24.6191C138.913 24.8665 139.421 25.2181 139.838 25.6738C140.248 26.1296 140.561 26.6797 140.775 27.3242C140.99 27.9622 141.098 28.6686 141.098 29.4434V30.5957H133.93V30.625C134.021 31.0482 134.138 31.39 134.281 31.6504C134.424 31.9043 134.617 32.1354 134.857 32.3438C135.105 32.5586 135.388 32.7246 135.707 32.8418C136.026 32.959 136.374 33.0176 136.752 33.0176C137.286 33.0176 137.803 32.9167 138.305 32.7148C138.806 32.513 139.213 32.2103 139.525 31.8066L140.883 33.2715C140.538 33.7598 139.991 34.2025 139.242 34.5996C138.493 34.9967 137.608 35.1953 136.586 35.1953ZM136.264 26.4355C135.958 26.4355 135.678 26.4909 135.424 26.6016C135.17 26.7057 134.949 26.8587 134.76 27.0605C134.564 27.2624 134.402 27.5033 134.271 27.7832C134.141 28.0632 134.044 28.3757 133.979 28.7207H138.432V28.5059C138.432 28.2194 138.38 27.9492 138.275 27.6953C138.171 27.4414 138.028 27.2201 137.846 27.0312C137.663 26.849 137.439 26.7057 137.172 26.6016C136.911 26.4909 136.609 26.4355 136.264 26.4355ZM162.299 32.0996C162.299 31.9368 162.26 31.7936 162.182 31.6699C162.11 31.5462 161.98 31.429 161.791 31.3184C161.596 31.2142 161.339 31.1165 161.02 31.0254C160.701 30.9342 160.297 30.8431 159.809 30.752C159.19 30.6283 158.624 30.4753 158.109 30.293C157.602 30.1042 157.165 29.8763 156.801 29.6094C156.436 29.349 156.15 29.0462 155.941 28.7012C155.74 28.3561 155.639 27.959 155.639 27.5098C155.639 27.0736 155.743 26.6569 155.951 26.2598C156.16 25.8626 156.459 25.5143 156.85 25.2148C157.24 24.9154 157.715 24.6777 158.275 24.502C158.835 24.3262 159.467 24.2383 160.17 24.2383C160.906 24.2383 161.566 24.3262 162.152 24.502C162.738 24.6712 163.236 24.9056 163.646 25.2051C164.05 25.5111 164.359 25.8724 164.574 26.2891C164.789 26.7057 164.896 27.1582 164.896 27.6465H162.182C162.182 27.4707 162.152 27.3079 162.094 27.1582C162.035 27.002 161.947 26.862 161.83 26.7383C161.667 26.5755 161.446 26.4453 161.166 26.3477C160.893 26.25 160.561 26.2012 160.17 26.2012C159.838 26.2012 159.548 26.2337 159.301 26.2988C159.053 26.3639 158.852 26.4551 158.695 26.5723C158.552 26.6764 158.441 26.8001 158.363 26.9434C158.292 27.0801 158.256 27.2266 158.256 27.3828C158.256 27.5391 158.288 27.6855 158.354 27.8223C158.419 27.9525 158.536 28.0697 158.705 28.1738C158.868 28.2845 159.092 28.3854 159.379 28.4766C159.665 28.5612 160.03 28.6361 160.473 28.7012C161.111 28.8053 161.703 28.9388 162.25 29.1016C162.797 29.2643 163.269 29.4727 163.666 29.7266C164.063 29.987 164.372 30.3027 164.594 30.6738C164.822 31.0384 164.936 31.4746 164.936 31.9824C164.936 32.4512 164.822 32.8841 164.594 33.2812C164.372 33.6719 164.057 34.0104 163.646 34.2969C163.23 34.5833 162.729 34.8079 162.143 34.9707C161.557 35.127 160.902 35.2051 160.18 35.2051C159.385 35.2051 158.682 35.1009 158.07 34.8926C157.465 34.6842 156.957 34.4108 156.547 34.0723C156.137 33.7402 155.824 33.3626 155.609 32.9395C155.401 32.5098 155.297 32.0801 155.297 31.6504H157.885C157.904 31.9368 157.982 32.1842 158.119 32.3926C158.256 32.5944 158.432 32.7572 158.646 32.8809C158.861 33.0111 159.105 33.1055 159.379 33.1641C159.659 33.2227 159.945 33.252 160.238 33.252C160.59 33.252 160.896 33.2227 161.156 33.1641C161.423 33.099 161.641 33.0143 161.811 32.9102C161.973 32.806 162.094 32.6855 162.172 32.5488C162.257 32.4121 162.299 32.2624 162.299 32.0996ZM169.184 24.4336L169.262 25.7129C169.464 25.2572 169.74 24.8991 170.092 24.6387C170.45 24.3717 170.883 24.2383 171.391 24.2383C171.638 24.2383 171.859 24.2676 172.055 24.3262C172.25 24.3848 172.419 24.4759 172.562 24.5996C172.673 24.6908 172.768 24.8014 172.846 24.9316C172.93 25.0553 173.002 25.1986 173.061 25.3613C173.152 25.2051 173.253 25.0651 173.363 24.9414C173.48 24.8112 173.607 24.7005 173.744 24.6094C173.913 24.4922 174.105 24.401 174.32 24.3359C174.535 24.2708 174.77 24.2383 175.023 24.2383C175.342 24.2383 175.639 24.2969 175.912 24.4141C176.192 24.5312 176.436 24.7168 176.645 24.9707C176.846 25.2311 177.003 25.5664 177.113 25.9766C177.23 26.3802 177.289 26.875 177.289 27.4609V35H174.818V27.4512C174.818 27.2493 174.796 27.0833 174.75 26.9531C174.711 26.8229 174.656 26.7188 174.584 26.6406C174.512 26.569 174.428 26.5202 174.33 26.4941C174.239 26.4616 174.145 26.4453 174.047 26.4453C173.943 26.4453 173.848 26.4583 173.764 26.4844C173.686 26.5104 173.611 26.5462 173.539 26.5918C173.48 26.6374 173.428 26.6895 173.383 26.748C173.337 26.8001 173.298 26.862 173.266 26.9336C173.266 26.9466 173.266 26.9759 173.266 27.0215C173.266 27.0671 173.266 27.1289 173.266 27.207V35H170.873V27.4414C170.873 27.2396 170.854 27.0736 170.814 26.9434C170.775 26.8132 170.723 26.7122 170.658 26.6406C170.587 26.569 170.505 26.5202 170.414 26.4941C170.323 26.4616 170.225 26.4453 170.121 26.4453C170.004 26.4453 169.9 26.4648 169.809 26.5039C169.717 26.543 169.636 26.5983 169.564 26.6699C169.512 26.722 169.467 26.7839 169.428 26.8555C169.389 26.9271 169.353 27.0052 169.32 27.0898V35H166.85V24.4336H169.184ZM186.107 35C186.042 34.8698 185.987 34.7201 185.941 34.5508C185.896 34.3815 185.857 34.2025 185.824 34.0137C185.674 34.1764 185.502 34.3294 185.307 34.4727C185.111 34.6159 184.896 34.7396 184.662 34.8438C184.421 34.9544 184.158 35.0391 183.871 35.0977C183.585 35.1628 183.275 35.1953 182.943 35.1953C182.403 35.1953 181.905 35.1172 181.449 34.9609C181 34.8047 180.613 34.5866 180.287 34.3066C179.962 34.0267 179.708 33.6947 179.525 33.3105C179.343 32.9199 179.252 32.4967 179.252 32.041C179.252 31.4551 179.366 30.9375 179.594 30.4883C179.822 30.0326 180.163 29.6582 180.619 29.3652C181.029 29.0983 181.534 28.8965 182.133 28.7598C182.738 28.6165 183.432 28.5449 184.213 28.5449H185.727V27.9199C185.727 27.6725 185.688 27.4512 185.609 27.2559C185.531 27.054 185.414 26.8815 185.258 26.7383C185.095 26.5885 184.89 26.4746 184.643 26.3965C184.402 26.3118 184.118 26.2695 183.793 26.2695C183.507 26.2695 183.259 26.3053 183.051 26.377C182.842 26.4421 182.673 26.5365 182.543 26.6602C182.426 26.7708 182.338 26.9043 182.279 27.0605C182.227 27.2168 182.201 27.3893 182.201 27.5781H179.486C179.486 27.1289 179.584 26.7025 179.779 26.2988C179.981 25.8952 180.274 25.5404 180.658 25.2344C181.036 24.9284 181.498 24.6875 182.045 24.5117C182.598 24.3294 183.23 24.2383 183.939 24.2383C184.577 24.2383 185.17 24.3164 185.717 24.4727C186.27 24.6289 186.749 24.86 187.152 25.166C187.556 25.472 187.872 25.8594 188.1 26.3281C188.327 26.7904 188.441 27.3275 188.441 27.9395V32.4707C188.441 33.0371 188.477 33.5059 188.549 33.877C188.62 34.248 188.725 34.5671 188.861 34.834V35H186.107ZM183.52 33.0957C183.793 33.0957 184.047 33.0632 184.281 32.998C184.516 32.9329 184.727 32.8483 184.916 32.7441C185.105 32.64 185.268 32.5228 185.404 32.3926C185.541 32.2559 185.648 32.1191 185.727 31.9824V30.166H184.34C183.917 30.166 183.555 30.2083 183.256 30.293C182.956 30.3711 182.712 30.4818 182.523 30.625C182.335 30.7747 182.195 30.9538 182.104 31.1621C182.012 31.3639 181.967 31.5853 181.967 31.8262C181.967 32.015 181.999 32.1908 182.064 32.3535C182.136 32.5098 182.237 32.6432 182.367 32.7539C182.497 32.8581 182.657 32.9427 182.846 33.0078C183.041 33.0664 183.266 33.0957 183.52 33.0957ZM192.084 20H197.992V32.793H201.02V35H192.084V32.793H195.248V22.2168H192.084V20ZM204.096 20H210.004V32.793H213.031V35H204.096V32.793H207.26V22.2168H204.096V20ZM227.592 39.0625V24.4336H230.102L230.199 25.4688C230.342 25.293 230.499 25.1367 230.668 25C230.837 24.8568 231.02 24.7331 231.215 24.6289C231.449 24.5052 231.706 24.4108 231.986 24.3457C232.273 24.2741 232.579 24.2383 232.904 24.2383C233.575 24.2383 234.167 24.3685 234.682 24.6289C235.196 24.8828 235.629 25.2441 235.98 25.7129C236.332 26.1882 236.596 26.7578 236.771 27.4219C236.954 28.0794 237.045 28.8086 237.045 29.6094V29.8145C237.045 30.5827 236.954 31.2956 236.771 31.9531C236.596 32.6107 236.335 33.1771 235.99 33.6523C235.639 34.1341 235.206 34.5117 234.691 34.7852C234.177 35.0586 233.588 35.1953 232.924 35.1953C232.572 35.1953 232.247 35.1562 231.947 35.0781C231.654 35.0065 231.381 34.8991 231.127 34.7559C230.977 34.6647 230.834 34.5638 230.697 34.4531C230.561 34.3424 230.43 34.2188 230.307 34.082V39.0625H227.592ZM234.33 29.6094C234.33 29.1667 234.288 28.7533 234.203 28.3691C234.125 27.9785 234.001 27.64 233.832 27.3535C233.656 27.0736 233.432 26.8522 233.158 26.6895C232.891 26.5267 232.566 26.4453 232.182 26.4453C231.96 26.4453 231.758 26.4681 231.576 26.5137C231.394 26.5527 231.228 26.6113 231.078 26.6895C230.909 26.7806 230.759 26.8945 230.629 27.0312C230.505 27.168 230.398 27.3275 230.307 27.5098V31.9238C230.391 32.0931 230.492 32.2461 230.609 32.3828C230.733 32.5195 230.873 32.6367 231.029 32.7344C231.179 32.8255 231.352 32.8971 231.547 32.9492C231.742 32.9948 231.96 33.0176 232.201 33.0176C232.585 33.0176 232.911 32.9329 233.178 32.7637C233.451 32.5944 233.673 32.3633 233.842 32.0703C234.011 31.7773 234.135 31.4388 234.213 31.0547C234.291 30.6641 234.33 30.2507 234.33 29.8145V29.6094ZM239.193 29.6191C239.193 28.8509 239.304 28.1413 239.525 27.4902C239.747 26.8327 240.072 26.263 240.502 25.7812C240.925 25.2995 241.443 24.9219 242.055 24.6484C242.673 24.375 243.38 24.2383 244.174 24.2383C244.968 24.2383 245.674 24.375 246.293 24.6484C246.911 24.9219 247.436 25.2995 247.865 25.7812C248.288 26.263 248.611 26.8327 248.832 27.4902C249.053 28.1413 249.164 28.8509 249.164 29.6191V29.8242C249.164 30.599 249.053 31.3151 248.832 31.9727C248.611 32.6237 248.288 33.1901 247.865 33.6719C247.442 34.1536 246.921 34.5312 246.303 34.8047C245.684 35.0716 244.981 35.2051 244.193 35.2051C243.399 35.2051 242.689 35.0716 242.064 34.8047C241.446 34.5312 240.925 34.1536 240.502 33.6719C240.072 33.1901 239.747 32.6237 239.525 31.9727C239.304 31.3151 239.193 30.599 239.193 29.8242V29.6191ZM241.908 29.8242C241.908 30.2669 241.951 30.6836 242.035 31.0742C242.12 31.4583 242.253 31.7936 242.436 32.0801C242.618 32.373 242.852 32.6042 243.139 32.7734C243.432 32.9427 243.783 33.0273 244.193 33.0273C244.59 33.0273 244.932 32.9427 245.219 32.7734C245.505 32.6042 245.74 32.373 245.922 32.0801C246.098 31.7936 246.228 31.4583 246.312 31.0742C246.397 30.6836 246.439 30.2669 246.439 29.8242V29.6191C246.439 29.1895 246.397 28.7826 246.312 28.3984C246.228 28.0143 246.098 27.6758 245.922 27.3828C245.74 27.0898 245.505 26.8587 245.219 26.6895C244.932 26.5202 244.584 26.4355 244.174 26.4355C243.77 26.4355 243.425 26.5202 243.139 26.6895C242.852 26.8587 242.618 27.0898 242.436 27.3828C242.253 27.6758 242.12 28.0143 242.035 28.3984C241.951 28.7826 241.908 29.1895 241.908 29.6191V29.8242ZM258.393 32.0996C258.393 31.9368 258.354 31.7936 258.275 31.6699C258.204 31.5462 258.074 31.429 257.885 31.3184C257.689 31.2142 257.432 31.1165 257.113 31.0254C256.794 30.9342 256.391 30.8431 255.902 30.752C255.284 30.6283 254.717 30.4753 254.203 30.293C253.695 30.1042 253.259 29.8763 252.895 29.6094C252.53 29.349 252.243 29.0462 252.035 28.7012C251.833 28.3561 251.732 27.959 251.732 27.5098C251.732 27.0736 251.837 26.6569 252.045 26.2598C252.253 25.8626 252.553 25.5143 252.943 25.2148C253.334 24.9154 253.809 24.6777 254.369 24.502C254.929 24.3262 255.561 24.2383 256.264 24.2383C256.999 24.2383 257.66 24.3262 258.246 24.502C258.832 24.6712 259.33 24.9056 259.74 25.2051C260.144 25.5111 260.453 25.8724 260.668 26.2891C260.883 26.7057 260.99 27.1582 260.99 27.6465H258.275C258.275 27.4707 258.246 27.3079 258.188 27.1582C258.129 27.002 258.041 26.862 257.924 26.7383C257.761 26.5755 257.54 26.4453 257.26 26.3477C256.986 26.25 256.654 26.2012 256.264 26.2012C255.932 26.2012 255.642 26.2337 255.395 26.2988C255.147 26.3639 254.945 26.4551 254.789 26.5723C254.646 26.6764 254.535 26.8001 254.457 26.9434C254.385 27.0801 254.35 27.2266 254.35 27.3828C254.35 27.5391 254.382 27.6855 254.447 27.8223C254.512 27.9525 254.63 28.0697 254.799 28.1738C254.962 28.2845 255.186 28.3854 255.473 28.4766C255.759 28.5612 256.124 28.6361 256.566 28.7012C257.204 28.8053 257.797 28.9388 258.344 29.1016C258.891 29.2643 259.363 29.4727 259.76 29.7266C260.157 29.987 260.466 30.3027 260.688 30.6738C260.915 31.0384 261.029 31.4746 261.029 31.9824C261.029 32.4512 260.915 32.8841 260.688 33.2812C260.466 33.6719 260.15 34.0104 259.74 34.2969C259.324 34.5833 258.822 34.8079 258.236 34.9707C257.65 35.127 256.996 35.2051 256.273 35.2051C255.479 35.2051 254.776 35.1009 254.164 34.8926C253.559 34.6842 253.051 34.4108 252.641 34.0723C252.23 33.7402 251.918 33.3626 251.703 32.9395C251.495 32.5098 251.391 32.0801 251.391 31.6504H253.979C253.998 31.9368 254.076 32.1842 254.213 32.3926C254.35 32.5944 254.525 32.7572 254.74 32.8809C254.955 33.0111 255.199 33.1055 255.473 33.1641C255.753 33.2227 256.039 33.252 256.332 33.252C256.684 33.252 256.99 33.2227 257.25 33.1641C257.517 33.099 257.735 33.0143 257.904 32.9102C258.067 32.806 258.188 32.6855 258.266 32.5488C258.35 32.4121 258.393 32.2624 258.393 32.0996ZM264.311 24.4336H270.062V32.793H272.924V35H264.311V32.793H267.318V26.6504H264.311V24.4336ZM267.123 21.7285C267.123 21.5202 267.159 21.3281 267.23 21.1523C267.309 20.9701 267.416 20.8138 267.553 20.6836C267.689 20.5599 267.852 20.4622 268.041 20.3906C268.236 20.319 268.451 20.2832 268.686 20.2832C269.167 20.2832 269.548 20.4199 269.828 20.6934C270.115 20.9603 270.258 21.3053 270.258 21.7285C270.258 22.1517 270.115 22.5 269.828 22.7734C269.548 23.0404 269.167 23.1738 268.686 23.1738C268.451 23.1738 268.236 23.138 268.041 23.0664C267.852 22.9948 267.689 22.8939 267.553 22.7637C267.416 22.64 267.309 22.4902 267.23 22.3145C267.159 22.1322 267.123 21.9368 267.123 21.7285ZM280.58 21.8457V24.4336H284.525V26.4355H280.58V30.9766C280.58 31.3607 280.622 31.6829 280.707 31.9434C280.798 32.1973 280.925 32.3991 281.088 32.5488C281.251 32.7051 281.446 32.8158 281.674 32.8809C281.908 32.946 282.169 32.9785 282.455 32.9785C282.663 32.9785 282.875 32.9688 283.09 32.9492C283.311 32.9297 283.523 32.9036 283.725 32.8711C283.92 32.8451 284.102 32.8158 284.271 32.7832C284.447 32.7507 284.597 32.7181 284.721 32.6855L284.984 34.5508C284.796 34.6615 284.574 34.7591 284.32 34.8438C284.066 34.9219 283.796 34.987 283.51 35.0391C283.223 35.0911 282.924 35.1302 282.611 35.1562C282.305 35.1888 282.003 35.2051 281.703 35.2051C281.124 35.2051 280.596 35.1302 280.121 34.9805C279.652 34.8242 279.252 34.5833 278.92 34.2578C278.581 33.9388 278.321 33.5319 278.139 33.0371C277.956 32.5358 277.865 31.9368 277.865 31.2402V26.4355H275.453V24.4336H277.865V21.8457H280.58ZM288.334 24.4336H294.086V32.793H296.947V35H288.334V32.793H291.342V26.6504H288.334V24.4336ZM291.146 21.7285C291.146 21.5202 291.182 21.3281 291.254 21.1523C291.332 20.9701 291.439 20.8138 291.576 20.6836C291.713 20.5599 291.876 20.4622 292.064 20.3906C292.26 20.319 292.475 20.2832 292.709 20.2832C293.191 20.2832 293.572 20.4199 293.852 20.6934C294.138 20.9603 294.281 21.3053 294.281 21.7285C294.281 22.1517 294.138 22.5 293.852 22.7734C293.572 23.0404 293.191 23.1738 292.709 23.1738C292.475 23.1738 292.26 23.138 292.064 23.0664C291.876 22.9948 291.713 22.8939 291.576 22.7637C291.439 22.64 291.332 22.4902 291.254 22.3145C291.182 22.1322 291.146 21.9368 291.146 21.7285ZM302.982 35L298.949 24.4336H301.781L304.105 31.8848L304.252 32.627L304.398 31.8848L306.713 24.4336H309.545L305.531 35H302.982ZM316.762 35.1953C315.948 35.1953 315.209 35.0618 314.545 34.7949C313.881 34.528 313.311 34.1634 312.836 33.7012C312.361 33.2454 311.993 32.7083 311.732 32.0898C311.479 31.4648 311.352 30.7975 311.352 30.0879V29.6973C311.352 28.89 311.479 28.1543 311.732 27.4902C311.986 26.8197 312.341 26.2435 312.797 25.7617C313.253 25.2799 313.793 24.9056 314.418 24.6387C315.043 24.3717 315.723 24.2383 316.459 24.2383C317.221 24.2383 317.898 24.3652 318.49 24.6191C319.089 24.8665 319.597 25.2181 320.014 25.6738C320.424 26.1296 320.736 26.6797 320.951 27.3242C321.166 27.9622 321.273 28.6686 321.273 29.4434V30.5957H314.105V30.625C314.197 31.0482 314.314 31.39 314.457 31.6504C314.6 31.9043 314.792 32.1354 315.033 32.3438C315.281 32.5586 315.564 32.7246 315.883 32.8418C316.202 32.959 316.55 33.0176 316.928 33.0176C317.462 33.0176 317.979 32.9167 318.48 32.7148C318.982 32.513 319.389 32.2103 319.701 31.8066L321.059 33.2715C320.714 33.7598 320.167 34.2025 319.418 34.5996C318.669 34.9967 317.784 35.1953 316.762 35.1953ZM316.439 26.4355C316.133 26.4355 315.854 26.4909 315.6 26.6016C315.346 26.7057 315.124 26.8587 314.936 27.0605C314.74 27.2624 314.577 27.5033 314.447 27.7832C314.317 28.0632 314.219 28.3757 314.154 28.7207H318.607V28.5059C318.607 28.2194 318.555 27.9492 318.451 27.6953C318.347 27.4414 318.204 27.2201 318.021 27.0312C317.839 26.849 317.615 26.7057 317.348 26.6016C317.087 26.4909 316.785 26.4355 316.439 26.4355ZM340.639 21.8457V24.4336H344.584V26.4355H340.639V30.9766C340.639 31.3607 340.681 31.6829 340.766 31.9434C340.857 32.1973 340.984 32.3991 341.146 32.5488C341.309 32.7051 341.505 32.8158 341.732 32.8809C341.967 32.946 342.227 32.9785 342.514 32.9785C342.722 32.9785 342.934 32.9688 343.148 32.9492C343.37 32.9297 343.581 32.9036 343.783 32.8711C343.979 32.8451 344.161 32.8158 344.33 32.7832C344.506 32.7507 344.656 32.7181 344.779 32.6855L345.043 34.5508C344.854 34.6615 344.633 34.7591 344.379 34.8438C344.125 34.9219 343.855 34.987 343.568 35.0391C343.282 35.0911 342.982 35.1302 342.67 35.1562C342.364 35.1888 342.061 35.2051 341.762 35.2051C341.182 35.2051 340.655 35.1302 340.18 34.9805C339.711 34.8242 339.311 34.5833 338.979 34.2578C338.64 33.9388 338.38 33.5319 338.197 33.0371C338.015 32.5358 337.924 31.9368 337.924 31.2402V26.4355H335.512V24.4336H337.924V21.8457H340.639ZM350.385 25.8887C350.521 25.6868 350.671 25.5013 350.834 25.332C351.003 25.1562 351.179 25.0033 351.361 24.873C351.641 24.6712 351.951 24.515 352.289 24.4043C352.628 24.2936 352.986 24.2383 353.363 24.2383C353.917 24.2383 354.424 24.3229 354.887 24.4922C355.349 24.6549 355.746 24.9121 356.078 25.2637C356.41 25.6152 356.667 26.0677 356.85 26.6211C357.038 27.168 357.133 27.8288 357.133 28.6035V35H354.418V28.584C354.418 28.2064 354.369 27.8809 354.271 27.6074C354.18 27.334 354.047 27.1126 353.871 26.9434C353.695 26.7741 353.484 26.6504 353.236 26.5723C352.989 26.4876 352.709 26.4453 352.396 26.4453C352.156 26.4453 351.931 26.4681 351.723 26.5137C351.514 26.5592 351.326 26.6276 351.156 26.7188C351 26.7969 350.857 26.8913 350.727 27.002C350.603 27.1126 350.489 27.2363 350.385 27.373V35H347.67V20H350.385V25.8887ZM359.311 29.6191C359.311 28.8509 359.421 28.1413 359.643 27.4902C359.864 26.8327 360.189 26.263 360.619 25.7812C361.042 25.2995 361.56 24.9219 362.172 24.6484C362.79 24.375 363.497 24.2383 364.291 24.2383C365.085 24.2383 365.792 24.375 366.41 24.6484C367.029 24.9219 367.553 25.2995 367.982 25.7812C368.406 26.263 368.728 26.8327 368.949 27.4902C369.171 28.1413 369.281 28.8509 369.281 29.6191V29.8242C369.281 30.599 369.171 31.3151 368.949 31.9727C368.728 32.6237 368.406 33.1901 367.982 33.6719C367.559 34.1536 367.038 34.5312 366.42 34.8047C365.801 35.0716 365.098 35.2051 364.311 35.2051C363.516 35.2051 362.807 35.0716 362.182 34.8047C361.563 34.5312 361.042 34.1536 360.619 33.6719C360.189 33.1901 359.864 32.6237 359.643 31.9727C359.421 31.3151 359.311 30.599 359.311 29.8242V29.6191ZM362.025 29.8242C362.025 30.2669 362.068 30.6836 362.152 31.0742C362.237 31.4583 362.37 31.7936 362.553 32.0801C362.735 32.373 362.969 32.6042 363.256 32.7734C363.549 32.9427 363.9 33.0273 364.311 33.0273C364.708 33.0273 365.049 32.9427 365.336 32.7734C365.622 32.6042 365.857 32.373 366.039 32.0801C366.215 31.7936 366.345 31.4583 366.43 31.0742C366.514 30.6836 366.557 30.2669 366.557 29.8242V29.6191C366.557 29.1895 366.514 28.7826 366.43 28.3984C366.345 28.0143 366.215 27.6758 366.039 27.3828C365.857 27.0898 365.622 26.8587 365.336 26.6895C365.049 26.5202 364.701 26.4355 364.291 26.4355C363.887 26.4355 363.542 26.5202 363.256 26.6895C362.969 26.8587 362.735 27.0898 362.553 27.3828C362.37 27.6758 362.237 28.0143 362.152 28.3984C362.068 28.7826 362.025 29.1895 362.025 29.6191V29.8242ZM378.588 35L378.432 33.5156C378.074 34.043 377.641 34.4564 377.133 34.7559C376.632 35.0553 376.081 35.2051 375.482 35.2051C374.936 35.2051 374.434 35.1204 373.979 34.9512C373.523 34.7819 373.132 34.5117 372.807 34.1406C372.481 33.776 372.227 33.3105 372.045 32.7441C371.869 32.1712 371.781 31.4844 371.781 30.6836V24.4336H374.496V30.7031C374.496 31.1328 374.525 31.4941 374.584 31.7871C374.649 32.0801 374.75 32.3145 374.887 32.4902C375.023 32.6725 375.202 32.8027 375.424 32.8809C375.645 32.959 375.915 32.998 376.234 32.998C376.521 32.998 376.778 32.9688 377.006 32.9102C377.24 32.8516 377.445 32.7669 377.621 32.6562C377.771 32.5586 377.904 32.4414 378.021 32.3047C378.139 32.168 378.24 32.015 378.324 31.8457V24.4336H381.049V35H378.588ZM383.432 29.6387C383.432 28.8379 383.529 28.1055 383.725 27.4414C383.926 26.7773 384.213 26.2077 384.584 25.7324C384.955 25.2572 385.404 24.8893 385.932 24.6289C386.459 24.3685 387.055 24.2383 387.719 24.2383C388.077 24.2383 388.402 24.2741 388.695 24.3457C388.995 24.4108 389.265 24.5117 389.506 24.6484C389.688 24.7461 389.857 24.8633 390.014 25C390.17 25.1302 390.313 25.2767 390.443 25.4395L390.551 24.4336H393.021V34.6582C393.021 35.3743 392.898 36.0124 392.65 36.5723C392.41 37.1322 392.071 37.6042 391.635 37.9883C391.192 38.3724 390.661 38.6621 390.043 38.8574C389.431 39.0592 388.754 39.1602 388.012 39.1602C387.693 39.1602 387.351 39.1276 386.986 39.0625C386.622 38.9974 386.26 38.8965 385.902 38.7598C385.544 38.623 385.206 38.4473 384.887 38.2324C384.568 38.0241 384.294 37.7734 384.066 37.4805L385.287 35.8301C385.463 36.0319 385.652 36.2077 385.854 36.3574C386.055 36.5137 386.267 36.6406 386.488 36.7383C386.703 36.8359 386.924 36.9076 387.152 36.9531C387.387 37.0052 387.628 37.0312 387.875 37.0312C388.272 37.0312 388.624 36.9759 388.93 36.8652C389.242 36.7546 389.503 36.5918 389.711 36.377C389.9 36.1816 390.043 35.9408 390.141 35.6543C390.245 35.3678 390.297 35.0456 390.297 34.6875V34.082C390.167 34.2253 390.03 34.3555 389.887 34.4727C389.743 34.5898 389.59 34.694 389.428 34.7852C389.187 34.9154 388.92 35.0163 388.627 35.0879C388.34 35.1595 388.031 35.1953 387.699 35.1953C387.042 35.1953 386.449 35.0618 385.922 34.7949C385.401 34.5215 384.955 34.1471 384.584 33.6719C384.213 33.1966 383.926 32.6335 383.725 31.9824C383.529 31.3249 383.432 30.612 383.432 29.8438V29.6387ZM386.156 29.8438C386.156 30.2865 386.199 30.6999 386.283 31.084C386.374 31.4616 386.511 31.7904 386.693 32.0703C386.876 32.3568 387.107 32.5814 387.387 32.7441C387.667 32.9069 387.999 32.9883 388.383 32.9883C388.617 32.9883 388.829 32.9655 389.018 32.9199C389.213 32.8743 389.389 32.8092 389.545 32.7246C389.708 32.6335 389.851 32.5228 389.975 32.3926C390.098 32.2624 390.206 32.1159 390.297 31.9531V27.4805C390.199 27.2982 390.082 27.1387 389.945 27.002C389.809 26.8652 389.652 26.7546 389.477 26.6699C389.327 26.5983 389.161 26.543 388.979 26.5039C388.803 26.4648 388.611 26.4453 388.402 26.4453C388.018 26.4453 387.686 26.5299 387.406 26.6992C387.126 26.862 386.895 27.0866 386.713 27.373C386.524 27.666 386.384 28.0078 386.293 28.3984C386.202 28.7826 386.156 29.196 386.156 29.6387V29.8438ZM398.432 25.8887C398.568 25.6868 398.718 25.5013 398.881 25.332C399.05 25.1562 399.226 25.0033 399.408 24.873C399.688 24.6712 399.997 24.515 400.336 24.4043C400.674 24.2936 401.033 24.2383 401.41 24.2383C401.964 24.2383 402.471 24.3229 402.934 24.4922C403.396 24.6549 403.793 24.9121 404.125 25.2637C404.457 25.6152 404.714 26.0677 404.896 26.6211C405.085 27.168 405.18 27.8288 405.18 28.6035V35H402.465V28.584C402.465 28.2064 402.416 27.8809 402.318 27.6074C402.227 27.334 402.094 27.1126 401.918 26.9434C401.742 26.7741 401.531 26.6504 401.283 26.5723C401.036 26.4876 400.756 26.4453 400.443 26.4453C400.202 26.4453 399.978 26.4681 399.77 26.5137C399.561 26.5592 399.372 26.6276 399.203 26.7188C399.047 26.7969 398.904 26.8913 398.773 27.002C398.65 27.1126 398.536 27.2363 398.432 27.373V35H395.717V20H398.432V25.8887ZM412.709 21.8457V24.4336H416.654V26.4355H412.709V30.9766C412.709 31.3607 412.751 31.6829 412.836 31.9434C412.927 32.1973 413.054 32.3991 413.217 32.5488C413.38 32.7051 413.575 32.8158 413.803 32.8809C414.037 32.946 414.298 32.9785 414.584 32.9785C414.792 32.9785 415.004 32.9688 415.219 32.9492C415.44 32.9297 415.652 32.9036 415.854 32.8711C416.049 32.8451 416.231 32.8158 416.4 32.7832C416.576 32.7507 416.726 32.7181 416.85 32.6855L417.113 34.5508C416.924 34.6615 416.703 34.7591 416.449 34.8438C416.195 34.9219 415.925 34.987 415.639 35.0391C415.352 35.0911 415.053 35.1302 414.74 35.1562C414.434 35.1888 414.132 35.2051 413.832 35.2051C413.253 35.2051 412.725 35.1302 412.25 34.9805C411.781 34.8242 411.381 34.5833 411.049 34.2578C410.71 33.9388 410.45 33.5319 410.268 33.0371C410.085 32.5358 409.994 31.9368 409.994 31.2402V26.4355H407.582V24.4336H409.994V21.8457H412.709ZM432.475 24.4336H438.227V32.793H441.088V35H432.475V32.793H435.482V26.6504H432.475V24.4336ZM435.287 21.7285C435.287 21.5202 435.323 21.3281 435.395 21.1523C435.473 20.9701 435.58 20.8138 435.717 20.6836C435.854 20.5599 436.016 20.4622 436.205 20.3906C436.4 20.319 436.615 20.2832 436.85 20.2832C437.331 20.2832 437.712 20.4199 437.992 20.6934C438.279 20.9603 438.422 21.3053 438.422 21.7285C438.422 22.1517 438.279 22.5 437.992 22.7734C437.712 23.0404 437.331 23.1738 436.85 23.1738C436.615 23.1738 436.4 23.138 436.205 23.0664C436.016 22.9948 435.854 22.8939 435.717 22.7637C435.58 22.64 435.473 22.4902 435.395 22.3145C435.323 22.1322 435.287 21.9368 435.287 21.7285ZM443.764 35V24.4336H446.225L446.391 25.8984C446.527 25.7031 446.677 25.5241 446.84 25.3613C447.003 25.1986 447.175 25.0521 447.357 24.9219C447.67 24.7005 448.012 24.5312 448.383 24.4141C448.754 24.2969 449.148 24.2383 449.564 24.2383C450.098 24.2383 450.587 24.3164 451.029 24.4727C451.472 24.6289 451.856 24.8763 452.182 25.2148C452.501 25.5599 452.748 26.0026 452.924 26.543C453.106 27.0768 453.197 27.7279 453.197 28.4961V35H450.482V28.5352C450.482 28.1185 450.434 27.7767 450.336 27.5098C450.245 27.2363 450.111 27.0215 449.936 26.8652C449.76 26.709 449.548 26.6016 449.301 26.543C449.053 26.4779 448.773 26.4453 448.461 26.4453C448.201 26.4453 447.96 26.4746 447.738 26.5332C447.523 26.5918 447.331 26.6797 447.162 26.7969C447.025 26.8815 446.902 26.9824 446.791 27.0996C446.68 27.2168 446.579 27.347 446.488 27.4902V35H443.764ZM472.768 21.8457V24.4336H476.713V26.4355H472.768V30.9766C472.768 31.3607 472.81 31.6829 472.895 31.9434C472.986 32.1973 473.113 32.3991 473.275 32.5488C473.438 32.7051 473.633 32.8158 473.861 32.8809C474.096 32.946 474.356 32.9785 474.643 32.9785C474.851 32.9785 475.062 32.9688 475.277 32.9492C475.499 32.9297 475.71 32.9036 475.912 32.8711C476.107 32.8451 476.29 32.8158 476.459 32.7832C476.635 32.7507 476.785 32.7181 476.908 32.6855L477.172 34.5508C476.983 34.6615 476.762 34.7591 476.508 34.8438C476.254 34.9219 475.984 34.987 475.697 35.0391C475.411 35.0911 475.111 35.1302 474.799 35.1562C474.493 35.1888 474.19 35.2051 473.891 35.2051C473.311 35.2051 472.784 35.1302 472.309 34.9805C471.84 34.8242 471.439 34.5833 471.107 34.2578C470.769 33.9388 470.508 33.5319 470.326 33.0371C470.144 32.5358 470.053 31.9368 470.053 31.2402V26.4355H467.641V24.4336H470.053V21.8457H472.768ZM482.514 25.8887C482.65 25.6868 482.8 25.5013 482.963 25.332C483.132 25.1562 483.308 25.0033 483.49 24.873C483.77 24.6712 484.079 24.515 484.418 24.4043C484.757 24.2936 485.115 24.2383 485.492 24.2383C486.046 24.2383 486.553 24.3229 487.016 24.4922C487.478 24.6549 487.875 24.9121 488.207 25.2637C488.539 25.6152 488.796 26.0677 488.979 26.6211C489.167 27.168 489.262 27.8288 489.262 28.6035V35H486.547V28.584C486.547 28.2064 486.498 27.8809 486.4 27.6074C486.309 27.334 486.176 27.1126 486 26.9434C485.824 26.7741 485.613 26.6504 485.365 26.5723C485.118 26.4876 484.838 26.4453 484.525 26.4453C484.285 26.4453 484.06 26.4681 483.852 26.5137C483.643 26.5592 483.454 26.6276 483.285 26.7188C483.129 26.7969 482.986 26.8913 482.855 27.002C482.732 27.1126 482.618 27.2363 482.514 27.373V35H479.799V20H482.514V25.8887ZM496.938 35.1953C496.124 35.1953 495.385 35.0618 494.721 34.7949C494.057 34.528 493.487 34.1634 493.012 33.7012C492.536 33.2454 492.169 32.7083 491.908 32.0898C491.654 31.4648 491.527 30.7975 491.527 30.0879V29.6973C491.527 28.89 491.654 28.1543 491.908 27.4902C492.162 26.8197 492.517 26.2435 492.973 25.7617C493.428 25.2799 493.969 24.9056 494.594 24.6387C495.219 24.3717 495.899 24.2383 496.635 24.2383C497.396 24.2383 498.074 24.3652 498.666 24.6191C499.265 24.8665 499.773 25.2181 500.189 25.6738C500.6 26.1296 500.912 26.6797 501.127 27.3242C501.342 27.9622 501.449 28.6686 501.449 29.4434V30.5957H494.281V30.625C494.372 31.0482 494.49 31.39 494.633 31.6504C494.776 31.9043 494.968 32.1354 495.209 32.3438C495.456 32.5586 495.74 32.7246 496.059 32.8418C496.378 32.959 496.726 33.0176 497.104 33.0176C497.637 33.0176 498.155 32.9167 498.656 32.7148C499.158 32.513 499.564 32.2103 499.877 31.8066L501.234 33.2715C500.889 33.7598 500.342 34.2025 499.594 34.5996C498.845 34.9967 497.96 35.1953 496.938 35.1953ZM496.615 26.4355C496.309 26.4355 496.029 26.4909 495.775 26.6016C495.521 26.7057 495.3 26.8587 495.111 27.0605C494.916 27.2624 494.753 27.5033 494.623 27.7832C494.493 28.0632 494.395 28.3757 494.33 28.7207H498.783V28.5059C498.783 28.2194 498.731 27.9492 498.627 27.6953C498.523 27.4414 498.38 27.2201 498.197 27.0312C498.015 26.849 497.79 26.7057 497.523 26.6016C497.263 26.4909 496.96 26.4355 496.615 26.4355ZM49.0664 50.4336L49.1445 51.7129C49.3464 51.2572 49.623 50.8991 49.9746 50.6387C50.3327 50.3717 50.7656 50.2383 51.2734 50.2383C51.5208 50.2383 51.7422 50.2676 51.9375 50.3262C52.1328 50.3848 52.3021 50.4759 52.4453 50.5996C52.556 50.6908 52.6504 50.8014 52.7285 50.9316C52.8132 51.0553 52.8848 51.1986 52.9434 51.3613C53.0345 51.2051 53.1354 51.0651 53.2461 50.9414C53.3633 50.8112 53.4902 50.7005 53.627 50.6094C53.7962 50.4922 53.9883 50.401 54.2031 50.3359C54.418 50.2708 54.6523 50.2383 54.9062 50.2383C55.2253 50.2383 55.5215 50.2969 55.7949 50.4141C56.0749 50.5312 56.319 50.7168 56.5273 50.9707C56.7292 51.2311 56.8854 51.5664 56.9961 51.9766C57.1133 52.3802 57.1719 52.875 57.1719 53.4609V61H54.7012V53.4512C54.7012 53.2493 54.6784 53.0833 54.6328 52.9531C54.5938 52.8229 54.5384 52.7188 54.4668 52.6406C54.3952 52.569 54.3105 52.5202 54.2129 52.4941C54.1217 52.4616 54.0273 52.4453 53.9297 52.4453C53.8255 52.4453 53.7311 52.4583 53.6465 52.4844C53.5684 52.5104 53.4935 52.5462 53.4219 52.5918C53.3633 52.6374 53.3112 52.6895 53.2656 52.748C53.2201 52.8001 53.181 52.862 53.1484 52.9336C53.1484 52.9466 53.1484 52.9759 53.1484 53.0215C53.1484 53.0671 53.1484 53.1289 53.1484 53.207V61H50.7559V53.4414C50.7559 53.2396 50.7363 53.0736 50.6973 52.9434C50.6582 52.8132 50.6061 52.7122 50.541 52.6406C50.4694 52.569 50.388 52.5202 50.2969 52.4941C50.2057 52.4616 50.1081 52.4453 50.0039 52.4453C49.8867 52.4453 49.7826 52.4648 49.6914 52.5039C49.6003 52.543 49.5189 52.5983 49.4473 52.6699C49.3952 52.722 49.3496 52.7839 49.3105 52.8555C49.2715 52.9271 49.2357 53.0052 49.2031 53.0898V61H46.7324V50.4336H49.0664ZM59.0176 55.6191C59.0176 54.8509 59.1283 54.1413 59.3496 53.4902C59.571 52.8327 59.8965 52.263 60.3262 51.7812C60.7493 51.2995 61.2669 50.9219 61.8789 50.6484C62.4974 50.375 63.2038 50.2383 63.998 50.2383C64.7923 50.2383 65.4987 50.375 66.1172 50.6484C66.7357 50.9219 67.2598 51.2995 67.6895 51.7812C68.1126 52.263 68.4349 52.8327 68.6562 53.4902C68.8776 54.1413 68.9883 54.8509 68.9883 55.6191V55.8242C68.9883 56.599 68.8776 57.3151 68.6562 57.9727C68.4349 58.6237 68.1126 59.1901 67.6895 59.6719C67.2663 60.1536 66.7454 60.5312 66.127 60.8047C65.5085 61.0716 64.8053 61.2051 64.0176 61.2051C63.2233 61.2051 62.5137 61.0716 61.8887 60.8047C61.2702 60.5312 60.7493 60.1536 60.3262 59.6719C59.8965 59.1901 59.571 58.6237 59.3496 57.9727C59.1283 57.3151 59.0176 56.599 59.0176 55.8242V55.6191ZM61.7324 55.8242C61.7324 56.2669 61.7747 56.6836 61.8594 57.0742C61.944 57.4583 62.0775 57.7936 62.2598 58.0801C62.4421 58.373 62.6764 58.6042 62.9629 58.7734C63.2559 58.9427 63.6074 59.0273 64.0176 59.0273C64.4147 59.0273 64.7565 58.9427 65.043 58.7734C65.3294 58.6042 65.5638 58.373 65.7461 58.0801C65.9219 57.7936 66.0521 57.4583 66.1367 57.0742C66.2214 56.6836 66.2637 56.2669 66.2637 55.8242V55.6191C66.2637 55.1895 66.2214 54.7826 66.1367 54.3984C66.0521 54.0143 65.9219 53.6758 65.7461 53.3828C65.5638 53.0898 65.3294 52.8587 65.043 52.6895C64.7565 52.5202 64.4082 52.4355 63.998 52.4355C63.5944 52.4355 63.2493 52.5202 62.9629 52.6895C62.6764 52.8587 62.4421 53.0898 62.2598 53.3828C62.0775 53.6758 61.944 54.0143 61.8594 54.3984C61.7747 54.7826 61.7324 55.1895 61.7324 55.6191V55.8242ZM78.9883 50.2383C79.3984 50.2383 79.776 50.2676 80.1211 50.3262C80.4727 50.3783 80.7559 50.4368 80.9707 50.502L80.5703 53.207C80.2122 53.1224 79.8444 53.0605 79.4668 53.0215C79.0957 52.9759 78.7409 52.9531 78.4023 52.9531C78.0508 52.9531 77.7318 52.9857 77.4453 53.0508C77.1654 53.1094 76.9147 53.2005 76.6934 53.3242C76.4264 53.4674 76.1986 53.6497 76.0098 53.8711C75.821 54.0924 75.6647 54.3529 75.541 54.6523V61H72.8262V50.4336H75.3555L75.4629 51.9277L75.4824 52.1621C75.9121 51.5632 76.4264 51.0944 77.0254 50.7559C77.6243 50.4108 78.2786 50.2383 78.9883 50.2383ZM83.4121 61V50.4336H85.873L86.0391 51.8984C86.1758 51.7031 86.3255 51.5241 86.4883 51.3613C86.651 51.1986 86.8236 51.0521 87.0059 50.9219C87.3184 50.7005 87.6602 50.5312 88.0312 50.4141C88.4023 50.2969 88.7962 50.2383 89.2129 50.2383C89.7467 50.2383 90.235 50.3164 90.6777 50.4727C91.1204 50.6289 91.5046 50.8763 91.8301 51.2148C92.1491 51.5599 92.3965 52.0026 92.5723 52.543C92.7546 53.0768 92.8457 53.7279 92.8457 54.4961V61H90.1309V54.5352C90.1309 54.1185 90.082 53.7767 89.9844 53.5098C89.8932 53.2363 89.7598 53.0215 89.584 52.8652C89.4082 52.709 89.1966 52.6016 88.9492 52.543C88.7018 52.4779 88.4219 52.4453 88.1094 52.4453C87.849 52.4453 87.6081 52.4746 87.3867 52.5332C87.1719 52.5918 86.9798 52.6797 86.8105 52.7969C86.6738 52.8815 86.5501 52.9824 86.4395 53.0996C86.3288 53.2168 86.2279 53.347 86.1367 53.4902V61H83.4121ZM96.1465 50.4336H101.898V58.793H104.76V61H96.1465V58.793H99.1543V52.6504H96.1465V50.4336ZM98.959 47.7285C98.959 47.5202 98.9948 47.3281 99.0664 47.1523C99.1445 46.9701 99.252 46.8138 99.3887 46.6836C99.5254 46.5599 99.6882 46.4622 99.877 46.3906C100.072 46.319 100.287 46.2832 100.521 46.2832C101.003 46.2832 101.384 46.4199 101.664 46.6934C101.951 46.9603 102.094 47.3053 102.094 47.7285C102.094 48.1517 101.951 48.5 101.664 48.7734C101.384 49.0404 101.003 49.1738 100.521 49.1738C100.287 49.1738 100.072 49.138 99.877 49.0664C99.6882 48.9948 99.5254 48.8939 99.3887 48.7637C99.252 48.64 99.1445 48.4902 99.0664 48.3145C98.9948 48.1322 98.959 47.9368 98.959 47.7285ZM107.436 61V50.4336H109.896L110.062 51.8984C110.199 51.7031 110.349 51.5241 110.512 51.3613C110.674 51.1986 110.847 51.0521 111.029 50.9219C111.342 50.7005 111.684 50.5312 112.055 50.4141C112.426 50.2969 112.82 50.2383 113.236 50.2383C113.77 50.2383 114.258 50.3164 114.701 50.4727C115.144 50.6289 115.528 50.8763 115.854 51.2148C116.173 51.5599 116.42 52.0026 116.596 52.543C116.778 53.0768 116.869 53.7279 116.869 54.4961V61H114.154V54.5352C114.154 54.1185 114.105 53.7767 114.008 53.5098C113.917 53.2363 113.783 53.0215 113.607 52.8652C113.432 52.709 113.22 52.6016 112.973 52.543C112.725 52.4779 112.445 52.4453 112.133 52.4453C111.872 52.4453 111.632 52.4746 111.41 52.5332C111.195 52.5918 111.003 52.6797 110.834 52.7969C110.697 52.8815 110.574 52.9824 110.463 53.0996C110.352 53.2168 110.251 53.347 110.16 53.4902V61H107.436ZM119.174 55.6387C119.174 54.8379 119.271 54.1055 119.467 53.4414C119.669 52.7773 119.955 52.2077 120.326 51.7324C120.697 51.2572 121.146 50.8893 121.674 50.6289C122.201 50.3685 122.797 50.2383 123.461 50.2383C123.819 50.2383 124.145 50.2741 124.438 50.3457C124.737 50.4108 125.007 50.5117 125.248 50.6484C125.43 50.7461 125.6 50.8633 125.756 51C125.912 51.1302 126.055 51.2767 126.186 51.4395L126.293 50.4336H128.764V60.6582C128.764 61.3743 128.64 62.0124 128.393 62.5723C128.152 63.1322 127.813 63.6042 127.377 63.9883C126.934 64.3724 126.404 64.6621 125.785 64.8574C125.173 65.0592 124.496 65.1602 123.754 65.1602C123.435 65.1602 123.093 65.1276 122.729 65.0625C122.364 64.9974 122.003 64.8965 121.645 64.7598C121.286 64.623 120.948 64.4473 120.629 64.2324C120.31 64.0241 120.036 63.7734 119.809 63.4805L121.029 61.8301C121.205 62.0319 121.394 62.2077 121.596 62.3574C121.798 62.5137 122.009 62.6406 122.23 62.7383C122.445 62.8359 122.667 62.9076 122.895 62.9531C123.129 63.0052 123.37 63.0312 123.617 63.0312C124.014 63.0312 124.366 62.9759 124.672 62.8652C124.984 62.7546 125.245 62.5918 125.453 62.377C125.642 62.1816 125.785 61.9408 125.883 61.6543C125.987 61.3678 126.039 61.0456 126.039 60.6875V60.082C125.909 60.2253 125.772 60.3555 125.629 60.4727C125.486 60.5898 125.333 60.694 125.17 60.7852C124.929 60.9154 124.662 61.0163 124.369 61.0879C124.083 61.1595 123.773 61.1953 123.441 61.1953C122.784 61.1953 122.191 61.0618 121.664 60.7949C121.143 60.5215 120.697 60.1471 120.326 59.6719C119.955 59.1966 119.669 58.6335 119.467 57.9824C119.271 57.3249 119.174 56.612 119.174 55.8438V55.6387ZM121.898 55.8438C121.898 56.2865 121.941 56.6999 122.025 57.084C122.117 57.4616 122.253 57.7904 122.436 58.0703C122.618 58.3568 122.849 58.5814 123.129 58.7441C123.409 58.9069 123.741 58.9883 124.125 58.9883C124.359 58.9883 124.571 58.9655 124.76 58.9199C124.955 58.8743 125.131 58.8092 125.287 58.7246C125.45 58.6335 125.593 58.5228 125.717 58.3926C125.84 58.2624 125.948 58.1159 126.039 57.9531V53.4805C125.941 53.2982 125.824 53.1387 125.688 53.002C125.551 52.8652 125.395 52.7546 125.219 52.6699C125.069 52.5983 124.903 52.543 124.721 52.5039C124.545 52.4648 124.353 52.4453 124.145 52.4453C123.76 52.4453 123.428 52.5299 123.148 52.6992C122.868 52.862 122.637 53.0866 122.455 53.373C122.266 53.666 122.126 54.0078 122.035 54.3984C121.944 54.7826 121.898 55.196 121.898 55.6387V55.8438ZM148.148 59.0273C148.415 59.0273 148.669 58.9883 148.91 58.9102C149.151 58.832 149.363 58.7214 149.545 58.5781C149.727 58.4349 149.867 58.2624 149.965 58.0605C150.069 57.8587 150.115 57.6341 150.102 57.3867H152.66C152.673 57.9336 152.559 58.4414 152.318 58.9102C152.084 59.3789 151.762 59.7826 151.352 60.1211C150.941 60.4596 150.463 60.7266 149.916 60.9219C149.376 61.1107 148.803 61.2051 148.197 61.2051C147.377 61.2051 146.658 61.0684 146.039 60.7949C145.421 60.515 144.906 60.1341 144.496 59.6523C144.079 59.1706 143.764 58.6074 143.549 57.9629C143.34 57.3118 143.236 56.6152 143.236 55.873V55.5801C143.236 54.8379 143.34 54.1445 143.549 53.5C143.757 52.849 144.07 52.2826 144.486 51.8008C144.903 51.319 145.417 50.9382 146.029 50.6582C146.648 50.3783 147.364 50.2383 148.178 50.2383C148.829 50.2383 149.431 50.3359 149.984 50.5312C150.538 50.7266 151.016 51 151.42 51.3516C151.817 51.7096 152.126 52.1426 152.348 52.6504C152.569 53.1517 152.673 53.7148 152.66 54.3398H150.102C150.115 54.0794 150.076 53.832 149.984 53.5977C149.893 53.3633 149.76 53.1615 149.584 52.9922C149.408 52.8229 149.197 52.6895 148.949 52.5918C148.702 52.4876 148.432 52.4355 148.139 52.4355C147.709 52.4355 147.354 52.5234 147.074 52.6992C146.794 52.875 146.573 53.1094 146.41 53.4023C146.241 53.6953 146.12 54.0306 146.049 54.4082C145.984 54.7858 145.951 55.1764 145.951 55.5801V55.873C145.951 56.2832 145.984 56.6803 146.049 57.0645C146.114 57.4421 146.231 57.7741 146.4 58.0605C146.563 58.3535 146.785 58.5879 147.064 58.7637C147.351 58.9395 147.712 59.0273 148.148 59.0273ZM162.084 61C162.019 60.8698 161.964 60.7201 161.918 60.5508C161.872 60.3815 161.833 60.2025 161.801 60.0137C161.651 60.1764 161.479 60.3294 161.283 60.4727C161.088 60.6159 160.873 60.7396 160.639 60.8438C160.398 60.9544 160.134 61.0391 159.848 61.0977C159.561 61.1628 159.252 61.1953 158.92 61.1953C158.38 61.1953 157.882 61.1172 157.426 60.9609C156.977 60.8047 156.589 60.5866 156.264 60.3066C155.938 60.0267 155.684 59.6947 155.502 59.3105C155.32 58.9199 155.229 58.4967 155.229 58.041C155.229 57.4551 155.342 56.9375 155.57 56.4883C155.798 56.0326 156.14 55.6582 156.596 55.3652C157.006 55.0983 157.51 54.8965 158.109 54.7598C158.715 54.6165 159.408 54.5449 160.189 54.5449H161.703V53.9199C161.703 53.6725 161.664 53.4512 161.586 53.2559C161.508 53.054 161.391 52.8815 161.234 52.7383C161.072 52.5885 160.867 52.4746 160.619 52.3965C160.378 52.3118 160.095 52.2695 159.77 52.2695C159.483 52.2695 159.236 52.3053 159.027 52.377C158.819 52.4421 158.65 52.5365 158.52 52.6602C158.402 52.7708 158.314 52.9043 158.256 53.0605C158.204 53.2168 158.178 53.3893 158.178 53.5781H155.463C155.463 53.1289 155.561 52.7025 155.756 52.2988C155.958 51.8952 156.251 51.5404 156.635 51.2344C157.012 50.9284 157.475 50.6875 158.021 50.5117C158.575 50.3294 159.206 50.2383 159.916 50.2383C160.554 50.2383 161.146 50.3164 161.693 50.4727C162.247 50.6289 162.725 50.86 163.129 51.166C163.533 51.472 163.848 51.8594 164.076 52.3281C164.304 52.7904 164.418 53.3275 164.418 53.9395V58.4707C164.418 59.0371 164.454 59.5059 164.525 59.877C164.597 60.248 164.701 60.5671 164.838 60.834V61H162.084ZM159.496 59.0957C159.77 59.0957 160.023 59.0632 160.258 58.998C160.492 58.9329 160.704 58.8483 160.893 58.7441C161.081 58.64 161.244 58.5228 161.381 58.3926C161.518 58.2559 161.625 58.1191 161.703 57.9824V56.166H160.316C159.893 56.166 159.532 56.2083 159.232 56.293C158.933 56.3711 158.689 56.4818 158.5 56.625C158.311 56.7747 158.171 56.9538 158.08 57.1621C157.989 57.3639 157.943 57.5853 157.943 57.8262C157.943 58.015 157.976 58.1908 158.041 58.3535C158.113 58.5098 158.214 58.6432 158.344 58.7539C158.474 58.8581 158.633 58.9427 158.822 59.0078C159.018 59.0664 159.242 59.0957 159.496 59.0957ZM167.494 61V50.4336H169.955L170.121 51.8984C170.258 51.7031 170.408 51.5241 170.57 51.3613C170.733 51.1986 170.906 51.0521 171.088 50.9219C171.4 50.7005 171.742 50.5312 172.113 50.4141C172.484 50.2969 172.878 50.2383 173.295 50.2383C173.829 50.2383 174.317 50.3164 174.76 50.4727C175.202 50.6289 175.587 50.8763 175.912 51.2148C176.231 51.5599 176.479 52.0026 176.654 52.543C176.837 53.0768 176.928 53.7279 176.928 54.4961V61H174.213V54.5352C174.213 54.1185 174.164 53.7767 174.066 53.5098C173.975 53.2363 173.842 53.0215 173.666 52.8652C173.49 52.709 173.279 52.6016 173.031 52.543C172.784 52.4779 172.504 52.4453 172.191 52.4453C171.931 52.4453 171.69 52.4746 171.469 52.5332C171.254 52.5918 171.062 52.6797 170.893 52.7969C170.756 52.8815 170.632 52.9824 170.521 53.0996C170.411 53.2168 170.31 53.347 170.219 53.4902V61H167.494ZM196.195 59.0273C196.462 59.0273 196.716 58.9883 196.957 58.9102C197.198 58.832 197.41 58.7214 197.592 58.5781C197.774 58.4349 197.914 58.2624 198.012 58.0605C198.116 57.8587 198.161 57.6341 198.148 57.3867H200.707C200.72 57.9336 200.606 58.4414 200.365 58.9102C200.131 59.3789 199.809 59.7826 199.398 60.1211C198.988 60.4596 198.51 60.7266 197.963 60.9219C197.423 61.1107 196.85 61.2051 196.244 61.2051C195.424 61.2051 194.704 61.0684 194.086 60.7949C193.467 60.515 192.953 60.1341 192.543 59.6523C192.126 59.1706 191.811 58.6074 191.596 57.9629C191.387 57.3118 191.283 56.6152 191.283 55.873V55.5801C191.283 54.8379 191.387 54.1445 191.596 53.5C191.804 52.849 192.117 52.2826 192.533 51.8008C192.95 51.319 193.464 50.9382 194.076 50.6582C194.695 50.3783 195.411 50.2383 196.225 50.2383C196.876 50.2383 197.478 50.3359 198.031 50.5312C198.585 50.7266 199.063 51 199.467 51.3516C199.864 51.7096 200.173 52.1426 200.395 52.6504C200.616 53.1517 200.72 53.7148 200.707 54.3398H198.148C198.161 54.0794 198.122 53.832 198.031 53.5977C197.94 53.3633 197.807 53.1615 197.631 52.9922C197.455 52.8229 197.243 52.6895 196.996 52.5918C196.749 52.4876 196.479 52.4355 196.186 52.4355C195.756 52.4355 195.401 52.5234 195.121 52.6992C194.841 52.875 194.62 53.1094 194.457 53.4023C194.288 53.6953 194.167 54.0306 194.096 54.4082C194.031 54.7858 193.998 55.1764 193.998 55.5801V55.873C193.998 56.2832 194.031 56.6803 194.096 57.0645C194.161 57.4421 194.278 57.7741 194.447 58.0605C194.61 58.3535 194.831 58.5879 195.111 58.7637C195.398 58.9395 195.759 59.0273 196.195 59.0273ZM206.244 51.8887C206.381 51.6868 206.531 51.5013 206.693 51.332C206.863 51.1562 207.038 51.0033 207.221 50.873C207.501 50.6712 207.81 50.515 208.148 50.4043C208.487 50.2936 208.845 50.2383 209.223 50.2383C209.776 50.2383 210.284 50.3229 210.746 50.4922C211.208 50.6549 211.605 50.9121 211.938 51.2637C212.27 51.6152 212.527 52.0677 212.709 52.6211C212.898 53.168 212.992 53.8288 212.992 54.6035V61H210.277V54.584C210.277 54.2064 210.229 53.8809 210.131 53.6074C210.04 53.334 209.906 53.1126 209.73 52.9434C209.555 52.7741 209.343 52.6504 209.096 52.5723C208.848 52.4876 208.568 52.4453 208.256 52.4453C208.015 52.4453 207.79 52.4681 207.582 52.5137C207.374 52.5592 207.185 52.6276 207.016 52.7188C206.859 52.7969 206.716 52.8913 206.586 53.002C206.462 53.1126 206.348 53.2363 206.244 53.373V61H203.529V46H206.244V51.8887ZM222.143 61C222.077 60.8698 222.022 60.7201 221.977 60.5508C221.931 60.3815 221.892 60.2025 221.859 60.0137C221.71 60.1764 221.537 60.3294 221.342 60.4727C221.146 60.6159 220.932 60.7396 220.697 60.8438C220.456 60.9544 220.193 61.0391 219.906 61.0977C219.62 61.1628 219.311 61.1953 218.979 61.1953C218.438 61.1953 217.94 61.1172 217.484 60.9609C217.035 60.8047 216.648 60.5866 216.322 60.3066C215.997 60.0267 215.743 59.6947 215.561 59.3105C215.378 58.9199 215.287 58.4967 215.287 58.041C215.287 57.4551 215.401 56.9375 215.629 56.4883C215.857 56.0326 216.199 55.6582 216.654 55.3652C217.064 55.0983 217.569 54.8965 218.168 54.7598C218.773 54.6165 219.467 54.5449 220.248 54.5449H221.762V53.9199C221.762 53.6725 221.723 53.4512 221.645 53.2559C221.566 53.054 221.449 52.8815 221.293 52.7383C221.13 52.5885 220.925 52.4746 220.678 52.3965C220.437 52.3118 220.154 52.2695 219.828 52.2695C219.542 52.2695 219.294 52.3053 219.086 52.377C218.878 52.4421 218.708 52.5365 218.578 52.6602C218.461 52.7708 218.373 52.9043 218.314 53.0605C218.262 53.2168 218.236 53.3893 218.236 53.5781H215.521C215.521 53.1289 215.619 52.7025 215.814 52.2988C216.016 51.8952 216.309 51.5404 216.693 51.2344C217.071 50.9284 217.533 50.6875 218.08 50.5117C218.633 50.3294 219.265 50.2383 219.975 50.2383C220.613 50.2383 221.205 50.3164 221.752 50.4727C222.305 50.6289 222.784 50.86 223.188 51.166C223.591 51.472 223.907 51.8594 224.135 52.3281C224.363 52.7904 224.477 53.3275 224.477 53.9395V58.4707C224.477 59.0371 224.512 59.5059 224.584 59.877C224.656 60.248 224.76 60.5671 224.896 60.834V61H222.143ZM219.555 59.0957C219.828 59.0957 220.082 59.0632 220.316 58.998C220.551 58.9329 220.762 58.8483 220.951 58.7441C221.14 58.64 221.303 58.5228 221.439 58.3926C221.576 58.2559 221.684 58.1191 221.762 57.9824V56.166H220.375C219.952 56.166 219.59 56.2083 219.291 56.293C218.992 56.3711 218.747 56.4818 218.559 56.625C218.37 56.7747 218.23 56.9538 218.139 57.1621C218.048 57.3639 218.002 57.5853 218.002 57.8262C218.002 58.015 218.035 58.1908 218.1 58.3535C218.171 58.5098 218.272 58.6432 218.402 58.7539C218.533 58.8581 218.692 58.9427 218.881 59.0078C219.076 59.0664 219.301 59.0957 219.555 59.0957ZM227.553 61V50.4336H230.014L230.18 51.8984C230.316 51.7031 230.466 51.5241 230.629 51.3613C230.792 51.1986 230.964 51.0521 231.146 50.9219C231.459 50.7005 231.801 50.5312 232.172 50.4141C232.543 50.2969 232.937 50.2383 233.354 50.2383C233.887 50.2383 234.376 50.3164 234.818 50.4727C235.261 50.6289 235.645 50.8763 235.971 51.2148C236.29 51.5599 236.537 52.0026 236.713 52.543C236.895 53.0768 236.986 53.7279 236.986 54.4961V61H234.271V54.5352C234.271 54.1185 234.223 53.7767 234.125 53.5098C234.034 53.2363 233.9 53.0215 233.725 52.8652C233.549 52.709 233.337 52.6016 233.09 52.543C232.842 52.4779 232.562 52.4453 232.25 52.4453C231.99 52.4453 231.749 52.4746 231.527 52.5332C231.312 52.5918 231.12 52.6797 230.951 52.7969C230.814 52.8815 230.691 52.9824 230.58 53.0996C230.469 53.2168 230.368 53.347 230.277 53.4902V61H227.553ZM239.291 55.6387C239.291 54.8379 239.389 54.1055 239.584 53.4414C239.786 52.7773 240.072 52.2077 240.443 51.7324C240.814 51.2572 241.264 50.8893 241.791 50.6289C242.318 50.3685 242.914 50.2383 243.578 50.2383C243.936 50.2383 244.262 50.2741 244.555 50.3457C244.854 50.4108 245.124 50.5117 245.365 50.6484C245.548 50.7461 245.717 50.8633 245.873 51C246.029 51.1302 246.173 51.2767 246.303 51.4395L246.41 50.4336H248.881V60.6582C248.881 61.3743 248.757 62.0124 248.51 62.5723C248.269 63.1322 247.93 63.6042 247.494 63.9883C247.051 64.3724 246.521 64.6621 245.902 64.8574C245.29 65.0592 244.613 65.1602 243.871 65.1602C243.552 65.1602 243.21 65.1276 242.846 65.0625C242.481 64.9974 242.12 64.8965 241.762 64.7598C241.404 64.623 241.065 64.4473 240.746 64.2324C240.427 64.0241 240.154 63.7734 239.926 63.4805L241.146 61.8301C241.322 62.0319 241.511 62.2077 241.713 62.3574C241.915 62.5137 242.126 62.6406 242.348 62.7383C242.562 62.8359 242.784 62.9076 243.012 62.9531C243.246 63.0052 243.487 63.0312 243.734 63.0312C244.132 63.0312 244.483 62.9759 244.789 62.8652C245.102 62.7546 245.362 62.5918 245.57 62.377C245.759 62.1816 245.902 61.9408 246 61.6543C246.104 61.3678 246.156 61.0456 246.156 60.6875V60.082C246.026 60.2253 245.889 60.3555 245.746 60.4727C245.603 60.5898 245.45 60.694 245.287 60.7852C245.046 60.9154 244.779 61.0163 244.486 61.0879C244.2 61.1595 243.891 61.1953 243.559 61.1953C242.901 61.1953 242.309 61.0618 241.781 60.7949C241.26 60.5215 240.814 60.1471 240.443 59.6719C240.072 59.1966 239.786 58.6335 239.584 57.9824C239.389 57.3249 239.291 56.612 239.291 55.8438V55.6387ZM242.016 55.8438C242.016 56.2865 242.058 56.6999 242.143 57.084C242.234 57.4616 242.37 57.7904 242.553 58.0703C242.735 58.3568 242.966 58.5814 243.246 58.7441C243.526 58.9069 243.858 58.9883 244.242 58.9883C244.477 58.9883 244.688 58.9655 244.877 58.9199C245.072 58.8743 245.248 58.8092 245.404 58.7246C245.567 58.6335 245.71 58.5228 245.834 58.3926C245.958 58.2624 246.065 58.1159 246.156 57.9531V53.4805C246.059 53.2982 245.941 53.1387 245.805 53.002C245.668 52.8652 245.512 52.7546 245.336 52.6699C245.186 52.5983 245.02 52.543 244.838 52.5039C244.662 52.4648 244.47 52.4453 244.262 52.4453C243.878 52.4453 243.546 52.5299 243.266 52.6992C242.986 52.862 242.755 53.0866 242.572 53.373C242.383 53.666 242.243 54.0078 242.152 54.3984C242.061 54.7826 242.016 55.196 242.016 55.6387V55.8438ZM256.703 61.1953C255.889 61.1953 255.15 61.0618 254.486 60.7949C253.822 60.528 253.253 60.1634 252.777 59.7012C252.302 59.2454 251.934 58.7083 251.674 58.0898C251.42 57.4648 251.293 56.7975 251.293 56.0879V55.6973C251.293 54.89 251.42 54.1543 251.674 53.4902C251.928 52.8197 252.283 52.2435 252.738 51.7617C253.194 51.2799 253.734 50.9056 254.359 50.6387C254.984 50.3717 255.665 50.2383 256.4 50.2383C257.162 50.2383 257.839 50.3652 258.432 50.6191C259.031 50.8665 259.538 51.2181 259.955 51.6738C260.365 52.1296 260.678 52.6797 260.893 53.3242C261.107 53.9622 261.215 54.6686 261.215 55.4434V56.5957H254.047V56.625C254.138 57.0482 254.255 57.39 254.398 57.6504C254.542 57.9043 254.734 58.1354 254.975 58.3438C255.222 58.5586 255.505 58.7246 255.824 58.8418C256.143 58.959 256.492 59.0176 256.869 59.0176C257.403 59.0176 257.921 58.9167 258.422 58.7148C258.923 58.513 259.33 58.2103 259.643 57.8066L261 59.2715C260.655 59.7598 260.108 60.2025 259.359 60.5996C258.611 60.9967 257.725 61.1953 256.703 61.1953ZM256.381 52.4355C256.075 52.4355 255.795 52.4909 255.541 52.6016C255.287 52.7057 255.066 52.8587 254.877 53.0605C254.682 53.2624 254.519 53.5033 254.389 53.7832C254.258 54.0632 254.161 54.3757 254.096 54.7207H258.549V54.5059C258.549 54.2194 258.497 53.9492 258.393 53.6953C258.288 53.4414 258.145 53.2201 257.963 53.0312C257.781 52.849 257.556 52.7057 257.289 52.6016C257.029 52.4909 256.726 52.4355 256.381 52.4355ZM277.27 65.2676C277.009 65.2676 276.781 65.2513 276.586 65.2188C276.397 65.1862 276.186 65.1374 275.951 65.0723L276.283 63.002C276.394 63.002 276.534 63.0052 276.703 63.0117C276.879 63.0247 277.019 63.0312 277.123 63.0312C277.338 63.0312 277.527 62.9629 277.689 62.8262C277.859 62.696 278.002 62.5527 278.119 62.3965C278.236 62.2402 278.321 62.123 278.373 62.0449C278.432 61.9668 278.5 61.8561 278.578 61.7129L279.203 60.5508L274.73 50.4336H277.699L280.121 56.625L280.414 57.6992L280.814 56.6445L283.227 50.4336H286.225L280.863 62.582C280.746 62.849 280.593 63.1387 280.404 63.4512C280.222 63.7637 279.991 64.0534 279.711 64.3203C279.431 64.5872 279.089 64.8118 278.686 64.9941C278.288 65.1764 277.816 65.2676 277.27 65.2676ZM287.24 55.6191C287.24 54.8509 287.351 54.1413 287.572 53.4902C287.794 52.8327 288.119 52.263 288.549 51.7812C288.972 51.2995 289.49 50.9219 290.102 50.6484C290.72 50.375 291.426 50.2383 292.221 50.2383C293.015 50.2383 293.721 50.375 294.34 50.6484C294.958 50.9219 295.482 51.2995 295.912 51.7812C296.335 52.263 296.658 52.8327 296.879 53.4902C297.1 54.1413 297.211 54.8509 297.211 55.6191V55.8242C297.211 56.599 297.1 57.3151 296.879 57.9727C296.658 58.6237 296.335 59.1901 295.912 59.6719C295.489 60.1536 294.968 60.5312 294.35 60.8047C293.731 61.0716 293.028 61.2051 292.24 61.2051C291.446 61.2051 290.736 61.0716 290.111 60.8047C289.493 60.5312 288.972 60.1536 288.549 59.6719C288.119 59.1901 287.794 58.6237 287.572 57.9727C287.351 57.3151 287.24 56.599 287.24 55.8242V55.6191ZM289.955 55.8242C289.955 56.2669 289.997 56.6836 290.082 57.0742C290.167 57.4583 290.3 57.7936 290.482 58.0801C290.665 58.373 290.899 58.6042 291.186 58.7734C291.479 58.9427 291.83 59.0273 292.24 59.0273C292.637 59.0273 292.979 58.9427 293.266 58.7734C293.552 58.6042 293.786 58.373 293.969 58.0801C294.145 57.7936 294.275 57.4583 294.359 57.0742C294.444 56.6836 294.486 56.2669 294.486 55.8242V55.6191C294.486 55.1895 294.444 54.7826 294.359 54.3984C294.275 54.0143 294.145 53.6758 293.969 53.3828C293.786 53.0898 293.552 52.8587 293.266 52.6895C292.979 52.5202 292.631 52.4355 292.221 52.4355C291.817 52.4355 291.472 52.5202 291.186 52.6895C290.899 52.8587 290.665 53.0898 290.482 53.3828C290.3 53.6758 290.167 54.0143 290.082 54.3984C289.997 54.7826 289.955 55.1895 289.955 55.6191V55.8242ZM306.518 61L306.361 59.5156C306.003 60.043 305.57 60.4564 305.062 60.7559C304.561 61.0553 304.011 61.2051 303.412 61.2051C302.865 61.2051 302.364 61.1204 301.908 60.9512C301.452 60.7819 301.062 60.5117 300.736 60.1406C300.411 59.776 300.157 59.3105 299.975 58.7441C299.799 58.1712 299.711 57.4844 299.711 56.6836V50.4336H302.426V56.7031C302.426 57.1328 302.455 57.4941 302.514 57.7871C302.579 58.0801 302.68 58.3145 302.816 58.4902C302.953 58.6725 303.132 58.8027 303.354 58.8809C303.575 58.959 303.845 58.998 304.164 58.998C304.451 58.998 304.708 58.9688 304.936 58.9102C305.17 58.8516 305.375 58.7669 305.551 58.6562C305.701 58.5586 305.834 58.4414 305.951 58.3047C306.068 58.168 306.169 58.015 306.254 57.8457V50.4336H308.979V61H306.518ZM319.223 50.2383C319.633 50.2383 320.01 50.2676 320.355 50.3262C320.707 50.3783 320.99 50.4368 321.205 50.502L320.805 53.207C320.447 53.1224 320.079 53.0605 319.701 53.0215C319.33 52.9759 318.975 52.9531 318.637 52.9531C318.285 52.9531 317.966 52.9857 317.68 53.0508C317.4 53.1094 317.149 53.2005 316.928 53.3242C316.661 53.4674 316.433 53.6497 316.244 53.8711C316.055 54.0924 315.899 54.3529 315.775 54.6523V61H313.061V50.4336H315.59L315.697 51.9277L315.717 52.1621C316.146 51.5632 316.661 51.0944 317.26 50.7559C317.859 50.4108 318.513 50.2383 319.223 50.2383ZM336.439 61L334.545 50.4336H337.025L337.816 56.7129L337.943 57.7188L338.129 56.7129L339.271 50.4336H341.088L342.23 56.6836L342.416 57.6895L342.553 56.6641L343.334 50.4336H345.824L343.93 61H341.547L340.385 55.3555L340.16 54.2812L339.945 55.3555L338.822 61H336.439ZM350.385 51.8887C350.521 51.6868 350.671 51.5013 350.834 51.332C351.003 51.1562 351.179 51.0033 351.361 50.873C351.641 50.6712 351.951 50.515 352.289 50.4043C352.628 50.2936 352.986 50.2383 353.363 50.2383C353.917 50.2383 354.424 50.3229 354.887 50.4922C355.349 50.6549 355.746 50.9121 356.078 51.2637C356.41 51.6152 356.667 52.0677 356.85 52.6211C357.038 53.168 357.133 53.8288 357.133 54.6035V61H354.418V54.584C354.418 54.2064 354.369 53.8809 354.271 53.6074C354.18 53.334 354.047 53.1126 353.871 52.9434C353.695 52.7741 353.484 52.6504 353.236 52.5723C352.989 52.4876 352.709 52.4453 352.396 52.4453C352.156 52.4453 351.931 52.4681 351.723 52.5137C351.514 52.5592 351.326 52.6276 351.156 52.7188C351 52.7969 350.857 52.8913 350.727 53.002C350.603 53.1126 350.489 53.2363 350.385 53.373V61H347.67V46H350.385V51.8887ZM359.311 55.6191C359.311 54.8509 359.421 54.1413 359.643 53.4902C359.864 52.8327 360.189 52.263 360.619 51.7812C361.042 51.2995 361.56 50.9219 362.172 50.6484C362.79 50.375 363.497 50.2383 364.291 50.2383C365.085 50.2383 365.792 50.375 366.41 50.6484C367.029 50.9219 367.553 51.2995 367.982 51.7812C368.406 52.263 368.728 52.8327 368.949 53.4902C369.171 54.1413 369.281 54.8509 369.281 55.6191V55.8242C369.281 56.599 369.171 57.3151 368.949 57.9727C368.728 58.6237 368.406 59.1901 367.982 59.6719C367.559 60.1536 367.038 60.5312 366.42 60.8047C365.801 61.0716 365.098 61.2051 364.311 61.2051C363.516 61.2051 362.807 61.0716 362.182 60.8047C361.563 60.5312 361.042 60.1536 360.619 59.6719C360.189 59.1901 359.864 58.6237 359.643 57.9727C359.421 57.3151 359.311 56.599 359.311 55.8242V55.6191ZM362.025 55.8242C362.025 56.2669 362.068 56.6836 362.152 57.0742C362.237 57.4583 362.37 57.7936 362.553 58.0801C362.735 58.373 362.969 58.6042 363.256 58.7734C363.549 58.9427 363.9 59.0273 364.311 59.0273C364.708 59.0273 365.049 58.9427 365.336 58.7734C365.622 58.6042 365.857 58.373 366.039 58.0801C366.215 57.7936 366.345 57.4583 366.43 57.0742C366.514 56.6836 366.557 56.2669 366.557 55.8242V55.6191C366.557 55.1895 366.514 54.7826 366.43 54.3984C366.345 54.0143 366.215 53.6758 366.039 53.3828C365.857 53.0898 365.622 52.8587 365.336 52.6895C365.049 52.5202 364.701 52.4355 364.291 52.4355C363.887 52.4355 363.542 52.5202 363.256 52.6895C362.969 52.8587 362.735 53.0898 362.553 53.3828C362.37 53.6758 362.237 54.0143 362.152 54.3984C362.068 54.7826 362.025 55.1895 362.025 55.6191V55.8242ZM372.26 46H378.168V58.793H381.195V61H372.26V58.793H375.424V48.2168H372.26V46ZM388.832 61.1953C388.018 61.1953 387.279 61.0618 386.615 60.7949C385.951 60.528 385.382 60.1634 384.906 59.7012C384.431 59.2454 384.063 58.7083 383.803 58.0898C383.549 57.4648 383.422 56.7975 383.422 56.0879V55.6973C383.422 54.89 383.549 54.1543 383.803 53.4902C384.057 52.8197 384.411 52.2435 384.867 51.7617C385.323 51.2799 385.863 50.9056 386.488 50.6387C387.113 50.3717 387.794 50.2383 388.529 50.2383C389.291 50.2383 389.968 50.3652 390.561 50.6191C391.16 50.8665 391.667 51.2181 392.084 51.6738C392.494 52.1296 392.807 52.6797 393.021 53.3242C393.236 53.9622 393.344 54.6686 393.344 55.4434V56.5957H386.176V56.625C386.267 57.0482 386.384 57.39 386.527 57.6504C386.671 57.9043 386.863 58.1354 387.104 58.3438C387.351 58.5586 387.634 58.7246 387.953 58.8418C388.272 58.959 388.62 59.0176 388.998 59.0176C389.532 59.0176 390.049 58.9167 390.551 58.7148C391.052 58.513 391.459 58.2103 391.771 57.8066L393.129 59.2715C392.784 59.7598 392.237 60.2025 391.488 60.5996C390.74 60.9967 389.854 61.1953 388.832 61.1953ZM388.51 52.4355C388.204 52.4355 387.924 52.4909 387.67 52.6016C387.416 52.7057 387.195 52.8587 387.006 53.0605C386.811 53.2624 386.648 53.5033 386.518 53.7832C386.387 54.0632 386.29 54.3757 386.225 54.7207H390.678V54.5059C390.678 54.2194 390.626 53.9492 390.521 53.6953C390.417 53.4414 390.274 53.2201 390.092 53.0312C389.91 52.849 389.685 52.7057 389.418 52.6016C389.158 52.4909 388.855 52.4355 388.51 52.4355ZM407.445 55.6387C407.445 54.8379 407.536 54.1055 407.719 53.4414C407.908 52.7773 408.181 52.2077 408.539 51.7324C408.897 51.2572 409.33 50.8893 409.838 50.6289C410.352 50.3685 410.938 50.2383 411.596 50.2383C412.149 50.2383 412.634 50.3392 413.051 50.541C413.474 50.7363 413.848 51.0163 414.174 51.3809V46H416.898V61H414.447L414.311 59.8965C413.979 60.3066 413.588 60.6257 413.139 60.8535C412.689 61.0814 412.169 61.1953 411.576 61.1953C410.932 61.1953 410.352 61.0618 409.838 60.7949C409.33 60.5215 408.9 60.1471 408.549 59.6719C408.191 59.1966 407.917 58.6335 407.729 57.9824C407.54 57.3249 407.445 56.612 407.445 55.8438V55.6387ZM410.16 55.8438C410.16 56.2865 410.196 56.6999 410.268 57.084C410.346 57.4616 410.469 57.7904 410.639 58.0703C410.808 58.3568 411.026 58.5814 411.293 58.7441C411.56 58.9069 411.885 58.9883 412.27 58.9883C412.738 58.9883 413.126 58.8874 413.432 58.6855C413.744 58.4837 413.992 58.207 414.174 57.8555V53.5781C413.992 53.2201 413.747 52.9434 413.441 52.748C413.135 52.5462 412.751 52.4453 412.289 52.4453C411.905 52.4453 411.576 52.5299 411.303 52.6992C411.036 52.862 410.818 53.0866 410.648 53.373C410.479 53.666 410.355 54.0078 410.277 54.3984C410.199 54.7826 410.16 55.196 410.16 55.6387V55.8438ZM426.342 61C426.277 60.8698 426.221 60.7201 426.176 60.5508C426.13 60.3815 426.091 60.2025 426.059 60.0137C425.909 60.1764 425.736 60.3294 425.541 60.4727C425.346 60.6159 425.131 60.7396 424.896 60.8438C424.656 60.9544 424.392 61.0391 424.105 61.0977C423.819 61.1628 423.51 61.1953 423.178 61.1953C422.637 61.1953 422.139 61.1172 421.684 60.9609C421.234 60.8047 420.847 60.5866 420.521 60.3066C420.196 60.0267 419.942 59.6947 419.76 59.3105C419.577 58.9199 419.486 58.4967 419.486 58.041C419.486 57.4551 419.6 56.9375 419.828 56.4883C420.056 56.0326 420.398 55.6582 420.854 55.3652C421.264 55.0983 421.768 54.8965 422.367 54.7598C422.973 54.6165 423.666 54.5449 424.447 54.5449H425.961V53.9199C425.961 53.6725 425.922 53.4512 425.844 53.2559C425.766 53.054 425.648 52.8815 425.492 52.7383C425.329 52.5885 425.124 52.4746 424.877 52.3965C424.636 52.3118 424.353 52.2695 424.027 52.2695C423.741 52.2695 423.493 52.3053 423.285 52.377C423.077 52.4421 422.908 52.5365 422.777 52.6602C422.66 52.7708 422.572 52.9043 422.514 53.0605C422.462 53.2168 422.436 53.3893 422.436 53.5781H419.721C419.721 53.1289 419.818 52.7025 420.014 52.2988C420.215 51.8952 420.508 51.5404 420.893 51.2344C421.27 50.9284 421.732 50.6875 422.279 50.5117C422.833 50.3294 423.464 50.2383 424.174 50.2383C424.812 50.2383 425.404 50.3164 425.951 50.4727C426.505 50.6289 426.983 50.86 427.387 51.166C427.79 51.472 428.106 51.8594 428.334 52.3281C428.562 52.7904 428.676 53.3275 428.676 53.9395V58.4707C428.676 59.0371 428.712 59.5059 428.783 59.877C428.855 60.248 428.959 60.5671 429.096 60.834V61H426.342ZM423.754 59.0957C424.027 59.0957 424.281 59.0632 424.516 58.998C424.75 58.9329 424.962 58.8483 425.15 58.7441C425.339 58.64 425.502 58.5228 425.639 58.3926C425.775 58.2559 425.883 58.1191 425.961 57.9824V56.166H424.574C424.151 56.166 423.79 56.2083 423.49 56.293C423.191 56.3711 422.947 56.4818 422.758 56.625C422.569 56.7747 422.429 56.9538 422.338 57.1621C422.247 57.3639 422.201 57.5853 422.201 57.8262C422.201 58.015 422.234 58.1908 422.299 58.3535C422.37 58.5098 422.471 58.6432 422.602 58.7539C422.732 58.8581 422.891 58.9427 423.08 59.0078C423.275 59.0664 423.5 59.0957 423.754 59.0957ZM433.422 65.2676C433.161 65.2676 432.934 65.2513 432.738 65.2188C432.549 65.1862 432.338 65.1374 432.104 65.0723L432.436 63.002C432.546 63.002 432.686 63.0052 432.855 63.0117C433.031 63.0247 433.171 63.0312 433.275 63.0312C433.49 63.0312 433.679 62.9629 433.842 62.8262C434.011 62.696 434.154 62.5527 434.271 62.3965C434.389 62.2402 434.473 62.123 434.525 62.0449C434.584 61.9668 434.652 61.8561 434.73 61.7129L435.355 60.5508L430.883 50.4336H433.852L436.273 56.625L436.566 57.6992L436.967 56.6445L439.379 50.4336H442.377L437.016 62.582C436.898 62.849 436.745 63.1387 436.557 63.4512C436.374 63.7637 436.143 64.0534 435.863 64.3203C435.583 64.5872 435.242 64.8118 434.838 64.9941C434.441 65.1764 433.969 65.2676 433.422 65.2676ZM446.508 59.4277C446.508 58.9264 446.674 58.5033 447.006 58.1582C447.338 57.8066 447.8 57.6309 448.393 57.6309C448.979 57.6309 449.438 57.8034 449.77 58.1484C450.108 58.4935 450.277 58.9199 450.277 59.4277C450.277 59.9355 450.105 60.3587 449.76 60.6973C449.421 61.0293 448.965 61.1953 448.393 61.1953C447.813 61.1953 447.354 61.026 447.016 60.6875C446.677 60.349 446.508 59.929 446.508 59.4277Z" fill="black"/>
<path d="M55.5996 90.5215H48.1289V89.0371H55.5996V90.5215ZM66.7324 93.1973C66.7324 92.9824 66.6901 92.7904 66.6055 92.6211C66.5208 92.4453 66.3776 92.2858 66.1758 92.1426C65.974 91.9993 65.707 91.8691 65.375 91.752C65.043 91.6283 64.6296 91.5176 64.1348 91.4199C63.5293 91.2962 62.9759 91.1465 62.4746 90.9707C61.9798 90.7949 61.5566 90.5833 61.2051 90.3359C60.847 90.0951 60.5703 89.8118 60.375 89.4863C60.1797 89.1543 60.082 88.7702 60.082 88.334C60.082 87.9043 60.1829 87.5039 60.3848 87.1328C60.5866 86.7552 60.8698 86.4264 61.2344 86.1465C61.599 85.8665 62.0319 85.6452 62.5332 85.4824C63.041 85.3197 63.5977 85.2383 64.2031 85.2383C64.8542 85.2383 65.4401 85.3229 65.9609 85.4922C66.4818 85.6615 66.9245 85.8958 67.2891 86.1953C67.6536 86.4948 67.9336 86.8464 68.1289 87.25C68.3307 87.6471 68.4316 88.0768 68.4316 88.5391H66.625C66.625 88.3112 66.5664 88.0898 66.4492 87.875C66.332 87.6536 66.1693 87.4583 65.9609 87.2891C65.7526 87.1198 65.4987 86.9831 65.1992 86.8789C64.9062 86.7747 64.5742 86.7227 64.2031 86.7227C63.819 86.7227 63.4805 86.765 63.1875 86.8496C62.901 86.9342 62.6634 87.0482 62.4746 87.1914C62.2793 87.3346 62.1328 87.5007 62.0352 87.6895C61.9375 87.8783 61.8887 88.0736 61.8887 88.2754C61.8887 88.4837 61.9277 88.6693 62.0059 88.832C62.084 88.9948 62.2207 89.1413 62.416 89.2715C62.6048 89.4017 62.8587 89.5189 63.1777 89.623C63.5033 89.7272 63.9134 89.8281 64.4082 89.9258C65.0592 90.0625 65.6419 90.222 66.1562 90.4043C66.6706 90.5801 67.1035 90.7917 67.4551 91.0391C67.8066 91.293 68.0736 91.5859 68.2559 91.918C68.4447 92.25 68.5391 92.6341 68.5391 93.0703C68.5391 93.5391 68.4316 93.9655 68.2168 94.3496C68.0085 94.7337 67.7155 95.0625 67.3379 95.3359C66.9603 95.6094 66.5078 95.821 65.9805 95.9707C65.4531 96.1204 64.877 96.1953 64.252 96.1953C63.5358 96.1953 62.8978 96.1009 62.3379 95.9121C61.778 95.7168 61.306 95.4596 60.9219 95.1406C60.5312 94.8281 60.2318 94.4635 60.0234 94.0469C59.8216 93.6302 59.7207 93.1973 59.7207 92.748H61.5273C61.5534 93.1191 61.651 93.4316 61.8203 93.6855C61.9961 93.9395 62.2142 94.1445 62.4746 94.3008C62.7285 94.457 63.0117 94.5677 63.3242 94.6328C63.6367 94.6979 63.946 94.7305 64.252 94.7305C64.7337 94.7305 65.1536 94.6751 65.5117 94.5645C65.8698 94.4473 66.1497 94.2878 66.3516 94.0859C66.4753 93.9622 66.5697 93.8255 66.6348 93.6758C66.6999 93.526 66.7324 93.3665 66.7324 93.1973ZM71.2148 90.6191C71.2148 89.8574 71.3255 89.151 71.5469 88.5C71.7682 87.8424 72.0872 87.2728 72.5039 86.791C72.9141 86.3092 73.4154 85.9316 74.0078 85.6582C74.6003 85.3783 75.2676 85.2383 76.0098 85.2383C76.7585 85.2383 77.429 85.3783 78.0215 85.6582C78.6204 85.9316 79.1283 86.3092 79.5449 86.791C79.9551 87.2728 80.2708 87.8424 80.4922 88.5C80.7135 89.151 80.8242 89.8574 80.8242 90.6191V90.834C80.8242 91.5957 80.7135 92.3021 80.4922 92.9531C80.2708 93.6042 79.9551 94.1706 79.5449 94.6523C79.1283 95.1341 78.6237 95.5117 78.0312 95.7852C77.4388 96.0586 76.7715 96.1953 76.0293 96.1953C75.2806 96.1953 74.6068 96.0586 74.0078 95.7852C73.4154 95.5117 72.9141 95.1341 72.5039 94.6523C72.0872 94.1706 71.7682 93.6042 71.5469 92.9531C71.3255 92.3021 71.2148 91.5957 71.2148 90.834V90.6191ZM73.0215 90.834C73.0215 91.3548 73.0833 91.8529 73.207 92.3281C73.3307 92.7969 73.5195 93.2103 73.7734 93.5684C74.0208 93.9264 74.3333 94.2096 74.7109 94.418C75.0885 94.6263 75.528 94.7305 76.0293 94.7305C76.5241 94.7305 76.957 94.6263 77.3281 94.418C77.7057 94.2096 78.0215 93.9264 78.2754 93.5684C78.5228 93.2103 78.7083 92.7969 78.832 92.3281C78.9557 91.8529 79.0176 91.3548 79.0176 90.834V90.6191C79.0176 90.1048 78.9525 89.6133 78.8223 89.1445C78.6986 88.6693 78.513 88.2526 78.2656 87.8945C78.0117 87.5365 77.696 87.2533 77.3184 87.0449C76.9473 86.8301 76.5111 86.7227 76.0098 86.7227C75.5085 86.7227 75.0723 86.8301 74.7012 87.0449C74.3301 87.2533 74.0208 87.5365 73.7734 87.8945C73.5195 88.2526 73.3307 88.6693 73.207 89.1445C73.0833 89.6133 73.0215 90.1048 73.0215 90.6191V90.834ZM84.5645 85.4336L84.6133 86.4297C84.8281 86.0586 85.1081 85.7689 85.4531 85.5605C85.8047 85.3522 86.2279 85.2448 86.7227 85.2383C87.0026 85.2383 87.2533 85.2708 87.4746 85.3359C87.7025 85.3945 87.901 85.4824 88.0703 85.5996C88.194 85.6908 88.3047 85.8014 88.4023 85.9316C88.5065 86.0618 88.5944 86.2083 88.666 86.3711C88.7572 86.2214 88.8646 86.0814 88.9883 85.9512C89.112 85.821 89.2454 85.707 89.3887 85.6094C89.571 85.4987 89.7728 85.4108 89.9941 85.3457C90.222 85.2806 90.4694 85.2448 90.7363 85.2383C91.1009 85.2383 91.4297 85.2936 91.7227 85.4043C92.0156 85.5085 92.263 85.6647 92.4648 85.873C92.6862 86.1074 92.8555 86.4134 92.9727 86.791C93.0898 87.1621 93.1484 87.6016 93.1484 88.1094V96H91.4297V88.0898C91.4297 87.8685 91.4036 87.6732 91.3516 87.5039C91.2995 87.3346 91.2246 87.1947 91.127 87.084C91.0228 86.9798 90.8926 86.9017 90.7363 86.8496C90.5866 86.7975 90.4108 86.7715 90.209 86.7715C89.9941 86.7715 89.8086 86.8008 89.6523 86.8594C89.4961 86.918 89.3659 86.9961 89.2617 87.0938C89.1576 87.1979 89.0762 87.3184 89.0176 87.4551C88.959 87.5853 88.9199 87.7318 88.9004 87.8945C88.9004 87.9271 88.9004 87.9596 88.9004 87.9922C88.9004 88.0182 88.9004 88.0508 88.9004 88.0898V96H87.1816V88.0801C87.1816 87.8587 87.1556 87.6634 87.1035 87.4941C87.0579 87.3249 86.9831 87.1849 86.8789 87.0742C86.7812 86.9701 86.6576 86.8952 86.5078 86.8496C86.3646 86.7975 86.1953 86.7715 86 86.7715C85.7852 86.7715 85.5964 86.7975 85.4336 86.8496C85.2773 86.8952 85.1439 86.9635 85.0332 87.0547C84.9486 87.1263 84.8737 87.2077 84.8086 87.2988C84.75 87.39 84.7012 87.4876 84.6621 87.5918V96H82.9434V85.4336H84.5645ZM100.414 96.1953C99.6719 96.1953 98.9883 96.0684 98.3633 95.8145C97.7448 95.5605 97.2142 95.2057 96.7715 94.75C96.3288 94.2943 95.9837 93.7539 95.7363 93.1289C95.4889 92.5039 95.3652 91.8236 95.3652 91.0879V90.6777C95.3652 89.8249 95.502 89.0632 95.7754 88.3926C96.0488 87.7155 96.4134 87.1426 96.8691 86.6738C97.3184 86.2116 97.8294 85.8568 98.4023 85.6094C98.9818 85.362 99.5742 85.2383 100.18 85.2383C100.941 85.2383 101.605 85.3717 102.172 85.6387C102.745 85.8991 103.22 86.2604 103.598 86.7227C103.975 87.1914 104.255 87.7415 104.438 88.373C104.626 89.0046 104.721 89.6882 104.721 90.4238V91.2344H97.1719V91.3027C97.2174 91.8171 97.3184 92.2695 97.4746 92.6602C97.6374 93.0508 97.8587 93.3958 98.1387 93.6953C98.4251 94.0143 98.7702 94.265 99.1738 94.4473C99.5775 94.6296 100.023 94.7207 100.512 94.7207C101.156 94.7207 101.729 94.5905 102.23 94.3301C102.732 94.0697 103.148 93.7246 103.48 93.2949L104.584 94.1543C104.232 94.6882 103.705 95.1634 103.002 95.5801C102.305 95.9902 101.443 96.1953 100.414 96.1953ZM100.18 86.7227C99.8151 86.7227 99.4701 86.791 99.1445 86.9277C98.819 87.0579 98.526 87.25 98.2656 87.5039C98.0052 87.7643 97.7839 88.0833 97.6016 88.4609C97.4258 88.832 97.3021 89.2617 97.2305 89.75H102.914V89.6621C102.914 89.3366 102.852 88.9883 102.729 88.6172C102.605 88.2396 102.432 87.9141 102.211 87.6406C101.99 87.3672 101.71 87.1458 101.371 86.9766C101.039 86.8073 100.642 86.7227 100.18 86.7227ZM116.713 90.834C116.713 91.2962 116.677 91.7422 116.605 92.1719C116.54 92.5951 116.443 92.9922 116.312 93.3633C116.137 93.8516 115.906 94.291 115.619 94.6816C115.339 95.0658 115.001 95.3848 114.604 95.6387C114.317 95.8145 114.001 95.9512 113.656 96.0488C113.318 96.1465 112.95 96.1953 112.553 96.1953C112.097 96.1953 111.68 96.14 111.303 96.0293C110.932 95.9186 110.596 95.7591 110.297 95.5508C110.154 95.4466 110.017 95.3327 109.887 95.209C109.757 95.0853 109.633 94.9486 109.516 94.7988L109.428 96H107.768V81H109.574V86.5664C109.724 86.3776 109.89 86.2083 110.072 86.0586C110.255 85.9023 110.45 85.7689 110.658 85.6582C110.919 85.5215 111.205 85.4173 111.518 85.3457C111.83 85.2741 112.169 85.2383 112.533 85.2383C112.989 85.2383 113.409 85.3001 113.793 85.4238C114.177 85.5475 114.525 85.7201 114.838 85.9414C115.118 86.1497 115.368 86.4036 115.59 86.7031C115.811 86.9961 116.007 87.3249 116.176 87.6895C116.352 88.0996 116.485 88.5553 116.576 89.0566C116.667 89.5514 116.713 90.0755 116.713 90.6289V90.834ZM114.906 90.6289C114.906 90.2969 114.883 89.9746 114.838 89.6621C114.799 89.3431 114.737 89.0436 114.652 88.7637C114.535 88.4186 114.382 88.1029 114.193 87.8164C114.005 87.5299 113.773 87.3053 113.5 87.1426C113.311 87.0254 113.1 86.9342 112.865 86.8691C112.631 86.804 112.37 86.7715 112.084 86.7715C111.771 86.7715 111.485 86.8138 111.225 86.8984C110.964 86.9766 110.733 87.0872 110.531 87.2305C110.323 87.3802 110.137 87.556 109.975 87.7578C109.818 87.9531 109.685 88.168 109.574 88.4023V93.0215C109.691 93.2559 109.828 93.474 109.984 93.6758C110.147 93.8711 110.333 94.0436 110.541 94.1934C110.749 94.3431 110.984 94.4603 111.244 94.5449C111.505 94.623 111.791 94.6621 112.104 94.6621C112.403 94.6621 112.676 94.6263 112.924 94.5547C113.171 94.4766 113.393 94.3659 113.588 94.2227C113.848 94.0404 114.066 93.8092 114.242 93.5293C114.418 93.2493 114.558 92.9368 114.662 92.5918C114.747 92.3314 114.809 92.0514 114.848 91.752C114.887 91.4525 114.906 91.1465 114.906 90.834V90.6289ZM119.262 90.6191C119.262 89.8574 119.372 89.151 119.594 88.5C119.815 87.8424 120.134 87.2728 120.551 86.791C120.961 86.3092 121.462 85.9316 122.055 85.6582C122.647 85.3783 123.314 85.2383 124.057 85.2383C124.805 85.2383 125.476 85.3783 126.068 85.6582C126.667 85.9316 127.175 86.3092 127.592 86.791C128.002 87.2728 128.318 87.8424 128.539 88.5C128.76 89.151 128.871 89.8574 128.871 90.6191V90.834C128.871 91.5957 128.76 92.3021 128.539 92.9531C128.318 93.6042 128.002 94.1706 127.592 94.6523C127.175 95.1341 126.671 95.5117 126.078 95.7852C125.486 96.0586 124.818 96.1953 124.076 96.1953C123.327 96.1953 122.654 96.0586 122.055 95.7852C121.462 95.5117 120.961 95.1341 120.551 94.6523C120.134 94.1706 119.815 93.6042 119.594 92.9531C119.372 92.3021 119.262 91.5957 119.262 90.834V90.6191ZM121.068 90.834C121.068 91.3548 121.13 91.8529 121.254 92.3281C121.378 92.7969 121.566 93.2103 121.82 93.5684C122.068 93.9264 122.38 94.2096 122.758 94.418C123.135 94.6263 123.575 94.7305 124.076 94.7305C124.571 94.7305 125.004 94.6263 125.375 94.418C125.753 94.2096 126.068 93.9264 126.322 93.5684C126.57 93.2103 126.755 92.7969 126.879 92.3281C127.003 91.8529 127.064 91.3548 127.064 90.834V90.6191C127.064 90.1048 126.999 89.6133 126.869 89.1445C126.745 88.6693 126.56 88.2526 126.312 87.8945C126.059 87.5365 125.743 87.2533 125.365 87.0449C124.994 86.8301 124.558 86.7227 124.057 86.7227C123.555 86.7227 123.119 86.8301 122.748 87.0449C122.377 87.2533 122.068 87.5365 121.82 87.8945C121.566 88.2526 121.378 88.6693 121.254 89.1445C121.13 89.6133 121.068 90.1048 121.068 90.6191V90.834ZM131.439 90.6289C131.439 89.8411 131.537 89.1185 131.732 88.4609C131.934 87.7969 132.221 87.2272 132.592 86.752C132.956 86.2767 133.399 85.9056 133.92 85.6387C134.441 85.3717 135.023 85.2383 135.668 85.2383C136.299 85.2383 136.85 85.3457 137.318 85.5605C137.794 85.7689 138.204 86.0749 138.549 86.4785V81H140.355V96H138.695L138.617 94.8867C138.266 95.3164 137.846 95.6419 137.357 95.8633C136.869 96.0846 136.299 96.1953 135.648 96.1953C135.01 96.1953 134.431 96.0586 133.91 95.7852C133.396 95.5117 132.956 95.1341 132.592 94.6523C132.227 94.1706 131.944 93.6042 131.742 92.9531C131.54 92.2956 131.439 91.5892 131.439 90.834V90.6289ZM133.246 90.834C133.246 91.3483 133.301 91.8366 133.412 92.2988C133.523 92.7611 133.695 93.168 133.93 93.5195C134.158 93.8711 134.451 94.151 134.809 94.3594C135.167 94.5612 135.596 94.6621 136.098 94.6621C136.703 94.6621 137.204 94.5254 137.602 94.252C137.999 93.9785 138.314 93.6107 138.549 93.1484V88.2461C138.314 87.8164 137.999 87.4648 137.602 87.1914C137.204 86.9115 136.71 86.7715 136.117 86.7715C135.609 86.7715 135.173 86.8757 134.809 87.084C134.451 87.2923 134.158 87.5723 133.93 87.9238C133.695 88.2819 133.523 88.6953 133.412 89.1641C133.301 89.6263 133.246 90.1146 133.246 90.6289V90.834ZM144.643 100.268C144.473 100.268 144.275 100.248 144.047 100.209C143.819 100.17 143.646 100.137 143.529 100.111L143.822 98.6367C143.985 98.6497 144.145 98.6595 144.301 98.666C144.464 98.679 144.59 98.6855 144.682 98.6855C144.929 98.6855 145.154 98.6172 145.355 98.4805C145.564 98.3438 145.749 98.181 145.912 97.9922C146.068 97.8034 146.202 97.6081 146.312 97.4062C146.43 97.2044 146.521 97.0384 146.586 96.9082L147.309 95.502L142.758 85.4336H144.779L147.68 92.25L148.148 93.5293L148.646 92.2891L151.371 85.4336H153.393L148.031 97.6309C147.908 97.9043 147.748 98.194 147.553 98.5C147.364 98.806 147.133 99.0892 146.859 99.3496C146.586 99.61 146.267 99.8281 145.902 100.004C145.538 100.18 145.118 100.268 144.643 100.268Z" fill="black"/>
</svg>
