<svg width="1487" height="1076" viewBox="0 0 1487 1076" fill="none" xmlns="http://www.w3.org/2000/svg">
<rect width="1487" height="1076" rx="56" fill="#D6FFCA"/>
<rect x="24" y="26" width="1440" height="1024" rx="48" fill="black"/>
<rect x="57.5" y="70.5" width="294" height="941" stroke="#B7FFA2"/>
<rect x="397.5" y="124.5" width="1017" height="780" stroke="#B7FFA2"/>
<rect x="397.5" y="946.983" width="1017" height="64.5172" stroke="#B7FFA2"/>
<rect x="819" y="932" width="173" height="28.2759" fill="black"/>
<path d="M833.296 960.688C832.144 960.688 831.152 960.496 830.32 960.112C829.504 959.728 828.872 959.176 828.424 958.456C827.976 957.736 827.744 956.88 827.728 955.888H829.888C829.888 956.768 830.184 957.464 830.776 957.976C831.384 958.488 832.224 958.744 833.296 958.744C834.304 958.744 835.088 958.496 835.648 958C836.224 957.504 836.512 956.816 836.512 955.936C836.512 955.232 836.32 954.616 835.936 954.088C835.568 953.56 835.032 953.192 834.328 952.984L831.952 952.24C830.752 951.872 829.824 951.256 829.168 950.392C828.528 949.528 828.208 948.512 828.208 947.344C828.208 946.4 828.416 945.584 828.832 944.896C829.264 944.192 829.864 943.648 830.632 943.264C831.4 942.864 832.304 942.664 833.344 942.664C834.88 942.664 836.112 943.096 837.04 943.96C837.968 944.808 838.44 945.944 838.456 947.368H836.296C836.296 946.504 836.032 945.832 835.504 945.352C834.992 944.856 834.264 944.608 833.32 944.608C832.392 944.608 831.664 944.832 831.136 945.28C830.624 945.728 830.368 946.352 830.368 947.152C830.368 947.872 830.56 948.496 830.944 949.024C831.328 949.552 831.88 949.928 832.6 950.152L835 950.92C836.168 951.288 837.072 951.912 837.712 952.792C838.352 953.672 838.672 954.704 838.672 955.888C838.672 956.848 838.448 957.688 838 958.408C837.552 959.128 836.92 959.688 836.104 960.088C835.304 960.488 834.368 960.688 833.296 960.688ZM847.591 960.688C846.551 960.688 845.639 960.48 844.855 960.064C844.087 959.648 843.487 959.064 843.055 958.312C842.639 957.544 842.431 956.656 842.431 955.648V952.048C842.431 951.024 842.639 950.136 843.055 949.384C843.487 948.632 844.087 948.048 844.855 947.632C845.639 947.216 846.551 947.008 847.591 947.008C848.631 947.008 849.535 947.216 850.303 947.632C851.087 948.048 851.687 948.632 852.103 949.384C852.535 950.136 852.751 951.024 852.751 952.048V954.376H844.543V955.648C844.543 956.688 844.807 957.488 845.335 958.048C845.863 958.592 846.615 958.864 847.591 958.864C848.423 958.864 849.095 958.72 849.607 958.432C850.119 958.128 850.431 957.68 850.543 957.088H852.703C852.559 958.192 852.015 959.072 851.071 959.728C850.143 960.368 848.983 960.688 847.591 960.688ZM850.639 952.936V952.048C850.639 951.008 850.375 950.208 849.847 949.648C849.335 949.088 848.583 948.808 847.591 948.808C846.615 948.808 845.863 949.088 845.335 949.648C844.807 950.208 844.543 951.008 844.543 952.048V952.744H850.807L850.639 952.936ZM860.829 960.688C859.437 960.688 858.341 960.336 857.541 959.632C856.741 958.912 856.341 957.944 856.341 956.728C856.341 955.496 856.741 954.528 857.541 953.824C858.341 953.12 859.421 952.768 860.781 952.768H864.861V951.448C864.861 950.632 864.613 950.008 864.117 949.576C863.637 949.128 862.949 948.904 862.053 948.904C861.269 948.904 860.613 949.072 860.085 949.408C859.557 949.728 859.253 950.168 859.173 950.728H857.013C857.157 949.592 857.693 948.688 858.621 948.016C859.549 947.344 860.709 947.008 862.101 947.008C863.621 947.008 864.821 947.4 865.701 948.184C866.581 948.968 867.021 950.032 867.021 951.376V960.448H864.909V957.928H864.549L864.909 957.568C864.909 958.528 864.533 959.288 863.781 959.848C863.045 960.408 862.061 960.688 860.829 960.688ZM861.357 958.984C862.381 958.984 863.221 958.728 863.877 958.216C864.533 957.704 864.861 957.048 864.861 956.248V954.376H860.829C860.109 954.376 859.541 954.576 859.125 954.976C858.709 955.376 858.501 955.92 858.501 956.608C858.501 957.344 858.749 957.928 859.245 958.36C859.757 958.776 860.461 958.984 861.357 958.984ZM871.836 960.448V947.248H873.948V949.768H874.452L873.756 951.328C873.756 949.904 874.06 948.832 874.668 948.112C875.292 947.376 876.212 947.008 877.428 947.008C878.82 947.008 879.924 947.448 880.74 948.328C881.572 949.192 881.988 950.368 881.988 951.856V952.648H879.828V952.048C879.828 951.008 879.572 950.216 879.06 949.672C878.564 949.112 877.852 948.832 876.924 948.832C876.012 948.832 875.292 949.112 874.764 949.672C874.252 950.232 873.996 951.024 873.996 952.048V960.448H871.836ZM890.859 960.688C889.803 960.688 888.875 960.488 888.075 960.088C887.291 959.688 886.683 959.112 886.251 958.36C885.819 957.592 885.603 956.688 885.603 955.648V952.048C885.603 950.992 885.819 950.088 886.251 949.336C886.683 948.584 887.291 948.008 888.075 947.608C888.875 947.208 889.803 947.008 890.859 947.008C892.379 947.008 893.603 947.416 894.531 948.232C895.459 949.048 895.947 950.16 895.995 951.568H893.835C893.787 950.72 893.499 950.072 892.971 949.624C892.459 949.16 891.755 948.928 890.859 948.928C889.915 948.928 889.163 949.2 888.603 949.744C888.043 950.272 887.763 951.032 887.763 952.024V955.648C887.763 956.64 888.043 957.408 888.603 957.952C889.163 958.496 889.915 958.768 890.859 958.768C891.755 958.768 892.459 958.536 892.971 958.072C893.499 957.608 893.787 956.96 893.835 956.128H895.995C895.947 957.536 895.459 958.648 894.531 959.464C893.603 960.28 892.379 960.688 890.859 960.688ZM900.161 960.448V942.928H902.321V947.248V949.768H902.777L902.321 950.272C902.321 949.232 902.633 948.432 903.257 947.872C903.881 947.296 904.745 947.008 905.849 947.008C907.177 947.008 908.233 947.416 909.017 948.232C909.801 949.048 910.193 950.16 910.193 951.568V960.448H908.033V951.808C908.033 950.864 907.777 950.136 907.265 949.624C906.769 949.096 906.089 948.832 905.225 948.832C904.329 948.832 903.617 949.112 903.089 949.672C902.577 950.232 902.321 951.024 902.321 952.048V960.448H900.161ZM928.942 960.448V942.928H931.102V947.248V949.768H931.558L931.102 950.272C931.102 949.232 931.414 948.432 932.038 947.872C932.662 947.296 933.526 947.008 934.63 947.008C935.958 947.008 937.014 947.416 937.798 948.232C938.582 949.048 938.974 950.16 938.974 951.568V960.448H936.814V951.808C936.814 950.864 936.558 950.136 936.046 949.624C935.55 949.096 934.87 948.832 934.006 948.832C933.11 948.832 932.398 949.112 931.87 949.672C931.358 950.232 931.102 951.024 931.102 952.048V960.448H928.942ZM948.325 960.688C947.285 960.688 946.373 960.48 945.589 960.064C944.821 959.648 944.221 959.064 943.789 958.312C943.373 957.544 943.165 956.656 943.165 955.648V952.048C943.165 951.024 943.373 950.136 943.789 949.384C944.221 948.632 944.821 948.048 945.589 947.632C946.373 947.216 947.285 947.008 948.325 947.008C949.365 947.008 950.269 947.216 951.037 947.632C951.821 948.048 952.421 948.632 952.837 949.384C953.269 950.136 953.485 951.024 953.485 952.048V954.376H945.277V955.648C945.277 956.688 945.541 957.488 946.069 958.048C946.597 958.592 947.349 958.864 948.325 958.864C949.157 958.864 949.829 958.72 950.341 958.432C950.853 958.128 951.165 957.68 951.277 957.088H953.437C953.293 958.192 952.749 959.072 951.805 959.728C950.877 960.368 949.717 960.688 948.325 960.688ZM951.373 952.936V952.048C951.373 951.008 951.109 950.208 950.581 949.648C950.069 949.088 949.317 948.808 948.325 948.808C947.349 948.808 946.597 949.088 946.069 949.648C945.541 950.208 945.277 951.008 945.277 952.048V952.744H951.541L951.373 952.936ZM958.18 960.448V947.248H960.292V949.768H960.796L960.1 951.328C960.1 949.904 960.404 948.832 961.012 948.112C961.636 947.376 962.556 947.008 963.772 947.008C965.164 947.008 966.268 947.448 967.084 948.328C967.916 949.192 968.332 950.368 968.332 951.856V952.648H966.172V952.048C966.172 951.008 965.916 950.216 965.404 949.672C964.908 949.112 964.196 948.832 963.268 948.832C962.356 948.832 961.636 949.112 961.108 949.672C960.596 950.232 960.34 951.024 960.34 952.048V960.448H958.18ZM977.106 960.688C976.066 960.688 975.154 960.48 974.37 960.064C973.602 959.648 973.002 959.064 972.57 958.312C972.154 957.544 971.946 956.656 971.946 955.648V952.048C971.946 951.024 972.154 950.136 972.57 949.384C973.002 948.632 973.602 948.048 974.37 947.632C975.154 947.216 976.066 947.008 977.106 947.008C978.146 947.008 979.05 947.216 979.818 947.632C980.602 948.048 981.202 948.632 981.618 949.384C982.05 950.136 982.266 951.024 982.266 952.048V954.376H974.058V955.648C974.058 956.688 974.322 957.488 974.85 958.048C975.378 958.592 976.13 958.864 977.106 958.864C977.938 958.864 978.61 958.72 979.122 958.432C979.634 958.128 979.946 957.68 980.058 957.088H982.218C982.074 958.192 981.53 959.072 980.586 959.728C979.658 960.368 978.498 960.688 977.106 960.688ZM980.154 952.936V952.048C980.154 951.008 979.89 950.208 979.362 949.648C978.85 949.088 978.098 948.808 977.106 948.808C976.13 948.808 975.378 949.088 974.85 949.648C974.322 950.208 974.058 951.008 974.058 952.048V952.744H980.322L980.154 952.936Z" fill="#B7FFA2"/>
<path d="M455.247 472L452.895 451.56H455.303L456.843 466.68C456.881 467.091 456.918 467.52 456.955 467.968C456.993 468.397 457.021 468.808 457.039 469.2C457.077 469.592 457.095 469.919 457.095 470.18C457.133 469.919 457.161 469.592 457.179 469.2C457.217 468.808 457.254 468.397 457.291 467.968C457.347 467.52 457.403 467.091 457.459 466.68L459.363 451.56H461.967L463.703 466.68C463.759 467.091 463.806 467.52 463.843 467.968C463.899 468.397 463.946 468.808 463.983 469.2C464.039 469.592 464.077 469.919 464.095 470.18C464.114 469.919 464.133 469.592 464.151 469.2C464.189 468.808 464.226 468.397 464.263 467.968C464.319 467.52 464.366 467.091 464.403 466.68L465.999 451.56H468.295L465.887 472H462.723L460.987 456.6C460.95 456.171 460.903 455.751 460.847 455.34C460.81 454.929 460.773 454.547 460.735 454.192C460.698 453.837 460.67 453.548 460.651 453.324C460.633 453.548 460.595 453.837 460.539 454.192C460.502 454.547 460.465 454.929 460.427 455.34C460.39 455.751 460.343 456.171 460.287 456.6L458.411 472H455.247ZM477.384 472.28C476.171 472.28 475.107 472.037 474.192 471.552C473.296 471.067 472.596 470.385 472.092 469.508C471.607 468.612 471.364 467.576 471.364 466.4V462.2C471.364 461.005 471.607 459.969 472.092 459.092C472.596 458.215 473.296 457.533 474.192 457.048C475.107 456.563 476.171 456.32 477.384 456.32C478.598 456.32 479.652 456.563 480.548 457.048C481.463 457.533 482.163 458.215 482.648 459.092C483.152 459.969 483.404 461.005 483.404 462.2V464.916H473.828V466.4C473.828 467.613 474.136 468.547 474.752 469.2C475.368 469.835 476.246 470.152 477.384 470.152C478.355 470.152 479.139 469.984 479.736 469.648C480.334 469.293 480.698 468.771 480.828 468.08H483.348C483.18 469.368 482.546 470.395 481.444 471.16C480.362 471.907 479.008 472.28 477.384 472.28ZM480.94 463.236V462.2C480.94 460.987 480.632 460.053 480.016 459.4C479.419 458.747 478.542 458.42 477.384 458.42C476.246 458.42 475.368 458.747 474.752 459.4C474.136 460.053 473.828 460.987 473.828 462.2V463.012H481.136L480.94 463.236ZM496.273 472C495.377 472 494.593 471.823 493.921 471.468C493.249 471.113 492.727 470.609 492.353 469.956C491.98 469.303 491.793 468.537 491.793 467.66V453.856H486.613V451.56H494.313V467.66C494.313 468.295 494.491 468.799 494.845 469.172C495.2 469.527 495.676 469.704 496.273 469.704H501.173V472H496.273ZM511.075 472.28C509.843 472.28 508.76 472.047 507.827 471.58C506.912 471.113 506.203 470.441 505.699 469.564C505.195 468.668 504.943 467.613 504.943 466.4V462.2C504.943 460.968 505.195 459.913 505.699 459.036C506.203 458.159 506.912 457.487 507.827 457.02C508.76 456.553 509.843 456.32 511.075 456.32C512.848 456.32 514.276 456.796 515.359 457.748C516.441 458.7 517.011 459.997 517.067 461.64H514.547C514.491 460.651 514.155 459.895 513.539 459.372C512.941 458.831 512.12 458.56 511.075 458.56C509.973 458.56 509.096 458.877 508.443 459.512C507.789 460.128 507.463 461.015 507.463 462.172V466.4C507.463 467.557 507.789 468.453 508.443 469.088C509.096 469.723 509.973 470.04 511.075 470.04C512.12 470.04 512.941 469.769 513.539 469.228C514.155 468.687 514.491 467.931 514.547 466.96H517.067C517.011 468.603 516.441 469.9 515.359 470.852C514.276 471.804 512.848 472.28 511.075 472.28ZM527.752 472.224C526.52 472.224 525.456 471.991 524.56 471.524C523.664 471.057 522.964 470.385 522.46 469.508C521.974 468.612 521.732 467.557 521.732 466.344V462.256C521.732 461.024 521.974 459.969 522.46 459.092C522.964 458.215 523.664 457.543 524.56 457.076C525.456 456.609 526.52 456.376 527.752 456.376C528.984 456.376 530.048 456.609 530.944 457.076C531.84 457.543 532.53 458.215 533.016 459.092C533.52 459.969 533.772 461.015 533.772 462.228V466.344C533.772 467.557 533.52 468.612 533.016 469.508C532.53 470.385 531.84 471.057 530.944 471.524C530.048 471.991 528.984 472.224 527.752 472.224ZM527.752 469.984C528.853 469.984 529.712 469.676 530.328 469.06C530.944 468.444 531.252 467.539 531.252 466.344V462.256C531.252 461.061 530.944 460.156 530.328 459.54C529.712 458.924 528.853 458.616 527.752 458.616C526.669 458.616 525.81 458.924 525.176 459.54C524.56 460.156 524.252 461.061 524.252 462.256V466.344C524.252 467.539 524.56 468.444 525.176 469.06C525.81 469.676 526.669 469.984 527.752 469.984ZM537.989 472V456.6H540.201V458.448H540.705L540.313 459.12C540.313 458.261 540.537 457.58 540.985 457.076C541.451 456.572 542.077 456.32 542.861 456.32C543.719 456.32 544.382 456.637 544.849 457.272C545.315 457.907 545.549 458.803 545.549 459.96L544.793 458.448H545.969L545.437 459.12C545.437 458.261 545.67 457.58 546.137 457.076C546.622 456.572 547.257 456.32 548.041 456.32C549.011 456.32 549.758 456.684 550.281 457.412C550.822 458.14 551.093 459.101 551.093 460.296V472H548.769V460.268C548.769 459.633 548.629 459.139 548.349 458.784C548.087 458.429 547.695 458.252 547.173 458.252C546.669 458.252 546.267 458.429 545.969 458.784C545.689 459.12 545.549 459.605 545.549 460.24V472H543.533V460.268C543.533 459.615 543.383 459.12 543.085 458.784C542.805 458.429 542.403 458.252 541.881 458.252C541.358 458.252 540.966 458.429 540.705 458.784C540.443 459.12 540.313 459.605 540.313 460.24V472H537.989ZM561.33 472.28C560.116 472.28 559.052 472.037 558.138 471.552C557.242 471.067 556.542 470.385 556.038 469.508C555.552 468.612 555.31 467.576 555.31 466.4V462.2C555.31 461.005 555.552 459.969 556.038 459.092C556.542 458.215 557.242 457.533 558.138 457.048C559.052 456.563 560.116 456.32 561.33 456.32C562.543 456.32 563.598 456.563 564.494 457.048C565.408 457.533 566.108 458.215 566.594 459.092C567.098 459.969 567.35 461.005 567.35 462.2V464.916H557.774V466.4C557.774 467.613 558.082 468.547 558.698 469.2C559.314 469.835 560.191 470.152 561.33 470.152C562.3 470.152 563.084 469.984 563.682 469.648C564.279 469.293 564.643 468.771 564.774 468.08H567.294C567.126 469.368 566.491 470.395 565.39 471.16C564.307 471.907 562.954 472.28 561.33 472.28ZM564.886 463.236V462.2C564.886 460.987 564.578 460.053 563.962 459.4C563.364 458.747 562.487 458.42 561.33 458.42C560.191 458.42 559.314 458.747 558.698 459.4C558.082 460.053 557.774 460.987 557.774 462.2V463.012H565.082L564.886 463.236ZM596.588 472C595.262 472 594.226 471.645 593.48 470.936C592.752 470.227 592.388 469.228 592.388 467.94V458.896H588.048V456.6H592.388V452.26H594.908V456.6H601.068V458.896H594.908V467.94C594.908 469.116 595.468 469.704 596.588 469.704H600.788V472H596.588ZM611.697 472.224C610.465 472.224 609.401 471.991 608.505 471.524C607.609 471.057 606.909 470.385 606.405 469.508C605.92 468.612 605.677 467.557 605.677 466.344V462.256C605.677 461.024 605.92 459.969 606.405 459.092C606.909 458.215 607.609 457.543 608.505 457.076C609.401 456.609 610.465 456.376 611.697 456.376C612.929 456.376 613.993 456.609 614.889 457.076C615.785 457.543 616.476 458.215 616.961 459.092C617.465 459.969 617.717 461.015 617.717 462.228V466.344C617.717 467.557 617.465 468.612 616.961 469.508C616.476 470.385 615.785 471.057 614.889 471.524C613.993 471.991 612.929 472.224 611.697 472.224ZM611.697 469.984C612.798 469.984 613.657 469.676 614.273 469.06C614.889 468.444 615.197 467.539 615.197 466.344V462.256C615.197 461.061 614.889 460.156 614.273 459.54C613.657 458.924 612.798 458.616 611.697 458.616C610.614 458.616 609.756 458.924 609.121 459.54C608.505 460.156 608.197 461.061 608.197 462.256V466.344C608.197 467.539 608.505 468.444 609.121 469.06C609.756 469.676 610.614 469.984 611.697 469.984ZM646.955 472C645.63 472 644.594 471.645 643.847 470.936C643.119 470.227 642.755 469.228 642.755 467.94V458.896H638.415V456.6H642.755V452.26H645.275V456.6H651.435V458.896H645.275V467.94C645.275 469.116 645.835 469.704 646.955 469.704H651.155V472H646.955ZM656.24 472V451.56H658.76V456.6V459.54H659.292L658.76 460.128C658.76 458.915 659.124 457.981 659.852 457.328C660.58 456.656 661.588 456.32 662.876 456.32C664.425 456.32 665.657 456.796 666.572 457.748C667.487 458.7 667.944 459.997 667.944 461.64V472H665.424V461.92C665.424 460.819 665.125 459.969 664.528 459.372C663.949 458.756 663.156 458.448 662.148 458.448C661.103 458.448 660.272 458.775 659.656 459.428C659.059 460.081 658.76 461.005 658.76 462.2V472H656.24ZM678.853 472.28C677.64 472.28 676.576 472.037 675.661 471.552C674.765 471.067 674.065 470.385 673.561 469.508C673.076 468.612 672.833 467.576 672.833 466.4V462.2C672.833 461.005 673.076 459.969 673.561 459.092C674.065 458.215 674.765 457.533 675.661 457.048C676.576 456.563 677.64 456.32 678.853 456.32C680.066 456.32 681.121 456.563 682.017 457.048C682.932 457.533 683.632 458.215 684.117 459.092C684.621 459.969 684.873 461.005 684.873 462.2V464.916H675.297V466.4C675.297 467.613 675.605 468.547 676.221 469.2C676.837 469.835 677.714 470.152 678.853 470.152C679.824 470.152 680.608 469.984 681.205 469.648C681.802 469.293 682.166 468.771 682.297 468.08H684.817C684.649 469.368 684.014 470.395 682.913 471.16C681.83 471.907 680.477 472.28 678.853 472.28ZM682.409 463.236V462.2C682.409 460.987 682.101 460.053 681.485 459.4C680.888 458.747 680.01 458.42 678.853 458.42C677.714 458.42 676.837 458.747 676.221 459.4C675.605 460.053 675.297 460.987 675.297 462.2V463.012H682.605L682.409 463.236ZM713.327 472.28C712.058 472.28 711.041 471.944 710.275 471.272C709.51 470.581 709.127 469.648 709.127 468.472L709.631 469.06H709.127V472H706.607V451.56H709.127V456.04L709.071 459.54H709.631L709.127 460.128C709.127 458.971 709.51 458.047 710.275 457.356C711.059 456.665 712.077 456.32 713.327 456.32C714.877 456.32 716.118 456.833 717.051 457.86C717.985 458.887 718.451 460.287 718.451 462.06V466.568C718.451 468.323 717.985 469.713 717.051 470.74C716.118 471.767 714.877 472.28 713.327 472.28ZM712.487 470.096C713.551 470.096 714.391 469.779 715.007 469.144C715.623 468.509 715.931 467.595 715.931 466.4V462.2C715.931 461.005 715.623 460.091 715.007 459.456C714.391 458.821 713.551 458.504 712.487 458.504C711.461 458.504 710.639 458.831 710.023 459.484C709.426 460.137 709.127 461.043 709.127 462.2V466.4C709.127 467.557 709.426 468.463 710.023 469.116C710.639 469.769 711.461 470.096 712.487 470.096ZM729.22 472.28C728.007 472.28 726.943 472.037 726.028 471.552C725.132 471.067 724.432 470.385 723.928 469.508C723.443 468.612 723.2 467.576 723.2 466.4V462.2C723.2 461.005 723.443 459.969 723.928 459.092C724.432 458.215 725.132 457.533 726.028 457.048C726.943 456.563 728.007 456.32 729.22 456.32C730.434 456.32 731.488 456.563 732.384 457.048C733.299 457.533 733.999 458.215 734.484 459.092C734.988 459.969 735.24 461.005 735.24 462.2V464.916H725.664V466.4C725.664 467.613 725.972 468.547 726.588 469.2C727.204 469.835 728.082 470.152 729.22 470.152C730.191 470.152 730.975 469.984 731.572 469.648C732.17 469.293 732.534 468.771 732.664 468.08H735.184C735.016 469.368 734.382 470.395 733.28 471.16C732.198 471.907 730.844 472.28 729.22 472.28ZM732.776 463.236V462.2C732.776 460.987 732.468 460.053 731.852 459.4C731.255 458.747 730.378 458.42 729.22 458.42C728.082 458.42 727.204 458.747 726.588 459.4C725.972 460.053 725.664 460.987 725.664 462.2V463.012H732.972L732.776 463.236ZM744.665 472.28C743.041 472.28 741.763 471.869 740.829 471.048C739.896 470.208 739.429 469.079 739.429 467.66C739.429 466.223 739.896 465.093 740.829 464.272C741.763 463.451 743.023 463.04 744.609 463.04H749.369V461.5C749.369 460.548 749.08 459.82 748.501 459.316C747.941 458.793 747.139 458.532 746.093 458.532C745.179 458.532 744.413 458.728 743.797 459.12C743.181 459.493 742.827 460.007 742.733 460.66H740.213C740.381 459.335 741.007 458.28 742.089 457.496C743.172 456.712 744.525 456.32 746.149 456.32C747.923 456.32 749.323 456.777 750.349 457.692C751.376 458.607 751.889 459.848 751.889 461.416V472H749.425V469.06H749.005L749.425 468.64C749.425 469.76 748.987 470.647 748.109 471.3C747.251 471.953 746.103 472.28 744.665 472.28ZM745.281 470.292C746.476 470.292 747.456 469.993 748.221 469.396C748.987 468.799 749.369 468.033 749.369 467.1V464.916H744.665C743.825 464.916 743.163 465.149 742.677 465.616C742.192 466.083 741.949 466.717 741.949 467.52C741.949 468.379 742.239 469.06 742.817 469.564C743.415 470.049 744.236 470.292 745.281 470.292ZM762.77 472.28C760.997 472.28 759.578 471.757 758.514 470.712C757.45 469.648 756.918 468.211 756.918 466.4V456.6H759.438V466.4C759.438 467.557 759.737 468.463 760.334 469.116C760.932 469.751 761.744 470.068 762.77 470.068C763.816 470.068 764.637 469.751 765.234 469.116C765.85 468.463 766.158 467.557 766.158 466.4V456.6H768.678V466.4C768.678 468.211 768.137 469.648 767.054 470.712C765.972 471.757 764.544 472.28 762.77 472.28ZM781.268 472C779.942 472 778.906 471.645 778.16 470.936C777.432 470.227 777.068 469.228 777.068 467.94V458.896H772.728V456.6H777.068V452.26H779.588V456.6H785.748V458.896H779.588V467.94C779.588 469.116 780.148 469.704 781.268 469.704H785.468V472H781.268ZM790.357 472V469.704H795.817V458.896H791.057V456.6H798.337V469.704H803.517V472H790.357ZM796.797 453.828C796.181 453.828 795.695 453.669 795.341 453.352C794.986 453.035 794.809 452.605 794.809 452.064C794.809 451.504 794.986 451.065 795.341 450.748C795.695 450.412 796.181 450.244 796.797 450.244C797.413 450.244 797.898 450.412 798.253 450.748C798.607 451.065 798.785 451.504 798.785 452.064C798.785 452.605 798.607 453.035 798.253 453.352C797.898 453.669 797.413 453.828 796.797 453.828ZM810.926 472V460.436H806.446V458.14H810.926V455.48C810.926 454.267 811.308 453.315 812.074 452.624C812.839 451.915 813.894 451.56 815.238 451.56H819.746V453.856H815.238C814.659 453.856 814.211 453.996 813.894 454.276C813.595 454.537 813.446 454.939 813.446 455.48V458.14H819.746V460.436H813.446V472H810.926ZM829.927 472.28C828.153 472.28 826.735 471.757 825.671 470.712C824.607 469.648 824.075 468.211 824.075 466.4V456.6H826.595V466.4C826.595 467.557 826.893 468.463 827.491 469.116C828.088 469.751 828.9 470.068 829.927 470.068C830.972 470.068 831.793 469.751 832.391 469.116C833.007 468.463 833.315 467.557 833.315 466.4V456.6H835.835V466.4C835.835 468.211 835.293 469.648 834.211 470.712C833.128 471.757 831.7 472.28 829.927 472.28ZM848.844 472C847.948 472 847.164 471.823 846.492 471.468C845.82 471.113 845.297 470.609 844.924 469.956C844.55 469.303 844.364 468.537 844.364 467.66V453.856H839.184V451.56H846.884V467.66C846.884 468.295 847.061 468.799 847.416 469.172C847.77 469.527 848.246 469.704 848.844 469.704H853.744V472H848.844ZM881.218 472.28C879.949 472.28 878.931 471.944 878.166 471.272C877.401 470.581 877.018 469.648 877.018 468.472L877.522 469.06H877.018V472H874.498V451.56H877.018V456.04L876.962 459.54H877.522L877.018 460.128C877.018 458.971 877.401 458.047 878.166 457.356C878.95 456.665 879.967 456.32 881.218 456.32C882.767 456.32 884.009 456.833 884.942 457.86C885.875 458.887 886.342 460.287 886.342 462.06V466.568C886.342 468.323 885.875 469.713 884.942 470.74C884.009 471.767 882.767 472.28 881.218 472.28ZM880.378 470.096C881.442 470.096 882.282 469.779 882.898 469.144C883.514 468.509 883.822 467.595 883.822 466.4V462.2C883.822 461.005 883.514 460.091 882.898 459.456C882.282 458.821 881.442 458.504 880.378 458.504C879.351 458.504 878.53 458.831 877.914 459.484C877.317 460.137 877.018 461.043 877.018 462.2V466.4C877.018 467.557 877.317 468.463 877.914 469.116C878.53 469.769 879.351 470.096 880.378 470.096ZM891.819 472V456.6H894.283V459.54H894.871L894.059 461.36C894.059 459.699 894.414 458.448 895.123 457.608C895.851 456.749 896.924 456.32 898.343 456.32C899.967 456.32 901.255 456.833 902.207 457.86C903.178 458.868 903.663 460.24 903.663 461.976V462.9H901.143V462.2C901.143 460.987 900.844 460.063 900.247 459.428C899.668 458.775 898.838 458.448 897.755 458.448C896.691 458.448 895.851 458.775 895.235 459.428C894.638 460.081 894.339 461.005 894.339 462.2V472H891.819ZM913.9 472.224C912.668 472.224 911.604 471.991 910.708 471.524C909.812 471.057 909.112 470.385 908.608 469.508C908.123 468.612 907.88 467.557 907.88 466.344V462.256C907.88 461.024 908.123 459.969 908.608 459.092C909.112 458.215 909.812 457.543 910.708 457.076C911.604 456.609 912.668 456.376 913.9 456.376C915.132 456.376 916.196 456.609 917.092 457.076C917.988 457.543 918.679 458.215 919.164 459.092C919.668 459.969 919.92 461.015 919.92 462.228V466.344C919.92 467.557 919.668 468.612 919.164 469.508C918.679 470.385 917.988 471.057 917.092 471.524C916.196 471.991 915.132 472.224 913.9 472.224ZM913.9 469.984C915.001 469.984 915.86 469.676 916.476 469.06C917.092 468.444 917.4 467.539 917.4 466.344V462.256C917.4 461.061 917.092 460.156 916.476 459.54C915.86 458.924 915.001 458.616 913.9 458.616C912.817 458.616 911.959 458.924 911.324 459.54C910.708 460.156 910.4 461.061 910.4 462.256V466.344C910.4 467.539 910.708 468.444 911.324 469.06C911.959 469.676 912.817 469.984 913.9 469.984ZM925.733 472L923.269 456.6H925.509L927.049 467.52C927.105 467.931 927.161 468.379 927.217 468.864C927.292 469.331 927.348 469.723 927.385 470.04C927.422 469.723 927.478 469.331 927.553 468.864C927.646 468.379 927.721 467.931 927.777 467.52L929.485 456.6H931.893L933.601 467.52C933.657 467.931 933.722 468.379 933.797 468.864C933.89 469.331 933.956 469.723 933.993 470.04C934.03 469.723 934.086 469.331 934.161 468.864C934.254 468.379 934.329 467.931 934.385 467.52L935.981 456.6H938.109L935.533 472H932.761L931.109 461.36C931.034 460.837 930.95 460.315 930.857 459.792C930.764 459.269 930.698 458.859 930.661 458.56C930.624 458.859 930.568 459.269 930.493 459.792C930.418 460.315 930.334 460.837 930.241 461.36L928.505 472H925.733ZM947.002 472.224C945.957 472.224 945.042 472.065 944.258 471.748C943.493 471.412 942.877 470.945 942.41 470.348C941.962 469.751 941.691 469.041 941.598 468.22H944.118C944.23 468.761 944.529 469.191 945.014 469.508C945.518 469.825 946.181 469.984 947.002 469.984H948.178C949.167 469.984 949.905 469.788 950.39 469.396C950.875 468.985 951.118 468.444 951.118 467.772C951.118 467.119 950.894 466.605 950.446 466.232C950.017 465.84 949.373 465.579 948.514 465.448L946.442 465.112C944.93 464.851 943.801 464.384 943.054 463.712C942.326 463.021 941.962 462.023 941.962 460.716C941.962 459.335 942.401 458.271 943.278 457.524C944.155 456.759 945.471 456.376 947.226 456.376H948.29C949.765 456.376 950.95 456.721 951.846 457.412C952.742 458.103 953.283 459.036 953.47 460.212H950.95C950.838 459.727 950.558 459.344 950.11 459.064C949.662 458.765 949.055 458.616 948.29 458.616H947.226C946.274 458.616 945.574 458.793 945.126 459.148C944.697 459.503 944.482 460.035 944.482 460.744C944.482 461.379 944.669 461.845 945.042 462.144C945.415 462.443 946.003 462.657 946.806 462.788L948.878 463.124C950.539 463.385 951.743 463.871 952.49 464.58C953.255 465.289 953.638 466.316 953.638 467.66C953.638 469.079 953.181 470.199 952.266 471.02C951.37 471.823 950.007 472.224 948.178 472.224H947.002ZM964.267 472.28C963.054 472.28 961.99 472.037 961.075 471.552C960.179 471.067 959.479 470.385 958.975 469.508C958.49 468.612 958.247 467.576 958.247 466.4V462.2C958.247 461.005 958.49 459.969 958.975 459.092C959.479 458.215 960.179 457.533 961.075 457.048C961.99 456.563 963.054 456.32 964.267 456.32C965.481 456.32 966.535 456.563 967.431 457.048C968.346 457.533 969.046 458.215 969.531 459.092C970.035 459.969 970.287 461.005 970.287 462.2V464.916H960.711V466.4C960.711 467.613 961.019 468.547 961.635 469.2C962.251 469.835 963.129 470.152 964.267 470.152C965.238 470.152 966.022 469.984 966.619 469.648C967.217 469.293 967.581 468.771 967.711 468.08H970.231C970.063 469.368 969.429 470.395 968.327 471.16C967.245 471.907 965.891 472.28 964.267 472.28ZM967.823 463.236V462.2C967.823 460.987 967.515 460.053 966.899 459.4C966.302 458.747 965.425 458.42 964.267 458.42C963.129 458.42 962.251 458.747 961.635 459.4C961.019 460.053 960.711 460.987 960.711 462.2V463.012H968.019L967.823 463.236ZM975.764 472V456.6H978.228V459.54H978.816L978.004 461.36C978.004 459.699 978.359 458.448 979.068 457.608C979.796 456.749 980.87 456.32 982.288 456.32C983.912 456.32 985.2 456.833 986.152 457.86C987.123 458.868 987.608 460.24 987.608 461.976V462.9H985.088V462.2C985.088 460.987 984.79 460.063 984.192 459.428C983.614 458.775 982.783 458.448 981.7 458.448C980.636 458.448 979.796 458.775 979.18 459.428C978.583 460.081 978.284 461.005 978.284 462.2V472H975.764ZM1008.61 472V469.704H1014.07V458.896H1009.31V456.6H1016.59V469.704H1021.77V472H1008.61ZM1015.05 453.828C1014.44 453.828 1013.95 453.669 1013.6 453.352C1013.24 453.035 1013.07 452.605 1013.07 452.064C1013.07 451.504 1013.24 451.065 1013.6 450.748C1013.95 450.412 1014.44 450.244 1015.05 450.244C1015.67 450.244 1016.16 450.412 1016.51 450.748C1016.87 451.065 1017.04 451.504 1017.04 452.064C1017.04 452.605 1016.87 453.035 1016.51 453.352C1016.16 453.669 1015.67 453.828 1015.05 453.828ZM1025.6 472V456.6H1028.12V459.54H1028.65L1028.12 460.128C1028.12 458.915 1028.48 457.981 1029.21 457.328C1029.94 456.656 1030.95 456.32 1032.24 456.32C1033.78 456.32 1035.02 456.796 1035.93 457.748C1036.85 458.7 1037.3 459.997 1037.3 461.64V472H1034.78V461.92C1034.78 460.819 1034.48 459.979 1033.89 459.4C1033.31 458.803 1032.52 458.504 1031.51 458.504C1030.46 458.504 1029.63 458.821 1029.02 459.456C1028.42 460.091 1028.12 461.005 1028.12 462.2V472H1025.6ZM1066.68 472C1065.36 472 1064.32 471.645 1063.57 470.936C1062.85 470.227 1062.48 469.228 1062.48 467.94V458.896H1058.14V456.6H1062.48V452.26H1065V456.6H1071.16V458.896H1065V467.94C1065 469.116 1065.56 469.704 1066.68 469.704H1070.88V472H1066.68ZM1075.97 472V451.56H1078.49V456.6V459.54H1079.02L1078.49 460.128C1078.49 458.915 1078.85 457.981 1079.58 457.328C1080.31 456.656 1081.31 456.32 1082.6 456.32C1084.15 456.32 1085.38 456.796 1086.3 457.748C1087.21 458.7 1087.67 459.997 1087.67 461.64V472H1085.15V461.92C1085.15 460.819 1084.85 459.969 1084.25 459.372C1083.68 458.756 1082.88 458.448 1081.87 458.448C1080.83 458.448 1080 458.775 1079.38 459.428C1078.79 460.081 1078.49 461.005 1078.49 462.2V472H1075.97ZM1098.58 472.28C1097.37 472.28 1096.3 472.037 1095.39 471.552C1094.49 471.067 1093.79 470.385 1093.29 469.508C1092.8 468.612 1092.56 467.576 1092.56 466.4V462.2C1092.56 461.005 1092.8 459.969 1093.29 459.092C1093.79 458.215 1094.49 457.533 1095.39 457.048C1096.3 456.563 1097.37 456.32 1098.58 456.32C1099.79 456.32 1100.85 456.563 1101.74 457.048C1102.66 457.533 1103.36 458.215 1103.84 459.092C1104.35 459.969 1104.6 461.005 1104.6 462.2V464.916H1095.02V466.4C1095.02 467.613 1095.33 468.547 1095.95 469.2C1096.56 469.835 1097.44 470.152 1098.58 470.152C1099.55 470.152 1100.33 469.984 1100.93 469.648C1101.53 469.293 1101.89 468.771 1102.02 468.08H1104.54C1104.38 469.368 1103.74 470.395 1102.64 471.16C1101.56 471.907 1100.2 472.28 1098.58 472.28ZM1102.14 463.236V462.2C1102.14 460.987 1101.83 460.053 1101.21 459.4C1100.61 458.747 1099.74 458.42 1098.58 458.42C1097.44 458.42 1096.56 458.747 1095.95 459.4C1095.33 460.053 1095.02 460.987 1095.02 462.2V463.012H1102.33L1102.14 463.236ZM1127.2 472L1124.74 456.6H1126.98L1128.52 467.52C1128.57 467.931 1128.63 468.379 1128.69 468.864C1128.76 469.331 1128.82 469.723 1128.85 470.04C1128.89 469.723 1128.95 469.331 1129.02 468.864C1129.12 468.379 1129.19 467.931 1129.25 467.52L1130.95 456.6H1133.36L1135.07 467.52C1135.13 467.931 1135.19 468.379 1135.27 468.864C1135.36 469.331 1135.42 469.723 1135.46 470.04C1135.5 469.723 1135.56 469.331 1135.63 468.864C1135.72 468.379 1135.8 467.931 1135.85 467.52L1137.45 456.6H1139.58L1137 472H1134.23L1132.58 461.36C1132.5 460.837 1132.42 460.315 1132.33 459.792C1132.23 459.269 1132.17 458.859 1132.13 458.56C1132.09 458.859 1132.04 459.269 1131.96 459.792C1131.89 460.315 1131.8 460.837 1131.71 461.36L1129.97 472H1127.2ZM1148.95 472.224C1147.71 472.224 1146.65 471.991 1145.75 471.524C1144.86 471.057 1144.16 470.385 1143.65 469.508C1143.17 468.612 1142.93 467.557 1142.93 466.344V462.256C1142.93 461.024 1143.17 459.969 1143.65 459.092C1144.16 458.215 1144.86 457.543 1145.75 457.076C1146.65 456.609 1147.71 456.376 1148.95 456.376C1150.18 456.376 1151.24 456.609 1152.14 457.076C1153.03 457.543 1153.73 458.215 1154.21 459.092C1154.71 459.969 1154.97 461.015 1154.97 462.228V466.344C1154.97 467.557 1154.71 468.612 1154.21 469.508C1153.73 470.385 1153.03 471.057 1152.14 471.524C1151.24 471.991 1150.18 472.224 1148.95 472.224ZM1148.95 469.984C1150.05 469.984 1150.91 469.676 1151.52 469.06C1152.14 468.444 1152.45 467.539 1152.45 466.344V462.256C1152.45 461.061 1152.14 460.156 1151.52 459.54C1150.91 458.924 1150.05 458.616 1148.95 458.616C1147.86 458.616 1147.01 458.924 1146.37 459.54C1145.75 460.156 1145.45 461.061 1145.45 462.256V466.344C1145.45 467.539 1145.75 468.444 1146.37 469.06C1147.01 469.676 1147.86 469.984 1148.95 469.984ZM1160.44 472V456.6H1162.91V459.54H1163.5L1162.68 461.36C1162.68 459.699 1163.04 458.448 1163.75 457.608C1164.48 456.749 1165.55 456.32 1166.97 456.32C1168.59 456.32 1169.88 456.833 1170.83 457.86C1171.8 458.868 1172.29 460.24 1172.29 461.976V462.9H1169.77V462.2C1169.77 460.987 1169.47 460.063 1168.87 459.428C1168.29 458.775 1167.46 458.448 1166.38 458.448C1165.32 458.448 1164.48 458.775 1163.86 459.428C1163.26 460.081 1162.96 461.005 1162.96 462.2V472H1160.44ZM1184.63 472C1183.73 472 1182.95 471.823 1182.27 471.468C1181.6 471.113 1181.08 470.609 1180.71 469.956C1180.33 469.303 1180.15 468.537 1180.15 467.66V453.856H1174.97V451.56H1182.67V467.66C1182.67 468.295 1182.84 468.799 1183.2 469.172C1183.55 469.527 1184.03 469.704 1184.63 469.704H1189.53V472H1184.63ZM1198.42 472.28C1196.89 472.28 1195.65 471.767 1194.69 470.74C1193.76 469.713 1193.29 468.323 1193.29 466.568V462.06C1193.29 460.287 1193.76 458.887 1194.69 457.86C1195.63 456.833 1196.87 456.32 1198.42 456.32C1199.69 456.32 1200.7 456.665 1201.47 457.356C1202.24 458.047 1202.62 458.971 1202.62 460.128L1202.11 459.54H1202.67L1202.62 456.04V451.56H1205.14V472H1202.62V469.06H1202.11L1202.62 468.472C1202.62 469.648 1202.24 470.581 1201.47 471.272C1200.7 471.944 1199.69 472.28 1198.42 472.28ZM1199.26 470.096C1200.3 470.096 1201.12 469.769 1201.72 469.116C1202.32 468.463 1202.62 467.557 1202.62 466.4V462.2C1202.62 461.043 1202.32 460.137 1201.72 459.484C1201.12 458.831 1200.3 458.504 1199.26 458.504C1198.19 458.504 1197.35 458.821 1196.74 459.456C1196.12 460.091 1195.81 461.005 1195.81 462.2V466.4C1195.81 467.595 1196.12 468.509 1196.74 469.144C1197.35 469.779 1198.19 470.096 1199.26 470.096ZM1232.89 472.224C1231.66 472.224 1230.6 471.991 1229.7 471.524C1228.8 471.057 1228.1 470.385 1227.6 469.508C1227.11 468.612 1226.87 467.557 1226.87 466.344V462.256C1226.87 461.024 1227.11 459.969 1227.6 459.092C1228.1 458.215 1228.8 457.543 1229.7 457.076C1230.6 456.609 1231.66 456.376 1232.89 456.376C1234.12 456.376 1235.19 456.609 1236.08 457.076C1236.98 457.543 1237.67 458.215 1238.16 459.092C1238.66 459.969 1238.91 461.015 1238.91 462.228V466.344C1238.91 467.557 1238.66 468.612 1238.16 469.508C1237.67 470.385 1236.98 471.057 1236.08 471.524C1235.19 471.991 1234.12 472.224 1232.89 472.224ZM1232.89 469.984C1233.99 469.984 1234.85 469.676 1235.47 469.06C1236.08 468.444 1236.39 467.539 1236.39 466.344V462.256C1236.39 461.061 1236.08 460.156 1235.47 459.54C1234.85 458.924 1233.99 458.616 1232.89 458.616C1231.81 458.616 1230.95 458.924 1230.32 459.54C1229.7 460.156 1229.39 461.061 1229.39 462.256V466.344C1229.39 467.539 1229.7 468.444 1230.32 469.06C1230.95 469.676 1231.81 469.984 1232.89 469.984ZM1247.44 472V460.436H1242.96V458.14H1247.44V455.48C1247.44 454.267 1247.82 453.315 1248.59 452.624C1249.35 451.915 1250.41 451.56 1251.75 451.56H1256.26V453.856H1251.75C1251.17 453.856 1250.73 453.996 1250.41 454.276C1250.11 454.537 1249.96 454.939 1249.96 455.48V458.14H1256.26V460.436H1249.96V472H1247.44ZM1282 472V453.828H1276.4V451.532H1290.12V453.828H1284.52V472H1282ZM1300.05 472.28C1298.14 472.28 1296.69 471.757 1295.68 470.712C1294.67 469.648 1294.17 468.211 1294.17 466.4V451.56H1296.69V466.4C1296.69 467.52 1296.96 468.407 1297.5 469.06C1298.06 469.713 1298.91 470.04 1300.05 470.04C1301.17 470.04 1302.01 469.713 1302.57 469.06C1303.13 468.407 1303.41 467.52 1303.41 466.4V451.56H1305.93V466.4C1305.93 468.229 1305.42 469.667 1304.42 470.712C1303.43 471.757 1301.97 472.28 1300.05 472.28ZM1311.38 472V469.704H1315.55V453.856H1311.38V451.56H1322.3V453.856H1318.13V469.704H1322.3V472H1311.38ZM1333.15 472.224C1332.11 472.224 1331.19 472.065 1330.41 471.748C1329.64 471.412 1329.03 470.945 1328.56 470.348C1328.11 469.751 1327.84 469.041 1327.75 468.22H1330.27C1330.38 468.761 1330.68 469.191 1331.16 469.508C1331.67 469.825 1332.33 469.984 1333.15 469.984H1334.33C1335.32 469.984 1336.05 469.788 1336.54 469.396C1337.02 468.985 1337.27 468.444 1337.27 467.772C1337.27 467.119 1337.04 466.605 1336.59 466.232C1336.17 465.84 1335.52 465.579 1334.66 465.448L1332.59 465.112C1331.08 464.851 1329.95 464.384 1329.2 463.712C1328.47 463.021 1328.11 462.023 1328.11 460.716C1328.11 459.335 1328.55 458.271 1329.43 457.524C1330.3 456.759 1331.62 456.376 1333.37 456.376H1334.44C1335.91 456.376 1337.1 456.721 1337.99 457.412C1338.89 458.103 1339.43 459.036 1339.62 460.212H1337.1C1336.99 459.727 1336.71 459.344 1336.26 459.064C1335.81 458.765 1335.2 458.616 1334.44 458.616H1333.37C1332.42 458.616 1331.72 458.793 1331.27 459.148C1330.85 459.503 1330.63 460.035 1330.63 460.744C1330.63 461.379 1330.82 461.845 1331.19 462.144C1331.56 462.443 1332.15 462.657 1332.95 462.788L1335.03 463.124C1336.69 463.385 1337.89 463.871 1338.64 464.58C1339.4 465.289 1339.79 466.316 1339.79 467.66C1339.79 469.079 1339.33 470.199 1338.41 471.02C1337.52 471.823 1336.16 472.224 1334.33 472.224H1333.15ZM1349.52 465.98L1348.93 454.92V451.56H1351.9V454.92L1351.31 465.98H1349.52ZM1350 472.14C1349.51 472.14 1349.11 471.981 1348.79 471.664C1348.47 471.347 1348.32 470.945 1348.32 470.46C1348.32 469.975 1348.47 469.573 1348.79 469.256C1349.11 468.939 1349.51 468.78 1350 468.78H1350.84C1351.38 468.78 1351.79 468.939 1352.07 469.256C1352.37 469.555 1352.52 469.947 1352.52 470.432C1352.52 470.917 1352.36 471.328 1352.04 471.664C1351.72 471.981 1351.32 472.14 1350.84 472.14H1350Z" fill="#B7FFA2"/>
<mask id="path-9-inside-1_57_265" fill="white">
<path d="M397 90C397 78.9543 405.954 70 417 70H594C605.046 70 614 78.9543 614 90V124H397V90Z"/>
</mask>
<path d="M396 90C396 78.402 405.402 69 417 69H594C605.598 69 615 78.402 615 90H613C613 79.5066 604.493 71 594 71H417C406.507 71 398 79.5066 398 90H396ZM398 90M614 124H397H614M396 124V90C396 78.402 405.402 69 417 69V71C406.507 71 398 79.5066 398 90V124H396ZM594 69C605.598 69 615 78.402 615 90V124H613V90C613 79.5066 604.493 71 594 71V69Z" fill="#B7FFA2" mask="url(#path-9-inside-1_57_265)"/>
<rect x="398" y="119" width="215" height="12" fill="black"/>
<rect x="84" y="64" width="205" height="15" fill="black"/>
<path d="M100.2 79.24C99.144 79.24 98.232 79.04 97.464 78.64C96.712 78.24 96.128 77.664 95.712 76.912C95.312 76.144 95.112 75.24 95.112 74.2V66.28C95.112 65.224 95.312 64.32 95.712 63.568C96.128 62.816 96.712 62.24 97.464 61.84C98.232 61.44 99.144 61.24 100.2 61.24C101.256 61.24 102.16 61.44 102.912 61.84C103.68 62.24 104.264 62.816 104.664 63.568C105.08 64.32 105.288 65.216 105.288 66.256V74.2C105.288 75.24 105.08 76.144 104.664 76.912C104.264 77.664 103.68 78.24 102.912 78.64C102.16 79.04 101.256 79.24 100.2 79.24ZM100.2 77.296C101.144 77.296 101.864 77.032 102.36 76.504C102.872 75.96 103.128 75.192 103.128 74.2V66.28C103.128 65.288 102.872 64.528 102.36 64C101.864 63.456 101.144 63.184 100.2 63.184C99.272 63.184 98.552 63.456 98.04 64C97.528 64.528 97.272 65.288 97.272 66.28V74.2C97.272 75.192 97.528 75.96 98.04 76.504C98.552 77.032 99.272 77.296 100.2 77.296ZM109.599 83.32V65.8H111.759V68.32H112.191L111.759 68.824C111.759 67.816 112.087 67.024 112.743 66.448C113.415 65.856 114.295 65.56 115.383 65.56C116.711 65.56 117.767 66 118.551 66.88C119.351 67.744 119.751 68.936 119.751 70.456V74.32C119.751 75.328 119.567 76.2 119.199 76.936C118.847 77.672 118.343 78.24 117.687 78.64C117.047 79.04 116.279 79.24 115.383 79.24C114.311 79.24 113.439 78.944 112.767 78.352C112.095 77.76 111.759 76.968 111.759 75.976L112.191 76.48H111.711L111.759 79.48V83.32H109.599ZM114.663 77.368C115.575 77.368 116.287 77.096 116.799 76.552C117.327 76.008 117.591 75.224 117.591 74.2V70.6C117.591 69.576 117.327 68.792 116.799 68.248C116.287 67.704 115.575 67.432 114.663 67.432C113.783 67.432 113.079 67.712 112.551 68.272C112.023 68.832 111.759 69.608 111.759 70.6V74.2C111.759 75.192 112.023 75.968 112.551 76.528C113.079 77.088 113.783 77.368 114.663 77.368ZM128.981 79.24C127.941 79.24 127.029 79.032 126.245 78.616C125.477 78.2 124.877 77.616 124.445 76.864C124.029 76.096 123.821 75.208 123.821 74.2V70.6C123.821 69.576 124.029 68.688 124.445 67.936C124.877 67.184 125.477 66.6 126.245 66.184C127.029 65.768 127.941 65.56 128.981 65.56C130.021 65.56 130.925 65.768 131.693 66.184C132.477 66.6 133.077 67.184 133.493 67.936C133.925 68.688 134.141 69.576 134.141 70.6V72.928H125.933V74.2C125.933 75.24 126.197 76.04 126.725 76.6C127.253 77.144 128.005 77.416 128.981 77.416C129.813 77.416 130.485 77.272 130.997 76.984C131.509 76.68 131.821 76.232 131.933 75.64H134.093C133.949 76.744 133.405 77.624 132.461 78.28C131.533 78.92 130.373 79.24 128.981 79.24ZM132.029 71.488V70.6C132.029 69.56 131.765 68.76 131.237 68.2C130.725 67.64 129.973 67.36 128.981 67.36C128.005 67.36 127.253 67.64 126.725 68.2C126.197 68.76 125.933 69.56 125.933 70.6V71.296H132.197L132.029 71.488ZM138.38 79V65.8H140.54V68.32H140.996L140.54 68.824C140.54 67.784 140.852 66.984 141.476 66.424C142.1 65.848 142.964 65.56 144.068 65.56C145.396 65.56 146.452 65.968 147.236 66.784C148.02 67.6 148.412 68.712 148.412 70.12V79H146.252V70.36C146.252 69.416 145.996 68.696 145.484 68.2C144.988 67.688 144.308 67.432 143.444 67.432C142.548 67.432 141.836 67.704 141.308 68.248C140.796 68.792 140.54 69.576 140.54 70.6V79H138.38ZM167.185 79V61.48H172.153C173.753 61.48 175.001 61.88 175.897 62.68C176.809 63.48 177.265 64.592 177.265 66.016C177.265 66.816 177.097 67.512 176.761 68.104C176.425 68.696 175.945 69.152 175.321 69.472C174.713 69.792 173.977 69.944 173.113 69.928V69.568C174.041 69.552 174.841 69.728 175.513 70.096C176.201 70.464 176.729 70.992 177.097 71.68C177.481 72.368 177.673 73.184 177.673 74.128C177.673 75.12 177.465 75.984 177.049 76.72C176.633 77.456 176.041 78.024 175.273 78.424C174.505 78.808 173.585 79 172.513 79H167.185ZM169.297 77.056H172.273C173.281 77.056 174.073 76.792 174.649 76.264C175.241 75.72 175.537 74.984 175.537 74.056C175.537 73.096 175.241 72.32 174.649 71.728C174.073 71.12 173.281 70.816 172.273 70.816H169.297V77.056ZM169.297 68.944H172.129C173.057 68.944 173.785 68.696 174.313 68.2C174.857 67.704 175.129 67.032 175.129 66.184C175.129 65.336 174.865 64.664 174.337 64.168C173.809 63.672 173.081 63.424 172.153 63.424H169.297V68.944ZM182.008 79V65.8H184.12V68.32H184.624L183.928 69.88C183.928 68.456 184.232 67.384 184.84 66.664C185.464 65.928 186.384 65.56 187.6 65.56C188.992 65.56 190.096 66 190.912 66.88C191.744 67.744 192.16 68.92 192.16 70.408V71.2H190V70.6C190 69.56 189.744 68.768 189.232 68.224C188.736 67.664 188.024 67.384 187.096 67.384C186.184 67.384 185.464 67.664 184.936 68.224C184.424 68.784 184.168 69.576 184.168 70.6V79H182.008ZM200.934 79.192C199.878 79.192 198.966 78.992 198.198 78.592C197.43 78.192 196.83 77.616 196.398 76.864C195.982 76.096 195.774 75.192 195.774 74.152V70.648C195.774 69.592 195.982 68.688 196.398 67.936C196.83 67.184 197.43 66.608 198.198 66.208C198.966 65.808 199.878 65.608 200.934 65.608C201.99 65.608 202.902 65.808 203.67 66.208C204.438 66.608 205.03 67.184 205.446 67.936C205.878 68.688 206.094 69.584 206.094 70.624V74.152C206.094 75.192 205.878 76.096 205.446 76.864C205.03 77.616 204.438 78.192 203.67 78.592C202.902 78.992 201.99 79.192 200.934 79.192ZM200.934 77.272C201.878 77.272 202.614 77.008 203.142 76.48C203.67 75.952 203.934 75.176 203.934 74.152V70.648C203.934 69.624 203.67 68.848 203.142 68.32C202.614 67.792 201.878 67.528 200.934 67.528C200.006 67.528 199.27 67.792 198.726 68.32C198.198 68.848 197.934 69.624 197.934 70.648V74.152C197.934 75.176 198.198 75.952 198.726 76.48C199.27 77.008 200.006 77.272 200.934 77.272ZM211.077 79L208.965 65.8H210.885L212.205 75.16C212.253 75.512 212.301 75.896 212.349 76.312C212.413 76.712 212.461 77.048 212.493 77.32C212.525 77.048 212.573 76.712 212.637 76.312C212.717 75.896 212.781 75.512 212.829 75.16L214.293 65.8H216.357L217.821 75.16C217.869 75.512 217.925 75.896 217.989 76.312C218.069 76.712 218.125 77.048 218.157 77.32C218.189 77.048 218.237 76.712 218.301 76.312C218.381 75.896 218.445 75.512 218.493 75.16L219.861 65.8H221.685L219.477 79H217.101L215.685 69.88C215.621 69.432 215.549 68.984 215.469 68.536C215.389 68.088 215.333 67.736 215.301 67.48C215.269 67.736 215.221 68.088 215.157 68.536C215.093 68.984 215.021 69.432 214.941 69.88L213.453 79H211.077ZM229.308 79.192C228.412 79.192 227.628 79.056 226.956 78.784C226.3 78.496 225.772 78.096 225.372 77.584C224.988 77.072 224.756 76.464 224.676 75.76H226.836C226.932 76.224 227.188 76.592 227.604 76.864C228.036 77.136 228.604 77.272 229.308 77.272H230.316C231.164 77.272 231.796 77.104 232.212 76.768C232.628 76.416 232.836 75.952 232.836 75.376C232.836 74.816 232.644 74.376 232.26 74.056C231.892 73.72 231.34 73.496 230.604 73.384L228.828 73.096C227.532 72.872 226.564 72.472 225.924 71.896C225.3 71.304 224.988 70.448 224.988 69.328C224.988 68.144 225.364 67.232 226.116 66.592C226.868 65.936 227.996 65.608 229.5 65.608H230.412C231.676 65.608 232.692 65.904 233.46 66.496C234.228 67.088 234.692 67.888 234.852 68.896H232.692C232.596 68.48 232.356 68.152 231.972 67.912C231.588 67.656 231.068 67.528 230.412 67.528H229.5C228.684 67.528 228.084 67.68 227.7 67.984C227.332 68.288 227.148 68.744 227.148 69.352C227.148 69.896 227.308 70.296 227.628 70.552C227.948 70.808 228.452 70.992 229.14 71.104L230.916 71.392C232.34 71.616 233.372 72.032 234.012 72.64C234.668 73.248 234.996 74.128 234.996 75.28C234.996 76.496 234.604 77.456 233.82 78.16C233.052 78.848 231.884 79.192 230.316 79.192H229.308ZM244.106 79.24C243.066 79.24 242.154 79.032 241.37 78.616C240.602 78.2 240.002 77.616 239.57 76.864C239.154 76.096 238.946 75.208 238.946 74.2V70.6C238.946 69.576 239.154 68.688 239.57 67.936C240.002 67.184 240.602 66.6 241.37 66.184C242.154 65.768 243.066 65.56 244.106 65.56C245.146 65.56 246.05 65.768 246.818 66.184C247.602 66.6 248.202 67.184 248.618 67.936C249.05 68.688 249.266 69.576 249.266 70.6V72.928H241.058V74.2C241.058 75.24 241.322 76.04 241.85 76.6C242.378 77.144 243.13 77.416 244.106 77.416C244.938 77.416 245.61 77.272 246.122 76.984C246.634 76.68 246.946 76.232 247.058 75.64H249.218C249.074 76.744 248.53 77.624 247.586 78.28C246.658 78.92 245.498 79.24 244.106 79.24ZM247.154 71.488V70.6C247.154 69.56 246.89 68.76 246.362 68.2C245.85 67.64 245.098 67.36 244.106 67.36C243.13 67.36 242.378 67.64 241.85 68.2C241.322 68.76 241.058 69.56 241.058 70.6V71.296H247.322L247.154 71.488ZM253.961 79V65.8H256.073V68.32H256.577L255.881 69.88C255.881 68.456 256.185 67.384 256.793 66.664C257.417 65.928 258.337 65.56 259.553 65.56C260.945 65.56 262.049 66 262.865 66.88C263.697 67.744 264.113 68.92 264.113 70.408V71.2H261.953V70.6C261.953 69.56 261.697 68.768 261.185 68.224C260.689 67.664 259.977 67.384 259.049 67.384C258.137 67.384 257.417 67.664 256.889 68.224C256.377 68.784 256.121 69.576 256.121 70.6V79H253.961ZM272.48 79.192C271.584 79.192 270.8 79.056 270.128 78.784C269.472 78.496 268.944 78.096 268.544 77.584C268.16 77.072 267.928 76.464 267.848 75.76H270.008C270.104 76.224 270.36 76.592 270.776 76.864C271.208 77.136 271.776 77.272 272.48 77.272H273.488C274.336 77.272 274.968 77.104 275.384 76.768C275.8 76.416 276.008 75.952 276.008 75.376C276.008 74.816 275.816 74.376 275.432 74.056C275.064 73.72 274.512 73.496 273.776 73.384L272 73.096C270.704 72.872 269.736 72.472 269.096 71.896C268.472 71.304 268.16 70.448 268.16 69.328C268.16 68.144 268.536 67.232 269.288 66.592C270.04 65.936 271.168 65.608 272.672 65.608H273.584C274.848 65.608 275.864 65.904 276.632 66.496C277.4 67.088 277.864 67.888 278.023 68.896H275.864C275.768 68.48 275.528 68.152 275.144 67.912C274.76 67.656 274.24 67.528 273.584 67.528H272.672C271.856 67.528 271.256 67.68 270.872 67.984C270.504 68.288 270.32 68.744 270.32 69.352C270.32 69.896 270.48 70.296 270.8 70.552C271.12 70.808 271.624 70.992 272.312 71.104L274.088 71.392C275.512 71.616 276.544 72.032 277.184 72.64C277.84 73.248 278.168 74.128 278.168 75.28C278.168 76.496 277.776 77.456 276.992 78.16C276.224 78.848 275.056 79.192 273.488 79.192H272.48Z" fill="#B7FFA2"/>
</svg>
