<svg width="612" height="123" viewBox="0 0 612 123" fill="none" xmlns="http://www.w3.org/2000/svg">
<rect x="1" y="29.1299" width="610" height="92" rx="19" fill="#0078FF" stroke="#CCCCCF" stroke-width="2"/>
<path d="M54.4375 68.2606C54.3466 67.4537 53.9716 66.8287 53.3125 66.3856C52.6534 65.9367 51.8239 65.7123 50.8239 65.7123C50.108 65.7123 49.4886 65.8259 48.9659 66.0532C48.4432 66.2748 48.0369 66.5816 47.7472 66.9736C47.4631 67.36 47.321 67.8003 47.321 68.2947C47.321 68.7094 47.4176 69.0674 47.6108 69.3685C47.8097 69.6697 48.0682 69.9225 48.3864 70.127C48.7102 70.3259 49.0568 70.4935 49.4261 70.6299C49.7955 70.7606 50.1506 70.8685 50.4915 70.9537L52.196 71.3969C52.7528 71.5333 53.3239 71.718 53.9091 71.9509C54.4943 72.1839 55.0369 72.4907 55.5369 72.8714C56.0369 73.252 56.4403 73.7236 56.7472 74.2861C57.0597 74.8486 57.2159 75.5219 57.2159 76.306C57.2159 77.2947 56.9602 78.1725 56.4489 78.9395C55.9432 79.7066 55.2074 80.3117 54.2415 80.7549C53.2813 81.1981 52.1193 81.4197 50.7557 81.4197C49.4489 81.4197 48.3182 81.2123 47.3636 80.7975C46.4091 80.3827 45.6619 79.7947 45.1222 79.0333C44.5824 78.2662 44.2841 77.3572 44.2273 76.306H46.8693C46.9205 76.9367 47.125 77.4623 47.483 77.8827C47.8466 78.2975 48.3097 78.6072 48.8722 78.8117C49.4403 79.0106 50.0625 79.11 50.7386 79.11C51.483 79.11 52.1449 78.9935 52.7244 78.7606C53.3097 78.5219 53.7699 78.1924 54.1051 77.7719C54.4403 77.3458 54.608 76.8486 54.608 76.2805C54.608 75.7634 54.4602 75.3401 54.1648 75.0106C53.875 74.681 53.4801 74.4083 52.9801 74.1924C52.4858 73.9765 51.9261 73.7861 51.3011 73.6214L49.2386 73.0589C47.8409 72.6782 46.733 72.1185 45.9148 71.3799C45.1023 70.6412 44.696 69.664 44.696 68.4481C44.696 67.4424 44.9688 66.5645 45.5142 65.8145C46.0597 65.0645 46.7983 64.4822 47.7301 64.0674C48.6619 63.6469 49.7131 63.4367 50.8835 63.4367C52.0653 63.4367 53.108 63.6441 54.0114 64.0589C54.9205 64.4736 55.6364 65.0447 56.1591 65.7719C56.6818 66.4935 56.9545 67.3231 56.9773 68.2606H54.4375ZM65.8004 81.3941C64.5107 81.3941 63.3999 81.1185 62.468 80.5674C61.5419 80.0106 60.826 79.2293 60.3203 78.2236C59.8203 77.2123 59.5703 76.0276 59.5703 74.6697C59.5703 73.3287 59.8203 72.1469 60.3203 71.1242C60.826 70.1015 61.5305 69.3032 62.4339 68.7293C63.343 68.1555 64.4055 67.8685 65.6214 67.8685C66.3601 67.8685 67.076 67.9907 67.7692 68.235C68.4624 68.4793 69.0845 68.8628 69.6357 69.3856C70.1868 69.9083 70.6214 70.5873 70.9396 71.4225C71.2578 72.252 71.4169 73.2606 71.4169 74.4481V75.3515H61.0107V73.4424H68.9197C68.9197 72.7719 68.7834 72.1782 68.5107 71.6611C68.2379 71.1384 67.8544 70.7265 67.3601 70.4253C66.8714 70.1242 66.2976 69.9736 65.6385 69.9736C64.9226 69.9736 64.2976 70.1498 63.7635 70.502C63.2351 70.8486 62.826 71.3032 62.5362 71.8657C62.2521 72.4225 62.1101 73.0276 62.1101 73.681V75.1725C62.1101 76.0475 62.2635 76.7918 62.5703 77.4055C62.8828 78.0191 63.3175 78.4878 63.8743 78.8117C64.4311 79.1299 65.0817 79.289 65.826 79.289C66.3089 79.289 66.7493 79.2208 67.147 79.0844C67.5447 78.9424 67.8885 78.7322 68.1783 78.4537C68.468 78.1753 68.6896 77.8316 68.843 77.4225L71.255 77.8572C71.0618 78.5674 70.7152 79.1895 70.2152 79.7236C69.7209 80.252 69.0987 80.664 68.3487 80.9594C67.6044 81.2492 66.755 81.3941 65.8004 81.3941ZM76.7926 73.3572V81.1299H74.2443V68.039H76.6903V70.1697H76.8523C77.1534 69.4765 77.625 68.9197 78.267 68.4992C78.9148 68.0787 79.7301 67.8685 80.7131 67.8685C81.6051 67.8685 82.3864 68.056 83.0568 68.431C83.7273 68.8003 84.2472 69.3515 84.6165 70.0844C84.9858 70.8174 85.1705 71.7236 85.1705 72.8032V81.1299H82.6222V73.11C82.6222 72.1611 82.375 71.4197 81.8807 70.8856C81.3864 70.3458 80.7074 70.0759 79.8438 70.0759C79.2528 70.0759 78.7273 70.2037 78.267 70.4594C77.8125 70.7151 77.4517 71.0901 77.1847 71.5844C76.9233 72.0731 76.7926 72.664 76.7926 73.3572ZM93.4886 81.3856C92.4318 81.3856 91.4886 81.1157 90.6591 80.5759C89.8352 80.0305 89.1875 79.2549 88.7159 78.2492C88.25 77.2378 88.017 76.0248 88.017 74.61C88.017 73.1952 88.2528 71.985 88.7244 70.9793C89.2017 69.9736 89.8551 69.2037 90.6847 68.6697C91.5142 68.1356 92.4545 67.8685 93.5057 67.8685C94.3182 67.8685 94.9716 68.0049 95.4659 68.2776C95.9659 68.5447 96.3523 68.8572 96.625 69.2151C96.9034 69.5731 97.1193 69.8884 97.2727 70.1611H97.4261V63.6753H99.9744V81.1299H97.4858V79.093H97.2727C97.1193 79.3714 96.8977 79.6895 96.608 80.0475C96.3239 80.4055 95.9318 80.718 95.4318 80.985C94.9318 81.252 94.2841 81.3856 93.4886 81.3856ZM94.0511 79.2123C94.7841 79.2123 95.4034 79.0191 95.9091 78.6327C96.4205 78.2407 96.8068 77.6981 97.0682 77.0049C97.3352 76.3117 97.4688 75.5049 97.4688 74.5844C97.4688 73.6753 97.3381 72.8799 97.0767 72.1981C96.8153 71.5162 96.4318 70.985 95.9261 70.6043C95.4205 70.2236 94.7955 70.0333 94.0511 70.0333C93.2841 70.0333 92.6449 70.2322 92.1335 70.6299C91.6222 71.0276 91.2358 71.5702 90.9744 72.2577C90.7188 72.9452 90.5909 73.7208 90.5909 74.5844C90.5909 75.4594 90.7216 76.2464 90.983 76.9452C91.2443 77.6441 91.6307 78.1981 92.142 78.6072C92.6591 79.0106 93.2955 79.2123 94.0511 79.2123ZM111.574 86.039C111.193 86.039 110.847 86.0077 110.534 85.9452C110.222 85.8884 109.989 85.8259 109.835 85.7577L110.449 83.6697C110.915 83.7947 111.33 83.8486 111.693 83.8316C112.057 83.8145 112.378 83.6782 112.656 83.4225C112.94 83.1668 113.19 82.7492 113.406 82.1697L113.722 81.3003L108.932 68.039H111.659L114.974 78.1981H115.111L118.426 68.039H121.162L115.767 82.877C115.517 83.5589 115.199 84.1356 114.812 84.6072C114.426 85.0844 113.966 85.4424 113.432 85.681C112.898 85.9197 112.278 86.039 111.574 86.039ZM128.626 81.3941C127.398 81.3941 126.327 81.1128 125.413 80.5503C124.498 79.9878 123.788 79.2009 123.282 78.1895C122.776 77.1782 122.523 75.9964 122.523 74.6441C122.523 73.2861 122.776 72.0986 123.282 71.0816C123.788 70.0645 124.498 69.2748 125.413 68.7123C126.327 68.1498 127.398 67.8685 128.626 67.8685C129.853 67.8685 130.924 68.1498 131.839 68.7123C132.754 69.2748 133.464 70.0645 133.969 71.0816C134.475 72.0986 134.728 73.2861 134.728 74.6441C134.728 75.9964 134.475 77.1782 133.969 78.1895C133.464 79.2009 132.754 79.9878 131.839 80.5503C130.924 81.1128 129.853 81.3941 128.626 81.3941ZM128.634 79.2549C129.43 79.2549 130.089 79.0447 130.612 78.6242C131.134 78.2037 131.521 77.6441 131.771 76.9452C132.026 76.2464 132.154 75.4765 132.154 74.6356C132.154 73.8003 132.026 73.0333 131.771 72.3344C131.521 71.6299 131.134 71.0645 130.612 70.6384C130.089 70.2123 129.43 69.9992 128.634 69.9992C127.833 69.9992 127.168 70.2123 126.64 70.6384C126.117 71.0645 125.728 71.6299 125.472 72.3344C125.222 73.0333 125.097 73.8003 125.097 74.6356C125.097 75.4765 125.222 76.2464 125.472 76.9452C125.728 77.6441 126.117 78.2037 126.64 78.6242C127.168 79.0447 127.833 79.2549 128.634 79.2549ZM145.865 75.7009V68.039H148.422V81.1299H145.916V78.8628H145.78C145.479 79.5617 144.996 80.1441 144.331 80.61C143.672 81.0702 142.851 81.3003 141.868 81.3003C141.027 81.3003 140.283 81.1157 139.635 80.7464C138.993 80.3714 138.487 79.8174 138.118 79.0844C137.754 78.3515 137.572 77.4452 137.572 76.3657V68.039H140.121V76.0589C140.121 76.9509 140.368 77.6611 140.862 78.1895C141.357 78.718 141.999 78.9822 142.788 78.9822C143.266 78.9822 143.74 78.8628 144.212 78.6242C144.689 78.3856 145.084 78.0248 145.396 77.5418C145.714 77.0589 145.871 76.4452 145.865 75.7009ZM151.846 81.1299V68.039H154.309V70.1185H154.445C154.684 69.414 155.104 68.86 155.707 68.4566C156.315 68.0475 157.002 67.843 157.769 67.843C157.928 67.843 158.116 67.8486 158.332 67.86C158.553 67.8714 158.727 67.8856 158.852 67.9026V70.3401C158.749 70.3117 158.567 70.2805 158.306 70.2464C158.045 70.2066 157.783 70.1867 157.522 70.1867C156.92 70.1867 156.383 70.3145 155.911 70.5702C155.445 70.8202 155.076 71.1697 154.803 71.6185C154.531 72.0617 154.394 72.5674 154.394 73.1356V81.1299H151.846ZM167.408 81.1299V68.039H169.854V70.1697H170.016C170.289 69.4481 170.735 68.8856 171.354 68.4822C171.974 68.0731 172.715 67.8685 173.579 67.8685C174.454 67.8685 175.187 68.0731 175.778 68.4822C176.374 68.8912 176.815 69.4537 177.099 70.1697H177.235C177.548 69.4708 178.045 68.914 178.727 68.4992C179.408 68.0787 180.221 67.8685 181.164 67.8685C182.352 67.8685 183.32 68.2407 184.07 68.985C184.826 69.7293 185.204 70.8515 185.204 72.3515V81.1299H182.656V72.5901C182.656 71.7037 182.414 71.0617 181.931 70.664C181.448 70.2662 180.871 70.0674 180.201 70.0674C179.371 70.0674 178.727 70.3231 178.266 70.8344C177.806 71.3401 177.576 71.9907 177.576 72.7861V81.1299H175.036V72.4282C175.036 71.718 174.815 71.1469 174.371 70.7151C173.928 70.2833 173.352 70.0674 172.641 70.0674C172.158 70.0674 171.712 70.1952 171.303 70.4509C170.9 70.7009 170.573 71.0503 170.323 71.4992C170.079 71.9481 169.957 72.468 169.957 73.0589V81.1299H167.408ZM194.261 81.3941C192.972 81.3941 191.861 81.1185 190.929 80.5674C190.003 80.0106 189.287 79.2293 188.781 78.2236C188.281 77.2123 188.031 76.0276 188.031 74.6697C188.031 73.3287 188.281 72.1469 188.781 71.1242C189.287 70.1015 189.991 69.3032 190.895 68.7293C191.804 68.1555 192.866 67.8685 194.082 67.8685C194.821 67.8685 195.537 67.9907 196.23 68.235C196.923 68.4793 197.545 68.8628 198.097 69.3856C198.648 69.9083 199.082 70.5873 199.401 71.4225C199.719 72.252 199.878 73.2606 199.878 74.4481V75.3515H189.472V73.4424H197.381C197.381 72.7719 197.244 72.1782 196.972 71.6611C196.699 71.1384 196.315 70.7265 195.821 70.4253C195.332 70.1242 194.759 69.9736 194.099 69.9736C193.384 69.9736 192.759 70.1498 192.224 70.502C191.696 70.8486 191.287 71.3032 190.997 71.8657C190.713 72.4225 190.571 73.0276 190.571 73.681V75.1725C190.571 76.0475 190.724 76.7918 191.031 77.4055C191.344 78.0191 191.778 78.4878 192.335 78.8117C192.892 79.1299 193.543 79.289 194.287 79.289C194.77 79.289 195.21 79.2208 195.608 79.0844C196.006 78.9424 196.349 78.7322 196.639 78.4537C196.929 78.1753 197.151 77.8316 197.304 77.4225L199.716 77.8572C199.523 78.5674 199.176 79.1895 198.676 79.7236C198.182 80.252 197.56 80.664 196.81 80.9594C196.065 81.2492 195.216 81.3941 194.261 81.3941ZM212.515 71.235L210.205 71.6441C210.109 71.3486 209.955 71.0674 209.745 70.8003C209.54 70.5333 209.262 70.3145 208.91 70.1441C208.558 69.9736 208.117 69.8884 207.589 69.8884C206.867 69.8884 206.265 70.0503 205.782 70.3742C205.299 70.6924 205.058 71.1043 205.058 71.61C205.058 72.0475 205.219 72.3998 205.543 72.6668C205.867 72.9339 206.39 73.1526 207.112 73.3231L209.191 73.8003C210.396 74.0787 211.293 74.5077 211.884 75.0873C212.475 75.6668 212.771 76.4197 212.771 77.3458C212.771 78.1299 212.543 78.8287 212.089 79.4424C211.64 80.0503 211.012 80.5276 210.205 80.8742C209.404 81.2208 208.475 81.3941 207.418 81.3941C205.952 81.3941 204.756 81.0816 203.83 80.4566C202.904 79.8259 202.336 78.931 202.126 77.7719L204.589 77.3969C204.742 78.039 205.058 78.5248 205.535 78.8543C206.012 79.1782 206.634 79.3401 207.401 79.3401C208.237 79.3401 208.904 79.1668 209.404 78.8202C209.904 78.468 210.154 78.039 210.154 77.5333C210.154 77.1242 210.001 76.7805 209.694 76.502C209.393 76.2236 208.93 76.0134 208.305 75.8714L206.089 75.3856C204.867 75.1072 203.964 74.664 203.379 74.056C202.799 73.4481 202.509 72.6782 202.509 71.7464C202.509 70.9736 202.725 70.2975 203.157 69.718C203.589 69.1384 204.185 68.6867 204.947 68.3628C205.708 68.0333 206.58 67.8685 207.563 67.8685C208.978 67.8685 210.092 68.1753 210.904 68.789C211.717 69.3969 212.254 70.2123 212.515 71.235ZM225.382 71.235L223.072 71.6441C222.976 71.3486 222.822 71.0674 222.612 70.8003C222.408 70.5333 222.129 70.3145 221.777 70.1441C221.425 69.9736 220.984 69.8884 220.456 69.8884C219.734 69.8884 219.132 70.0503 218.649 70.3742C218.166 70.6924 217.925 71.1043 217.925 71.61C217.925 72.0475 218.087 72.3998 218.411 72.6668C218.734 72.9339 219.257 73.1526 219.979 73.3231L222.058 73.8003C223.263 74.0787 224.161 74.5077 224.751 75.0873C225.342 75.6668 225.638 76.4197 225.638 77.3458C225.638 78.1299 225.411 78.8287 224.956 79.4424C224.507 80.0503 223.879 80.5276 223.072 80.8742C222.271 81.2208 221.342 81.3941 220.286 81.3941C218.82 81.3941 217.624 81.0816 216.697 80.4566C215.771 79.8259 215.203 78.931 214.993 77.7719L217.456 77.3969C217.609 78.039 217.925 78.5248 218.402 78.8543C218.879 79.1782 219.501 79.3401 220.268 79.3401C221.104 79.3401 221.771 79.1668 222.271 78.8202C222.771 78.468 223.021 78.039 223.021 77.5333C223.021 77.1242 222.868 76.7805 222.561 76.502C222.26 76.2236 221.797 76.0134 221.172 75.8714L218.956 75.3856C217.734 75.1072 216.831 74.664 216.246 74.056C215.666 73.4481 215.376 72.6782 215.376 71.7464C215.376 70.9736 215.592 70.2975 216.024 69.718C216.456 69.1384 217.053 68.6867 217.814 68.3628C218.575 68.0333 219.447 67.8685 220.43 67.8685C221.845 67.8685 222.959 68.1753 223.771 68.789C224.584 69.3969 225.121 70.2123 225.382 71.235ZM232.249 81.4197C231.42 81.4197 230.67 81.2662 229.999 80.9594C229.329 80.6469 228.798 80.1952 228.406 79.6043C228.019 79.0134 227.826 78.289 227.826 77.431C227.826 76.6924 227.968 76.0844 228.252 75.6072C228.536 75.1299 228.92 74.752 229.403 74.4736C229.886 74.1952 230.425 73.985 231.022 73.843C231.619 73.7009 232.227 73.593 232.846 73.5191C233.63 73.4282 234.266 73.3543 234.755 73.2975C235.244 73.235 235.599 73.1356 235.82 72.9992C236.042 72.8628 236.153 72.6412 236.153 72.3344V72.2748C236.153 71.5305 235.942 70.9537 235.522 70.5447C235.107 70.1356 234.488 69.931 233.664 69.931C232.806 69.931 232.13 70.1214 231.636 70.502C231.147 70.877 230.809 71.2947 230.621 71.7549L228.227 71.2094C228.511 70.414 228.925 69.7719 229.471 69.2833C230.022 68.789 230.656 68.431 231.371 68.2094C232.087 67.9822 232.84 67.8685 233.63 67.8685C234.153 67.8685 234.707 67.931 235.292 68.056C235.883 68.1753 236.434 68.3969 236.945 68.7208C237.462 69.0447 237.886 69.5077 238.215 70.11C238.545 70.7066 238.71 71.4822 238.71 72.4367V81.1299H236.221V79.3401H236.119C235.954 79.6697 235.707 79.9935 235.377 80.3117C235.048 80.6299 234.624 80.8941 234.107 81.1043C233.59 81.3145 232.971 81.4197 232.249 81.4197ZM232.803 79.3742C233.508 79.3742 234.11 79.235 234.61 78.9566C235.116 78.6782 235.499 78.3145 235.761 77.8657C236.028 77.4111 236.161 76.9253 236.161 76.4083V74.7208C236.07 74.8117 235.894 74.8969 235.633 74.9765C235.377 75.0503 235.085 75.1157 234.755 75.1725C234.425 75.2236 234.104 75.2719 233.792 75.3174C233.479 75.3572 233.218 75.3912 233.008 75.4197C232.513 75.4822 232.062 75.5873 231.653 75.735C231.249 75.8827 230.925 76.0958 230.681 76.3742C230.442 76.6469 230.323 77.0106 230.323 77.4651C230.323 78.0958 230.556 78.5731 231.022 78.8969C231.488 79.2151 232.082 79.3742 232.803 79.3742ZM247.592 86.3117C246.553 86.3117 245.658 86.1753 244.908 85.9026C244.163 85.6299 243.555 85.2691 243.084 84.8202C242.612 84.3714 242.26 83.8799 242.027 83.3458L244.217 82.4424C244.371 82.6924 244.575 82.9566 244.831 83.235C245.092 83.5191 245.445 83.7606 245.888 83.9594C246.337 84.1583 246.913 84.2577 247.618 84.2577C248.584 84.2577 249.382 84.0219 250.013 83.5503C250.643 83.0844 250.959 82.3401 250.959 81.3174V78.7435H250.797C250.643 79.0219 250.422 79.3316 250.132 79.6725C249.848 80.0134 249.456 80.3089 248.956 80.5589C248.456 80.8089 247.805 80.9339 247.004 80.9339C245.97 80.9339 245.038 80.6924 244.209 80.2094C243.385 79.7208 242.732 79.002 242.249 78.0532C241.771 77.0986 241.533 75.9253 241.533 74.5333C241.533 73.1412 241.768 71.9481 242.24 70.9537C242.717 69.9594 243.371 69.1981 244.2 68.6697C245.03 68.1356 245.97 67.8685 247.021 67.8685C247.834 67.8685 248.49 68.0049 248.99 68.2776C249.49 68.5447 249.879 68.8572 250.158 69.2151C250.442 69.5731 250.661 69.8884 250.814 70.1611H251.001V68.039H253.499V81.4197C253.499 82.5447 253.237 83.468 252.714 84.1895C252.192 84.9111 251.484 85.4452 250.592 85.7918C249.706 86.1384 248.706 86.3117 247.592 86.3117ZM247.567 78.8202C248.3 78.8202 248.919 78.6498 249.425 78.3089C249.936 77.9623 250.322 77.468 250.584 76.8259C250.851 76.1782 250.984 75.4026 250.984 74.4992C250.984 73.6185 250.854 72.843 250.592 72.1725C250.331 71.502 249.947 70.9793 249.442 70.6043C248.936 70.2236 248.311 70.0333 247.567 70.0333C246.8 70.0333 246.161 70.2322 245.649 70.6299C245.138 71.0219 244.751 71.556 244.49 72.2322C244.234 72.9083 244.107 73.664 244.107 74.4992C244.107 75.3572 244.237 76.11 244.499 76.7577C244.76 77.4055 245.146 77.9111 245.658 78.2748C246.175 78.6384 246.811 78.8202 247.567 78.8202ZM262.558 81.3941C261.268 81.3941 260.158 81.1185 259.226 80.5674C258.3 80.0106 257.584 79.2293 257.078 78.2236C256.578 77.2123 256.328 76.0276 256.328 74.6697C256.328 73.3287 256.578 72.1469 257.078 71.1242C257.584 70.1015 258.288 69.3032 259.192 68.7293C260.101 68.1555 261.163 67.8685 262.379 67.8685C263.118 67.8685 263.834 67.9907 264.527 68.235C265.22 68.4793 265.842 68.8628 266.393 69.3856C266.945 69.9083 267.379 70.5873 267.697 71.4225C268.016 72.252 268.175 73.2606 268.175 74.4481V75.3515H257.768V73.4424H265.678C265.678 72.7719 265.541 72.1782 265.268 71.6611C264.996 71.1384 264.612 70.7265 264.118 70.4253C263.629 70.1242 263.055 69.9736 262.396 69.9736C261.68 69.9736 261.055 70.1498 260.521 70.502C259.993 70.8486 259.584 71.3032 259.294 71.8657C259.01 72.4225 258.868 73.0276 258.868 73.681V75.1725C258.868 76.0475 259.021 76.7918 259.328 77.4055C259.641 78.0191 260.075 78.4878 260.632 78.8117C261.189 79.1299 261.839 79.289 262.584 79.289C263.067 79.289 263.507 79.2208 263.905 79.0844C264.303 78.9424 264.646 78.7322 264.936 78.4537C265.226 78.1753 265.447 77.8316 265.601 77.4225L268.013 77.8572C267.82 78.5674 267.473 79.1895 266.973 79.7236C266.479 80.252 265.857 80.664 265.107 80.9594C264.362 81.2492 263.513 81.3941 262.558 81.3941ZM283.464 68.039V70.0844H276.314V68.039H283.464ZM278.232 64.9026H280.78V77.2861C280.78 77.7805 280.854 78.1526 281.001 78.4026C281.149 78.6469 281.339 78.8145 281.572 78.9055C281.811 78.9907 282.07 79.0333 282.348 79.0333C282.553 79.0333 282.732 79.0191 282.885 78.9907C283.038 78.9623 283.158 78.9395 283.243 78.9225L283.703 81.0276C283.555 81.0844 283.345 81.1412 283.072 81.1981C282.8 81.2606 282.459 81.2947 282.05 81.3003C281.379 81.3117 280.754 81.1924 280.175 80.9424C279.595 80.6924 279.126 80.306 278.768 79.7833C278.411 79.2606 278.232 78.6043 278.232 77.8145V64.9026ZM291.657 81.3941C290.43 81.3941 289.359 81.1128 288.444 80.5503C287.529 79.9878 286.819 79.2009 286.313 78.1895C285.808 77.1782 285.555 75.9964 285.555 74.6441C285.555 73.2861 285.808 72.0986 286.313 71.0816C286.819 70.0645 287.529 69.2748 288.444 68.7123C289.359 68.1498 290.43 67.8685 291.657 67.8685C292.884 67.8685 293.955 68.1498 294.87 68.7123C295.785 69.2748 296.495 70.0645 297.001 71.0816C297.506 72.0986 297.759 73.2861 297.759 74.6441C297.759 75.9964 297.506 77.1782 297.001 78.1895C296.495 79.2009 295.785 79.9878 294.87 80.5503C293.955 81.1128 292.884 81.3941 291.657 81.3941ZM291.665 79.2549C292.461 79.2549 293.12 79.0447 293.643 78.6242C294.165 78.2037 294.552 77.6441 294.802 76.9452C295.058 76.2464 295.185 75.4765 295.185 74.6356C295.185 73.8003 295.058 73.0333 294.802 72.3344C294.552 71.6299 294.165 71.0645 293.643 70.6384C293.12 70.2123 292.461 69.9992 291.665 69.9992C290.864 69.9992 290.2 70.2123 289.671 70.6384C289.148 71.0645 288.759 71.6299 288.504 72.3344C288.254 73.0333 288.129 73.8003 288.129 74.6356C288.129 75.4765 288.254 76.2464 288.504 76.9452C288.759 77.6441 289.148 78.2037 289.671 78.6242C290.2 79.0447 290.864 79.2549 291.665 79.2549ZM306.955 81.1299V68.039H309.401V70.1697H309.563C309.836 69.4481 310.282 68.8856 310.901 68.4822C311.521 68.0731 312.262 67.8685 313.126 67.8685C314.001 67.8685 314.734 68.0731 315.325 68.4822C315.921 68.8912 316.362 69.4537 316.646 70.1697H316.782C317.094 69.4708 317.592 68.914 318.273 68.4992C318.955 68.0787 319.768 67.8685 320.711 67.8685C321.898 67.8685 322.867 68.2407 323.617 68.985C324.373 69.7293 324.751 70.8515 324.751 72.3515V81.1299H322.202V72.5901C322.202 71.7037 321.961 71.0617 321.478 70.664C320.995 70.2662 320.418 70.0674 319.748 70.0674C318.918 70.0674 318.273 70.3231 317.813 70.8344C317.353 71.3401 317.123 71.9907 317.123 72.7861V81.1299H314.583V72.4282C314.583 71.718 314.362 71.1469 313.918 70.7151C313.475 70.2833 312.898 70.0674 312.188 70.0674C311.705 70.0674 311.259 70.1952 310.85 70.4509C310.447 70.7009 310.12 71.0503 309.87 71.4992C309.626 71.9481 309.504 72.468 309.504 73.0589V81.1299H306.955ZM333.808 81.3941C332.518 81.3941 331.408 81.1185 330.476 80.5674C329.55 80.0106 328.834 79.2293 328.328 78.2236C327.828 77.2123 327.578 76.0276 327.578 74.6697C327.578 73.3287 327.828 72.1469 328.328 71.1242C328.834 70.1015 329.538 69.3032 330.442 68.7293C331.351 68.1555 332.413 67.8685 333.629 67.8685C334.368 67.8685 335.084 67.9907 335.777 68.235C336.47 68.4793 337.092 68.8628 337.643 69.3856C338.195 69.9083 338.629 70.5873 338.947 71.4225C339.266 72.252 339.425 73.2606 339.425 74.4481V75.3515H329.018V73.4424H336.928C336.928 72.7719 336.791 72.1782 336.518 71.6611C336.246 71.1384 335.862 70.7265 335.368 70.4253C334.879 70.1242 334.305 69.9736 333.646 69.9736C332.93 69.9736 332.305 70.1498 331.771 70.502C331.243 70.8486 330.834 71.3032 330.544 71.8657C330.26 72.4225 330.118 73.0276 330.118 73.681V75.1725C330.118 76.0475 330.271 76.7918 330.578 77.4055C330.891 78.0191 331.325 78.4878 331.882 78.8117C332.439 79.1299 333.089 79.289 333.834 79.289C334.317 79.289 334.757 79.2208 335.155 79.0844C335.553 78.9424 335.896 78.7322 336.186 78.4537C336.476 78.1753 336.697 77.8316 336.851 77.4225L339.263 77.8572C339.07 78.5674 338.723 79.1895 338.223 79.7236C337.729 80.252 337.107 80.664 336.357 80.9594C335.612 81.2492 334.763 81.3941 333.808 81.3941ZM351.152 73.3572V81.1299H348.604V63.6753H351.118V70.1697H351.28C351.587 69.4651 352.055 68.9055 352.686 68.4907C353.317 68.0759 354.141 67.8685 355.158 67.8685C356.055 67.8685 356.839 68.0532 357.51 68.4225C358.186 68.7918 358.709 69.343 359.078 70.0759C359.453 70.8032 359.641 71.7123 359.641 72.8032V81.1299H357.092V73.11C357.092 72.1498 356.845 71.4055 356.351 70.877C355.857 70.343 355.169 70.0759 354.288 70.0759C353.686 70.0759 353.146 70.2037 352.669 70.4594C352.197 70.7151 351.825 71.0901 351.553 71.5844C351.286 72.0731 351.152 72.664 351.152 73.3572ZM368.683 81.3941C367.393 81.3941 366.283 81.1185 365.351 80.5674C364.425 80.0106 363.709 79.2293 363.203 78.2236C362.703 77.2123 362.453 76.0276 362.453 74.6697C362.453 73.3287 362.703 72.1469 363.203 71.1242C363.709 70.1015 364.413 69.3032 365.317 68.7293C366.226 68.1555 367.288 67.8685 368.504 67.8685C369.243 67.8685 369.959 67.9907 370.652 68.235C371.345 68.4793 371.967 68.8628 372.518 69.3856C373.07 69.9083 373.504 70.5873 373.822 71.4225C374.141 72.252 374.3 73.2606 374.3 74.4481V75.3515H363.893V73.4424H371.803C371.803 72.7719 371.666 72.1782 371.393 71.6611C371.121 71.1384 370.737 70.7265 370.243 70.4253C369.754 70.1242 369.18 69.9736 368.521 69.9736C367.805 69.9736 367.18 70.1498 366.646 70.502C366.118 70.8486 365.709 71.3032 365.419 71.8657C365.135 72.4225 364.993 73.0276 364.993 73.681V75.1725C364.993 76.0475 365.146 76.7918 365.453 77.4055C365.766 78.0191 366.2 78.4878 366.757 78.8117C367.314 79.1299 367.964 79.289 368.709 79.289C369.192 79.289 369.632 79.2208 370.03 79.0844C370.428 78.9424 370.771 78.7322 371.061 78.4537C371.351 78.1753 371.572 77.8316 371.726 77.4225L374.138 77.8572C373.945 78.5674 373.598 79.1895 373.098 79.7236C372.604 80.252 371.982 80.664 371.232 80.9594C370.487 81.2492 369.638 81.3941 368.683 81.3941ZM377.127 81.1299V68.039H379.59V70.1185H379.727C379.965 69.414 380.386 68.86 380.988 68.4566C381.596 68.0475 382.283 67.843 383.05 67.843C383.21 67.843 383.397 67.8486 383.613 67.86C383.835 67.8714 384.008 67.8856 384.133 67.9026V70.3401C384.031 70.3117 383.849 70.2805 383.587 70.2464C383.326 70.2066 383.065 70.1867 382.803 70.1867C382.201 70.1867 381.664 70.3145 381.192 70.5702C380.727 70.8202 380.357 71.1697 380.085 71.6185C379.812 72.0617 379.675 72.5674 379.675 73.1356V81.1299H377.127ZM391.511 81.3941C390.222 81.3941 389.111 81.1185 388.179 80.5674C387.253 80.0106 386.537 79.2293 386.031 78.2236C385.531 77.2123 385.281 76.0276 385.281 74.6697C385.281 73.3287 385.531 72.1469 386.031 71.1242C386.537 70.1015 387.241 69.3032 388.145 68.7293C389.054 68.1555 390.116 67.8685 391.332 67.8685C392.071 67.8685 392.787 67.9907 393.48 68.235C394.173 68.4793 394.795 68.8628 395.347 69.3856C395.898 69.9083 396.332 70.5873 396.651 71.4225C396.969 72.252 397.128 73.2606 397.128 74.4481V75.3515H386.722V73.4424H394.631C394.631 72.7719 394.494 72.1782 394.222 71.6611C393.949 71.1384 393.565 70.7265 393.071 70.4253C392.582 70.1242 392.009 69.9736 391.349 69.9736C390.634 69.9736 390.009 70.1498 389.474 70.502C388.946 70.8486 388.537 71.3032 388.247 71.8657C387.963 72.4225 387.821 73.0276 387.821 73.681V75.1725C387.821 76.0475 387.974 76.7918 388.281 77.4055C388.594 78.0191 389.028 78.4878 389.585 78.8117C390.142 79.1299 390.793 79.289 391.537 79.289C392.02 79.289 392.46 79.2208 392.858 79.0844C393.256 78.9424 393.599 78.7322 393.889 78.4537C394.179 78.1753 394.401 77.8316 394.554 77.4225L396.966 77.8572C396.773 78.5674 396.426 79.1895 395.926 79.7236C395.432 80.252 394.81 80.664 394.06 80.9594C393.315 81.2492 392.466 81.3941 391.511 81.3941ZM403.271 78.7435L403.143 79.6725C403.058 80.3543 402.913 81.0645 402.708 81.8032C402.509 82.5475 402.302 83.2378 402.086 83.8742C401.876 84.5106 401.702 85.0162 401.566 85.3912H399.759C399.833 85.039 399.935 84.5617 400.066 83.9594C400.197 83.3628 400.325 82.6952 400.45 81.9566C400.575 81.218 400.668 80.4651 400.731 79.6981L400.816 78.7435H403.271ZM417.84 81.3856C416.783 81.3856 415.84 81.1157 415.011 80.5759C414.187 80.0305 413.539 79.2549 413.067 78.2492C412.602 77.2378 412.369 76.0248 412.369 74.61C412.369 73.1952 412.604 71.985 413.076 70.9793C413.553 69.9736 414.207 69.2037 415.036 68.6697C415.866 68.1356 416.806 67.8685 417.857 67.8685C418.67 67.8685 419.323 68.0049 419.817 68.2776C420.317 68.5447 420.704 68.8572 420.977 69.2151C421.255 69.5731 421.471 69.8884 421.624 70.1611H421.778V63.6753H424.326V81.1299H421.837V79.093H421.624C421.471 79.3714 421.249 79.6895 420.96 80.0475C420.675 80.4055 420.283 80.718 419.783 80.985C419.283 81.252 418.636 81.3856 417.84 81.3856ZM418.403 79.2123C419.136 79.2123 419.755 79.0191 420.261 78.6327C420.772 78.2407 421.158 77.6981 421.42 77.0049C421.687 76.3117 421.82 75.5049 421.82 74.5844C421.82 73.6753 421.69 72.8799 421.428 72.1981C421.167 71.5162 420.783 70.985 420.278 70.6043C419.772 70.2236 419.147 70.0333 418.403 70.0333C417.636 70.0333 416.996 70.2322 416.485 70.6299C415.974 71.0276 415.587 71.5702 415.326 72.2577C415.07 72.9452 414.942 73.7208 414.942 74.5844C414.942 75.4594 415.073 76.2464 415.335 76.9452C415.596 77.6441 415.982 78.1981 416.494 78.6072C417.011 79.0106 417.647 79.2123 418.403 79.2123ZM431.773 81.4197C430.943 81.4197 430.193 81.2662 429.523 80.9594C428.852 80.6469 428.321 80.1952 427.929 79.6043C427.543 79.0134 427.349 78.289 427.349 77.431C427.349 76.6924 427.491 76.0844 427.776 75.6072C428.06 75.1299 428.443 74.752 428.926 74.4736C429.409 74.1952 429.949 73.985 430.545 73.843C431.142 73.7009 431.75 73.593 432.369 73.5191C433.153 73.4282 433.79 73.3543 434.278 73.2975C434.767 73.235 435.122 73.1356 435.344 72.9992C435.565 72.8628 435.676 72.6412 435.676 72.3344V72.2748C435.676 71.5305 435.466 70.9537 435.045 70.5447C434.631 70.1356 434.011 69.931 433.188 69.931C432.33 69.931 431.653 70.1214 431.159 70.502C430.67 70.877 430.332 71.2947 430.145 71.7549L427.75 71.2094C428.034 70.414 428.449 69.7719 428.994 69.2833C429.545 68.789 430.179 68.431 430.895 68.2094C431.611 67.9822 432.364 67.8685 433.153 67.8685C433.676 67.8685 434.23 67.931 434.815 68.056C435.406 68.1753 435.957 68.3969 436.469 68.7208C436.986 69.0447 437.409 69.5077 437.739 70.11C438.068 70.7066 438.233 71.4822 438.233 72.4367V81.1299H435.744V79.3401H435.642C435.477 79.6697 435.23 79.9935 434.901 80.3117C434.571 80.6299 434.148 80.8941 433.631 81.1043C433.114 81.3145 432.494 81.4197 431.773 81.4197ZM432.327 79.3742C433.031 79.3742 433.634 79.235 434.134 78.9566C434.639 78.6782 435.023 78.3145 435.284 77.8657C435.551 77.4111 435.685 76.9253 435.685 76.4083V74.7208C435.594 74.8117 435.418 74.8969 435.156 74.9765C434.901 75.0503 434.608 75.1157 434.278 75.1725C433.949 75.2236 433.628 75.2719 433.315 75.3174C433.003 75.3572 432.741 75.3912 432.531 75.4197C432.037 75.4822 431.585 75.5873 431.176 75.735C430.773 75.8827 430.449 76.0958 430.205 76.3742C429.966 76.6469 429.847 77.0106 429.847 77.4651C429.847 78.0958 430.08 78.5731 430.545 78.8969C431.011 79.2151 431.605 79.3742 432.327 79.3742ZM441.627 81.1299V68.039H444.09V70.1185H444.227C444.465 69.414 444.886 68.86 445.488 68.4566C446.096 68.0475 446.783 67.843 447.55 67.843C447.71 67.843 447.897 67.8486 448.113 67.86C448.335 67.8714 448.508 67.8856 448.633 67.9026V70.3401C448.531 70.3117 448.349 70.2805 448.087 70.2464C447.826 70.2066 447.565 70.1867 447.303 70.1867C446.701 70.1867 446.164 70.3145 445.692 70.5702C445.227 70.8202 444.857 71.1697 444.585 71.6185C444.312 72.0617 444.175 72.5674 444.175 73.1356V81.1299H441.627ZM453.386 63.6753V81.1299H450.838V63.6753H453.386ZM456.815 81.1299V68.039H459.363V81.1299H456.815ZM458.102 66.0191C457.658 66.0191 457.278 65.8714 456.96 65.5759C456.647 65.2748 456.491 64.9168 456.491 64.502C456.491 64.0816 456.647 63.7236 456.96 63.4282C457.278 63.127 457.658 62.9765 458.102 62.9765C458.545 62.9765 458.923 63.127 459.235 63.4282C459.553 63.7236 459.712 64.0816 459.712 64.502C459.712 64.9168 459.553 65.2748 459.235 65.5759C458.923 65.8714 458.545 66.0191 458.102 66.0191ZM465.339 73.3572V81.1299H462.791V68.039H465.237V70.1697H465.399C465.7 69.4765 466.172 68.9197 466.814 68.4992C467.462 68.0787 468.277 67.8685 469.26 67.8685C470.152 67.8685 470.933 68.056 471.604 68.431C472.274 68.8003 472.794 69.3515 473.163 70.0844C473.533 70.8174 473.717 71.7236 473.717 72.8032V81.1299H471.169V73.11C471.169 72.1611 470.922 71.4197 470.428 70.8856C469.933 70.3458 469.254 70.0759 468.391 70.0759C467.8 70.0759 467.274 70.2037 466.814 70.4594C466.359 70.7151 465.999 71.0901 465.732 71.5844C465.47 72.0731 465.339 72.664 465.339 73.3572ZM482.624 86.3117C481.584 86.3117 480.689 86.1753 479.939 85.9026C479.195 85.6299 478.587 85.2691 478.115 84.8202C477.643 84.3714 477.291 83.8799 477.058 83.3458L479.249 82.4424C479.402 82.6924 479.607 82.9566 479.862 83.235C480.124 83.5191 480.476 83.7606 480.919 83.9594C481.368 84.1583 481.945 84.2577 482.649 84.2577C483.615 84.2577 484.413 84.0219 485.044 83.5503C485.675 83.0844 485.99 82.3401 485.99 81.3174V78.7435H485.828C485.675 79.0219 485.453 79.3316 485.163 79.6725C484.879 80.0134 484.487 80.3089 483.987 80.5589C483.487 80.8089 482.837 80.9339 482.036 80.9339C481.001 80.9339 480.07 80.6924 479.24 80.2094C478.416 79.7208 477.763 79.002 477.28 78.0532C476.803 77.0986 476.564 75.9253 476.564 74.5333C476.564 73.1412 476.8 71.9481 477.271 70.9537C477.749 69.9594 478.402 69.1981 479.232 68.6697C480.061 68.1356 481.001 67.8685 482.053 67.8685C482.865 67.8685 483.521 68.0049 484.021 68.2776C484.521 68.5447 484.911 68.8572 485.189 69.2151C485.473 69.5731 485.692 69.8884 485.845 70.1611H486.033V68.039H488.53V81.4197C488.53 82.5447 488.268 83.468 487.746 84.1895C487.223 84.9111 486.516 85.4452 485.624 85.7918C484.737 86.1384 483.737 86.3117 482.624 86.3117ZM482.598 78.8202C483.331 78.8202 483.95 78.6498 484.456 78.3089C484.967 77.9623 485.354 77.468 485.615 76.8259C485.882 76.1782 486.016 75.4026 486.016 74.4992C486.016 73.6185 485.885 72.843 485.624 72.1725C485.362 71.502 484.979 70.9793 484.473 70.6043C483.967 70.2236 483.342 70.0333 482.598 70.0333C481.831 70.0333 481.192 70.2322 480.68 70.6299C480.169 71.0219 479.783 71.556 479.521 72.2322C479.266 72.9083 479.138 73.664 479.138 74.4992C479.138 75.3572 479.268 76.11 479.53 76.7577C479.791 77.4055 480.178 77.9111 480.689 78.2748C481.206 78.6384 481.842 78.8202 482.598 78.8202ZM495.161 63.6753L494.939 76.11H492.578L492.357 63.6753H495.161ZM493.763 81.2918C493.291 81.2918 492.888 81.127 492.553 80.7975C492.217 80.4623 492.053 80.0589 492.058 79.5873C492.053 79.1214 492.217 78.7236 492.553 78.3941C492.888 78.0589 493.291 77.8912 493.763 77.8912C494.223 77.8912 494.621 78.0589 494.956 78.3941C495.291 78.7236 495.462 79.1214 495.467 79.5873C495.462 79.8998 495.379 80.1867 495.22 80.4481C495.067 80.7037 494.862 80.9083 494.607 81.0617C494.351 81.2151 494.07 81.2918 493.763 81.2918Z" fill="white"/>
<path d="M337.5 2.12988L352.655 30.6299H322.345L337.5 2.12988Z" fill="#0078FF" stroke="#CCCCCF" stroke-width="2"/>
<rect x="320" y="29.1299" width="35" height="4" fill="#0078FF"/>
</svg>
