<svg width="612" height="120" viewBox="0 0 612 120" fill="none" xmlns="http://www.w3.org/2000/svg">
<rect x="1" y="27" width="610" height="92" rx="19" fill="#FF3FDC" stroke="#CCCCCF" stroke-width="2"/>
<path d="M54.4375 66.1307C54.3466 65.3239 53.9716 64.6989 53.3125 64.2557C52.6534 63.8068 51.8239 63.5824 50.8239 63.5824C50.108 63.5824 49.4886 63.696 48.9659 63.9233C48.4432 64.1449 48.0369 64.4517 47.7472 64.8438C47.4631 65.2301 47.321 65.6705 47.321 66.1648C47.321 66.5795 47.4176 66.9375 47.6108 67.2386C47.8097 67.5398 48.0682 67.7926 48.3864 67.9972C48.7102 68.196 49.0568 68.3636 49.4261 68.5C49.7955 68.6307 50.1506 68.7386 50.4915 68.8239L52.196 69.267C52.7528 69.4034 53.3239 69.5881 53.9091 69.821C54.4943 70.054 55.0369 70.3608 55.5369 70.7415C56.0369 71.1222 56.4403 71.5938 56.7472 72.1562C57.0597 72.7188 57.2159 73.392 57.2159 74.1761C57.2159 75.1648 56.9602 76.0426 56.4489 76.8097C55.9432 77.5767 55.2074 78.1818 54.2415 78.625C53.2813 79.0682 52.1193 79.2898 50.7557 79.2898C49.4489 79.2898 48.3182 79.0824 47.3636 78.6676C46.4091 78.2528 45.6619 77.6648 45.1222 76.9034C44.5824 76.1364 44.2841 75.2273 44.2273 74.1761H46.8693C46.9205 74.8068 47.125 75.3324 47.483 75.7528C47.8466 76.1676 48.3097 76.4773 48.8722 76.6818C49.4403 76.8807 50.0625 76.9801 50.7386 76.9801C51.483 76.9801 52.1449 76.8636 52.7244 76.6307C53.3097 76.392 53.7699 76.0625 54.1051 75.642C54.4403 75.2159 54.608 74.7187 54.608 74.1506C54.608 73.6335 54.4602 73.2102 54.1648 72.8807C53.875 72.5511 53.4801 72.2784 52.9801 72.0625C52.4858 71.8466 51.9261 71.6562 51.3011 71.4915L49.2386 70.929C47.8409 70.5483 46.733 69.9886 45.9148 69.25C45.1023 68.5114 44.696 67.5341 44.696 66.3182C44.696 65.3125 44.9688 64.4347 45.5142 63.6847C46.0597 62.9347 46.7983 62.3523 47.7301 61.9375C48.6619 61.517 49.7131 61.3068 50.8835 61.3068C52.0653 61.3068 53.108 61.5142 54.0114 61.929C54.9205 62.3438 55.6364 62.9148 56.1591 63.642C56.6818 64.3636 56.9545 65.1932 56.9773 66.1307H54.4375ZM65.8004 79.2642C64.5107 79.2642 63.3999 78.9886 62.468 78.4375C61.5419 77.8807 60.826 77.0994 60.3203 76.0938C59.8203 75.0824 59.5703 73.8977 59.5703 72.5398C59.5703 71.1989 59.8203 70.017 60.3203 68.9943C60.826 67.9716 61.5305 67.1733 62.4339 66.5994C63.343 66.0256 64.4055 65.7386 65.6214 65.7386C66.3601 65.7386 67.076 65.8608 67.7692 66.1051C68.4624 66.3494 69.0845 66.733 69.6357 67.2557C70.1868 67.7784 70.6214 68.4574 70.9396 69.2926C71.2578 70.1222 71.4169 71.1307 71.4169 72.3182V73.2216H61.0107V71.3125H68.9197C68.9197 70.642 68.7834 70.0483 68.5107 69.5312C68.2379 69.0085 67.8544 68.5966 67.3601 68.2955C66.8714 67.9943 66.2976 67.8438 65.6385 67.8438C64.9226 67.8438 64.2976 68.0199 63.7635 68.3722C63.2351 68.7187 62.826 69.1733 62.5362 69.7358C62.2521 70.2926 62.1101 70.8977 62.1101 71.5511V73.0426C62.1101 73.9176 62.2635 74.6619 62.5703 75.2756C62.8828 75.8892 63.3175 76.358 63.8743 76.6818C64.4311 77 65.0817 77.1591 65.826 77.1591C66.3089 77.1591 66.7493 77.0909 67.147 76.9545C67.5447 76.8125 67.8885 76.6023 68.1783 76.3239C68.468 76.0455 68.6896 75.7017 68.843 75.2926L71.255 75.7273C71.0618 76.4375 70.7152 77.0597 70.2152 77.5938C69.7209 78.1222 69.0987 78.5341 68.3487 78.8295C67.6044 79.1193 66.755 79.2642 65.8004 79.2642ZM76.7926 71.2273V79H74.2443V65.9091H76.6903V68.0398H76.8523C77.1534 67.3466 77.625 66.7898 78.267 66.3693C78.9148 65.9489 79.7301 65.7386 80.7131 65.7386C81.6051 65.7386 82.3864 65.9261 83.0568 66.3011C83.7273 66.6705 84.2472 67.2216 84.6165 67.9545C84.9858 68.6875 85.1705 69.5937 85.1705 70.6733V79H82.6222V70.9801C82.6222 70.0312 82.375 69.2898 81.8807 68.7557C81.3864 68.2159 80.7074 67.946 79.8438 67.946C79.2528 67.946 78.7273 68.0739 78.267 68.3295C77.8125 68.5852 77.4517 68.9602 77.1847 69.4545C76.9233 69.9432 76.7926 70.5341 76.7926 71.2273ZM93.4886 79.2557C92.4318 79.2557 91.4886 78.9858 90.6591 78.446C89.8352 77.9006 89.1875 77.125 88.7159 76.1193C88.25 75.108 88.017 73.8949 88.017 72.4801C88.017 71.0653 88.2528 69.8551 88.7244 68.8494C89.2017 67.8437 89.8551 67.0739 90.6847 66.5398C91.5142 66.0057 92.4545 65.7386 93.5057 65.7386C94.3182 65.7386 94.9716 65.875 95.4659 66.1477C95.9659 66.4148 96.3523 66.7273 96.625 67.0852C96.9034 67.4432 97.1193 67.7585 97.2727 68.0312H97.4261V61.5455H99.9744V79H97.4858V76.9631H97.2727C97.1193 77.2415 96.8977 77.5597 96.608 77.9176C96.3239 78.2756 95.9318 78.5881 95.4318 78.8551C94.9318 79.1222 94.2841 79.2557 93.4886 79.2557ZM94.0511 77.0824C94.7841 77.0824 95.4034 76.8892 95.9091 76.5028C96.4205 76.1108 96.8068 75.5682 97.0682 74.875C97.3352 74.1818 97.4688 73.375 97.4688 72.4545C97.4688 71.5455 97.3381 70.75 97.0767 70.0682C96.8153 69.3864 96.4318 68.8551 95.9261 68.4744C95.4205 68.0937 94.7955 67.9034 94.0511 67.9034C93.2841 67.9034 92.6449 68.1023 92.1335 68.5C91.6222 68.8977 91.2358 69.4403 90.9744 70.1278C90.7188 70.8153 90.5909 71.5909 90.5909 72.4545C90.5909 73.3295 90.7216 74.1165 90.983 74.8153C91.2443 75.5142 91.6307 76.0682 92.142 76.4773C92.6591 76.8807 93.2955 77.0824 94.0511 77.0824ZM111.574 83.9091C111.193 83.9091 110.847 83.8778 110.534 83.8153C110.222 83.7585 109.989 83.696 109.835 83.6278L110.449 81.5398C110.915 81.6648 111.33 81.7188 111.693 81.7017C112.057 81.6847 112.378 81.5483 112.656 81.2926C112.94 81.0369 113.19 80.6193 113.406 80.0398L113.722 79.1705L108.932 65.9091H111.659L114.974 76.0682H115.111L118.426 65.9091H121.162L115.767 80.7472C115.517 81.429 115.199 82.0057 114.812 82.4773C114.426 82.9545 113.966 83.3125 113.432 83.5511C112.898 83.7898 112.278 83.9091 111.574 83.9091ZM128.626 79.2642C127.398 79.2642 126.327 78.983 125.413 78.4205C124.498 77.858 123.788 77.071 123.282 76.0597C122.776 75.0483 122.523 73.8665 122.523 72.5142C122.523 71.1562 122.776 69.9687 123.282 68.9517C123.788 67.9347 124.498 67.1449 125.413 66.5824C126.327 66.0199 127.398 65.7386 128.626 65.7386C129.853 65.7386 130.924 66.0199 131.839 66.5824C132.754 67.1449 133.464 67.9347 133.969 68.9517C134.475 69.9687 134.728 71.1562 134.728 72.5142C134.728 73.8665 134.475 75.0483 133.969 76.0597C133.464 77.071 132.754 77.858 131.839 78.4205C130.924 78.983 129.853 79.2642 128.626 79.2642ZM128.634 77.125C129.43 77.125 130.089 76.9148 130.612 76.4943C131.134 76.0739 131.521 75.5142 131.771 74.8153C132.026 74.1165 132.154 73.3466 132.154 72.5057C132.154 71.6705 132.026 70.9034 131.771 70.2045C131.521 69.5 131.134 68.9347 130.612 68.5085C130.089 68.0824 129.43 67.8693 128.634 67.8693C127.833 67.8693 127.168 68.0824 126.64 68.5085C126.117 68.9347 125.728 69.5 125.472 70.2045C125.222 70.9034 125.097 71.6705 125.097 72.5057C125.097 73.3466 125.222 74.1165 125.472 74.8153C125.728 75.5142 126.117 76.0739 126.64 76.4943C127.168 76.9148 127.833 77.125 128.634 77.125ZM145.865 73.571V65.9091H148.422V79H145.916V76.733H145.78C145.479 77.4318 144.996 78.0142 144.331 78.4801C143.672 78.9403 142.851 79.1705 141.868 79.1705C141.027 79.1705 140.283 78.9858 139.635 78.6165C138.993 78.2415 138.487 77.6875 138.118 76.9545C137.754 76.2216 137.572 75.3153 137.572 74.2358V65.9091H140.121V73.929C140.121 74.821 140.368 75.5312 140.862 76.0597C141.357 76.5881 141.999 76.8523 142.788 76.8523C143.266 76.8523 143.74 76.733 144.212 76.4943C144.689 76.2557 145.084 75.8949 145.396 75.4119C145.714 74.929 145.871 74.3153 145.865 73.571ZM151.846 79V65.9091H154.309V67.9886H154.445C154.684 67.2841 155.104 66.7301 155.707 66.3267C156.315 65.9176 157.002 65.7131 157.769 65.7131C157.928 65.7131 158.116 65.7187 158.332 65.7301C158.553 65.7415 158.727 65.7557 158.852 65.7727V68.2102C158.749 68.1818 158.567 68.1506 158.306 68.1165C158.045 68.0767 157.783 68.0568 157.522 68.0568C156.92 68.0568 156.383 68.1847 155.911 68.4403C155.445 68.6903 155.076 69.0398 154.803 69.4886C154.531 69.9318 154.394 70.4375 154.394 71.0057V79H151.846ZM167.408 79V65.9091H169.854V68.0398H170.016C170.289 67.3182 170.735 66.7557 171.354 66.3523C171.974 65.9432 172.715 65.7386 173.579 65.7386C174.454 65.7386 175.187 65.9432 175.778 66.3523C176.374 66.7614 176.815 67.3239 177.099 68.0398H177.235C177.548 67.3409 178.045 66.7841 178.727 66.3693C179.408 65.9489 180.221 65.7386 181.164 65.7386C182.352 65.7386 183.32 66.1108 184.07 66.8551C184.826 67.5994 185.204 68.7216 185.204 70.2216V79H182.656V70.4602C182.656 69.5739 182.414 68.9318 181.931 68.5341C181.448 68.1364 180.871 67.9375 180.201 67.9375C179.371 67.9375 178.727 68.1932 178.266 68.7045C177.806 69.2102 177.576 69.8608 177.576 70.6562V79H175.036V70.2983C175.036 69.5881 174.815 69.017 174.371 68.5852C173.928 68.1534 173.352 67.9375 172.641 67.9375C172.158 67.9375 171.712 68.0653 171.303 68.321C170.9 68.571 170.573 68.9205 170.323 69.3693C170.079 69.8182 169.957 70.3381 169.957 70.929V79H167.408ZM194.261 79.2642C192.972 79.2642 191.861 78.9886 190.929 78.4375C190.003 77.8807 189.287 77.0994 188.781 76.0938C188.281 75.0824 188.031 73.8977 188.031 72.5398C188.031 71.1989 188.281 70.017 188.781 68.9943C189.287 67.9716 189.991 67.1733 190.895 66.5994C191.804 66.0256 192.866 65.7386 194.082 65.7386C194.821 65.7386 195.537 65.8608 196.23 66.1051C196.923 66.3494 197.545 66.733 198.097 67.2557C198.648 67.7784 199.082 68.4574 199.401 69.2926C199.719 70.1222 199.878 71.1307 199.878 72.3182V73.2216H189.472V71.3125H197.381C197.381 70.642 197.244 70.0483 196.972 69.5312C196.699 69.0085 196.315 68.5966 195.821 68.2955C195.332 67.9943 194.759 67.8438 194.099 67.8438C193.384 67.8438 192.759 68.0199 192.224 68.3722C191.696 68.7187 191.287 69.1733 190.997 69.7358C190.713 70.2926 190.571 70.8977 190.571 71.5511V73.0426C190.571 73.9176 190.724 74.6619 191.031 75.2756C191.344 75.8892 191.778 76.358 192.335 76.6818C192.892 77 193.543 77.1591 194.287 77.1591C194.77 77.1591 195.21 77.0909 195.608 76.9545C196.006 76.8125 196.349 76.6023 196.639 76.3239C196.929 76.0455 197.151 75.7017 197.304 75.2926L199.716 75.7273C199.523 76.4375 199.176 77.0597 198.676 77.5938C198.182 78.1222 197.56 78.5341 196.81 78.8295C196.065 79.1193 195.216 79.2642 194.261 79.2642ZM212.515 69.1051L210.205 69.5142C210.109 69.2187 209.955 68.9375 209.745 68.6705C209.54 68.4034 209.262 68.1847 208.91 68.0142C208.558 67.8437 208.117 67.7585 207.589 67.7585C206.867 67.7585 206.265 67.9205 205.782 68.2443C205.299 68.5625 205.058 68.9744 205.058 69.4801C205.058 69.9176 205.219 70.2699 205.543 70.5369C205.867 70.804 206.39 71.0227 207.112 71.1932L209.191 71.6705C210.396 71.9489 211.293 72.3778 211.884 72.9574C212.475 73.5369 212.771 74.2898 212.771 75.2159C212.771 76 212.543 76.6989 212.089 77.3125C211.64 77.9205 211.012 78.3977 210.205 78.7443C209.404 79.0909 208.475 79.2642 207.418 79.2642C205.952 79.2642 204.756 78.9517 203.83 78.3267C202.904 77.696 202.336 76.8011 202.126 75.642L204.589 75.267C204.742 75.9091 205.058 76.3949 205.535 76.7244C206.012 77.0483 206.634 77.2102 207.401 77.2102C208.237 77.2102 208.904 77.0369 209.404 76.6903C209.904 76.3381 210.154 75.9091 210.154 75.4034C210.154 74.9943 210.001 74.6506 209.694 74.3722C209.393 74.0937 208.93 73.8835 208.305 73.7415L206.089 73.2557C204.867 72.9773 203.964 72.5341 203.379 71.9261C202.799 71.3182 202.509 70.5483 202.509 69.6165C202.509 68.8437 202.725 68.1676 203.157 67.5881C203.589 67.0085 204.185 66.5568 204.947 66.233C205.708 65.9034 206.58 65.7386 207.563 65.7386C208.978 65.7386 210.092 66.0455 210.904 66.6591C211.717 67.267 212.254 68.0824 212.515 69.1051ZM225.382 69.1051L223.072 69.5142C222.976 69.2187 222.822 68.9375 222.612 68.6705C222.408 68.4034 222.129 68.1847 221.777 68.0142C221.425 67.8437 220.984 67.7585 220.456 67.7585C219.734 67.7585 219.132 67.9205 218.649 68.2443C218.166 68.5625 217.925 68.9744 217.925 69.4801C217.925 69.9176 218.087 70.2699 218.411 70.5369C218.734 70.804 219.257 71.0227 219.979 71.1932L222.058 71.6705C223.263 71.9489 224.161 72.3778 224.751 72.9574C225.342 73.5369 225.638 74.2898 225.638 75.2159C225.638 76 225.411 76.6989 224.956 77.3125C224.507 77.9205 223.879 78.3977 223.072 78.7443C222.271 79.0909 221.342 79.2642 220.286 79.2642C218.82 79.2642 217.624 78.9517 216.697 78.3267C215.771 77.696 215.203 76.8011 214.993 75.642L217.456 75.267C217.609 75.9091 217.925 76.3949 218.402 76.7244C218.879 77.0483 219.501 77.2102 220.268 77.2102C221.104 77.2102 221.771 77.0369 222.271 76.6903C222.771 76.3381 223.021 75.9091 223.021 75.4034C223.021 74.9943 222.868 74.6506 222.561 74.3722C222.26 74.0937 221.797 73.8835 221.172 73.7415L218.956 73.2557C217.734 72.9773 216.831 72.5341 216.246 71.9261C215.666 71.3182 215.376 70.5483 215.376 69.6165C215.376 68.8437 215.592 68.1676 216.024 67.5881C216.456 67.0085 217.053 66.5568 217.814 66.233C218.575 65.9034 219.447 65.7386 220.43 65.7386C221.845 65.7386 222.959 66.0455 223.771 66.6591C224.584 67.267 225.121 68.0824 225.382 69.1051ZM232.249 79.2898C231.42 79.2898 230.67 79.1364 229.999 78.8295C229.329 78.517 228.798 78.0653 228.406 77.4744C228.019 76.8835 227.826 76.1591 227.826 75.3011C227.826 74.5625 227.968 73.9545 228.252 73.4773C228.536 73 228.92 72.6222 229.403 72.3438C229.886 72.0653 230.425 71.8551 231.022 71.7131C231.619 71.571 232.227 71.4631 232.846 71.3892C233.63 71.2983 234.266 71.2244 234.755 71.1676C235.244 71.1051 235.599 71.0057 235.82 70.8693C236.042 70.733 236.153 70.5114 236.153 70.2045V70.1449C236.153 69.4006 235.942 68.8239 235.522 68.4148C235.107 68.0057 234.488 67.8011 233.664 67.8011C232.806 67.8011 232.13 67.9915 231.636 68.3722C231.147 68.7472 230.809 69.1648 230.621 69.625L228.227 69.0795C228.511 68.2841 228.925 67.642 229.471 67.1534C230.022 66.6591 230.656 66.3011 231.371 66.0795C232.087 65.8523 232.84 65.7386 233.63 65.7386C234.153 65.7386 234.707 65.8011 235.292 65.9261C235.883 66.0455 236.434 66.267 236.945 66.5909C237.462 66.9148 237.886 67.3778 238.215 67.9801C238.545 68.5767 238.71 69.3523 238.71 70.3068V79H236.221V77.2102H236.119C235.954 77.5398 235.707 77.8636 235.377 78.1818C235.048 78.5 234.624 78.7642 234.107 78.9744C233.59 79.1847 232.971 79.2898 232.249 79.2898ZM232.803 77.2443C233.508 77.2443 234.11 77.1051 234.61 76.8267C235.116 76.5483 235.499 76.1847 235.761 75.7358C236.028 75.2812 236.161 74.7955 236.161 74.2784V72.5909C236.07 72.6818 235.894 72.767 235.633 72.8466C235.377 72.9205 235.085 72.9858 234.755 73.0426C234.425 73.0937 234.104 73.142 233.792 73.1875C233.479 73.2273 233.218 73.2614 233.008 73.2898C232.513 73.3523 232.062 73.4574 231.653 73.6051C231.249 73.7528 230.925 73.9659 230.681 74.2443C230.442 74.517 230.323 74.8807 230.323 75.3352C230.323 75.9659 230.556 76.4432 231.022 76.767C231.488 77.0852 232.082 77.2443 232.803 77.2443ZM247.592 84.1818C246.553 84.1818 245.658 84.0455 244.908 83.7727C244.163 83.5 243.555 83.1392 243.084 82.6903C242.612 82.2415 242.26 81.75 242.027 81.2159L244.217 80.3125C244.371 80.5625 244.575 80.8267 244.831 81.1051C245.092 81.3892 245.445 81.6307 245.888 81.8295C246.337 82.0284 246.913 82.1278 247.618 82.1278C248.584 82.1278 249.382 81.892 250.013 81.4205C250.643 80.9545 250.959 80.2102 250.959 79.1875V76.6136H250.797C250.643 76.892 250.422 77.2017 250.132 77.5426C249.848 77.8835 249.456 78.179 248.956 78.429C248.456 78.679 247.805 78.804 247.004 78.804C245.97 78.804 245.038 78.5625 244.209 78.0795C243.385 77.5909 242.732 76.8722 242.249 75.9233C241.771 74.9687 241.533 73.7955 241.533 72.4034C241.533 71.0114 241.768 69.8182 242.24 68.8239C242.717 67.8295 243.371 67.0682 244.2 66.5398C245.03 66.0057 245.97 65.7386 247.021 65.7386C247.834 65.7386 248.49 65.875 248.99 66.1477C249.49 66.4148 249.879 66.7273 250.158 67.0852C250.442 67.4432 250.661 67.7585 250.814 68.0312H251.001V65.9091H253.499V79.2898C253.499 80.4148 253.237 81.3381 252.714 82.0597C252.192 82.7813 251.484 83.3153 250.592 83.6619C249.706 84.0085 248.706 84.1818 247.592 84.1818ZM247.567 76.6903C248.3 76.6903 248.919 76.5199 249.425 76.179C249.936 75.8324 250.322 75.3381 250.584 74.696C250.851 74.0483 250.984 73.2727 250.984 72.3693C250.984 71.4886 250.854 70.7131 250.592 70.0426C250.331 69.3722 249.947 68.8494 249.442 68.4744C248.936 68.0937 248.311 67.9034 247.567 67.9034C246.8 67.9034 246.161 68.1023 245.649 68.5C245.138 68.892 244.751 69.4261 244.49 70.1023C244.234 70.7784 244.107 71.5341 244.107 72.3693C244.107 73.2273 244.237 73.9801 244.499 74.6278C244.76 75.2756 245.146 75.7812 245.658 76.1449C246.175 76.5085 246.811 76.6903 247.567 76.6903ZM262.558 79.2642C261.268 79.2642 260.158 78.9886 259.226 78.4375C258.3 77.8807 257.584 77.0994 257.078 76.0938C256.578 75.0824 256.328 73.8977 256.328 72.5398C256.328 71.1989 256.578 70.017 257.078 68.9943C257.584 67.9716 258.288 67.1733 259.192 66.5994C260.101 66.0256 261.163 65.7386 262.379 65.7386C263.118 65.7386 263.834 65.8608 264.527 66.1051C265.22 66.3494 265.842 66.733 266.393 67.2557C266.945 67.7784 267.379 68.4574 267.697 69.2926C268.016 70.1222 268.175 71.1307 268.175 72.3182V73.2216H257.768V71.3125H265.678C265.678 70.642 265.541 70.0483 265.268 69.5312C264.996 69.0085 264.612 68.5966 264.118 68.2955C263.629 67.9943 263.055 67.8438 262.396 67.8438C261.68 67.8438 261.055 68.0199 260.521 68.3722C259.993 68.7187 259.584 69.1733 259.294 69.7358C259.01 70.2926 258.868 70.8977 258.868 71.5511V73.0426C258.868 73.9176 259.021 74.6619 259.328 75.2756C259.641 75.8892 260.075 76.358 260.632 76.6818C261.189 77 261.839 77.1591 262.584 77.1591C263.067 77.1591 263.507 77.0909 263.905 76.9545C264.303 76.8125 264.646 76.6023 264.936 76.3239C265.226 76.0455 265.447 75.7017 265.601 75.2926L268.013 75.7273C267.82 76.4375 267.473 77.0597 266.973 77.5938C266.479 78.1222 265.857 78.5341 265.107 78.8295C264.362 79.1193 263.513 79.2642 262.558 79.2642ZM283.464 65.9091V67.9545H276.314V65.9091H283.464ZM278.232 62.7727H280.78V75.1562C280.78 75.6506 280.854 76.0227 281.001 76.2727C281.149 76.517 281.339 76.6847 281.572 76.7756C281.811 76.8608 282.07 76.9034 282.348 76.9034C282.553 76.9034 282.732 76.8892 282.885 76.8608C283.038 76.8324 283.158 76.8097 283.243 76.7926L283.703 78.8977C283.555 78.9545 283.345 79.0114 283.072 79.0682C282.8 79.1307 282.459 79.1648 282.05 79.1705C281.379 79.1818 280.754 79.0625 280.175 78.8125C279.595 78.5625 279.126 78.1761 278.768 77.6534C278.411 77.1307 278.232 76.4744 278.232 75.6847V62.7727ZM291.657 79.2642C290.43 79.2642 289.359 78.983 288.444 78.4205C287.529 77.858 286.819 77.071 286.313 76.0597C285.808 75.0483 285.555 73.8665 285.555 72.5142C285.555 71.1562 285.808 69.9687 286.313 68.9517C286.819 67.9347 287.529 67.1449 288.444 66.5824C289.359 66.0199 290.43 65.7386 291.657 65.7386C292.884 65.7386 293.955 66.0199 294.87 66.5824C295.785 67.1449 296.495 67.9347 297.001 68.9517C297.506 69.9687 297.759 71.1562 297.759 72.5142C297.759 73.8665 297.506 75.0483 297.001 76.0597C296.495 77.071 295.785 77.858 294.87 78.4205C293.955 78.983 292.884 79.2642 291.657 79.2642ZM291.665 77.125C292.461 77.125 293.12 76.9148 293.643 76.4943C294.165 76.0739 294.552 75.5142 294.802 74.8153C295.058 74.1165 295.185 73.3466 295.185 72.5057C295.185 71.6705 295.058 70.9034 294.802 70.2045C294.552 69.5 294.165 68.9347 293.643 68.5085C293.12 68.0824 292.461 67.8693 291.665 67.8693C290.864 67.8693 290.2 68.0824 289.671 68.5085C289.148 68.9347 288.759 69.5 288.504 70.2045C288.254 70.9034 288.129 71.6705 288.129 72.5057C288.129 73.3466 288.254 74.1165 288.504 74.8153C288.759 75.5142 289.148 76.0739 289.671 76.4943C290.2 76.9148 290.864 77.125 291.665 77.125ZM306.955 79V65.9091H309.401V68.0398H309.563C309.836 67.3182 310.282 66.7557 310.901 66.3523C311.521 65.9432 312.262 65.7386 313.126 65.7386C314.001 65.7386 314.734 65.9432 315.325 66.3523C315.921 66.7614 316.362 67.3239 316.646 68.0398H316.782C317.094 67.3409 317.592 66.7841 318.273 66.3693C318.955 65.9489 319.768 65.7386 320.711 65.7386C321.898 65.7386 322.867 66.1108 323.617 66.8551C324.373 67.5994 324.751 68.7216 324.751 70.2216V79H322.202V70.4602C322.202 69.5739 321.961 68.9318 321.478 68.5341C320.995 68.1364 320.418 67.9375 319.748 67.9375C318.918 67.9375 318.273 68.1932 317.813 68.7045C317.353 69.2102 317.123 69.8608 317.123 70.6562V79H314.583V70.2983C314.583 69.5881 314.362 69.017 313.918 68.5852C313.475 68.1534 312.898 67.9375 312.188 67.9375C311.705 67.9375 311.259 68.0653 310.85 68.321C310.447 68.571 310.12 68.9205 309.87 69.3693C309.626 69.8182 309.504 70.3381 309.504 70.929V79H306.955ZM333.808 79.2642C332.518 79.2642 331.408 78.9886 330.476 78.4375C329.55 77.8807 328.834 77.0994 328.328 76.0938C327.828 75.0824 327.578 73.8977 327.578 72.5398C327.578 71.1989 327.828 70.017 328.328 68.9943C328.834 67.9716 329.538 67.1733 330.442 66.5994C331.351 66.0256 332.413 65.7386 333.629 65.7386C334.368 65.7386 335.084 65.8608 335.777 66.1051C336.47 66.3494 337.092 66.733 337.643 67.2557C338.195 67.7784 338.629 68.4574 338.947 69.2926C339.266 70.1222 339.425 71.1307 339.425 72.3182V73.2216H329.018V71.3125H336.928C336.928 70.642 336.791 70.0483 336.518 69.5312C336.246 69.0085 335.862 68.5966 335.368 68.2955C334.879 67.9943 334.305 67.8438 333.646 67.8438C332.93 67.8438 332.305 68.0199 331.771 68.3722C331.243 68.7187 330.834 69.1733 330.544 69.7358C330.26 70.2926 330.118 70.8977 330.118 71.5511V73.0426C330.118 73.9176 330.271 74.6619 330.578 75.2756C330.891 75.8892 331.325 76.358 331.882 76.6818C332.439 77 333.089 77.1591 333.834 77.1591C334.317 77.1591 334.757 77.0909 335.155 76.9545C335.553 76.8125 335.896 76.6023 336.186 76.3239C336.476 76.0455 336.697 75.7017 336.851 75.2926L339.263 75.7273C339.07 76.4375 338.723 77.0597 338.223 77.5938C337.729 78.1222 337.107 78.5341 336.357 78.8295C335.612 79.1193 334.763 79.2642 333.808 79.2642ZM351.152 71.2273V79H348.604V61.5455H351.118V68.0398H351.28C351.587 67.3352 352.055 66.7756 352.686 66.3608C353.317 65.946 354.141 65.7386 355.158 65.7386C356.055 65.7386 356.839 65.9233 357.51 66.2926C358.186 66.6619 358.709 67.2131 359.078 67.946C359.453 68.6733 359.641 69.5824 359.641 70.6733V79H357.092V70.9801C357.092 70.0199 356.845 69.2756 356.351 68.7472C355.857 68.2131 355.169 67.946 354.288 67.946C353.686 67.946 353.146 68.0739 352.669 68.3295C352.197 68.5852 351.825 68.9602 351.553 69.4545C351.286 69.9432 351.152 70.5341 351.152 71.2273ZM368.683 79.2642C367.393 79.2642 366.283 78.9886 365.351 78.4375C364.425 77.8807 363.709 77.0994 363.203 76.0938C362.703 75.0824 362.453 73.8977 362.453 72.5398C362.453 71.1989 362.703 70.017 363.203 68.9943C363.709 67.9716 364.413 67.1733 365.317 66.5994C366.226 66.0256 367.288 65.7386 368.504 65.7386C369.243 65.7386 369.959 65.8608 370.652 66.1051C371.345 66.3494 371.967 66.733 372.518 67.2557C373.07 67.7784 373.504 68.4574 373.822 69.2926C374.141 70.1222 374.3 71.1307 374.3 72.3182V73.2216H363.893V71.3125H371.803C371.803 70.642 371.666 70.0483 371.393 69.5312C371.121 69.0085 370.737 68.5966 370.243 68.2955C369.754 67.9943 369.18 67.8438 368.521 67.8438C367.805 67.8438 367.18 68.0199 366.646 68.3722C366.118 68.7187 365.709 69.1733 365.419 69.7358C365.135 70.2926 364.993 70.8977 364.993 71.5511V73.0426C364.993 73.9176 365.146 74.6619 365.453 75.2756C365.766 75.8892 366.2 76.358 366.757 76.6818C367.314 77 367.964 77.1591 368.709 77.1591C369.192 77.1591 369.632 77.0909 370.03 76.9545C370.428 76.8125 370.771 76.6023 371.061 76.3239C371.351 76.0455 371.572 75.7017 371.726 75.2926L374.138 75.7273C373.945 76.4375 373.598 77.0597 373.098 77.5938C372.604 78.1222 371.982 78.5341 371.232 78.8295C370.487 79.1193 369.638 79.2642 368.683 79.2642ZM377.127 79V65.9091H379.59V67.9886H379.727C379.965 67.2841 380.386 66.7301 380.988 66.3267C381.596 65.9176 382.283 65.7131 383.05 65.7131C383.21 65.7131 383.397 65.7187 383.613 65.7301C383.835 65.7415 384.008 65.7557 384.133 65.7727V68.2102C384.031 68.1818 383.849 68.1506 383.587 68.1165C383.326 68.0767 383.065 68.0568 382.803 68.0568C382.201 68.0568 381.664 68.1847 381.192 68.4403C380.727 68.6903 380.357 69.0398 380.085 69.4886C379.812 69.9318 379.675 70.4375 379.675 71.0057V79H377.127ZM391.511 79.2642C390.222 79.2642 389.111 78.9886 388.179 78.4375C387.253 77.8807 386.537 77.0994 386.031 76.0938C385.531 75.0824 385.281 73.8977 385.281 72.5398C385.281 71.1989 385.531 70.017 386.031 68.9943C386.537 67.9716 387.241 67.1733 388.145 66.5994C389.054 66.0256 390.116 65.7386 391.332 65.7386C392.071 65.7386 392.787 65.8608 393.48 66.1051C394.173 66.3494 394.795 66.733 395.347 67.2557C395.898 67.7784 396.332 68.4574 396.651 69.2926C396.969 70.1222 397.128 71.1307 397.128 72.3182V73.2216H386.722V71.3125H394.631C394.631 70.642 394.494 70.0483 394.222 69.5312C393.949 69.0085 393.565 68.5966 393.071 68.2955C392.582 67.9943 392.009 67.8438 391.349 67.8438C390.634 67.8438 390.009 68.0199 389.474 68.3722C388.946 68.7187 388.537 69.1733 388.247 69.7358C387.963 70.2926 387.821 70.8977 387.821 71.5511V73.0426C387.821 73.9176 387.974 74.6619 388.281 75.2756C388.594 75.8892 389.028 76.358 389.585 76.6818C390.142 77 390.793 77.1591 391.537 77.1591C392.02 77.1591 392.46 77.0909 392.858 76.9545C393.256 76.8125 393.599 76.6023 393.889 76.3239C394.179 76.0455 394.401 75.7017 394.554 75.2926L396.966 75.7273C396.773 76.4375 396.426 77.0597 395.926 77.5938C395.432 78.1222 394.81 78.5341 394.06 78.8295C393.315 79.1193 392.466 79.2642 391.511 79.2642ZM403.271 76.6136L403.143 77.5426C403.058 78.2244 402.913 78.9347 402.708 79.6733C402.509 80.4176 402.302 81.108 402.086 81.7443C401.876 82.3807 401.702 82.8864 401.566 83.2614H399.759C399.833 82.9091 399.935 82.4318 400.066 81.8295C400.197 81.233 400.325 80.5653 400.45 79.8267C400.575 79.0881 400.668 78.3352 400.731 77.5682L400.816 76.6136H403.271ZM417.84 79.2557C416.783 79.2557 415.84 78.9858 415.011 78.446C414.187 77.9006 413.539 77.125 413.067 76.1193C412.602 75.108 412.369 73.8949 412.369 72.4801C412.369 71.0653 412.604 69.8551 413.076 68.8494C413.553 67.8437 414.207 67.0739 415.036 66.5398C415.866 66.0057 416.806 65.7386 417.857 65.7386C418.67 65.7386 419.323 65.875 419.817 66.1477C420.317 66.4148 420.704 66.7273 420.977 67.0852C421.255 67.4432 421.471 67.7585 421.624 68.0312H421.778V61.5455H424.326V79H421.837V76.9631H421.624C421.471 77.2415 421.249 77.5597 420.96 77.9176C420.675 78.2756 420.283 78.5881 419.783 78.8551C419.283 79.1222 418.636 79.2557 417.84 79.2557ZM418.403 77.0824C419.136 77.0824 419.755 76.8892 420.261 76.5028C420.772 76.1108 421.158 75.5682 421.42 74.875C421.687 74.1818 421.82 73.375 421.82 72.4545C421.82 71.5455 421.69 70.75 421.428 70.0682C421.167 69.3864 420.783 68.8551 420.278 68.4744C419.772 68.0937 419.147 67.9034 418.403 67.9034C417.636 67.9034 416.996 68.1023 416.485 68.5C415.974 68.8977 415.587 69.4403 415.326 70.1278C415.07 70.8153 414.942 71.5909 414.942 72.4545C414.942 73.3295 415.073 74.1165 415.335 74.8153C415.596 75.5142 415.982 76.0682 416.494 76.4773C417.011 76.8807 417.647 77.0824 418.403 77.0824ZM431.773 79.2898C430.943 79.2898 430.193 79.1364 429.523 78.8295C428.852 78.517 428.321 78.0653 427.929 77.4744C427.543 76.8835 427.349 76.1591 427.349 75.3011C427.349 74.5625 427.491 73.9545 427.776 73.4773C428.06 73 428.443 72.6222 428.926 72.3438C429.409 72.0653 429.949 71.8551 430.545 71.7131C431.142 71.571 431.75 71.4631 432.369 71.3892C433.153 71.2983 433.79 71.2244 434.278 71.1676C434.767 71.1051 435.122 71.0057 435.344 70.8693C435.565 70.733 435.676 70.5114 435.676 70.2045V70.1449C435.676 69.4006 435.466 68.8239 435.045 68.4148C434.631 68.0057 434.011 67.8011 433.188 67.8011C432.33 67.8011 431.653 67.9915 431.159 68.3722C430.67 68.7472 430.332 69.1648 430.145 69.625L427.75 69.0795C428.034 68.2841 428.449 67.642 428.994 67.1534C429.545 66.6591 430.179 66.3011 430.895 66.0795C431.611 65.8523 432.364 65.7386 433.153 65.7386C433.676 65.7386 434.23 65.8011 434.815 65.9261C435.406 66.0455 435.957 66.267 436.469 66.5909C436.986 66.9148 437.409 67.3778 437.739 67.9801C438.068 68.5767 438.233 69.3523 438.233 70.3068V79H435.744V77.2102H435.642C435.477 77.5398 435.23 77.8636 434.901 78.1818C434.571 78.5 434.148 78.7642 433.631 78.9744C433.114 79.1847 432.494 79.2898 431.773 79.2898ZM432.327 77.2443C433.031 77.2443 433.634 77.1051 434.134 76.8267C434.639 76.5483 435.023 76.1847 435.284 75.7358C435.551 75.2812 435.685 74.7955 435.685 74.2784V72.5909C435.594 72.6818 435.418 72.767 435.156 72.8466C434.901 72.9205 434.608 72.9858 434.278 73.0426C433.949 73.0937 433.628 73.142 433.315 73.1875C433.003 73.2273 432.741 73.2614 432.531 73.2898C432.037 73.3523 431.585 73.4574 431.176 73.6051C430.773 73.7528 430.449 73.9659 430.205 74.2443C429.966 74.517 429.847 74.8807 429.847 75.3352C429.847 75.9659 430.08 76.4432 430.545 76.767C431.011 77.0852 431.605 77.2443 432.327 77.2443ZM441.627 79V65.9091H444.09V67.9886H444.227C444.465 67.2841 444.886 66.7301 445.488 66.3267C446.096 65.9176 446.783 65.7131 447.55 65.7131C447.71 65.7131 447.897 65.7187 448.113 65.7301C448.335 65.7415 448.508 65.7557 448.633 65.7727V68.2102C448.531 68.1818 448.349 68.1506 448.087 68.1165C447.826 68.0767 447.565 68.0568 447.303 68.0568C446.701 68.0568 446.164 68.1847 445.692 68.4403C445.227 68.6903 444.857 69.0398 444.585 69.4886C444.312 69.9318 444.175 70.4375 444.175 71.0057V79H441.627ZM453.386 61.5455V79H450.838V61.5455H453.386ZM456.815 79V65.9091H459.363V79H456.815ZM458.102 63.8892C457.658 63.8892 457.278 63.7415 456.96 63.446C456.647 63.1449 456.491 62.7869 456.491 62.3722C456.491 61.9517 456.647 61.5937 456.96 61.2983C457.278 60.9972 457.658 60.8466 458.102 60.8466C458.545 60.8466 458.923 60.9972 459.235 61.2983C459.553 61.5937 459.712 61.9517 459.712 62.3722C459.712 62.7869 459.553 63.1449 459.235 63.446C458.923 63.7415 458.545 63.8892 458.102 63.8892ZM465.339 71.2273V79H462.791V65.9091H465.237V68.0398H465.399C465.7 67.3466 466.172 66.7898 466.814 66.3693C467.462 65.9489 468.277 65.7386 469.26 65.7386C470.152 65.7386 470.933 65.9261 471.604 66.3011C472.274 66.6705 472.794 67.2216 473.163 67.9545C473.533 68.6875 473.717 69.5937 473.717 70.6733V79H471.169V70.9801C471.169 70.0312 470.922 69.2898 470.428 68.7557C469.933 68.2159 469.254 67.946 468.391 67.946C467.8 67.946 467.274 68.0739 466.814 68.3295C466.359 68.5852 465.999 68.9602 465.732 69.4545C465.47 69.9432 465.339 70.5341 465.339 71.2273ZM482.624 84.1818C481.584 84.1818 480.689 84.0455 479.939 83.7727C479.195 83.5 478.587 83.1392 478.115 82.6903C477.643 82.2415 477.291 81.75 477.058 81.2159L479.249 80.3125C479.402 80.5625 479.607 80.8267 479.862 81.1051C480.124 81.3892 480.476 81.6307 480.919 81.8295C481.368 82.0284 481.945 82.1278 482.649 82.1278C483.615 82.1278 484.413 81.892 485.044 81.4205C485.675 80.9545 485.99 80.2102 485.99 79.1875V76.6136H485.828C485.675 76.892 485.453 77.2017 485.163 77.5426C484.879 77.8835 484.487 78.179 483.987 78.429C483.487 78.679 482.837 78.804 482.036 78.804C481.001 78.804 480.07 78.5625 479.24 78.0795C478.416 77.5909 477.763 76.8722 477.28 75.9233C476.803 74.9687 476.564 73.7955 476.564 72.4034C476.564 71.0114 476.8 69.8182 477.271 68.8239C477.749 67.8295 478.402 67.0682 479.232 66.5398C480.061 66.0057 481.001 65.7386 482.053 65.7386C482.865 65.7386 483.521 65.875 484.021 66.1477C484.521 66.4148 484.911 66.7273 485.189 67.0852C485.473 67.4432 485.692 67.7585 485.845 68.0312H486.033V65.9091H488.53V79.2898C488.53 80.4148 488.268 81.3381 487.746 82.0597C487.223 82.7813 486.516 83.3153 485.624 83.6619C484.737 84.0085 483.737 84.1818 482.624 84.1818ZM482.598 76.6903C483.331 76.6903 483.95 76.5199 484.456 76.179C484.967 75.8324 485.354 75.3381 485.615 74.696C485.882 74.0483 486.016 73.2727 486.016 72.3693C486.016 71.4886 485.885 70.7131 485.624 70.0426C485.362 69.3722 484.979 68.8494 484.473 68.4744C483.967 68.0937 483.342 67.9034 482.598 67.9034C481.831 67.9034 481.192 68.1023 480.68 68.5C480.169 68.892 479.783 69.4261 479.521 70.1023C479.266 70.7784 479.138 71.5341 479.138 72.3693C479.138 73.2273 479.268 73.9801 479.53 74.6278C479.791 75.2756 480.178 75.7812 480.689 76.1449C481.206 76.5085 481.842 76.6903 482.598 76.6903ZM495.161 61.5455L494.939 73.9801H492.578L492.357 61.5455H495.161ZM493.763 79.1619C493.291 79.1619 492.888 78.9972 492.553 78.6676C492.217 78.3324 492.053 77.929 492.058 77.4574C492.053 76.9915 492.217 76.5937 492.553 76.2642C492.888 75.929 493.291 75.7614 493.763 75.7614C494.223 75.7614 494.621 75.929 494.956 76.2642C495.291 76.5937 495.462 76.9915 495.467 77.4574C495.462 77.7699 495.379 78.0568 495.22 78.3182C495.067 78.5739 494.862 78.7784 494.607 78.9318C494.351 79.0852 494.07 79.1619 493.763 79.1619Z" fill="white"/>
<path d="M445.5 0L460.655 28.5H430.345L445.5 0Z" fill="#FFABF0"/>
</svg>
