<svg width="779" height="588" viewBox="0 0 779 588" fill="none" xmlns="http://www.w3.org/2000/svg">
<rect width="779" height="588" rx="48" fill="white"/>
<rect x="22" y="24" width="736" height="539" rx="40" fill="#F7F8FA"/>
<mask id="path-3-inside-1_109_8696" fill="white">
<path d="M278 398.182C278 388.14 286.14 380 296.182 380H758V499.066H296.182C286.14 499.066 278 490.926 278 480.885V398.182Z"/>
</mask>
<path d="M278 398.182C278 388.14 286.14 380 296.182 380H758V499.066H296.182C286.14 499.066 278 490.926 278 480.885V398.182Z" fill="#F5F5F5"/>
<path d="M276 398.182C276 387.036 285.036 378 296.182 378H758V382H296.182C287.245 382 280 389.245 280 398.182H276ZM758 501.066H296.182C285.036 501.066 276 492.031 276 480.885H280C280 489.822 287.245 497.066 296.182 497.066H758V501.066ZM296.182 501.066C285.036 501.066 276 492.031 276 480.885V398.182C276 387.036 285.036 378 296.182 378V382C287.245 382 280 389.245 280 398.182V480.885C280 489.822 287.245 497.066 296.182 497.066V501.066ZM296.182 497.066M758 380V499.066V380" fill="#C6C0DA" mask="url(#path-3-inside-1_109_8696)"/>
<rect x="299.818" y="404.741" width="72.7273" height="74.2232" rx="12" fill="#822FFE"/>
<path d="M420.872 431.253C420.856 432.463 420.624 433.598 420.176 434.658C419.729 435.702 419.107 436.622 418.312 437.418C417.931 437.799 417.508 438.155 417.044 438.487C416.58 438.818 416.083 439.116 415.553 439.381C416.481 439.779 417.317 440.276 418.063 440.873C418.826 441.453 419.48 442.124 420.027 442.886C420.557 443.649 420.963 444.477 421.245 445.372C421.543 446.267 421.692 447.22 421.692 448.231C421.692 449.871 421.386 451.33 420.773 452.606C420.176 453.882 419.364 454.951 418.337 455.812C417.293 456.691 416.075 457.362 414.683 457.826C413.29 458.273 411.799 458.497 410.208 458.497C408.584 458.497 407.068 458.273 405.659 457.826C404.267 457.379 403.057 456.716 402.03 455.837C400.986 454.976 400.165 453.907 399.569 452.631C398.972 451.355 398.674 449.888 398.674 448.231C398.674 447.22 398.815 446.267 399.097 445.372C399.378 444.461 399.784 443.624 400.315 442.862C400.845 442.116 401.483 441.445 402.229 440.848C402.974 440.251 403.811 439.754 404.739 439.357C403.944 438.959 403.223 438.487 402.577 437.94C401.93 437.376 401.384 436.746 400.936 436.05C400.489 435.371 400.141 434.625 399.892 433.813C399.643 433.001 399.519 432.148 399.519 431.253C399.519 429.679 399.784 428.278 400.315 427.052C400.845 425.809 401.582 424.765 402.527 423.92C403.455 423.075 404.565 422.428 405.858 421.981C407.167 421.533 408.592 421.31 410.134 421.31C411.658 421.31 413.075 421.533 414.384 421.981C415.693 422.428 416.829 423.075 417.79 423.92C418.751 424.765 419.505 425.809 420.052 427.052C420.599 428.278 420.872 429.679 420.872 431.253ZM417.094 448.131C417.094 447.121 416.92 446.192 416.572 445.347C416.24 444.502 415.768 443.773 415.155 443.16C414.542 442.563 413.804 442.099 412.942 441.768C412.097 441.436 411.169 441.271 410.158 441.271C409.114 441.271 408.17 441.436 407.325 441.768C406.479 442.099 405.759 442.563 405.162 443.16C404.565 443.773 404.101 444.502 403.77 445.347C403.455 446.192 403.298 447.121 403.298 448.131C403.298 449.175 403.455 450.112 403.77 450.94C404.101 451.752 404.565 452.44 405.162 453.004C405.759 453.567 406.479 453.998 407.325 454.296C408.186 454.594 409.147 454.744 410.208 454.744C411.219 454.744 412.147 454.594 412.992 454.296C413.837 453.998 414.567 453.567 415.18 453.004C415.776 452.44 416.24 451.752 416.572 450.94C416.92 450.112 417.094 449.175 417.094 448.131ZM416.249 431.327C416.249 430.416 416.091 429.579 415.776 428.817C415.478 428.054 415.064 427.392 414.533 426.828C413.987 426.281 413.34 425.859 412.594 425.56C411.849 425.246 411.028 425.088 410.134 425.088C409.239 425.088 408.427 425.237 407.697 425.536C406.968 425.817 406.339 426.232 405.808 426.778C405.278 427.325 404.864 427.988 404.565 428.767C404.284 429.529 404.143 430.383 404.143 431.327C404.143 432.272 404.284 433.125 404.565 433.888C404.864 434.634 405.286 435.272 405.833 435.802C406.363 436.349 406.993 436.771 407.722 437.07C408.468 437.351 409.288 437.492 410.183 437.492C411.062 437.492 411.874 437.351 412.619 437.07C413.365 436.771 414.011 436.349 414.558 435.802C415.089 435.272 415.503 434.625 415.801 433.863C416.099 433.101 416.249 432.255 416.249 431.327ZM451.373 458H427.658V454.694L439.516 441.519C440.576 440.343 441.463 439.299 442.175 438.387C442.888 437.476 443.46 436.63 443.891 435.852C444.321 435.089 444.628 434.368 444.81 433.689C444.993 432.993 445.084 432.28 445.084 431.551C445.084 430.656 444.935 429.819 444.636 429.04C444.355 428.245 443.94 427.557 443.393 426.977C442.83 426.397 442.151 425.942 441.355 425.61C440.576 425.262 439.69 425.088 438.695 425.088C437.486 425.088 436.433 425.262 435.538 425.61C434.66 425.958 433.931 426.447 433.351 427.077C432.754 427.723 432.307 428.502 432.009 429.413C431.727 430.325 431.586 431.344 431.586 432.471H426.962C426.962 430.946 427.228 429.513 427.758 428.17C428.288 426.812 429.059 425.627 430.07 424.616C431.064 423.605 432.282 422.801 433.724 422.205C435.182 421.608 436.839 421.31 438.695 421.31C440.402 421.31 441.935 421.567 443.294 422.08C444.67 422.577 445.83 423.273 446.774 424.168C447.719 425.063 448.44 426.124 448.937 427.35C449.451 428.576 449.707 429.911 449.707 431.352C449.707 432.429 449.525 433.498 449.161 434.559C448.796 435.603 448.307 436.639 447.694 437.666C447.064 438.694 446.335 439.713 445.506 440.724C444.694 441.718 443.833 442.712 442.921 443.707L433.202 454.246H451.373V458ZM481.948 458H458.234V454.694L470.091 441.519C471.152 440.343 472.038 439.299 472.751 438.387C473.463 437.476 474.035 436.63 474.466 435.852C474.897 435.089 475.203 434.368 475.386 433.689C475.568 432.993 475.659 432.28 475.659 431.551C475.659 430.656 475.51 429.819 475.212 429.04C474.93 428.245 474.516 427.557 473.969 426.977C473.405 426.397 472.726 425.942 471.93 425.61C471.152 425.262 470.265 425.088 469.271 425.088C468.061 425.088 467.009 425.262 466.114 425.61C465.235 425.958 464.506 426.447 463.926 427.077C463.33 427.723 462.882 428.502 462.584 429.413C462.302 430.325 462.161 431.344 462.161 432.471H457.538C457.538 430.946 457.803 429.513 458.333 428.17C458.863 426.812 459.634 425.627 460.645 424.616C461.639 423.605 462.857 422.801 464.299 422.205C465.757 421.608 467.415 421.31 469.271 421.31C470.978 421.31 472.51 421.567 473.869 422.08C475.245 422.577 476.405 423.273 477.349 424.168C478.294 425.063 479.015 426.124 479.512 427.35C480.026 428.576 480.283 429.911 480.283 431.352C480.283 432.429 480.1 433.498 479.736 434.559C479.371 435.603 478.882 436.639 478.269 437.666C477.639 438.694 476.91 439.713 476.082 440.724C475.27 441.718 474.408 442.712 473.496 443.707L463.777 454.246H481.948V458ZM510.46 442.016H495.396V458H490.748V421.807H512.971V425.734H495.396V438.114H510.46V442.016ZM541.036 442.016H525.972V458H521.323V421.807H543.546V425.734H525.972V438.114H541.036V442.016ZM571.387 441.271H556.273V454.097H573.898V458H551.675V421.807H573.674V425.734H556.273V437.368H571.387V441.271Z" fill="black"/>
<rect x="112" y="197" width="556" height="114" fill="white"/>
<rect x="112" y="197" width="139" height="114" fill="white"/>
<rect x="251" y="197" width="139" height="114" fill="#CBBEFD"/>
<rect x="390" y="197" width="139" height="114" fill="#B39CFB"/>
<rect x="529" y="197" width="139" height="114" fill="#822FFE"/>
<path d="M114.337 77.2479H103.23C103.027 75.8109 102.612 74.5345 101.987 73.4188C101.361 72.2861 100.558 71.3225 99.5779 70.5279C98.5974 69.7333 97.4647 69.1247 96.1799 68.7021C94.912 68.2795 93.5341 68.0681 92.0464 68.0681C89.3585 68.0681 87.017 68.7359 85.0222 70.0715C83.0273 71.3901 81.4804 73.3173 80.3816 75.8532C79.2827 78.3721 78.7333 81.432 78.7333 85.0329C78.7333 88.7353 79.2827 91.8459 80.3816 94.3649C81.4973 96.8838 83.0527 98.7857 85.0475 100.071C87.0424 101.355 89.35 101.998 91.9704 101.998C93.4412 101.998 94.8021 101.803 96.0531 101.415C97.321 101.026 98.4452 100.459 99.4258 99.7155C100.406 98.9547 101.218 98.0334 101.86 96.9514C102.519 95.8695 102.976 94.6353 103.23 93.2491L114.337 93.2998C114.049 95.6835 113.331 97.9827 112.181 100.197C111.048 102.395 109.518 104.365 107.591 106.106C105.681 107.83 103.399 109.2 100.744 110.214C98.1071 111.211 95.1233 111.71 91.7929 111.71C87.1607 111.71 83.0188 110.662 79.3672 108.566C75.7325 106.469 72.8586 103.435 70.7453 99.4619C68.649 95.4891 67.6009 90.6794 67.6009 85.0329C67.6009 79.3696 68.666 74.5515 70.7961 70.5786C72.9262 66.6058 75.817 63.5797 79.4687 61.5003C83.1203 59.404 87.2283 58.3559 91.7929 58.3559C94.8021 58.3559 97.5915 58.7785 100.161 59.6238C102.748 60.4691 105.038 61.7032 107.033 63.3261C109.028 64.9321 110.651 66.9016 111.902 69.2346C113.17 71.5676 113.982 74.2387 114.337 77.2479ZM139.606 111.761C135.667 111.761 132.261 110.924 129.387 109.25C126.53 107.56 124.324 105.21 122.768 102.201C121.213 99.1745 120.435 95.6666 120.435 91.6769C120.435 87.6533 121.213 84.1369 122.768 81.1277C124.324 78.1016 126.53 75.7517 129.387 74.0781C132.261 72.3875 135.667 71.5422 139.606 71.5422C143.545 71.5422 146.943 72.3875 149.8 74.0781C152.674 75.7517 154.889 78.1016 156.444 81.1277C158 84.1369 158.777 87.6533 158.777 91.6769C158.777 95.6666 158 99.1745 156.444 102.201C154.889 105.21 152.674 107.56 149.8 109.25C146.943 110.924 143.545 111.761 139.606 111.761ZM139.657 103.392C141.449 103.392 142.945 102.885 144.145 101.871C145.346 100.84 146.25 99.4365 146.859 97.6615C147.484 95.8864 147.797 93.8661 147.797 91.6008C147.797 89.3354 147.484 87.3152 146.859 85.5401C146.25 83.765 145.346 82.3619 144.145 81.3306C142.945 80.2994 141.449 79.7837 139.657 79.7837C137.848 79.7837 136.327 80.2994 135.092 81.3306C133.875 82.3619 132.954 83.765 132.328 85.5401C131.72 87.3152 131.415 89.3354 131.415 91.6008C131.415 93.8661 131.72 95.8864 132.328 97.6615C132.954 99.4365 133.875 100.84 135.092 101.871C136.327 102.885 137.848 103.392 139.657 103.392ZM176.604 59.0659V111H165.802V59.0659H176.604ZM202.857 111.761C198.918 111.761 195.511 110.924 192.637 109.25C189.78 107.56 187.574 105.21 186.019 102.201C184.463 99.1745 183.686 95.6666 183.686 91.6769C183.686 87.6533 184.463 84.1369 186.019 81.1277C187.574 78.1016 189.78 75.7517 192.637 74.0781C195.511 72.3875 198.918 71.5422 202.857 71.5422C206.796 71.5422 210.194 72.3875 213.051 74.0781C215.925 75.7517 218.139 78.1016 219.695 81.1277C221.25 84.1369 222.028 87.6533 222.028 91.6769C222.028 95.6666 221.25 99.1745 219.695 102.201C218.139 105.21 215.925 107.56 213.051 109.25C210.194 110.924 206.796 111.761 202.857 111.761ZM202.907 103.392C204.699 103.392 206.195 102.885 207.396 101.871C208.596 100.84 209.5 99.4365 210.109 97.6615C210.735 95.8864 211.047 93.8661 211.047 91.6008C211.047 89.3354 210.735 87.3152 210.109 85.5401C209.5 83.765 208.596 82.3619 207.396 81.3306C206.195 80.2994 204.699 79.7837 202.907 79.7837C201.098 79.7837 199.577 80.2994 198.343 81.3306C197.126 82.3619 196.204 83.765 195.579 85.5401C194.97 87.3152 194.666 89.3354 194.666 91.6008C194.666 93.8661 194.97 95.8864 195.579 97.6615C196.204 99.4365 197.126 100.84 198.343 101.871C199.577 102.885 201.098 103.392 202.907 103.392ZM229.052 111V72.0494H239.525V78.8455H239.931C240.641 76.428 241.832 74.6022 243.506 73.3681C245.18 72.117 247.107 71.4915 249.288 71.4915C249.829 71.4915 250.412 71.5253 251.038 71.593C251.663 71.6606 252.213 71.7536 252.686 71.8719V81.4574C252.179 81.3053 251.477 81.17 250.581 81.0517C249.685 80.9333 248.865 80.8742 248.121 80.8742C246.532 80.8742 245.112 81.2207 243.861 81.9139C242.627 82.5901 241.647 83.5368 240.92 84.754C240.21 85.9712 239.855 87.3744 239.855 88.9635V111H229.052Z" fill="black"/>
</svg>
