<svg width="779" height="588" viewBox="0 0 779 588" fill="none" xmlns="http://www.w3.org/2000/svg">
<rect width="779" height="588" rx="48" fill="white"/>
<g clip-path="url(#clip0_109_9981)">
<rect x="22" y="24" width="736" height="539" rx="40" fill="#0F1117"/>
<circle cx="37.0159" cy="549.559" r="3.00319" fill="#575757" fill-opacity="0.5"/>
<circle cx="37.0159" cy="519.527" r="3.00319" fill="#575757" fill-opacity="0.5"/>
<circle cx="37.0159" cy="489.495" r="3.00319" fill="#575757" fill-opacity="0.5"/>
<circle cx="37.0159" cy="459.463" r="3.00319" fill="#575757" fill-opacity="0.5"/>
<circle cx="37.0159" cy="429.431" r="3.00319" fill="#575757" fill-opacity="0.5"/>
<circle cx="37.0159" cy="399.399" r="3.00319" fill="#575757" fill-opacity="0.5"/>
<circle cx="37.0159" cy="369.367" r="3.00319" fill="#575757" fill-opacity="0.5"/>
<circle cx="37.0159" cy="339.335" r="3.00319" fill="#575757" fill-opacity="0.5"/>
<circle cx="37.0159" cy="309.303" r="3.00319" fill="#575757" fill-opacity="0.5"/>
<circle cx="37.0159" cy="279.272" r="3.00319" fill="#575757" fill-opacity="0.5"/>
<circle cx="37.0159" cy="249.24" r="3.00319" fill="#575757" fill-opacity="0.5"/>
<circle cx="37.0159" cy="219.207" r="3.00319" fill="#575757" fill-opacity="0.5"/>
<circle cx="37.0159" cy="189.176" r="3.00319" fill="#575757" fill-opacity="0.5"/>
<circle cx="37.0159" cy="159.144" r="3.00319" fill="#575757" fill-opacity="0.5"/>
<circle cx="37.0159" cy="129.112" r="3.00319" fill="#575757" fill-opacity="0.5"/>
<circle cx="37.0159" cy="99.0794" r="3.00319" fill="#575757" fill-opacity="0.5"/>
<circle cx="37.0159" cy="69.0481" r="3.00319" fill="#575757" fill-opacity="0.5"/>
<circle cx="37.0159" cy="39.0159" r="3.00319" fill="#575757" fill-opacity="0.5"/>
<circle cx="217.208" cy="549.559" r="3.00319" fill="#575757" fill-opacity="0.5"/>
<circle cx="217.208" cy="519.527" r="3.00319" fill="#575757" fill-opacity="0.5"/>
<circle cx="217.208" cy="489.495" r="3.00319" fill="#575757" fill-opacity="0.5"/>
<circle cx="217.208" cy="459.463" r="3.00319" fill="#575757" fill-opacity="0.5"/>
<circle cx="217.208" cy="429.431" r="3.00319" fill="#575757" fill-opacity="0.5"/>
<circle cx="217.208" cy="399.399" r="3.00319" fill="#575757" fill-opacity="0.5"/>
<circle cx="217.208" cy="369.367" r="3.00319" fill="#575757" fill-opacity="0.5"/>
<circle cx="217.208" cy="339.335" r="3.00319" fill="#575757" fill-opacity="0.5"/>
<circle cx="217.208" cy="309.303" r="3.00319" fill="#575757" fill-opacity="0.5"/>
<circle cx="217.208" cy="279.272" r="3.00319" fill="#575757" fill-opacity="0.5"/>
<circle cx="217.208" cy="249.24" r="3.00319" fill="#575757" fill-opacity="0.5"/>
<circle cx="217.208" cy="219.207" r="3.00319" fill="#575757" fill-opacity="0.5"/>
<circle cx="217.208" cy="189.176" r="3.00319" fill="#575757" fill-opacity="0.5"/>
<circle cx="217.208" cy="159.144" r="3.00319" fill="#575757" fill-opacity="0.5"/>
<circle cx="217.208" cy="129.112" r="3.00319" fill="#575757" fill-opacity="0.5"/>
<circle cx="217.208" cy="99.0794" r="3.00319" fill="#575757" fill-opacity="0.5"/>
<circle cx="217.208" cy="69.0481" r="3.00319" fill="#575757" fill-opacity="0.5"/>
<circle cx="217.208" cy="39.0159" r="3.00319" fill="#575757" fill-opacity="0.5"/>
<circle cx="457.463" cy="549.559" r="3.00319" fill="#575757" fill-opacity="0.5"/>
<circle cx="457.463" cy="519.527" r="3.00319" fill="#575757" fill-opacity="0.5"/>
<circle cx="457.463" cy="489.495" r="3.00319" fill="#575757" fill-opacity="0.5"/>
<circle cx="457.463" cy="459.463" r="3.00319" fill="#575757" fill-opacity="0.5"/>
<circle cx="457.463" cy="429.431" r="3.00319" fill="#575757" fill-opacity="0.5"/>
<circle cx="457.463" cy="399.399" r="3.00319" fill="#575757" fill-opacity="0.5"/>
<circle cx="457.463" cy="369.367" r="3.00319" fill="#575757" fill-opacity="0.5"/>
<circle cx="457.463" cy="339.335" r="3.00319" fill="#575757" fill-opacity="0.5"/>
<circle cx="457.463" cy="309.303" r="3.00319" fill="#575757" fill-opacity="0.5"/>
<circle cx="457.463" cy="279.272" r="3.00319" fill="#575757" fill-opacity="0.5"/>
<circle cx="457.463" cy="249.24" r="3.00319" fill="#575757" fill-opacity="0.5"/>
<circle cx="457.463" cy="219.207" r="3.00319" fill="#575757" fill-opacity="0.5"/>
<circle cx="457.463" cy="189.176" r="3.00319" fill="#575757" fill-opacity="0.5"/>
<circle cx="457.463" cy="159.144" r="3.00319" fill="#575757" fill-opacity="0.5"/>
<circle cx="457.463" cy="129.112" r="3.00319" fill="#575757" fill-opacity="0.5"/>
<circle cx="457.463" cy="99.0794" r="3.00319" fill="#575757" fill-opacity="0.5"/>
<circle cx="457.463" cy="69.0481" r="3.00319" fill="#575757" fill-opacity="0.5"/>
<circle cx="457.463" cy="39.0159" r="3.00319" fill="#575757" fill-opacity="0.5"/>
<circle cx="697.719" cy="549.559" r="3.00319" fill="#575757" fill-opacity="0.5"/>
<circle cx="697.719" cy="519.527" r="3.00319" fill="#575757" fill-opacity="0.5"/>
<circle cx="697.719" cy="489.495" r="3.00319" fill="#575757" fill-opacity="0.5"/>
<circle cx="697.719" cy="459.463" r="3.00319" fill="#575757" fill-opacity="0.5"/>
<circle cx="697.719" cy="429.431" r="3.00319" fill="#575757" fill-opacity="0.5"/>
<circle cx="697.719" cy="399.399" r="3.00319" fill="#575757" fill-opacity="0.5"/>
<circle cx="697.719" cy="369.367" r="3.00319" fill="#575757" fill-opacity="0.5"/>
<circle cx="697.719" cy="339.335" r="3.00319" fill="#575757" fill-opacity="0.5"/>
<circle cx="697.719" cy="309.303" r="3.00319" fill="#575757" fill-opacity="0.5"/>
<circle cx="697.719" cy="279.272" r="3.00319" fill="#575757" fill-opacity="0.5"/>
<circle cx="697.719" cy="249.24" r="3.00319" fill="#575757" fill-opacity="0.5"/>
<circle cx="697.719" cy="219.207" r="3.00319" fill="#575757" fill-opacity="0.5"/>
<circle cx="697.719" cy="189.176" r="3.00319" fill="#575757" fill-opacity="0.5"/>
<circle cx="697.719" cy="159.144" r="3.00319" fill="#575757" fill-opacity="0.5"/>
<circle cx="697.719" cy="129.112" r="3.00319" fill="#575757" fill-opacity="0.5"/>
<circle cx="697.719" cy="99.0794" r="3.00319" fill="#575757" fill-opacity="0.5"/>
<circle cx="697.719" cy="69.0481" r="3.00319" fill="#575757" fill-opacity="0.5"/>
<circle cx="697.719" cy="39.0159" r="3.00319" fill="#575757" fill-opacity="0.5"/>
<circle cx="157.144" cy="549.559" r="3.00319" fill="#575757" fill-opacity="0.5"/>
<circle cx="157.144" cy="519.527" r="3.00319" fill="#575757" fill-opacity="0.5"/>
<circle cx="157.144" cy="489.495" r="3.00319" fill="#575757" fill-opacity="0.5"/>
<circle cx="157.144" cy="459.463" r="3.00319" fill="#575757" fill-opacity="0.5"/>
<circle cx="157.144" cy="429.431" r="3.00319" fill="#575757" fill-opacity="0.5"/>
<circle cx="157.144" cy="399.399" r="3.00319" fill="#575757" fill-opacity="0.5"/>
<circle cx="157.144" cy="369.367" r="3.00319" fill="#575757" fill-opacity="0.5"/>
<circle cx="157.144" cy="339.335" r="3.00319" fill="#575757" fill-opacity="0.5"/>
<circle cx="157.144" cy="309.303" r="3.00319" fill="#575757" fill-opacity="0.5"/>
<circle cx="157.144" cy="279.272" r="3.00319" fill="#575757" fill-opacity="0.5"/>
<circle cx="157.144" cy="249.24" r="3.00319" fill="#575757" fill-opacity="0.5"/>
<circle cx="157.144" cy="219.207" r="3.00319" fill="#575757" fill-opacity="0.5"/>
<circle cx="157.144" cy="189.176" r="3.00319" fill="#575757" fill-opacity="0.5"/>
<circle cx="157.144" cy="159.144" r="3.00319" fill="#575757" fill-opacity="0.5"/>
<circle cx="157.144" cy="129.112" r="3.00319" fill="#575757" fill-opacity="0.5"/>
<circle cx="157.144" cy="99.0794" r="3.00319" fill="#575757" fill-opacity="0.5"/>
<circle cx="157.144" cy="69.0481" r="3.00319" fill="#575757" fill-opacity="0.5"/>
<circle cx="157.144" cy="39.0159" r="3.00319" fill="#575757" fill-opacity="0.5"/>
<circle cx="397.399" cy="549.559" r="3.00319" fill="#575757" fill-opacity="0.5"/>
<circle cx="397.399" cy="519.527" r="3.00319" fill="#575757" fill-opacity="0.5"/>
<circle cx="397.399" cy="489.495" r="3.00319" fill="#575757" fill-opacity="0.5"/>
<circle cx="397.399" cy="459.463" r="3.00319" fill="#575757" fill-opacity="0.5"/>
<circle cx="397.399" cy="429.431" r="3.00319" fill="#575757" fill-opacity="0.5"/>
<circle cx="397.399" cy="399.399" r="3.00319" fill="#575757" fill-opacity="0.5"/>
<circle cx="397.399" cy="369.367" r="3.00319" fill="#575757" fill-opacity="0.5"/>
<circle cx="397.399" cy="339.335" r="3.00319" fill="#575757" fill-opacity="0.5"/>
<circle cx="397.399" cy="309.303" r="3.00319" fill="#575757" fill-opacity="0.5"/>
<circle cx="397.399" cy="279.272" r="3.00319" fill="#575757" fill-opacity="0.5"/>
<circle cx="397.399" cy="249.24" r="3.00319" fill="#575757" fill-opacity="0.5"/>
<circle cx="397.399" cy="219.207" r="3.00319" fill="#575757" fill-opacity="0.5"/>
<circle cx="397.399" cy="189.176" r="3.00319" fill="#575757" fill-opacity="0.5"/>
<circle cx="397.399" cy="159.144" r="3.00319" fill="#575757" fill-opacity="0.5"/>
<circle cx="397.399" cy="129.112" r="3.00319" fill="#575757" fill-opacity="0.5"/>
<circle cx="397.399" cy="99.0794" r="3.00319" fill="#575757" fill-opacity="0.5"/>
<circle cx="397.399" cy="69.0481" r="3.00319" fill="#575757" fill-opacity="0.5"/>
<circle cx="397.399" cy="39.0159" r="3.00319" fill="#575757" fill-opacity="0.5"/>
<circle cx="637.655" cy="549.559" r="3.00319" fill="#575757" fill-opacity="0.5"/>
<circle cx="637.655" cy="519.527" r="3.00319" fill="#575757" fill-opacity="0.5"/>
<circle cx="637.655" cy="489.495" r="3.00319" fill="#575757" fill-opacity="0.5"/>
<circle cx="637.655" cy="459.463" r="3.00319" fill="#575757" fill-opacity="0.5"/>
<circle cx="637.655" cy="429.431" r="3.00319" fill="#575757" fill-opacity="0.5"/>
<circle cx="637.655" cy="399.399" r="3.00319" fill="#575757" fill-opacity="0.5"/>
<circle cx="637.655" cy="369.367" r="3.00319" fill="#575757" fill-opacity="0.5"/>
<circle cx="637.655" cy="339.335" r="3.00319" fill="#575757" fill-opacity="0.5"/>
<circle cx="637.655" cy="309.303" r="3.00319" fill="#575757" fill-opacity="0.5"/>
<circle cx="637.655" cy="279.272" r="3.00319" fill="#575757" fill-opacity="0.5"/>
<circle cx="637.655" cy="249.24" r="3.00319" fill="#575757" fill-opacity="0.5"/>
<circle cx="637.655" cy="219.207" r="3.00319" fill="#575757" fill-opacity="0.5"/>
<circle cx="637.655" cy="189.176" r="3.00319" fill="#575757" fill-opacity="0.5"/>
<circle cx="637.655" cy="159.144" r="3.00319" fill="#575757" fill-opacity="0.5"/>
<circle cx="637.655" cy="129.112" r="3.00319" fill="#575757" fill-opacity="0.5"/>
<circle cx="637.655" cy="99.0794" r="3.00319" fill="#575757" fill-opacity="0.5"/>
<circle cx="637.655" cy="69.0481" r="3.00319" fill="#575757" fill-opacity="0.5"/>
<circle cx="637.655" cy="39.0159" r="3.00319" fill="#575757" fill-opacity="0.5"/>
<circle cx="337.335" cy="549.559" r="3.00319" fill="#575757" fill-opacity="0.5"/>
<circle cx="337.335" cy="519.527" r="3.00319" fill="#575757" fill-opacity="0.5"/>
<circle cx="337.335" cy="489.495" r="3.00319" fill="#575757" fill-opacity="0.5"/>
<circle cx="337.335" cy="459.463" r="3.00319" fill="#575757" fill-opacity="0.5"/>
<circle cx="337.335" cy="429.431" r="3.00319" fill="#575757" fill-opacity="0.5"/>
<circle cx="337.335" cy="399.399" r="3.00319" fill="#575757" fill-opacity="0.5"/>
<circle cx="337.335" cy="369.367" r="3.00319" fill="#575757" fill-opacity="0.5"/>
<circle cx="337.335" cy="339.335" r="3.00319" fill="#575757" fill-opacity="0.5"/>
<circle cx="337.335" cy="309.303" r="3.00319" fill="#575757" fill-opacity="0.5"/>
<circle cx="337.335" cy="279.272" r="3.00319" fill="#575757" fill-opacity="0.5"/>
<circle cx="337.335" cy="249.24" r="3.00319" fill="#575757" fill-opacity="0.5"/>
<circle cx="337.335" cy="219.207" r="3.00319" fill="#575757" fill-opacity="0.5"/>
<circle cx="337.335" cy="189.176" r="3.00319" fill="#575757" fill-opacity="0.5"/>
<circle cx="337.335" cy="159.144" r="3.00319" fill="#575757" fill-opacity="0.5"/>
<circle cx="337.335" cy="129.112" r="3.00319" fill="#575757" fill-opacity="0.5"/>
<circle cx="337.335" cy="99.0794" r="3.00319" fill="#575757" fill-opacity="0.5"/>
<circle cx="337.335" cy="69.0481" r="3.00319" fill="#575757" fill-opacity="0.5"/>
<circle cx="337.335" cy="39.0159" r="3.00319" fill="#575757" fill-opacity="0.5"/>
<circle cx="577.591" cy="549.559" r="3.00319" fill="#575757" fill-opacity="0.5"/>
<circle cx="577.591" cy="519.527" r="3.00319" fill="#575757" fill-opacity="0.5"/>
<circle cx="577.591" cy="489.495" r="3.00319" fill="#575757" fill-opacity="0.5"/>
<circle cx="577.591" cy="459.463" r="3.00319" fill="#575757" fill-opacity="0.5"/>
<circle cx="577.591" cy="429.431" r="3.00319" fill="#575757" fill-opacity="0.5"/>
<circle cx="577.591" cy="399.399" r="3.00319" fill="#575757" fill-opacity="0.5"/>
<circle cx="577.591" cy="369.367" r="3.00319" fill="#575757" fill-opacity="0.5"/>
<circle cx="577.591" cy="339.335" r="3.00319" fill="#575757" fill-opacity="0.5"/>
<circle cx="577.591" cy="309.303" r="3.00319" fill="#575757" fill-opacity="0.5"/>
<circle cx="577.591" cy="279.272" r="3.00319" fill="#575757" fill-opacity="0.5"/>
<circle cx="577.591" cy="249.24" r="3.00319" fill="#575757" fill-opacity="0.5"/>
<circle cx="577.591" cy="219.207" r="3.00319" fill="#575757" fill-opacity="0.5"/>
<circle cx="577.591" cy="189.176" r="3.00319" fill="#575757" fill-opacity="0.5"/>
<circle cx="577.591" cy="159.144" r="3.00319" fill="#575757" fill-opacity="0.5"/>
<circle cx="577.591" cy="129.112" r="3.00319" fill="#575757" fill-opacity="0.5"/>
<circle cx="577.591" cy="99.0794" r="3.00319" fill="#575757" fill-opacity="0.5"/>
<circle cx="577.591" cy="69.0481" r="3.00319" fill="#575757" fill-opacity="0.5"/>
<circle cx="577.591" cy="39.0159" r="3.00319" fill="#575757" fill-opacity="0.5"/>
<circle cx="97.0799" cy="549.559" r="3.00319" fill="#575757" fill-opacity="0.5"/>
<circle cx="97.0799" cy="519.527" r="3.00319" fill="#575757" fill-opacity="0.5"/>
<circle cx="97.0799" cy="489.495" r="3.00319" fill="#575757" fill-opacity="0.5"/>
<circle cx="97.0799" cy="459.463" r="3.00319" fill="#575757" fill-opacity="0.5"/>
<circle cx="97.0799" cy="429.431" r="3.00319" fill="#575757" fill-opacity="0.5"/>
<circle cx="97.0799" cy="399.399" r="3.00319" fill="#575757" fill-opacity="0.5"/>
<circle cx="97.0799" cy="369.367" r="3.00319" fill="#575757" fill-opacity="0.5"/>
<circle cx="97.0799" cy="339.335" r="3.00319" fill="#575757" fill-opacity="0.5"/>
<circle cx="97.0799" cy="309.303" r="3.00319" fill="#575757" fill-opacity="0.5"/>
<circle cx="97.0799" cy="279.272" r="3.00319" fill="#575757" fill-opacity="0.5"/>
<circle cx="97.0799" cy="249.24" r="3.00319" fill="#575757" fill-opacity="0.5"/>
<circle cx="97.0799" cy="219.207" r="3.00319" fill="#575757" fill-opacity="0.5"/>
<circle cx="97.0799" cy="189.176" r="3.00319" fill="#575757" fill-opacity="0.5"/>
<circle cx="97.0799" cy="159.144" r="3.00319" fill="#575757" fill-opacity="0.5"/>
<circle cx="97.0799" cy="129.112" r="3.00319" fill="#575757" fill-opacity="0.5"/>
<circle cx="97.0799" cy="99.0794" r="3.00319" fill="#575757" fill-opacity="0.5"/>
<circle cx="97.0799" cy="69.0481" r="3.00319" fill="#575757" fill-opacity="0.5"/>
<circle cx="97.0799" cy="39.0159" r="3.00319" fill="#575757" fill-opacity="0.5"/>
<circle cx="277.272" cy="549.559" r="3.00319" fill="#575757" fill-opacity="0.5"/>
<circle cx="277.272" cy="519.527" r="3.00319" fill="#575757" fill-opacity="0.5"/>
<circle cx="277.272" cy="489.495" r="3.00319" fill="#575757" fill-opacity="0.5"/>
<circle cx="277.272" cy="459.463" r="3.00319" fill="#575757" fill-opacity="0.5"/>
<circle cx="277.272" cy="429.431" r="3.00319" fill="#575757" fill-opacity="0.5"/>
<circle cx="277.272" cy="399.399" r="3.00319" fill="#575757" fill-opacity="0.5"/>
<circle cx="277.272" cy="369.367" r="3.00319" fill="#575757" fill-opacity="0.5"/>
<circle cx="277.272" cy="339.335" r="3.00319" fill="#575757" fill-opacity="0.5"/>
<circle cx="277.272" cy="309.303" r="3.00319" fill="#575757" fill-opacity="0.5"/>
<circle cx="277.272" cy="279.272" r="3.00319" fill="#575757" fill-opacity="0.5"/>
<circle cx="277.272" cy="249.24" r="3.00319" fill="#575757" fill-opacity="0.5"/>
<circle cx="277.272" cy="219.207" r="3.00319" fill="#575757" fill-opacity="0.5"/>
<circle cx="277.272" cy="189.176" r="3.00319" fill="#575757" fill-opacity="0.5"/>
<circle cx="277.272" cy="159.144" r="3.00319" fill="#575757" fill-opacity="0.5"/>
<circle cx="277.272" cy="129.112" r="3.00319" fill="#575757" fill-opacity="0.5"/>
<circle cx="277.272" cy="99.0794" r="3.00319" fill="#575757" fill-opacity="0.5"/>
<circle cx="277.272" cy="69.0481" r="3.00319" fill="#575757" fill-opacity="0.5"/>
<circle cx="277.272" cy="39.0159" r="3.00319" fill="#575757" fill-opacity="0.5"/>
<circle cx="517.527" cy="549.559" r="3.00319" fill="#575757" fill-opacity="0.5"/>
<circle cx="517.527" cy="519.527" r="3.00319" fill="#575757" fill-opacity="0.5"/>
<circle cx="517.527" cy="489.495" r="3.00319" fill="#575757" fill-opacity="0.5"/>
<circle cx="517.527" cy="459.463" r="3.00319" fill="#575757" fill-opacity="0.5"/>
<circle cx="517.527" cy="429.431" r="3.00319" fill="#575757" fill-opacity="0.5"/>
<circle cx="517.527" cy="399.399" r="3.00319" fill="#575757" fill-opacity="0.5"/>
<circle cx="517.527" cy="369.367" r="3.00319" fill="#575757" fill-opacity="0.5"/>
<circle cx="517.527" cy="339.335" r="3.00319" fill="#575757" fill-opacity="0.5"/>
<circle cx="517.527" cy="309.303" r="3.00319" fill="#575757" fill-opacity="0.5"/>
<circle cx="517.527" cy="279.272" r="3.00319" fill="#575757" fill-opacity="0.5"/>
<circle cx="517.527" cy="249.24" r="3.00319" fill="#575757" fill-opacity="0.5"/>
<circle cx="517.527" cy="219.207" r="3.00319" fill="#575757" fill-opacity="0.5"/>
<circle cx="517.527" cy="189.176" r="3.00319" fill="#575757" fill-opacity="0.5"/>
<circle cx="517.527" cy="159.144" r="3.00319" fill="#575757" fill-opacity="0.5"/>
<circle cx="517.527" cy="129.112" r="3.00319" fill="#575757" fill-opacity="0.5"/>
<circle cx="517.527" cy="99.0794" r="3.00319" fill="#575757" fill-opacity="0.5"/>
<circle cx="517.527" cy="69.0481" r="3.00319" fill="#575757" fill-opacity="0.5"/>
<circle cx="517.527" cy="39.0159" r="3.00319" fill="#575757" fill-opacity="0.5"/>
<circle cx="67.0479" cy="549.559" r="3.00319" fill="#575757" fill-opacity="0.5"/>
<circle cx="67.0479" cy="519.527" r="3.00319" fill="#575757" fill-opacity="0.5"/>
<circle cx="67.0479" cy="489.495" r="3.00319" fill="#575757" fill-opacity="0.5"/>
<circle cx="67.0479" cy="459.463" r="3.00319" fill="#575757" fill-opacity="0.5"/>
<circle cx="67.0479" cy="429.431" r="3.00319" fill="#575757" fill-opacity="0.5"/>
<circle cx="67.0479" cy="399.399" r="3.00319" fill="#575757" fill-opacity="0.5"/>
<circle cx="67.0479" cy="369.367" r="3.00319" fill="#575757" fill-opacity="0.5"/>
<circle cx="67.0479" cy="339.335" r="3.00319" fill="#575757" fill-opacity="0.5"/>
<circle cx="67.0479" cy="309.303" r="3.00319" fill="#575757" fill-opacity="0.5"/>
<circle cx="67.0479" cy="279.272" r="3.00319" fill="#575757" fill-opacity="0.5"/>
<circle cx="67.0479" cy="249.24" r="3.00319" fill="#575757" fill-opacity="0.5"/>
<circle cx="67.0479" cy="219.207" r="3.00319" fill="#575757" fill-opacity="0.5"/>
<circle cx="67.0479" cy="189.176" r="3.00319" fill="#575757" fill-opacity="0.5"/>
<circle cx="67.0479" cy="159.144" r="3.00319" fill="#575757" fill-opacity="0.5"/>
<circle cx="67.0479" cy="129.112" r="3.00319" fill="#575757" fill-opacity="0.5"/>
<circle cx="67.0479" cy="99.0794" r="3.00319" fill="#575757" fill-opacity="0.5"/>
<circle cx="67.0479" cy="69.0481" r="3.00319" fill="#575757" fill-opacity="0.5"/>
<circle cx="67.0479" cy="39.0159" r="3.00319" fill="#575757" fill-opacity="0.5"/>
<circle cx="247.24" cy="549.559" r="3.00319" fill="#575757" fill-opacity="0.5"/>
<circle cx="247.24" cy="519.527" r="3.00319" fill="#575757" fill-opacity="0.5"/>
<circle cx="247.24" cy="489.495" r="3.00319" fill="#575757" fill-opacity="0.5"/>
<circle cx="247.24" cy="459.463" r="3.00319" fill="#575757" fill-opacity="0.5"/>
<circle cx="247.24" cy="429.431" r="3.00319" fill="#575757" fill-opacity="0.5"/>
<circle cx="247.24" cy="399.399" r="3.00319" fill="#575757" fill-opacity="0.5"/>
<circle cx="247.24" cy="369.367" r="3.00319" fill="#575757" fill-opacity="0.5"/>
<circle cx="247.24" cy="339.335" r="3.00319" fill="#575757" fill-opacity="0.5"/>
<circle cx="247.24" cy="309.303" r="3.00319" fill="#575757" fill-opacity="0.5"/>
<circle cx="247.24" cy="279.272" r="3.00319" fill="#575757" fill-opacity="0.5"/>
<circle cx="247.24" cy="249.24" r="3.00319" fill="#575757" fill-opacity="0.5"/>
<circle cx="247.24" cy="219.207" r="3.00319" fill="#575757" fill-opacity="0.5"/>
<circle cx="247.24" cy="189.176" r="3.00319" fill="#575757" fill-opacity="0.5"/>
<circle cx="247.24" cy="159.144" r="3.00319" fill="#575757" fill-opacity="0.5"/>
<circle cx="247.24" cy="129.112" r="3.00319" fill="#575757" fill-opacity="0.5"/>
<circle cx="247.24" cy="99.0794" r="3.00319" fill="#575757" fill-opacity="0.5"/>
<circle cx="247.24" cy="69.0481" r="3.00319" fill="#575757" fill-opacity="0.5"/>
<circle cx="247.24" cy="39.0159" r="3.00319" fill="#575757" fill-opacity="0.5"/>
<circle cx="487.495" cy="549.559" r="3.00319" fill="#575757" fill-opacity="0.5"/>
<circle cx="487.495" cy="519.527" r="3.00319" fill="#575757" fill-opacity="0.5"/>
<circle cx="487.495" cy="489.495" r="3.00319" fill="#575757" fill-opacity="0.5"/>
<circle cx="487.495" cy="459.463" r="3.00319" fill="#575757" fill-opacity="0.5"/>
<circle cx="487.495" cy="429.431" r="3.00319" fill="#575757" fill-opacity="0.5"/>
<circle cx="487.495" cy="399.399" r="3.00319" fill="#575757" fill-opacity="0.5"/>
<circle cx="487.495" cy="369.367" r="3.00319" fill="#575757" fill-opacity="0.5"/>
<circle cx="487.495" cy="339.335" r="3.00319" fill="#575757" fill-opacity="0.5"/>
<circle cx="487.495" cy="309.303" r="3.00319" fill="#575757" fill-opacity="0.5"/>
<circle cx="487.495" cy="279.272" r="3.00319" fill="#575757" fill-opacity="0.5"/>
<circle cx="487.495" cy="249.24" r="3.00319" fill="#575757" fill-opacity="0.5"/>
<circle cx="487.495" cy="219.207" r="3.00319" fill="#575757" fill-opacity="0.5"/>
<circle cx="487.495" cy="189.176" r="3.00319" fill="#575757" fill-opacity="0.5"/>
<circle cx="487.495" cy="159.144" r="3.00319" fill="#575757" fill-opacity="0.5"/>
<circle cx="487.495" cy="129.112" r="3.00319" fill="#575757" fill-opacity="0.5"/>
<circle cx="487.495" cy="99.0794" r="3.00319" fill="#575757" fill-opacity="0.5"/>
<circle cx="487.495" cy="69.0481" r="3.00319" fill="#575757" fill-opacity="0.5"/>
<circle cx="487.495" cy="39.0159" r="3.00319" fill="#575757" fill-opacity="0.5"/>
<circle cx="727.75" cy="549.559" r="3.00319" fill="#575757" fill-opacity="0.5"/>
<circle cx="727.75" cy="519.527" r="3.00319" fill="#575757" fill-opacity="0.5"/>
<circle cx="727.75" cy="489.495" r="3.00319" fill="#575757" fill-opacity="0.5"/>
<circle cx="727.75" cy="459.463" r="3.00319" fill="#575757" fill-opacity="0.5"/>
<circle cx="727.75" cy="429.431" r="3.00319" fill="#575757" fill-opacity="0.5"/>
<circle cx="727.75" cy="399.399" r="3.00319" fill="#575757" fill-opacity="0.5"/>
<circle cx="727.75" cy="369.367" r="3.00319" fill="#575757" fill-opacity="0.5"/>
<circle cx="727.75" cy="339.335" r="3.00319" fill="#575757" fill-opacity="0.5"/>
<circle cx="727.75" cy="309.303" r="3.00319" fill="#575757" fill-opacity="0.5"/>
<circle cx="727.75" cy="279.272" r="3.00319" fill="#575757" fill-opacity="0.5"/>
<circle cx="727.75" cy="249.24" r="3.00319" fill="#575757" fill-opacity="0.5"/>
<circle cx="727.75" cy="219.207" r="3.00319" fill="#575757" fill-opacity="0.5"/>
<circle cx="727.75" cy="189.176" r="3.00319" fill="#575757" fill-opacity="0.5"/>
<circle cx="727.75" cy="159.144" r="3.00319" fill="#575757" fill-opacity="0.5"/>
<circle cx="727.75" cy="129.112" r="3.00319" fill="#575757" fill-opacity="0.5"/>
<circle cx="727.75" cy="99.0794" r="3.00319" fill="#575757" fill-opacity="0.5"/>
<circle cx="727.75" cy="69.0481" r="3.00319" fill="#575757" fill-opacity="0.5"/>
<circle cx="727.75" cy="39.0159" r="3.00319" fill="#575757" fill-opacity="0.5"/>
<circle cx="187.176" cy="549.559" r="3.00319" fill="#575757" fill-opacity="0.5"/>
<circle cx="187.176" cy="519.527" r="3.00319" fill="#575757" fill-opacity="0.5"/>
<circle cx="187.176" cy="489.495" r="3.00319" fill="#575757" fill-opacity="0.5"/>
<circle cx="187.176" cy="459.463" r="3.00319" fill="#575757" fill-opacity="0.5"/>
<circle cx="187.176" cy="429.431" r="3.00319" fill="#575757" fill-opacity="0.5"/>
<circle cx="187.176" cy="399.399" r="3.00319" fill="#575757" fill-opacity="0.5"/>
<circle cx="187.176" cy="369.367" r="3.00319" fill="#575757" fill-opacity="0.5"/>
<circle cx="187.176" cy="339.335" r="3.00319" fill="#575757" fill-opacity="0.5"/>
<circle cx="187.176" cy="309.303" r="3.00319" fill="#575757" fill-opacity="0.5"/>
<circle cx="187.176" cy="279.272" r="3.00319" fill="#575757" fill-opacity="0.5"/>
<circle cx="187.176" cy="249.24" r="3.00319" fill="#575757" fill-opacity="0.5"/>
<circle cx="187.176" cy="219.207" r="3.00319" fill="#575757" fill-opacity="0.5"/>
<circle cx="187.176" cy="189.176" r="3.00319" fill="#575757" fill-opacity="0.5"/>
<circle cx="187.176" cy="159.144" r="3.00319" fill="#575757" fill-opacity="0.5"/>
<circle cx="187.176" cy="129.112" r="3.00319" fill="#575757" fill-opacity="0.5"/>
<circle cx="187.176" cy="99.0794" r="3.00319" fill="#575757" fill-opacity="0.5"/>
<circle cx="187.176" cy="69.0481" r="3.00319" fill="#575757" fill-opacity="0.5"/>
<circle cx="187.176" cy="39.0159" r="3.00319" fill="#575757" fill-opacity="0.5"/>
<circle cx="427.431" cy="549.559" r="3.00319" fill="#575757" fill-opacity="0.5"/>
<circle cx="427.431" cy="519.527" r="3.00319" fill="#575757" fill-opacity="0.5"/>
<circle cx="427.431" cy="489.495" r="3.00319" fill="#575757" fill-opacity="0.5"/>
<circle cx="427.431" cy="459.463" r="3.00319" fill="#575757" fill-opacity="0.5"/>
<circle cx="427.431" cy="429.431" r="3.00319" fill="#575757" fill-opacity="0.5"/>
<circle cx="427.431" cy="399.399" r="3.00319" fill="#575757" fill-opacity="0.5"/>
<circle cx="427.431" cy="369.367" r="3.00319" fill="#575757" fill-opacity="0.5"/>
<circle cx="427.431" cy="339.335" r="3.00319" fill="#575757" fill-opacity="0.5"/>
<circle cx="427.431" cy="309.303" r="3.00319" fill="#575757" fill-opacity="0.5"/>
<circle cx="427.431" cy="279.272" r="3.00319" fill="#575757" fill-opacity="0.5"/>
<circle cx="427.431" cy="249.24" r="3.00319" fill="#575757" fill-opacity="0.5"/>
<circle cx="427.431" cy="219.207" r="3.00319" fill="#575757" fill-opacity="0.5"/>
<circle cx="427.431" cy="189.176" r="3.00319" fill="#575757" fill-opacity="0.5"/>
<circle cx="427.431" cy="159.144" r="3.00319" fill="#575757" fill-opacity="0.5"/>
<circle cx="427.431" cy="129.112" r="3.00319" fill="#575757" fill-opacity="0.5"/>
<circle cx="427.431" cy="99.0794" r="3.00319" fill="#575757" fill-opacity="0.5"/>
<circle cx="427.431" cy="69.0481" r="3.00319" fill="#575757" fill-opacity="0.5"/>
<circle cx="427.431" cy="39.0159" r="3.00319" fill="#575757" fill-opacity="0.5"/>
<circle cx="667.687" cy="549.559" r="3.00319" fill="#575757" fill-opacity="0.5"/>
<circle cx="667.687" cy="519.527" r="3.00319" fill="#575757" fill-opacity="0.5"/>
<circle cx="667.687" cy="489.495" r="3.00319" fill="#575757" fill-opacity="0.5"/>
<circle cx="667.687" cy="459.463" r="3.00319" fill="#575757" fill-opacity="0.5"/>
<circle cx="667.687" cy="429.431" r="3.00319" fill="#575757" fill-opacity="0.5"/>
<circle cx="667.687" cy="399.399" r="3.00319" fill="#575757" fill-opacity="0.5"/>
<circle cx="667.687" cy="369.367" r="3.00319" fill="#575757" fill-opacity="0.5"/>
<circle cx="667.687" cy="339.335" r="3.00319" fill="#575757" fill-opacity="0.5"/>
<circle cx="667.687" cy="309.303" r="3.00319" fill="#575757" fill-opacity="0.5"/>
<circle cx="667.687" cy="279.272" r="3.00319" fill="#575757" fill-opacity="0.5"/>
<circle cx="667.687" cy="249.24" r="3.00319" fill="#575757" fill-opacity="0.5"/>
<circle cx="667.687" cy="219.207" r="3.00319" fill="#575757" fill-opacity="0.5"/>
<circle cx="667.687" cy="189.176" r="3.00319" fill="#575757" fill-opacity="0.5"/>
<circle cx="667.687" cy="159.144" r="3.00319" fill="#575757" fill-opacity="0.5"/>
<circle cx="667.687" cy="129.112" r="3.00319" fill="#575757" fill-opacity="0.5"/>
<circle cx="667.687" cy="99.0794" r="3.00319" fill="#575757" fill-opacity="0.5"/>
<circle cx="667.687" cy="69.0481" r="3.00319" fill="#575757" fill-opacity="0.5"/>
<circle cx="667.687" cy="39.0159" r="3.00319" fill="#575757" fill-opacity="0.5"/>
<circle cx="367.367" cy="549.559" r="3.00319" fill="#575757" fill-opacity="0.5"/>
<circle cx="367.367" cy="519.527" r="3.00319" fill="#575757" fill-opacity="0.5"/>
<circle cx="367.367" cy="489.495" r="3.00319" fill="#575757" fill-opacity="0.5"/>
<circle cx="367.367" cy="459.463" r="3.00319" fill="#575757" fill-opacity="0.5"/>
<circle cx="367.367" cy="429.431" r="3.00319" fill="#575757" fill-opacity="0.5"/>
<circle cx="367.367" cy="399.399" r="3.00319" fill="#575757" fill-opacity="0.5"/>
<circle cx="367.367" cy="369.367" r="3.00319" fill="#575757" fill-opacity="0.5"/>
<circle cx="367.367" cy="339.335" r="3.00319" fill="#575757" fill-opacity="0.5"/>
<circle cx="367.367" cy="309.303" r="3.00319" fill="#575757" fill-opacity="0.5"/>
<circle cx="367.367" cy="279.272" r="3.00319" fill="#575757" fill-opacity="0.5"/>
<circle cx="367.367" cy="249.24" r="3.00319" fill="#575757" fill-opacity="0.5"/>
<circle cx="367.367" cy="219.207" r="3.00319" fill="#575757" fill-opacity="0.5"/>
<circle cx="367.367" cy="189.176" r="3.00319" fill="#575757" fill-opacity="0.5"/>
<circle cx="367.367" cy="159.144" r="3.00319" fill="#575757" fill-opacity="0.5"/>
<circle cx="367.367" cy="129.112" r="3.00319" fill="#575757" fill-opacity="0.5"/>
<circle cx="367.367" cy="99.0794" r="3.00319" fill="#575757" fill-opacity="0.5"/>
<circle cx="367.367" cy="69.0481" r="3.00319" fill="#575757" fill-opacity="0.5"/>
<circle cx="367.367" cy="39.0159" r="3.00319" fill="#575757" fill-opacity="0.5"/>
<circle cx="607.623" cy="549.559" r="3.00319" fill="#575757" fill-opacity="0.5"/>
<circle cx="607.623" cy="519.527" r="3.00319" fill="#575757" fill-opacity="0.5"/>
<circle cx="607.623" cy="489.495" r="3.00319" fill="#575757" fill-opacity="0.5"/>
<circle cx="607.623" cy="459.463" r="3.00319" fill="#575757" fill-opacity="0.5"/>
<circle cx="607.623" cy="429.431" r="3.00319" fill="#575757" fill-opacity="0.5"/>
<circle cx="607.623" cy="399.399" r="3.00319" fill="#575757" fill-opacity="0.5"/>
<circle cx="607.623" cy="369.367" r="3.00319" fill="#575757" fill-opacity="0.5"/>
<circle cx="607.623" cy="339.335" r="3.00319" fill="#575757" fill-opacity="0.5"/>
<circle cx="607.623" cy="309.303" r="3.00319" fill="#575757" fill-opacity="0.5"/>
<circle cx="607.623" cy="279.272" r="3.00319" fill="#575757" fill-opacity="0.5"/>
<circle cx="607.623" cy="249.24" r="3.00319" fill="#575757" fill-opacity="0.5"/>
<circle cx="607.623" cy="219.207" r="3.00319" fill="#575757" fill-opacity="0.5"/>
<circle cx="607.623" cy="189.176" r="3.00319" fill="#575757" fill-opacity="0.5"/>
<circle cx="607.623" cy="159.144" r="3.00319" fill="#575757" fill-opacity="0.5"/>
<circle cx="607.623" cy="129.112" r="3.00319" fill="#575757" fill-opacity="0.5"/>
<circle cx="607.623" cy="99.0794" r="3.00319" fill="#575757" fill-opacity="0.5"/>
<circle cx="607.623" cy="69.0481" r="3.00319" fill="#575757" fill-opacity="0.5"/>
<circle cx="607.623" cy="39.0159" r="3.00319" fill="#575757" fill-opacity="0.5"/>
<circle cx="127.112" cy="549.559" r="3.00319" fill="#575757" fill-opacity="0.5"/>
<circle cx="127.112" cy="519.527" r="3.00319" fill="#575757" fill-opacity="0.5"/>
<circle cx="127.112" cy="489.495" r="3.00319" fill="#575757" fill-opacity="0.5"/>
<circle cx="127.112" cy="459.463" r="3.00319" fill="#575757" fill-opacity="0.5"/>
<circle cx="127.112" cy="429.431" r="3.00319" fill="#575757" fill-opacity="0.5"/>
<circle cx="127.112" cy="399.399" r="3.00319" fill="#575757" fill-opacity="0.5"/>
<circle cx="127.112" cy="369.367" r="3.00319" fill="#575757" fill-opacity="0.5"/>
<circle cx="127.112" cy="339.335" r="3.00319" fill="#575757" fill-opacity="0.5"/>
<circle cx="127.112" cy="309.303" r="3.00319" fill="#575757" fill-opacity="0.5"/>
<circle cx="127.112" cy="279.272" r="3.00319" fill="#575757" fill-opacity="0.5"/>
<circle cx="127.112" cy="249.24" r="3.00319" fill="#575757" fill-opacity="0.5"/>
<circle cx="127.112" cy="219.207" r="3.00319" fill="#575757" fill-opacity="0.5"/>
<circle cx="127.112" cy="189.176" r="3.00319" fill="#575757" fill-opacity="0.5"/>
<circle cx="127.112" cy="159.144" r="3.00319" fill="#575757" fill-opacity="0.5"/>
<circle cx="127.112" cy="129.112" r="3.00319" fill="#575757" fill-opacity="0.5"/>
<circle cx="127.112" cy="99.0794" r="3.00319" fill="#575757" fill-opacity="0.5"/>
<circle cx="127.112" cy="69.0481" r="3.00319" fill="#575757" fill-opacity="0.5"/>
<circle cx="127.112" cy="39.0159" r="3.00319" fill="#575757" fill-opacity="0.5"/>
<circle cx="307.303" cy="549.559" r="3.00319" fill="#575757" fill-opacity="0.5"/>
<circle cx="307.303" cy="519.527" r="3.00319" fill="#575757" fill-opacity="0.5"/>
<circle cx="307.303" cy="489.495" r="3.00319" fill="#575757" fill-opacity="0.5"/>
<circle cx="307.303" cy="459.463" r="3.00319" fill="#575757" fill-opacity="0.5"/>
<circle cx="307.303" cy="429.431" r="3.00319" fill="#575757" fill-opacity="0.5"/>
<circle cx="307.303" cy="399.399" r="3.00319" fill="#575757" fill-opacity="0.5"/>
<circle cx="307.303" cy="369.367" r="3.00319" fill="#575757" fill-opacity="0.5"/>
<circle cx="307.303" cy="339.335" r="3.00319" fill="#575757" fill-opacity="0.5"/>
<circle cx="307.303" cy="309.303" r="3.00319" fill="#575757" fill-opacity="0.5"/>
<circle cx="307.303" cy="279.272" r="3.00319" fill="#575757" fill-opacity="0.5"/>
<circle cx="307.303" cy="249.24" r="3.00319" fill="#575757" fill-opacity="0.5"/>
<circle cx="307.303" cy="219.207" r="3.00319" fill="#575757" fill-opacity="0.5"/>
<circle cx="307.303" cy="189.176" r="3.00319" fill="#575757" fill-opacity="0.5"/>
<circle cx="307.303" cy="159.144" r="3.00319" fill="#575757" fill-opacity="0.5"/>
<circle cx="307.303" cy="129.112" r="3.00319" fill="#575757" fill-opacity="0.5"/>
<circle cx="307.303" cy="99.0794" r="3.00319" fill="#575757" fill-opacity="0.5"/>
<circle cx="307.303" cy="69.0481" r="3.00319" fill="#575757" fill-opacity="0.5"/>
<circle cx="307.303" cy="39.0159" r="3.00319" fill="#575757" fill-opacity="0.5"/>
<circle cx="547.559" cy="549.559" r="3.00319" fill="#575757" fill-opacity="0.5"/>
<circle cx="547.559" cy="519.527" r="3.00319" fill="#575757" fill-opacity="0.5"/>
<circle cx="547.559" cy="489.495" r="3.00319" fill="#575757" fill-opacity="0.5"/>
<circle cx="547.559" cy="459.463" r="3.00319" fill="#575757" fill-opacity="0.5"/>
<circle cx="547.559" cy="429.431" r="3.00319" fill="#575757" fill-opacity="0.5"/>
<circle cx="547.559" cy="399.399" r="3.00319" fill="#575757" fill-opacity="0.5"/>
<circle cx="547.559" cy="369.367" r="3.00319" fill="#575757" fill-opacity="0.5"/>
<circle cx="547.559" cy="339.335" r="3.00319" fill="#575757" fill-opacity="0.5"/>
<circle cx="547.559" cy="309.303" r="3.00319" fill="#575757" fill-opacity="0.5"/>
<circle cx="547.559" cy="279.272" r="3.00319" fill="#575757" fill-opacity="0.5"/>
<circle cx="547.559" cy="249.24" r="3.00319" fill="#575757" fill-opacity="0.5"/>
<circle cx="547.559" cy="219.207" r="3.00319" fill="#575757" fill-opacity="0.5"/>
<circle cx="547.559" cy="189.176" r="3.00319" fill="#575757" fill-opacity="0.5"/>
<circle cx="547.559" cy="159.144" r="3.00319" fill="#575757" fill-opacity="0.5"/>
<circle cx="547.559" cy="129.112" r="3.00319" fill="#575757" fill-opacity="0.5"/>
<circle cx="547.559" cy="99.0794" r="3.00319" fill="#575757" fill-opacity="0.5"/>
<circle cx="547.559" cy="69.0481" r="3.00319" fill="#575757" fill-opacity="0.5"/>
<circle cx="547.559" cy="39.0159" r="3.00319" fill="#575757" fill-opacity="0.5"/>
<circle cx="757.782" cy="549.559" r="3.00319" fill="#575757" fill-opacity="0.5"/>
<circle cx="757.782" cy="519.527" r="3.00319" fill="#575757" fill-opacity="0.5"/>
<circle cx="757.782" cy="489.495" r="3.00319" fill="#575757" fill-opacity="0.5"/>
<circle cx="757.782" cy="459.463" r="3.00319" fill="#575757" fill-opacity="0.5"/>
<circle cx="757.782" cy="429.431" r="3.00319" fill="#575757" fill-opacity="0.5"/>
<circle cx="757.782" cy="399.399" r="3.00319" fill="#575757" fill-opacity="0.5"/>
<circle cx="757.782" cy="369.367" r="3.00319" fill="#575757" fill-opacity="0.5"/>
<circle cx="757.782" cy="339.335" r="3.00319" fill="#575757" fill-opacity="0.5"/>
<circle cx="757.782" cy="309.303" r="3.00319" fill="#575757" fill-opacity="0.5"/>
<circle cx="757.782" cy="279.272" r="3.00319" fill="#575757" fill-opacity="0.5"/>
<circle cx="757.782" cy="249.24" r="3.00319" fill="#575757" fill-opacity="0.5"/>
<circle cx="757.782" cy="219.207" r="3.00319" fill="#575757" fill-opacity="0.5"/>
<circle cx="757.782" cy="189.176" r="3.00319" fill="#575757" fill-opacity="0.5"/>
<circle cx="757.782" cy="159.144" r="3.00319" fill="#575757" fill-opacity="0.5"/>
<circle cx="757.782" cy="129.112" r="3.00319" fill="#575757" fill-opacity="0.5"/>
<circle cx="757.782" cy="99.0794" r="3.00319" fill="#575757" fill-opacity="0.5"/>
<circle cx="757.782" cy="69.0481" r="3.00319" fill="#575757" fill-opacity="0.5"/>
<circle cx="757.782" cy="39.0159" r="3.00319" fill="#575757" fill-opacity="0.5"/>
</g>
<path d="M68.5138 111V59.0659H89.3077C93.1284 59.0659 96.3151 59.6322 98.8679 60.7649C101.421 61.8976 103.339 63.4698 104.624 65.4816C105.909 67.4764 106.551 69.7756 106.551 72.3791C106.551 74.4078 106.146 76.1913 105.334 77.7297C104.523 79.2512 103.407 80.5022 101.987 81.4828C100.584 82.4464 98.9778 83.1311 97.1689 83.5368V84.044C99.1468 84.1285 100.998 84.6864 102.722 85.7176C104.464 86.7489 105.875 88.1943 106.957 90.0539C108.039 91.8966 108.58 94.0944 108.58 96.6471C108.58 99.4027 107.895 101.863 106.526 104.026C105.174 106.173 103.17 107.872 100.516 109.123C97.862 110.374 94.5907 111 90.7024 111H68.5138ZM79.494 102.023H88.4455C91.5055 102.023 93.737 101.44 95.1402 100.273C96.5433 99.09 97.2449 97.5178 97.2449 95.5567C97.2449 94.1197 96.8984 92.8518 96.2052 91.7529C95.5121 90.6541 94.5231 89.7919 93.2383 89.1664C91.9704 88.5409 90.4573 88.2281 88.6991 88.2281H79.494V102.023ZM79.494 80.7981H87.6341C89.1387 80.7981 90.4742 80.536 91.6407 80.012C92.8241 79.471 93.7539 78.7102 94.4301 77.7297C95.1233 76.7492 95.4698 75.5742 95.4698 74.2049C95.4698 72.3284 94.8021 70.8153 93.4665 69.6657C92.1479 68.5161 90.2714 67.9413 87.8369 67.9413H79.494V80.7981ZM133.07 126.418C129.571 126.418 126.57 125.936 124.068 124.973C121.583 124.026 119.605 122.733 118.134 121.093C116.663 119.453 115.708 117.61 115.268 115.565L125.26 114.221C125.564 114.998 126.046 115.725 126.705 116.401C127.364 117.078 128.235 117.619 129.317 118.024C130.416 118.447 131.751 118.658 133.324 118.658C135.674 118.658 137.609 118.083 139.131 116.934C140.669 115.801 141.438 113.899 141.438 111.228V104.103H140.982C140.509 105.184 139.799 106.207 138.852 107.171C137.905 108.134 136.688 108.921 135.2 109.529C133.712 110.138 131.937 110.442 129.875 110.442C126.95 110.442 124.288 109.766 121.887 108.413C119.503 107.044 117.601 104.956 116.181 102.15C114.778 99.3267 114.077 95.7596 114.077 91.4486C114.077 87.0363 114.795 83.3508 116.232 80.3923C117.669 77.4339 119.579 75.2192 121.963 73.7484C124.364 72.2776 126.993 71.5422 129.85 71.5422C132.03 71.5422 133.856 71.9142 135.327 72.658C136.798 73.385 137.981 74.2979 138.877 75.3967C139.79 76.4787 140.492 77.5437 140.982 78.5919H141.388V72.0494H152.114V111.38C152.114 114.694 151.303 117.466 149.68 119.698C148.057 121.929 145.808 123.603 142.935 124.719C140.077 125.852 136.789 126.418 133.07 126.418ZM133.298 102.327C135.04 102.327 136.51 101.896 137.711 101.034C138.928 100.155 139.858 98.904 140.5 97.2811C141.159 95.6412 141.489 93.6802 141.489 91.3979C141.489 89.1157 141.168 87.1377 140.525 85.464C139.883 83.7735 138.953 82.4633 137.736 81.5335C136.519 80.6037 135.04 80.1388 133.298 80.1388C131.523 80.1388 130.027 80.6206 128.81 81.5842C127.593 82.5309 126.671 83.8495 126.046 85.5401C125.42 87.2307 125.108 89.1833 125.108 91.3979C125.108 93.6464 125.42 95.5905 126.046 97.2304C126.688 98.8533 127.61 100.113 128.81 101.009C130.027 101.888 131.523 102.327 133.298 102.327Z" fill="white"/>
<defs>
<clipPath id="clip0_109_9981">
<rect x="22" y="24" width="736" height="539" rx="40" fill="white"/>
</clipPath>
</defs>
</svg>
