<svg width="779" height="588" viewBox="0 0 779 588" fill="none" xmlns="http://www.w3.org/2000/svg">
<rect width="779" height="588" rx="48" fill="white"/>
<rect x="22" y="24" width="736" height="539" rx="40" fill="#F7F8FA"/>
<path d="M68.5138 111V59.0659H79.494V101.947H101.759V111H68.5138ZM126.426 111.761C122.487 111.761 119.081 110.924 116.207 109.25C113.35 107.56 111.143 105.21 109.588 102.201C108.033 99.1745 107.255 95.6666 107.255 91.6769C107.255 87.6533 108.033 84.1369 109.588 81.1277C111.143 78.1016 113.35 75.7517 116.207 74.0781C119.081 72.3875 122.487 71.5422 126.426 71.5422C130.365 71.5422 133.763 72.3875 136.62 74.0781C139.494 75.7517 141.709 78.1016 143.264 81.1277C144.82 84.1369 145.597 87.6533 145.597 91.6769C145.597 95.6666 144.82 99.1745 143.264 102.201C141.709 105.21 139.494 107.56 136.62 109.25C133.763 110.924 130.365 111.761 126.426 111.761ZM126.477 103.392C128.269 103.392 129.765 102.885 130.965 101.871C132.166 100.84 133.07 99.4365 133.679 97.6615C134.304 95.8864 134.617 93.8661 134.617 91.6008C134.617 89.3354 134.304 87.3152 133.679 85.5401C133.07 83.765 132.166 82.3619 130.965 81.3306C129.765 80.2994 128.269 79.7837 126.477 79.7837C124.668 79.7837 123.146 80.2994 121.912 81.3306C120.695 82.3619 119.774 83.765 119.148 85.5401C118.54 87.3152 118.235 89.3354 118.235 91.6008C118.235 93.8661 118.54 95.8864 119.148 97.6615C119.774 99.4365 120.695 100.84 121.912 101.871C123.146 102.885 124.668 103.392 126.477 103.392ZM170.17 126.418C166.67 126.418 163.669 125.936 161.167 124.973C158.682 124.026 156.704 122.733 155.233 121.093C153.763 119.453 152.807 117.61 152.368 115.565L162.359 114.221C162.663 114.998 163.145 115.725 163.805 116.401C164.464 117.078 165.334 117.619 166.416 118.024C167.515 118.447 168.851 118.658 170.423 118.658C172.773 118.658 174.709 118.083 176.23 116.934C177.769 115.801 178.538 113.899 178.538 111.228V104.103H178.081C177.608 105.184 176.898 106.207 175.951 107.171C175.005 108.134 173.787 108.921 172.3 109.529C170.812 110.138 169.037 110.442 166.974 110.442C164.05 110.442 161.387 109.766 158.986 108.413C156.603 107.044 154.701 104.956 153.281 102.15C151.878 99.3267 151.176 95.7596 151.176 91.4486C151.176 87.0363 151.895 83.3508 153.331 80.3923C154.768 77.4339 156.679 75.2192 159.063 73.7484C161.463 72.2776 164.092 71.5422 166.949 71.5422C169.13 71.5422 170.956 71.9142 172.426 72.658C173.897 73.385 175.081 74.2979 175.977 75.3967C176.889 76.4787 177.591 77.5437 178.081 78.5919H178.487V72.0494H189.214V111.38C189.214 114.694 188.402 117.466 186.779 119.698C185.156 121.929 182.908 123.603 180.034 124.719C177.177 125.852 173.889 126.418 170.17 126.418ZM170.398 102.327C172.139 102.327 173.61 101.896 174.81 101.034C176.027 100.155 176.957 98.904 177.6 97.2811C178.259 95.6412 178.589 93.6802 178.589 91.3979C178.589 89.1157 178.267 87.1377 177.625 85.464C176.982 83.7735 176.053 82.4633 174.835 81.5335C173.618 80.6037 172.139 80.1388 170.398 80.1388C168.623 80.1388 167.126 80.6206 165.909 81.5842C164.692 82.5309 163.771 83.8495 163.145 85.5401C162.52 87.2307 162.207 89.1833 162.207 91.3979C162.207 93.6464 162.52 95.5905 163.145 97.2304C163.788 98.8533 164.709 100.113 165.909 101.009C167.126 101.888 168.623 102.327 170.398 102.327ZM215.409 111.761C211.47 111.761 208.063 110.924 205.19 109.25C202.332 107.56 200.126 105.21 198.571 102.201C197.016 99.1745 196.238 95.6666 196.238 91.6769C196.238 87.6533 197.016 84.1369 198.571 81.1277C200.126 78.1016 202.332 75.7517 205.19 74.0781C208.063 72.3875 211.47 71.5422 215.409 71.5422C219.348 71.5422 222.746 72.3875 225.603 74.0781C228.477 75.7517 230.692 78.1016 232.247 81.1277C233.802 84.1369 234.58 87.6533 234.58 91.6769C234.58 95.6666 233.802 99.1745 232.247 102.201C230.692 105.21 228.477 107.56 225.603 109.25C222.746 110.924 219.348 111.761 215.409 111.761ZM215.46 103.392C217.252 103.392 218.748 102.885 219.948 101.871C221.148 100.84 222.053 99.4365 222.662 97.6615C223.287 95.8864 223.6 93.8661 223.6 91.6008C223.6 89.3354 223.287 87.3152 222.662 85.5401C222.053 83.765 221.148 82.3619 219.948 81.3306C218.748 80.2994 217.252 79.7837 215.46 79.7837C213.651 79.7837 212.129 80.2994 210.895 81.3306C209.678 82.3619 208.757 83.765 208.131 85.5401C207.523 87.3152 207.218 89.3354 207.218 91.6008C207.218 93.8661 207.523 95.8864 208.131 97.6615C208.757 99.4365 209.678 100.84 210.895 101.871C212.129 102.885 213.651 103.392 215.46 103.392Z" fill="black"/>
<rect x="377.658" y="216.658" width="289.158" height="292.684" rx="47.6053" fill="#2C3240" stroke="#C0C7FF" stroke-width="24.6842"/>
<path d="M434.079 306.578L498.031 344.02C500.384 345.397 500.351 348.808 497.973 350.139L434.079 385.92" stroke="#C0C7FF" stroke-width="17.6316" stroke-linecap="round"/>
<line x1="502.842" y1="419.421" x2="580.986" y2="419.421" stroke="#C0C7FF" stroke-width="21.1579" stroke-linecap="round"/>
</svg>
