<svg width="393" height="852" viewBox="0 0 393 852" fill="none" xmlns="http://www.w3.org/2000/svg">
<g filter="url(#filter0_n_99_7129)">
<g clip-path="url(#clip0_99_7129)">
<rect width="393" height="852" fill="url(#paint0_linear_99_7129)"/>
<circle cx="38.002" cy="100.002" r="23.002" fill="white"/>
<rect x="29.9512" y="104.832" width="16.1014" height="1.84016" rx="0.920078" fill="black"/>
<rect x="29.9512" y="99.0815" width="11.5" height="1.84" rx="0.92" fill="black"/>
<rect x="29.9512" y="93.3311" width="16.1014" height="1.84016" rx="0.920078" fill="black"/>
<path d="M52.2666 26.4731C52.9085 26.4731 53.5173 26.5921 54.0928 26.8301C54.6683 27.0625 55.1774 27.4277 55.6201 27.9258C56.0684 28.4183 56.4198 29.0519 56.6743 29.8267C56.9289 30.5959 57.0562 31.5228 57.0562 32.6074V32.624C57.0562 33.9688 56.8625 35.1198 56.4751 36.0771C56.0877 37.0345 55.5316 37.7705 54.8066 38.2852C54.0872 38.7943 53.2267 39.0488 52.2251 39.0488C51.4891 39.0488 50.825 38.916 50.2329 38.6504C49.6463 38.3792 49.1593 38.0085 48.772 37.5381C48.3901 37.0622 48.1328 36.5199 48 35.9111L47.9834 35.8198H50.0835L50.1167 35.9028C50.2218 36.1795 50.3713 36.423 50.5649 36.6333C50.7642 36.8436 51.0021 37.0068 51.2788 37.123C51.561 37.2337 51.8765 37.2891 52.2251 37.2891C52.856 37.2891 53.3706 37.1037 53.769 36.7329C54.173 36.3566 54.4746 35.8558 54.6738 35.2305C54.8786 34.5996 54.9948 33.9023 55.0225 33.1387C55.028 33.0557 55.0308 32.9754 55.0308 32.8979C55.0308 32.8149 55.0308 32.7347 55.0308 32.6572L54.6572 30.6567C54.6572 30.203 54.5521 29.7907 54.3418 29.4199C54.1315 29.0492 53.8465 28.7559 53.4868 28.54C53.1326 28.3242 52.7314 28.2163 52.2832 28.2163C51.8516 28.2163 51.4559 28.3215 51.0962 28.5317C50.7365 28.742 50.4487 29.0298 50.2329 29.395C50.0171 29.7547 49.9092 30.1587 49.9092 30.6069V30.6235C49.9092 31.0884 50.0116 31.5007 50.2163 31.8604C50.4211 32.2145 50.7005 32.494 51.0547 32.6987C51.4089 32.9035 51.8128 33.0059 52.2666 33.0059C52.7204 33.0059 53.1271 32.9062 53.4868 32.707C53.8465 32.5078 54.1315 32.2311 54.3418 31.877C54.5521 31.5228 54.6572 31.1216 54.6572 30.6733V30.6567H55.1553V32.8647H54.8647C54.7209 33.1802 54.5078 33.4735 54.2256 33.7446C53.9434 34.0158 53.5947 34.2344 53.1797 34.4004C52.7702 34.5664 52.2887 34.6494 51.7354 34.6494C50.9717 34.6494 50.2965 34.4779 49.71 34.1348C49.1234 33.7917 48.6613 33.3213 48.3237 32.7236C47.9917 32.126 47.8257 31.4508 47.8257 30.6982V30.6816C47.8257 29.8682 48.0138 29.146 48.3901 28.5151C48.772 27.8787 49.2977 27.3807 49.9673 27.021C50.6424 26.6558 51.4089 26.4731 52.2666 26.4731ZM60.8247 37.1396C60.4484 37.1396 60.133 37.0151 59.8784 36.7661C59.6294 36.5116 59.5049 36.2017 59.5049 35.8364C59.5049 35.4657 59.6294 35.1558 59.8784 34.9067C60.133 34.6522 60.4484 34.5249 60.8247 34.5249C61.2065 34.5249 61.522 34.6522 61.771 34.9067C62.02 35.1558 62.1445 35.4657 62.1445 35.8364C62.1445 36.2017 62.02 36.5116 61.771 36.7661C61.522 37.0151 61.2065 37.1396 60.8247 37.1396ZM60.8247 30.9805C60.4484 30.9805 60.133 30.856 59.8784 30.6069C59.6294 30.3524 59.5049 30.0425 59.5049 29.6772C59.5049 29.3065 59.6294 28.9966 59.8784 28.7476C60.133 28.493 60.4484 28.3657 60.8247 28.3657C61.2065 28.3657 61.522 28.493 61.771 28.7476C62.02 28.9966 62.1445 29.3065 62.1445 29.6772C62.1445 30.0425 62.02 30.3524 61.771 30.6069C61.522 30.856 61.2065 30.9805 60.8247 30.9805ZM70.4038 38.75V36.4507H64.5435V34.6992C64.8589 34.1624 65.1743 33.6229 65.4897 33.0806C65.8107 32.5382 66.1344 31.9987 66.4609 31.4619C66.793 30.9196 67.1222 30.3856 67.4487 29.8599C67.7808 29.3286 68.11 28.8057 68.4365 28.291C68.7686 27.7708 69.1006 27.2645 69.4326 26.772H72.4458V34.6826H74.0645V36.4507H72.4458V38.75H70.4038ZM66.5356 34.7324H70.437V28.4819H70.3125C70.069 28.8582 69.8172 29.2456 69.5571 29.644C69.3026 30.0425 69.0452 30.4492 68.7852 30.8643C68.5251 31.2793 68.2677 31.6971 68.0132 32.1177C67.7586 32.5327 67.5068 32.9505 67.2578 33.3711C67.0088 33.7861 66.7681 34.1984 66.5356 34.6079V34.7324ZM79.02 38.75V28.8804H78.8706L75.8906 30.9805V28.9717L79.02 26.772H81.1533V38.75H79.02Z" fill="black"/>
<path fill-rule="evenodd" clip-rule="evenodd" d="M298.866 27.5329C298.866 26.8999 298.388 26.3867 297.799 26.3867H296.733C296.144 26.3867 295.666 26.8999 295.666 27.5329V37.4669C295.666 38.0999 296.144 38.6131 296.733 38.6131H297.799C298.388 38.6131 298.866 38.0999 298.866 37.4669V27.5329ZM291.432 28.832H292.499C293.088 28.832 293.565 29.3575 293.565 30.0057V37.4394C293.565 38.0876 293.088 38.6131 292.499 38.6131H291.432C290.843 38.6131 290.365 38.0876 290.365 37.4394V30.0057C290.365 29.3575 290.843 28.832 291.432 28.832ZM287.1 31.481H286.033C285.444 31.481 284.967 32.0132 284.967 32.6697V37.4244C284.967 38.0809 285.444 38.6131 286.033 38.6131H287.1C287.689 38.6131 288.167 38.0809 288.167 37.4244V32.6697C288.167 32.0132 287.689 31.481 287.1 31.481ZM281.799 33.9263H280.733C280.144 33.9263 279.666 34.4509 279.666 35.098V37.4414C279.666 38.0885 280.144 38.6131 280.733 38.6131H281.799C282.388 38.6131 282.866 38.0885 282.866 37.4414V35.098C282.866 34.4509 282.388 33.9263 281.799 33.9263Z" fill="black"/>
<path fill-rule="evenodd" clip-rule="evenodd" d="M314.437 28.8022C316.924 28.8023 319.316 29.7244 321.118 31.3779C321.254 31.5055 321.471 31.5039 321.605 31.3743L322.902 30.1108C322.97 30.045 323.007 29.956 323.007 29.8633C323.006 29.7706 322.968 29.682 322.899 29.617C318.168 25.2423 310.704 25.2423 305.973 29.617C305.905 29.6819 305.866 29.7705 305.865 29.8632C305.865 29.9559 305.902 30.045 305.97 30.1108L307.268 31.3743C307.401 31.5041 307.619 31.5057 307.754 31.3779C309.557 29.7243 311.949 28.8022 314.437 28.8022ZM314.433 33.0225C315.791 33.0224 317.099 33.5342 318.106 34.4583C318.242 34.5894 318.456 34.5866 318.589 34.4519L319.876 33.1326C319.944 33.0634 319.981 32.9695 319.98 32.8719C319.979 32.7744 319.94 32.6813 319.871 32.6135C316.807 29.7227 312.062 29.7227 308.998 32.6135C308.929 32.6813 308.89 32.7744 308.889 32.872C308.888 32.9696 308.926 33.0635 308.993 33.1326L310.28 34.4519C310.413 34.5866 310.627 34.5894 310.763 34.4583C311.769 33.5348 313.077 33.0231 314.433 33.0225ZM316.958 35.816C316.96 35.9214 316.922 36.023 316.855 36.0968L314.679 38.5515C314.615 38.6236 314.528 38.6642 314.437 38.6642C314.346 38.6642 314.259 38.6236 314.195 38.5515L312.018 36.0968C311.951 36.0229 311.914 35.9213 311.916 35.816C311.918 35.7106 311.959 35.6108 312.029 35.5402C313.419 34.2263 315.455 34.2263 316.845 35.5402C316.915 35.6109 316.956 35.7107 316.958 35.816Z" fill="black"/>
<rect opacity="0.35" x="330.506" y="26.5" width="24" height="12" rx="3.8" stroke="black"/>
<path opacity="0.4" d="M356.006 30.5V34.5755C356.811 34.2303 357.334 33.4273 357.334 32.5377C357.334 31.6481 356.811 30.8452 356.006 30.5" fill="black"/>
<rect x="332.006" y="28" width="21" height="9" rx="2.5" fill="black"/>
<path d="M29.2955 178V154.727H44.4318V158.261H33.5114V164.58H43.6477V168.114H33.5114V174.466H44.5227V178H29.2955ZM48.5511 178V160.545H52.5398V163.455H52.7216C53.0398 162.447 53.5852 161.67 54.358 161.125C55.1383 160.572 56.0284 160.295 57.0284 160.295C57.2557 160.295 57.5095 160.307 57.7898 160.33C58.0777 160.345 58.3163 160.371 58.5057 160.409V164.193C58.3314 164.133 58.0549 164.08 57.6761 164.034C57.3049 163.981 56.9451 163.955 56.5966 163.955C55.8466 163.955 55.1723 164.117 54.5739 164.443C53.983 164.761 53.517 165.205 53.1761 165.773C52.8352 166.341 52.6648 166.996 52.6648 167.739V178H48.5511ZM61.2386 178V160.545H65.2273V163.455H65.4091C65.7273 162.447 66.2727 161.67 67.0455 161.125C67.8258 160.572 68.7159 160.295 69.7159 160.295C69.9432 160.295 70.197 160.307 70.4773 160.33C70.7652 160.345 71.0038 160.371 71.1932 160.409V164.193C71.0189 164.133 70.7424 164.08 70.3636 164.034C69.9924 163.981 69.6326 163.955 69.2841 163.955C68.5341 163.955 67.8598 164.117 67.2614 164.443C66.6705 164.761 66.2045 165.205 65.8636 165.773C65.5227 166.341 65.3523 166.996 65.3523 167.739V178H61.2386ZM80.821 178.341C79.1165 178.341 77.6392 177.966 76.3892 177.216C75.1392 176.466 74.1695 175.417 73.4801 174.068C72.7983 172.72 72.4574 171.144 72.4574 169.341C72.4574 167.538 72.7983 165.958 73.4801 164.602C74.1695 163.246 75.1392 162.193 76.3892 161.443C77.6392 160.693 79.1165 160.318 80.821 160.318C82.5256 160.318 84.0028 160.693 85.2528 161.443C86.5028 162.193 87.4688 163.246 88.1506 164.602C88.84 165.958 89.1847 167.538 89.1847 169.341C89.1847 171.144 88.84 172.72 88.1506 174.068C87.4688 175.417 86.5028 176.466 85.2528 177.216C84.0028 177.966 82.5256 178.341 80.821 178.341ZM80.8438 175.045C81.768 175.045 82.5407 174.792 83.1619 174.284C83.7831 173.769 84.2453 173.08 84.5483 172.216C84.8589 171.352 85.0142 170.39 85.0142 169.33C85.0142 168.261 84.8589 167.295 84.5483 166.432C84.2453 165.561 83.7831 164.867 83.1619 164.352C82.5407 163.837 81.768 163.58 80.8438 163.58C79.8968 163.58 79.1089 163.837 78.4801 164.352C77.8589 164.867 77.393 165.561 77.0824 166.432C76.7794 167.295 76.6278 168.261 76.6278 169.33C76.6278 170.39 76.7794 171.352 77.0824 172.216C77.393 173.08 77.8589 173.769 78.4801 174.284C79.1089 174.792 79.8968 175.045 80.8438 175.045ZM92.6761 178V160.545H96.6648V163.455H96.8466C97.1648 162.447 97.7102 161.67 98.483 161.125C99.2633 160.572 100.153 160.295 101.153 160.295C101.381 160.295 101.634 160.307 101.915 160.33C102.203 160.345 102.441 160.371 102.631 160.409V164.193C102.456 164.133 102.18 164.08 101.801 164.034C101.43 163.981 101.07 163.955 100.722 163.955C99.9716 163.955 99.2973 164.117 98.6989 164.443C98.108 164.761 97.642 165.205 97.3011 165.773C96.9602 166.341 96.7898 166.996 96.7898 167.739V178H92.6761ZM117.415 167.773V178H113.301V160.545H117.233V163.511H117.438C117.839 162.534 118.479 161.758 119.358 161.182C120.244 160.606 121.339 160.318 122.642 160.318C123.847 160.318 124.896 160.576 125.79 161.091C126.691 161.606 127.388 162.352 127.881 163.33C128.381 164.307 128.627 165.492 128.619 166.886V178H124.506V167.523C124.506 166.356 124.203 165.443 123.597 164.784C122.998 164.125 122.169 163.795 121.108 163.795C120.388 163.795 119.748 163.955 119.188 164.273C118.634 164.583 118.199 165.034 117.881 165.625C117.57 166.216 117.415 166.932 117.415 167.773ZM140.415 178.341C138.71 178.341 137.233 177.966 135.983 177.216C134.733 176.466 133.763 175.417 133.074 174.068C132.392 172.72 132.051 171.144 132.051 169.341C132.051 167.538 132.392 165.958 133.074 164.602C133.763 163.246 134.733 162.193 135.983 161.443C137.233 160.693 138.71 160.318 140.415 160.318C142.119 160.318 143.597 160.693 144.847 161.443C146.097 162.193 147.063 163.246 147.744 164.602C148.434 165.958 148.778 167.538 148.778 169.341C148.778 171.144 148.434 172.72 147.744 174.068C147.063 175.417 146.097 176.466 144.847 177.216C143.597 177.966 142.119 178.341 140.415 178.341ZM140.438 175.045C141.362 175.045 142.134 174.792 142.756 174.284C143.377 173.769 143.839 173.08 144.142 172.216C144.453 171.352 144.608 170.39 144.608 169.33C144.608 168.261 144.453 167.295 144.142 166.432C143.839 165.561 143.377 164.867 142.756 164.352C142.134 163.837 141.362 163.58 140.438 163.58C139.491 163.58 138.703 163.837 138.074 164.352C137.453 164.867 136.987 165.561 136.676 166.432C136.373 167.295 136.222 168.261 136.222 169.33C136.222 170.39 136.373 171.352 136.676 172.216C136.987 173.08 137.453 173.769 138.074 174.284C138.703 174.792 139.491 175.045 140.438 175.045ZM160.986 160.545V163.727H150.952V160.545H160.986ZM153.429 156.364H157.543V172.75C157.543 173.303 157.626 173.727 157.793 174.023C157.967 174.311 158.194 174.508 158.474 174.614C158.755 174.72 159.065 174.773 159.406 174.773C159.664 174.773 159.899 174.754 160.111 174.716C160.33 174.678 160.497 174.644 160.611 174.614L161.304 177.83C161.084 177.905 160.77 177.989 160.361 178.08C159.959 178.17 159.467 178.223 158.884 178.239C157.853 178.269 156.925 178.114 156.099 177.773C155.274 177.424 154.618 176.886 154.134 176.159C153.656 175.432 153.421 174.523 153.429 173.432V156.364ZM171.966 178.341C170.216 178.341 168.705 177.977 167.432 177.25C166.167 176.515 165.193 175.477 164.511 174.136C163.83 172.788 163.489 171.201 163.489 169.375C163.489 167.58 163.83 166.004 164.511 164.648C165.201 163.284 166.163 162.223 167.398 161.466C168.633 160.701 170.083 160.318 171.75 160.318C172.826 160.318 173.841 160.492 174.795 160.841C175.758 161.182 176.606 161.712 177.341 162.432C178.083 163.152 178.667 164.068 179.091 165.182C179.515 166.288 179.727 167.606 179.727 169.136V170.398H165.42V167.625H175.784C175.777 166.837 175.606 166.136 175.273 165.523C174.939 164.902 174.473 164.413 173.875 164.057C173.284 163.701 172.595 163.523 171.807 163.523C170.966 163.523 170.227 163.727 169.591 164.136C168.955 164.538 168.458 165.068 168.102 165.727C167.754 166.379 167.576 167.095 167.568 167.875V170.295C167.568 171.311 167.754 172.182 168.125 172.909C168.496 173.629 169.015 174.182 169.682 174.568C170.348 174.947 171.129 175.136 172.023 175.136C172.621 175.136 173.163 175.053 173.648 174.886C174.133 174.712 174.553 174.458 174.909 174.125C175.265 173.792 175.534 173.379 175.716 172.886L179.557 173.318C179.314 174.333 178.852 175.22 178.17 175.977C177.496 176.727 176.633 177.311 175.58 177.727C174.527 178.136 173.322 178.341 171.966 178.341ZM197.003 165.159L193.253 165.568C193.147 165.189 192.961 164.833 192.696 164.5C192.438 164.167 192.09 163.898 191.651 163.693C191.211 163.489 190.673 163.386 190.037 163.386C189.181 163.386 188.461 163.572 187.878 163.943C187.302 164.314 187.018 164.795 187.026 165.386C187.018 165.894 187.204 166.307 187.582 166.625C187.969 166.943 188.605 167.205 189.491 167.409L192.469 168.045C194.12 168.402 195.348 168.966 196.151 169.739C196.961 170.511 197.37 171.523 197.378 172.773C197.37 173.871 197.048 174.841 196.412 175.682C195.783 176.515 194.908 177.167 193.787 177.636C192.666 178.106 191.378 178.341 189.923 178.341C187.787 178.341 186.067 177.894 184.764 177C183.461 176.098 182.685 174.845 182.435 173.239L186.446 172.852C186.628 173.64 187.014 174.235 187.605 174.636C188.196 175.038 188.965 175.239 189.912 175.239C190.889 175.239 191.673 175.038 192.264 174.636C192.863 174.235 193.162 173.739 193.162 173.148C193.162 172.648 192.969 172.235 192.582 171.909C192.204 171.583 191.613 171.333 190.81 171.159L187.832 170.534C186.158 170.186 184.92 169.598 184.116 168.773C183.313 167.939 182.916 166.886 182.923 165.614C182.916 164.538 183.207 163.606 183.798 162.818C184.397 162.023 185.226 161.409 186.287 160.977C187.355 160.538 188.586 160.318 189.98 160.318C192.026 160.318 193.635 160.754 194.81 161.625C195.991 162.496 196.723 163.674 197.003 165.159Z" fill="black"/>
<rect x="25" y="754" width="343.707" height="52" rx="26" fill="white"/>
<path d="M79.3936 777.698C79.3287 777.151 79.0657 776.726 78.6045 776.423C78.1433 776.12 77.5776 775.969 76.9074 775.969C76.4174 775.969 75.9886 776.048 75.6211 776.207C75.2572 776.365 74.9726 776.583 74.7672 776.861C74.5654 777.138 74.4645 777.453 74.4645 777.807C74.4645 778.102 74.5348 778.356 74.6753 778.569C74.8194 778.778 75.0032 778.952 75.2266 779.093C75.45 779.23 75.6842 779.343 75.9292 779.433C76.1742 779.52 76.3994 779.59 76.6048 779.644L77.7289 779.947C78.0172 780.022 78.3379 780.127 78.691 780.26C79.0477 780.394 79.3882 780.576 79.7124 780.806C80.0403 781.033 80.3106 781.325 80.5231 781.682C80.7357 782.038 80.842 782.476 80.842 782.995C80.842 783.593 80.6853 784.134 80.3718 784.616C80.0619 785.099 79.608 785.483 79.0098 785.768C78.4153 786.052 77.6929 786.195 76.8426 786.195C76.0499 786.195 75.3635 786.067 74.7834 785.811C74.2069 785.555 73.7529 785.198 73.4214 784.741C73.0935 784.283 72.908 783.752 72.8647 783.146H74.2483C74.2844 783.564 74.4249 783.91 74.6699 784.184C74.9185 784.454 75.232 784.656 75.6103 784.789C75.9922 784.919 76.403 784.984 76.8426 784.984C77.3542 784.984 77.8136 784.901 78.2208 784.735C78.6279 784.566 78.9504 784.332 79.1882 784.033C79.426 783.73 79.5449 783.377 79.5449 782.973C79.5449 782.606 79.4422 782.307 79.2368 782.076C79.0315 781.846 78.7612 781.658 78.4261 781.514C78.091 781.37 77.7289 781.244 77.3398 781.136L75.9778 780.747C75.1131 780.498 74.4285 780.143 73.9241 779.682C73.4196 779.221 73.1674 778.617 73.1674 777.871C73.1674 777.252 73.335 776.711 73.67 776.25C74.0087 775.785 74.4627 775.425 75.032 775.169C75.6049 774.91 76.2445 774.78 76.9507 774.78C77.6641 774.78 78.2982 774.908 78.8531 775.164C79.408 775.416 79.8476 775.762 80.1718 776.201C80.4997 776.641 80.6727 777.14 80.6907 777.698H79.3936ZM86.3534 786.173C85.5535 786.173 84.8635 785.996 84.2834 785.643C83.7069 785.287 83.262 784.789 82.9485 784.152C82.6386 783.51 82.4837 782.764 82.4837 781.914C82.4837 781.064 82.6386 780.314 82.9485 779.666C83.262 779.014 83.6979 778.506 84.2564 778.142C84.8185 777.774 85.4743 777.59 86.2237 777.59C86.6561 777.59 87.083 777.662 87.5046 777.807C87.9262 777.951 88.3099 778.185 88.6558 778.509C89.0017 778.83 89.2773 779.255 89.4827 779.785C89.6881 780.314 89.7908 780.966 89.7908 781.741V782.282H83.3917V781.179H88.4937C88.4937 780.711 88.4 780.293 88.2126 779.925C88.0289 779.558 87.7658 779.268 87.4235 779.055C87.0848 778.842 86.6849 778.736 86.2237 778.736C85.7157 778.736 85.2761 778.862 84.905 779.114C84.5375 779.363 84.2546 779.687 84.0564 780.087C83.8583 780.487 83.7592 780.916 83.7592 781.374V782.109C83.7592 782.736 83.8673 783.267 84.0835 783.703C84.3033 784.135 84.6077 784.465 84.9968 784.692C85.386 784.915 85.8382 785.027 86.3534 785.027C86.6885 785.027 86.9912 784.98 87.2614 784.887C87.5352 784.789 87.7712 784.645 87.9694 784.454C88.1676 784.26 88.3207 784.018 88.4288 783.73L89.6611 784.076C89.5314 784.494 89.3134 784.861 89.0071 785.178C88.7008 785.492 88.3225 785.737 87.8721 785.914C87.4217 786.086 86.9155 786.173 86.3534 786.173ZM94.174 786.195C93.6479 786.195 93.1705 786.095 92.7417 785.897C92.313 785.696 91.9725 785.405 91.7202 785.027C91.468 784.645 91.3419 784.184 91.3419 783.644C91.3419 783.168 91.4356 782.782 91.623 782.487C91.8103 782.188 92.0607 781.954 92.3742 781.784C92.6877 781.615 93.0336 781.489 93.4119 781.406C93.7938 781.32 94.1776 781.251 94.5631 781.201C95.0675 781.136 95.4765 781.087 95.7899 781.055C96.107 781.019 96.3376 780.959 96.4817 780.876C96.6295 780.794 96.7033 780.649 96.7033 780.444V780.401C96.7033 779.868 96.5574 779.453 96.2656 779.158C95.9773 778.862 95.5395 778.715 94.9522 778.715C94.3433 778.715 93.8659 778.848 93.52 779.114C93.1741 779.381 92.9309 779.666 92.7904 779.968L91.5797 779.536C91.7959 779.032 92.0842 778.639 92.4445 778.358C92.8084 778.073 93.2047 777.875 93.6335 777.763C94.0659 777.648 94.491 777.59 94.909 777.59C95.1756 777.59 95.4819 777.623 95.8278 777.688C96.1773 777.749 96.5142 777.877 96.8385 778.071C97.1663 778.266 97.4384 778.56 97.6546 778.952C97.8707 779.345 97.9788 779.871 97.9788 780.53V786H96.7033V784.876H96.6385C96.552 785.056 96.4079 785.249 96.2061 785.454C96.0043 785.66 95.7359 785.834 95.4008 785.978C95.0657 786.123 94.6568 786.195 94.174 786.195ZM94.3685 785.049C94.873 785.049 95.2981 784.95 95.644 784.752C95.9935 784.553 96.2565 784.298 96.4331 783.984C96.6133 783.671 96.7033 783.341 96.7033 782.995V781.828C96.6493 781.892 96.5304 781.952 96.3466 782.006C96.1665 782.056 95.9575 782.101 95.7197 782.141C95.4855 782.177 95.2567 782.21 95.0333 782.238C94.8135 782.264 94.6352 782.285 94.4982 782.303C94.1667 782.346 93.8569 782.417 93.5686 782.514C93.284 782.608 93.0534 782.75 92.8768 782.941C92.7039 783.128 92.6174 783.384 92.6174 783.708C92.6174 784.152 92.7814 784.487 93.1092 784.714C93.4407 784.937 93.8605 785.049 94.3685 785.049ZM100.307 786V777.698H101.539V778.952H101.626C101.777 778.542 102.051 778.208 102.447 777.952C102.843 777.697 103.29 777.569 103.787 777.569C103.881 777.569 103.998 777.571 104.139 777.574C104.279 777.578 104.386 777.583 104.458 777.59V778.887C104.414 778.877 104.315 778.86 104.16 778.839C104.009 778.814 103.849 778.801 103.679 778.801C103.276 778.801 102.916 778.886 102.598 779.055C102.285 779.221 102.036 779.451 101.853 779.747C101.672 780.039 101.582 780.372 101.582 780.747V786H100.307ZM109.089 786.173C108.311 786.173 107.641 785.989 107.079 785.622C106.517 785.254 106.084 784.748 105.782 784.103C105.479 783.458 105.328 782.721 105.328 781.892C105.328 781.049 105.483 780.305 105.793 779.66C106.106 779.012 106.542 778.506 107.101 778.142C107.663 777.774 108.318 777.59 109.068 777.59C109.652 777.59 110.178 777.698 110.646 777.915C111.114 778.131 111.498 778.433 111.797 778.823C112.096 779.212 112.282 779.666 112.354 780.185H111.078C110.981 779.806 110.765 779.471 110.43 779.179C110.098 778.884 109.652 778.736 109.089 778.736C108.592 778.736 108.156 778.866 107.782 779.125C107.41 779.381 107.12 779.743 106.911 780.212C106.706 780.676 106.603 781.222 106.603 781.849C106.603 782.491 106.704 783.049 106.906 783.525C107.111 784 107.4 784.37 107.771 784.633C108.145 784.896 108.585 785.027 109.089 785.027C109.421 785.027 109.722 784.97 109.992 784.854C110.262 784.739 110.491 784.573 110.678 784.357C110.866 784.141 110.999 783.881 111.078 783.579H112.354C112.282 784.069 112.103 784.51 111.819 784.903C111.538 785.292 111.165 785.602 110.7 785.832C110.239 786.059 109.702 786.173 109.089 786.173ZM115.494 781.006V786H114.218V774.931H115.494V778.996H115.602C115.797 778.567 116.088 778.226 116.478 777.974C116.87 777.718 117.393 777.59 118.045 777.59C118.611 777.59 119.106 777.704 119.531 777.931C119.956 778.154 120.286 778.498 120.52 778.963C120.758 779.424 120.877 780.012 120.877 780.725V786H119.602V780.812C119.602 780.152 119.43 779.642 119.088 779.282C118.749 778.918 118.279 778.736 117.677 778.736C117.259 778.736 116.885 778.824 116.553 779.001C116.225 779.178 115.966 779.435 115.775 779.774C115.588 780.113 115.494 780.523 115.494 781.006ZM130.972 786.173C130.172 786.173 129.482 785.996 128.902 785.643C128.325 785.287 127.88 784.789 127.567 784.152C127.257 783.51 127.102 782.764 127.102 781.914C127.102 781.064 127.257 780.314 127.567 779.666C127.88 779.014 128.316 778.506 128.875 778.142C129.437 777.774 130.092 777.59 130.842 777.59C131.274 777.59 131.701 777.662 132.123 777.807C132.544 777.951 132.928 778.185 133.274 778.509C133.62 778.83 133.895 779.255 134.101 779.785C134.306 780.314 134.409 780.966 134.409 781.741V782.282H128.01V781.179H133.112C133.112 780.711 133.018 780.293 132.831 779.925C132.647 779.558 132.384 779.268 132.042 779.055C131.703 778.842 131.303 778.736 130.842 778.736C130.334 778.736 129.894 778.862 129.523 779.114C129.156 779.363 128.873 779.687 128.675 780.087C128.476 780.487 128.377 780.916 128.377 781.374V782.109C128.377 782.736 128.485 783.267 128.702 783.703C128.921 784.135 129.226 784.465 129.615 784.692C130.004 784.915 130.456 785.027 130.972 785.027C131.307 785.027 131.609 784.98 131.88 784.887C132.153 784.789 132.389 784.645 132.588 784.454C132.786 784.26 132.939 784.018 133.047 783.73L134.279 784.076C134.149 784.494 133.932 784.861 133.625 785.178C133.319 785.492 132.941 785.737 132.49 785.914C132.04 786.086 131.534 786.173 130.972 786.173ZM136.349 786V777.698H137.581V778.952H137.668C137.819 778.542 138.093 778.208 138.489 777.952C138.886 777.697 139.333 777.569 139.83 777.569C139.923 777.569 140.041 777.571 140.181 777.574C140.322 777.578 140.428 777.583 140.5 777.59V778.887C140.457 778.877 140.358 778.86 140.203 778.839C140.051 778.814 139.891 778.801 139.722 778.801C139.318 778.801 138.958 778.886 138.641 779.055C138.327 779.221 138.079 779.451 137.895 779.747C137.715 780.039 137.625 780.372 137.625 780.747V786H136.349ZM142.012 786V777.698H143.244V778.952H143.331C143.482 778.542 143.756 778.208 144.152 777.952C144.549 777.697 144.995 777.569 145.493 777.569C145.586 777.569 145.703 777.571 145.844 777.574C145.984 777.578 146.091 777.583 146.163 777.59V778.887C146.119 778.877 146.02 778.86 145.865 778.839C145.714 778.814 145.554 778.801 145.384 778.801C144.981 778.801 144.621 778.886 144.303 779.055C143.99 779.221 143.741 779.451 143.558 779.747C143.377 780.039 143.287 780.372 143.287 780.747V786H142.012ZM150.794 786.173C150.045 786.173 149.387 785.995 148.822 785.638C148.26 785.281 147.82 784.782 147.503 784.141C147.19 783.499 147.033 782.75 147.033 781.892C147.033 781.028 147.19 780.273 147.503 779.628C147.82 778.983 148.26 778.482 148.822 778.125C149.387 777.769 150.045 777.59 150.794 777.59C151.544 777.59 152.2 777.769 152.762 778.125C153.327 778.482 153.767 778.983 154.081 779.628C154.398 780.273 154.556 781.028 154.556 781.892C154.556 782.75 154.398 783.499 154.081 784.141C153.767 784.782 153.327 785.281 152.762 785.638C152.2 785.995 151.544 786.173 150.794 786.173ZM150.794 785.027C151.364 785.027 151.832 784.881 152.2 784.589C152.567 784.298 152.839 783.914 153.016 783.438C153.192 782.963 153.281 782.447 153.281 781.892C153.281 781.338 153.192 780.821 153.016 780.341C152.839 779.862 152.567 779.475 152.2 779.179C151.832 778.884 151.364 778.736 150.794 778.736C150.225 778.736 149.757 778.884 149.389 779.179C149.022 779.475 148.75 779.862 148.573 780.341C148.397 780.821 148.308 781.338 148.308 781.892C148.308 782.447 148.397 782.963 148.573 783.438C148.75 783.914 149.022 784.298 149.389 784.589C149.757 784.881 150.225 785.027 150.794 785.027ZM156.503 786V777.698H157.735V778.952H157.822C157.973 778.542 158.247 778.208 158.643 777.952C159.04 777.697 159.487 777.569 159.984 777.569C160.077 777.569 160.195 777.571 160.335 777.574C160.476 777.578 160.582 777.583 160.654 777.59V778.887C160.611 778.877 160.512 778.86 160.357 778.839C160.205 778.814 160.045 778.801 159.876 778.801C159.472 778.801 159.112 778.886 158.795 779.055C158.481 779.221 158.233 779.451 158.049 779.747C157.869 780.039 157.779 780.372 157.779 780.747V786H156.503ZM167.722 774.931V786H166.446V774.931H167.722ZM173.431 786.173C172.681 786.173 172.024 785.995 171.458 785.638C170.896 785.281 170.456 784.782 170.139 784.141C169.826 783.499 169.669 782.75 169.669 781.892C169.669 781.028 169.826 780.273 170.139 779.628C170.456 778.983 170.896 778.482 171.458 778.125C172.024 777.769 172.681 777.59 173.431 777.59C174.18 777.59 174.836 777.769 175.398 778.125C175.964 778.482 176.403 778.983 176.717 779.628C177.034 780.273 177.192 781.028 177.192 781.892C177.192 782.75 177.034 783.499 176.717 784.141C176.403 784.782 175.964 785.281 175.398 785.638C174.836 785.995 174.18 786.173 173.431 786.173ZM173.431 785.027C174 785.027 174.468 784.881 174.836 784.589C175.203 784.298 175.475 783.914 175.652 783.438C175.828 782.963 175.917 782.447 175.917 781.892C175.917 781.338 175.828 780.821 175.652 780.341C175.475 779.862 175.203 779.475 174.836 779.179C174.468 778.884 174 778.736 173.431 778.736C172.861 778.736 172.393 778.884 172.025 779.179C171.658 779.475 171.386 779.862 171.209 780.341C171.033 780.821 170.944 781.338 170.944 781.892C170.944 782.447 171.033 782.963 171.209 783.438C171.386 783.914 171.658 784.298 172.025 784.589C172.393 784.881 172.861 785.027 173.431 785.027ZM182.49 789.286C181.874 789.286 181.344 789.207 180.901 789.048C180.458 788.893 180.089 788.688 179.793 788.432C179.501 788.18 179.269 787.91 179.096 787.621L180.112 786.908C180.227 787.059 180.373 787.232 180.55 787.427C180.726 787.625 180.968 787.796 181.274 787.94C181.584 788.088 181.989 788.162 182.49 788.162C183.16 788.162 183.713 788 184.149 787.675C184.585 787.351 184.803 786.843 184.803 786.151V784.465H184.695C184.602 784.616 184.468 784.804 184.295 785.027C184.126 785.247 183.881 785.443 183.56 785.616C183.243 785.786 182.814 785.87 182.274 785.87C181.604 785.87 181.002 785.712 180.469 785.395C179.939 785.078 179.519 784.616 179.209 784.011C178.903 783.406 178.75 782.671 178.75 781.806C178.75 780.956 178.9 780.215 179.199 779.585C179.498 778.951 179.914 778.461 180.447 778.115C180.98 777.765 181.597 777.59 182.296 777.59C182.836 777.59 183.265 777.68 183.582 777.861C183.903 778.037 184.148 778.239 184.317 778.466C184.49 778.689 184.623 778.873 184.717 779.017H184.847V777.698H186.079V786.238C186.079 786.951 185.917 787.531 185.592 787.978C185.272 788.428 184.839 788.758 184.295 788.967C183.755 789.18 183.153 789.286 182.49 789.286ZM182.447 784.725C182.958 784.725 183.391 784.607 183.744 784.373C184.097 784.139 184.366 783.802 184.549 783.363C184.733 782.923 184.825 782.397 184.825 781.784C184.825 781.186 184.735 780.658 184.555 780.201C184.375 779.743 184.108 779.385 183.755 779.125C183.402 778.866 182.966 778.736 182.447 778.736C181.906 778.736 181.456 778.873 181.096 779.147C180.739 779.421 180.471 779.788 180.29 780.249C180.114 780.711 180.026 781.222 180.026 781.784C180.026 782.361 180.116 782.871 180.296 783.314C180.48 783.753 180.75 784.099 181.106 784.352C181.467 784.6 181.914 784.725 182.447 784.725ZM189.343 786.086C189.077 786.086 188.848 785.991 188.657 785.8C188.466 785.609 188.37 785.38 188.37 785.114C188.37 784.847 188.466 784.618 188.657 784.427C188.848 784.236 189.077 784.141 189.343 784.141C189.61 784.141 189.839 784.236 190.03 784.427C190.221 784.618 190.316 784.847 190.316 785.114C190.316 785.29 190.271 785.452 190.181 785.6C190.094 785.748 189.977 785.867 189.83 785.957C189.685 786.043 189.523 786.086 189.343 786.086ZM193.535 786.086C193.268 786.086 193.039 785.991 192.848 785.8C192.657 785.609 192.562 785.38 192.562 785.114C192.562 784.847 192.657 784.618 192.848 784.427C193.039 784.236 193.268 784.141 193.535 784.141C193.801 784.141 194.03 784.236 194.221 784.427C194.412 784.618 194.507 784.847 194.507 785.114C194.507 785.29 194.462 785.452 194.372 785.6C194.286 785.748 194.169 785.867 194.021 785.957C193.877 786.043 193.715 786.086 193.535 786.086ZM197.726 786.086C197.459 786.086 197.23 785.991 197.039 785.8C196.848 785.609 196.753 785.38 196.753 785.114C196.753 784.847 196.848 784.618 197.039 784.427C197.23 784.236 197.459 784.141 197.726 784.141C197.992 784.141 198.221 784.236 198.412 784.427C198.603 784.618 198.699 784.847 198.699 785.114C198.699 785.29 198.654 785.452 198.564 785.6C198.477 785.748 198.36 785.867 198.212 785.957C198.068 786.043 197.906 786.086 197.726 786.086Z" fill="#B4B4B4"/>
<path d="M52.7578 771.317C56.8676 771.317 60.2 774.649 60.2002 778.758C60.2002 780.298 59.7318 781.728 58.9307 782.916L63.2656 787.25C63.8221 787.807 63.8221 788.71 63.2656 789.266C62.7091 789.823 61.8065 789.823 61.25 789.266L56.915 784.931C55.7279 785.732 54.2976 786.201 52.7578 786.201C48.6481 786.201 45.3164 782.868 45.3164 778.758C45.3166 774.649 48.6482 771.317 52.7578 771.317ZM52.7578 773.534C49.8724 773.534 47.5334 775.873 47.5332 778.758C47.5332 781.644 49.8723 783.984 52.7578 783.984C55.6434 783.984 57.9834 781.644 57.9834 778.758C57.9832 775.873 55.6434 773.534 52.7578 773.534Z" fill="#B4B4B4"/>
<rect x="30.5" y="209.5" width="338" height="82" rx="9.5" fill="white" stroke="#E6E6E6"/>
<path d="M52.5312 226.276C52.4555 225.603 52.143 225.082 51.5938 224.713C51.0445 224.339 50.3532 224.152 49.5199 224.152C48.9233 224.152 48.4072 224.247 47.9716 224.436C47.536 224.621 47.1974 224.876 46.956 225.203C46.7192 225.525 46.6009 225.892 46.6009 226.304C46.6009 226.65 46.6813 226.948 46.8423 227.199C47.008 227.45 47.2235 227.661 47.4886 227.831C47.7585 227.997 48.0473 228.136 48.3551 228.25C48.6629 228.359 48.9588 228.449 49.2429 228.52L50.6634 228.889C51.1274 229.003 51.6032 229.157 52.0909 229.351C52.5786 229.545 53.0308 229.801 53.4474 230.118C53.8641 230.435 54.2003 230.828 54.456 231.297C54.7164 231.766 54.8466 232.327 54.8466 232.98C54.8466 233.804 54.6335 234.536 54.2074 235.175C53.786 235.814 53.1728 236.318 52.3679 236.688C51.5677 237.057 50.5994 237.241 49.4631 237.241C48.3741 237.241 47.4318 237.069 46.6364 236.723C45.8409 236.377 45.2183 235.887 44.7685 235.253C44.3187 234.614 44.0701 233.856 44.0227 232.98H46.2244C46.267 233.506 46.4375 233.944 46.7358 234.294C47.0388 234.64 47.4247 234.898 47.8935 235.068C48.367 235.234 48.8854 235.317 49.4489 235.317C50.0691 235.317 50.6207 235.22 51.1037 235.026C51.5914 234.827 51.9749 234.552 52.2543 234.202C52.5336 233.847 52.6733 233.432 52.6733 232.959C52.6733 232.528 52.5502 232.175 52.304 231.901C52.0625 231.626 51.7334 231.399 51.3168 231.219C50.9048 231.039 50.4384 230.88 49.9176 230.743L48.1989 230.274C47.0341 229.957 46.1108 229.491 45.429 228.875C44.7519 228.259 44.4134 227.445 44.4134 226.432C44.4134 225.594 44.6406 224.862 45.0952 224.237C45.5497 223.612 46.1652 223.127 46.9418 222.781C47.7183 222.431 48.5942 222.256 49.5696 222.256C50.5545 222.256 51.4233 222.429 52.1761 222.774C52.9337 223.12 53.5303 223.596 53.9659 224.202C54.4015 224.803 54.6288 225.494 54.6477 226.276H52.5312ZM62.0004 237.22C60.9255 237.22 59.9999 236.991 59.2234 236.531C58.4516 236.067 57.855 235.416 57.4336 234.578C57.0169 233.735 56.8086 232.748 56.8086 231.616C56.8086 230.499 57.0169 229.514 57.4336 228.662C57.855 227.81 58.4421 227.144 59.195 226.666C59.9525 226.188 60.8379 225.949 61.8512 225.949C62.4667 225.949 63.0633 226.051 63.641 226.254C64.2186 226.458 64.7371 226.777 65.1964 227.213C65.6557 227.649 66.0179 228.214 66.283 228.911C66.5482 229.602 66.6808 230.442 66.6808 231.432V232.185H58.0089V230.594H64.5998C64.5998 230.035 64.4862 229.54 64.2589 229.109C64.0316 228.674 63.712 228.33 63.3001 228.08C62.8929 227.829 62.4147 227.703 61.8654 227.703C61.2688 227.703 60.748 227.85 60.3029 228.143C59.8626 228.432 59.5217 228.811 59.2802 229.28C59.0434 229.744 58.9251 230.248 58.9251 230.793V232.036C58.9251 232.765 59.0529 233.385 59.3086 233.896C59.569 234.408 59.9312 234.798 60.3952 235.068C60.8593 235.333 61.4014 235.466 62.0217 235.466C62.4241 235.466 62.7911 235.409 63.1225 235.295C63.454 235.177 63.7404 235.002 63.9819 234.77C64.2234 234.538 64.408 234.251 64.5359 233.911L66.5458 234.273C66.3848 234.865 66.096 235.383 65.6793 235.828C65.2674 236.268 64.7489 236.612 64.1239 236.858C63.5037 237.099 62.7958 237.22 62.0004 237.22ZM69.0369 237V226.091H71.0753V227.866H71.2102C71.4375 227.265 71.8092 226.796 72.3253 226.46C72.8414 226.119 73.4593 225.949 74.179 225.949C74.9081 225.949 75.5189 226.119 76.0114 226.46C76.5085 226.801 76.8755 227.27 77.1122 227.866H77.2259C77.4863 227.284 77.9006 226.82 78.4688 226.474C79.0369 226.124 79.714 225.949 80.5 225.949C81.4896 225.949 82.2969 226.259 82.9219 226.879C83.5516 227.5 83.8665 228.435 83.8665 229.685V237H81.7429V229.884C81.7429 229.145 81.5417 228.61 81.1392 228.278C80.7367 227.947 80.2562 227.781 79.6974 227.781C79.0062 227.781 78.4688 227.994 78.0852 228.42C77.7017 228.842 77.5099 229.384 77.5099 230.047V237H75.3935V229.749C75.3935 229.157 75.2088 228.681 74.8395 228.321C74.4702 227.961 73.9896 227.781 73.3977 227.781C72.9953 227.781 72.6236 227.888 72.2827 228.101C71.9465 228.309 71.6742 228.6 71.4659 228.974C71.2623 229.348 71.1605 229.782 71.1605 230.274V237H69.0369ZM86.7127 237V226.091H88.8363V237H86.7127ZM87.7852 224.408C87.4158 224.408 87.0986 224.285 86.8335 224.038C86.573 223.787 86.4428 223.489 86.4428 223.143C86.4428 222.793 86.573 222.495 86.8335 222.249C87.0986 221.998 87.4158 221.872 87.7852 221.872C88.1545 221.872 88.4693 221.998 88.7298 222.249C88.9949 222.495 89.1275 222.793 89.1275 223.143C89.1275 223.489 88.9949 223.787 88.7298 224.038C88.4693 224.285 88.1545 224.408 87.7852 224.408ZM96.2884 237.22C95.2325 237.22 94.3234 236.981 93.5611 236.503C92.8035 236.02 92.2211 235.355 91.8139 234.507C91.4067 233.66 91.2031 232.689 91.2031 231.595C91.2031 230.487 91.4115 229.509 91.8281 228.662C92.2448 227.81 92.8319 227.144 93.5895 226.666C94.3471 226.188 95.2396 225.949 96.267 225.949C97.0956 225.949 97.8343 226.103 98.483 226.411C99.1316 226.714 99.6548 227.14 100.053 227.689C100.455 228.238 100.694 228.88 100.77 229.614H98.7031C98.5895 229.102 98.3291 228.662 97.9219 228.293C97.5194 227.923 96.9796 227.739 96.3026 227.739C95.7107 227.739 95.1922 227.895 94.7472 228.207C94.3068 228.515 93.9635 228.955 93.7173 229.528C93.4711 230.097 93.348 230.769 93.348 231.545C93.348 232.341 93.4688 233.027 93.7102 233.605C93.9517 234.183 94.2926 234.63 94.733 234.947C95.178 235.265 95.7012 235.423 96.3026 235.423C96.705 235.423 97.0696 235.35 97.3963 235.203C97.7277 235.052 98.0047 234.836 98.2273 234.557C98.4545 234.277 98.6132 233.941 98.7031 233.548H100.77C100.694 234.254 100.464 234.884 100.081 235.438C99.6974 235.991 99.1837 236.427 98.5398 236.744C97.9006 237.062 97.1501 237.22 96.2884 237.22ZM107.636 237.22C106.613 237.22 105.721 236.986 104.958 236.517C104.196 236.048 103.604 235.393 103.183 234.55C102.761 233.707 102.551 232.722 102.551 231.595C102.551 230.464 102.761 229.474 103.183 228.626C103.604 227.779 104.196 227.121 104.958 226.652C105.721 226.183 106.613 225.949 107.636 225.949C108.659 225.949 109.551 226.183 110.314 226.652C111.076 227.121 111.668 227.779 112.089 228.626C112.511 229.474 112.721 230.464 112.721 231.595C112.721 232.722 112.511 233.707 112.089 234.55C111.668 235.393 111.076 236.048 110.314 236.517C109.551 236.986 108.659 237.22 107.636 237.22ZM107.643 235.438C108.306 235.438 108.855 235.262 109.291 234.912C109.726 234.562 110.048 234.095 110.257 233.513C110.47 232.93 110.576 232.289 110.576 231.588C110.576 230.892 110.47 230.253 110.257 229.67C110.048 229.083 109.726 228.612 109.291 228.257C108.855 227.902 108.306 227.724 107.643 227.724C106.975 227.724 106.422 227.902 105.981 228.257C105.546 228.612 105.221 229.083 105.008 229.67C104.8 230.253 104.696 230.892 104.696 231.588C104.696 232.289 104.8 232.93 105.008 233.513C105.221 234.095 105.546 234.562 105.981 234.912C106.422 235.262 106.975 235.438 107.643 235.438ZM117.215 222.455V237H115.092V222.455H117.215ZM124.667 237.22C123.645 237.22 122.752 236.986 121.99 236.517C121.227 236.048 120.636 235.393 120.214 234.55C119.793 233.707 119.582 232.722 119.582 231.595C119.582 230.464 119.793 229.474 120.214 228.626C120.636 227.779 121.227 227.121 121.99 226.652C122.752 226.183 123.645 225.949 124.667 225.949C125.69 225.949 126.583 226.183 127.345 226.652C128.107 227.121 128.699 227.779 129.12 228.626C129.542 229.474 129.752 230.464 129.752 231.595C129.752 232.722 129.542 233.707 129.12 234.55C128.699 235.393 128.107 236.048 127.345 236.517C126.583 236.986 125.69 237.22 124.667 237.22ZM124.674 235.438C125.337 235.438 125.886 235.262 126.322 234.912C126.758 234.562 127.08 234.095 127.288 233.513C127.501 232.93 127.608 232.289 127.608 231.588C127.608 230.892 127.501 230.253 127.288 229.67C127.08 229.083 126.758 228.612 126.322 228.257C125.886 227.902 125.337 227.724 124.674 227.724C124.007 227.724 123.453 227.902 123.012 228.257C122.577 228.612 122.252 229.083 122.039 229.67C121.831 230.253 121.727 230.892 121.727 231.588C121.727 232.289 121.831 232.93 122.039 233.513C122.252 234.095 122.577 234.562 123.012 234.912C123.453 235.262 124.007 235.438 124.674 235.438ZM134.246 230.523V237H132.123V226.091H134.161V227.866H134.296C134.547 227.289 134.94 226.825 135.475 226.474C136.015 226.124 136.694 225.949 137.513 225.949C138.257 225.949 138.908 226.105 139.467 226.418C140.025 226.725 140.459 227.185 140.766 227.795C141.074 228.406 141.228 229.161 141.228 230.061V237H139.104V230.317C139.104 229.526 138.898 228.908 138.487 228.463C138.075 228.013 137.509 227.788 136.789 227.788C136.297 227.788 135.859 227.895 135.475 228.108C135.096 228.321 134.796 228.634 134.573 229.045C134.355 229.453 134.246 229.945 134.246 230.523ZM149.539 237V222.455H158.659V224.344H151.734V228.776H158.183V230.658H151.734V235.111H158.744V237H149.539ZM161.42 237V226.091H163.472V227.824H163.586C163.785 227.237 164.135 226.775 164.637 226.439C165.144 226.098 165.717 225.928 166.356 225.928C166.488 225.928 166.645 225.932 166.825 225.942C167.009 225.951 167.154 225.963 167.258 225.977V228.009C167.173 227.985 167.021 227.959 166.803 227.93C166.585 227.897 166.368 227.881 166.15 227.881C165.648 227.881 165.201 227.987 164.808 228.2C164.419 228.409 164.112 228.7 163.884 229.074C163.657 229.443 163.543 229.865 163.543 230.338V237H161.42ZM169.096 237V226.091H171.148V227.824H171.262C171.461 227.237 171.811 226.775 172.313 226.439C172.819 226.098 173.392 225.928 174.032 225.928C174.164 225.928 174.32 225.932 174.5 225.942C174.685 225.951 174.829 225.963 174.934 225.977V228.009C174.848 227.985 174.697 227.959 174.479 227.93C174.261 227.897 174.043 227.881 173.826 227.881C173.324 227.881 172.876 227.987 172.483 228.2C172.095 228.409 171.787 228.7 171.56 229.074C171.333 229.443 171.219 229.865 171.219 230.338V237H169.096ZM180.976 237.22C179.953 237.22 179.061 236.986 178.298 236.517C177.536 236.048 176.944 235.393 176.523 234.55C176.101 233.707 175.891 232.722 175.891 231.595C175.891 230.464 176.101 229.474 176.523 228.626C176.944 227.779 177.536 227.121 178.298 226.652C179.061 226.183 179.953 225.949 180.976 225.949C181.999 225.949 182.891 226.183 183.653 226.652C184.416 227.121 185.008 227.779 185.429 228.626C185.85 229.474 186.061 230.464 186.061 231.595C186.061 232.722 185.85 233.707 185.429 234.55C185.008 235.393 184.416 236.048 183.653 236.517C182.891 236.986 181.999 237.22 180.976 237.22ZM180.983 235.438C181.646 235.438 182.195 235.262 182.631 234.912C183.066 234.562 183.388 234.095 183.597 233.513C183.81 232.93 183.916 232.289 183.916 231.588C183.916 230.892 183.81 230.253 183.597 229.67C183.388 229.083 183.066 228.612 182.631 228.257C182.195 227.902 181.646 227.724 180.983 227.724C180.315 227.724 179.761 227.902 179.321 228.257C178.885 228.612 178.561 229.083 178.348 229.67C178.14 230.253 178.036 230.892 178.036 231.588C178.036 232.289 178.14 232.93 178.348 233.513C178.561 234.095 178.885 234.562 179.321 234.912C179.761 235.262 180.315 235.438 180.983 235.438ZM188.431 237V226.091H190.484V227.824H190.598C190.797 227.237 191.147 226.775 191.649 226.439C192.155 226.098 192.728 225.928 193.368 225.928C193.5 225.928 193.656 225.932 193.836 225.942C194.021 225.951 194.165 225.963 194.27 225.977V228.009C194.184 227.985 194.033 227.959 193.815 227.93C193.597 227.897 193.379 227.881 193.162 227.881C192.66 227.881 192.212 227.987 191.819 228.2C191.431 228.409 191.123 228.7 190.896 229.074C190.669 229.443 190.555 229.865 190.555 230.338V237H188.431Z" fill="black"/>
<path d="M47.3509 250.273H48.6634V256.46C48.6634 257.02 48.5526 257.499 48.331 257.896C48.1122 258.294 47.804 258.598 47.4062 258.808C47.0085 259.016 46.5426 259.119 46.0085 259.119C45.517 259.119 45.0753 259.03 44.6832 258.851C44.294 258.672 43.9858 258.412 43.7585 258.071C43.5341 257.727 43.4219 257.31 43.4219 256.818H44.7301C44.7301 257.06 44.7855 257.268 44.8963 257.445C45.0099 257.621 45.1648 257.759 45.3608 257.858C45.5597 257.955 45.7869 258.003 46.0426 258.003C46.321 258.003 46.5568 257.945 46.75 257.828C46.946 257.709 47.0952 257.534 47.1974 257.304C47.2997 257.074 47.3509 256.793 47.3509 256.46V250.273ZM52.3825 259.145C51.9677 259.145 51.5927 259.068 51.2575 258.915C50.9222 258.759 50.6566 258.533 50.4606 258.237C50.2674 257.942 50.1708 257.58 50.1708 257.151C50.1708 256.781 50.2418 256.477 50.3839 256.239C50.5259 256 50.7177 255.811 50.9592 255.672C51.2006 255.533 51.4705 255.428 51.7688 255.357C52.0671 255.286 52.3711 255.232 52.6808 255.195C53.0728 255.149 53.391 255.112 53.6353 255.084C53.8796 255.053 54.0572 255.003 54.168 254.935C54.2788 254.866 54.3342 254.756 54.3342 254.602V254.572C54.3342 254.2 54.229 253.912 54.0188 253.707C53.8114 253.503 53.5018 253.401 53.0898 253.401C52.6609 253.401 52.3228 253.496 52.0756 253.686C51.8313 253.874 51.6623 254.082 51.5685 254.312L50.3711 254.04C50.5131 253.642 50.7205 253.321 50.9933 253.077C51.2688 252.83 51.5856 252.651 51.9435 252.54C52.3015 252.426 52.6779 252.369 53.0728 252.369C53.3342 252.369 53.6112 252.401 53.9038 252.463C54.1992 252.523 54.4748 252.634 54.7305 252.795C54.989 252.957 55.2006 253.189 55.3654 253.49C55.5302 253.788 55.6126 254.176 55.6126 254.653V259H54.3683V258.105H54.3171C54.2347 258.27 54.1112 258.432 53.9464 258.591C53.7816 258.75 53.57 258.882 53.3114 258.987C53.0529 259.092 52.7433 259.145 52.3825 259.145ZM52.6594 258.122C53.0117 258.122 53.3129 258.053 53.5629 257.913C53.8157 257.774 54.0075 257.592 54.1381 257.368C54.2717 257.141 54.3384 256.898 54.3384 256.639V255.795C54.293 255.841 54.2049 255.884 54.0742 255.923C53.9464 255.96 53.8001 255.993 53.6353 256.021C53.4705 256.047 53.31 256.071 53.1538 256.094C52.9975 256.114 52.8668 256.131 52.7617 256.145C52.5146 256.176 52.2887 256.229 52.0842 256.303C51.8825 256.376 51.7205 256.483 51.5984 256.622C51.479 256.759 51.4194 256.94 51.4194 257.168C51.4194 257.483 51.5359 257.722 51.7688 257.884C52.0018 258.043 52.2987 258.122 52.6594 258.122ZM62.6747 252.455L60.3011 259H58.9375L56.5597 252.455H57.9276L59.5852 257.491H59.6534L61.3068 252.455H62.6747ZM65.5895 259.145C65.1747 259.145 64.7997 259.068 64.4645 258.915C64.1293 258.759 63.8636 258.533 63.6676 258.237C63.4744 257.942 63.3778 257.58 63.3778 257.151C63.3778 256.781 63.4489 256.477 63.5909 256.239C63.733 256 63.9247 255.811 64.1662 255.672C64.4077 255.533 64.6776 255.428 64.9759 255.357C65.2741 255.286 65.5781 255.232 65.8878 255.195C66.2798 255.149 66.598 255.112 66.8423 255.084C67.0866 255.053 67.2642 255.003 67.375 254.935C67.4858 254.866 67.5412 254.756 67.5412 254.602V254.572C67.5412 254.2 67.4361 253.912 67.2259 253.707C67.0185 253.503 66.7088 253.401 66.2969 253.401C65.8679 253.401 65.5298 253.496 65.2827 253.686C65.0384 253.874 64.8693 254.082 64.7756 254.312L63.5781 254.04C63.7202 253.642 63.9276 253.321 64.2003 253.077C64.4759 252.83 64.7926 252.651 65.1506 252.54C65.5085 252.426 65.8849 252.369 66.2798 252.369C66.5412 252.369 66.8182 252.401 67.1108 252.463C67.4063 252.523 67.6818 252.634 67.9375 252.795C68.196 252.957 68.4077 253.189 68.5724 253.49C68.7372 253.788 68.8196 254.176 68.8196 254.653V259H67.5753V258.105H67.5241C67.4418 258.27 67.3182 258.432 67.1534 258.591C66.9886 258.75 66.777 258.882 66.5185 258.987C66.2599 259.092 65.9503 259.145 65.5895 259.145ZM65.8665 258.122C66.2188 258.122 66.5199 258.053 66.7699 257.913C67.0227 257.774 67.2145 257.592 67.3452 257.368C67.4787 257.141 67.5455 256.898 67.5455 256.639V255.795C67.5 255.841 67.4119 255.884 67.2812 255.923C67.1534 255.96 67.0071 255.993 66.8423 256.021C66.6776 256.047 66.517 256.071 66.3608 256.094C66.2045 256.114 66.0739 256.131 65.9688 256.145C65.7216 256.176 65.4957 256.229 65.2912 256.303C65.0895 256.376 64.9276 256.483 64.8054 256.622C64.6861 256.759 64.6264 256.94 64.6264 257.168C64.6264 257.483 64.7429 257.722 64.9759 257.884C65.2088 258.043 65.5057 258.122 65.8665 258.122ZM75.3789 252.565C75.3335 252.162 75.146 251.849 74.8164 251.628C74.4869 251.403 74.0721 251.291 73.5721 251.291C73.2141 251.291 72.9045 251.348 72.6431 251.462C72.3817 251.572 72.1786 251.726 72.0337 251.922C71.8917 252.115 71.8207 252.335 71.8207 252.582C71.8207 252.79 71.869 252.969 71.9656 253.119C72.065 253.27 72.1942 253.396 72.3533 253.499C72.5153 253.598 72.6886 253.682 72.8732 253.75C73.0579 253.815 73.2354 253.869 73.4059 253.912L74.2582 254.134C74.5366 254.202 74.8221 254.294 75.1147 254.411C75.4073 254.527 75.6786 254.68 75.9286 254.871C76.1786 255.061 76.3803 255.297 76.5337 255.578C76.69 255.859 76.7681 256.196 76.7681 256.588C76.7681 257.082 76.6403 257.521 76.3846 257.905C76.1317 258.288 75.7638 258.591 75.2809 258.812C74.8008 259.034 74.2198 259.145 73.538 259.145C72.8846 259.145 72.3192 259.041 71.842 258.834C71.3647 258.626 70.9911 258.332 70.7212 257.952C70.4513 257.568 70.3022 257.114 70.2738 256.588H71.5948C71.6204 256.903 71.7227 257.166 71.9016 257.376C72.0835 257.584 72.315 257.739 72.5962 257.841C72.8803 257.94 73.1914 257.99 73.5295 257.99C73.9016 257.99 74.2326 257.932 74.5224 257.815C74.815 257.696 75.0451 257.531 75.2127 257.321C75.3803 257.108 75.4641 256.859 75.4641 256.575C75.4641 256.317 75.3903 256.105 75.2425 255.94C75.0977 255.776 74.9002 255.639 74.6502 255.531C74.4031 255.423 74.1232 255.328 73.8107 255.246L72.7795 254.964C72.0806 254.774 71.5266 254.494 71.1175 254.125C70.7113 253.756 70.5082 253.267 70.5082 252.659C70.5082 252.156 70.6445 251.717 70.9173 251.342C71.19 250.967 71.5593 250.676 72.0252 250.469C72.4911 250.259 73.0167 250.153 73.6019 250.153C74.1928 250.153 74.7141 250.257 75.1658 250.464C75.6204 250.672 75.9783 250.957 76.2397 251.321C76.5011 251.682 76.6374 252.097 76.6488 252.565H75.3789ZM80.9964 259.132C80.3629 259.132 79.8175 258.989 79.3601 258.702C78.9055 258.412 78.5561 258.013 78.3118 257.504C78.0675 256.996 77.9453 256.413 77.9453 255.757C77.9453 255.092 78.0703 254.506 78.3203 253.997C78.5703 253.486 78.9226 253.087 79.3771 252.8C79.8317 252.513 80.3672 252.369 80.9837 252.369C81.4808 252.369 81.924 252.462 82.3132 252.646C82.7024 252.828 83.0163 253.084 83.255 253.413C83.4964 253.743 83.6399 254.128 83.6854 254.568H82.4453C82.3771 254.261 82.2209 253.997 81.9766 253.776C81.7351 253.554 81.4112 253.443 81.005 253.443C80.6499 253.443 80.3388 253.537 80.0717 253.724C79.8075 253.909 79.6016 254.173 79.4538 254.517C79.3061 254.858 79.2322 255.261 79.2322 255.727C79.2322 256.205 79.3047 256.616 79.4496 256.963C79.5945 257.31 79.799 257.578 80.0632 257.768C80.3303 257.959 80.6442 258.054 81.005 258.054C81.2464 258.054 81.4652 258.01 81.6612 257.922C81.8601 257.831 82.0263 257.702 82.1598 257.534C82.2962 257.366 82.3913 257.165 82.4453 256.929H83.6854C83.6399 257.352 83.5021 257.73 83.272 258.062C83.0419 258.395 82.7337 258.656 82.3473 258.847C81.9638 259.037 81.5135 259.132 80.9964 259.132ZM85.0479 259V252.455H86.2795V253.494H86.3477C86.467 253.142 86.6772 252.865 86.9783 252.663C87.2823 252.459 87.6261 252.357 88.0096 252.357C88.0891 252.357 88.1829 252.359 88.2908 252.365C88.4016 252.371 88.4883 252.378 88.5508 252.386V253.605C88.4996 253.591 88.4087 253.575 88.2781 253.558C88.1474 253.538 88.0167 253.528 87.886 253.528C87.5849 253.528 87.3164 253.592 87.0806 253.72C86.8477 253.845 86.663 254.02 86.5266 254.244C86.3903 254.466 86.3221 254.719 86.3221 255.003V259H85.0479ZM89.6534 259V252.455H90.9276V259H89.6534ZM90.2969 251.445C90.0753 251.445 89.8849 251.371 89.7259 251.223C89.5696 251.072 89.4915 250.893 89.4915 250.686C89.4915 250.476 89.5696 250.297 89.7259 250.149C89.8849 249.999 90.0753 249.923 90.2969 249.923C90.5185 249.923 90.7074 249.999 90.8636 250.149C91.0227 250.297 91.1023 250.476 91.1023 250.686C91.1023 250.893 91.0227 251.072 90.8636 251.223C90.7074 251.371 90.5185 251.445 90.2969 251.445ZM92.6417 261.455V252.455H93.886V253.516H93.9925C94.0664 253.379 94.1729 253.222 94.3121 253.043C94.4513 252.864 94.6445 252.707 94.8917 252.574C95.1388 252.438 95.4656 252.369 95.8718 252.369C96.4002 252.369 96.8718 252.503 97.2866 252.77C97.7013 253.037 98.0266 253.422 98.2624 253.925C98.5011 254.428 98.6204 255.033 98.6204 255.74C98.6204 256.447 98.5025 257.054 98.2667 257.56C98.0309 258.062 97.707 258.45 97.2951 258.723C96.8832 258.993 96.413 259.128 95.8846 259.128C95.4869 259.128 95.1616 259.061 94.9087 258.928C94.6587 258.794 94.4627 258.638 94.3207 258.459C94.1786 258.28 94.0692 258.121 93.9925 257.982H93.9158V261.455H92.6417ZM93.8903 255.727C93.8903 256.187 93.957 256.591 94.0906 256.938C94.2241 257.284 94.4173 257.555 94.6701 257.751C94.9229 257.945 95.2326 258.041 95.5991 258.041C95.9798 258.041 96.2979 257.94 96.5536 257.739C96.8093 257.534 97.0025 257.257 97.1332 256.908C97.2667 256.558 97.3335 256.165 97.3335 255.727C97.3335 255.295 97.2681 254.908 97.1374 254.564C97.0096 254.22 96.8164 253.949 96.5579 253.75C96.3022 253.551 95.9826 253.452 95.5991 253.452C95.2298 253.452 94.9173 253.547 94.6616 253.737C94.4087 253.928 94.217 254.193 94.0863 254.534C93.9556 254.875 93.8903 255.273 93.8903 255.727ZM103.103 252.455V253.477H99.5281V252.455H103.103ZM100.487 250.886H101.761V257.078C101.761 257.325 101.798 257.511 101.872 257.636C101.946 257.759 102.041 257.842 102.157 257.888C102.277 257.93 102.406 257.952 102.545 257.952C102.647 257.952 102.737 257.945 102.814 257.93C102.89 257.916 102.95 257.905 102.993 257.896L103.223 258.949C103.149 258.977 103.044 259.006 102.907 259.034C102.771 259.065 102.6 259.082 102.396 259.085C102.061 259.091 101.748 259.031 101.458 258.906C101.169 258.781 100.934 258.588 100.755 258.327C100.576 258.065 100.487 257.737 100.487 257.342V250.886ZM107.837 249.864L105.024 260.312H103.886L106.699 249.864H107.837ZM108.591 251.406V250.273H115.345V251.406H112.622V259H111.31V251.406H108.591ZM116.791 261.455C116.6 261.455 116.427 261.439 116.271 261.408C116.115 261.379 115.998 261.348 115.922 261.314L116.228 260.27C116.461 260.332 116.669 260.359 116.85 260.351C117.032 260.342 117.193 260.274 117.332 260.146C117.474 260.018 117.599 259.81 117.707 259.52L117.865 259.085L115.47 252.455H116.833L118.491 257.534H118.559L120.217 252.455H121.585L118.887 259.874C118.762 260.214 118.603 260.503 118.41 260.739C118.217 260.977 117.987 261.156 117.72 261.276C117.453 261.395 117.143 261.455 116.791 261.455ZM122.782 261.455V252.455H124.027V253.516H124.133C124.207 253.379 124.314 253.222 124.453 253.043C124.592 252.864 124.785 252.707 125.032 252.574C125.279 252.438 125.606 252.369 126.012 252.369C126.541 252.369 127.012 252.503 127.427 252.77C127.842 253.037 128.167 253.422 128.403 253.925C128.642 254.428 128.761 255.033 128.761 255.74C128.761 256.447 128.643 257.054 128.407 257.56C128.172 258.062 127.848 258.45 127.436 258.723C127.024 258.993 126.554 259.128 126.025 259.128C125.627 259.128 125.302 259.061 125.049 258.928C124.799 258.794 124.603 258.638 124.461 258.459C124.319 258.28 124.21 258.121 124.133 257.982H124.056V261.455H122.782ZM124.031 255.727C124.031 256.187 124.098 256.591 124.231 256.938C124.365 257.284 124.558 257.555 124.811 257.751C125.064 257.945 125.373 258.041 125.74 258.041C126.12 258.041 126.439 257.94 126.694 257.739C126.95 257.534 127.143 257.257 127.274 256.908C127.407 256.558 127.474 256.165 127.474 255.727C127.474 255.295 127.409 254.908 127.278 254.564C127.15 254.22 126.957 253.949 126.699 253.75C126.443 253.551 126.123 253.452 125.74 253.452C125.37 253.452 125.058 253.547 124.802 253.737C124.549 253.928 124.358 254.193 124.227 254.534C124.096 254.875 124.031 255.273 124.031 255.727ZM133.01 259.132C132.365 259.132 131.809 258.994 131.343 258.719C130.88 258.44 130.522 258.05 130.27 257.547C130.02 257.041 129.895 256.449 129.895 255.77C129.895 255.099 130.02 254.509 130.27 253.997C130.522 253.486 130.875 253.087 131.326 252.8C131.781 252.513 132.312 252.369 132.92 252.369C133.289 252.369 133.647 252.43 133.994 252.553C134.341 252.675 134.652 252.866 134.927 253.128C135.203 253.389 135.42 253.729 135.579 254.146C135.738 254.561 135.818 255.065 135.818 255.659V256.111H130.615V255.156H134.569C134.569 254.821 134.501 254.524 134.365 254.266C134.228 254.004 134.037 253.798 133.789 253.648C133.545 253.497 133.258 253.422 132.929 253.422C132.571 253.422 132.258 253.51 131.991 253.686C131.727 253.859 131.522 254.087 131.377 254.368C131.235 254.646 131.164 254.949 131.164 255.276V256.021C131.164 256.459 131.241 256.831 131.395 257.138C131.551 257.445 131.768 257.679 132.047 257.841C132.325 258 132.65 258.08 133.022 258.08C133.264 258.08 133.484 258.045 133.683 257.977C133.882 257.906 134.054 257.801 134.199 257.662C134.343 257.523 134.454 257.351 134.531 257.146L135.737 257.364C135.64 257.719 135.467 258.03 135.217 258.297C134.97 258.561 134.659 258.767 134.284 258.915C133.912 259.06 133.487 259.132 133.01 259.132ZM142.094 252.565C142.048 252.162 141.861 251.849 141.531 251.628C141.202 251.403 140.787 251.291 140.287 251.291C139.929 251.291 139.619 251.348 139.358 251.462C139.097 251.572 138.893 251.726 138.749 251.922C138.607 252.115 138.536 252.335 138.536 252.582C138.536 252.79 138.584 252.969 138.68 253.119C138.78 253.27 138.909 253.396 139.068 253.499C139.23 253.598 139.403 253.682 139.588 253.75C139.773 253.815 139.95 253.869 140.121 253.912L140.973 254.134C141.251 254.202 141.537 254.294 141.83 254.411C142.122 254.527 142.393 254.68 142.643 254.871C142.893 255.061 143.095 255.297 143.249 255.578C143.405 255.859 143.483 256.196 143.483 256.588C143.483 257.082 143.355 257.521 143.099 257.905C142.847 258.288 142.479 258.591 141.996 258.812C141.516 259.034 140.935 259.145 140.253 259.145C139.599 259.145 139.034 259.041 138.557 258.834C138.08 258.626 137.706 258.332 137.436 257.952C137.166 257.568 137.017 257.114 136.989 256.588H138.31C138.335 256.903 138.438 257.166 138.616 257.376C138.798 257.584 139.03 257.739 139.311 257.841C139.595 257.94 139.906 257.99 140.244 257.99C140.616 257.99 140.947 257.932 141.237 257.815C141.53 257.696 141.76 257.531 141.928 257.321C142.095 257.108 142.179 256.859 142.179 256.575C142.179 256.317 142.105 256.105 141.957 255.94C141.813 255.776 141.615 255.639 141.365 255.531C141.118 255.423 140.838 255.328 140.526 255.246L139.494 254.964C138.795 254.774 138.241 254.494 137.832 254.125C137.426 253.756 137.223 253.267 137.223 252.659C137.223 252.156 137.359 251.717 137.632 251.342C137.905 250.967 138.274 250.676 138.74 250.469C139.206 250.259 139.732 250.153 140.317 250.153C140.908 250.153 141.429 250.257 141.881 250.464C142.335 250.672 142.693 250.957 142.955 251.321C143.216 251.682 143.352 252.097 143.364 252.565H142.094ZM147.711 259.132C147.078 259.132 146.532 258.989 146.075 258.702C145.62 258.412 145.271 258.013 145.027 257.504C144.782 256.996 144.66 256.413 144.66 255.757C144.66 255.092 144.785 254.506 145.035 253.997C145.285 253.486 145.637 253.087 146.092 252.8C146.547 252.513 147.082 252.369 147.699 252.369C148.196 252.369 148.639 252.462 149.028 252.646C149.417 252.828 149.731 253.084 149.97 253.413C150.211 253.743 150.355 254.128 150.4 254.568H149.16C149.092 254.261 148.936 253.997 148.691 253.776C148.45 253.554 148.126 253.443 147.72 253.443C147.365 253.443 147.054 253.537 146.787 253.724C146.522 253.909 146.316 254.173 146.169 254.517C146.021 254.858 145.947 255.261 145.947 255.727C145.947 256.205 146.02 256.616 146.164 256.963C146.309 257.31 146.514 257.578 146.778 257.768C147.045 257.959 147.359 258.054 147.72 258.054C147.961 258.054 148.18 258.01 148.376 257.922C148.575 257.831 148.741 257.702 148.875 257.534C149.011 257.366 149.106 257.165 149.16 256.929H150.4C150.355 257.352 150.217 257.73 149.987 258.062C149.757 258.395 149.449 258.656 149.062 258.847C148.679 259.037 148.228 259.132 147.711 259.132ZM151.763 259V252.455H152.994V253.494H153.062C153.182 253.142 153.392 252.865 153.693 252.663C153.997 252.459 154.341 252.357 154.724 252.357C154.804 252.357 154.898 252.359 155.006 252.365C155.116 252.371 155.203 252.378 155.266 252.386V253.605C155.214 253.591 155.124 253.575 154.993 253.558C154.862 253.538 154.732 253.528 154.601 253.528C154.3 253.528 154.031 253.592 153.795 253.72C153.563 253.845 153.378 254.02 153.241 254.244C153.105 254.466 153.037 254.719 153.037 255.003V259H151.763ZM156.368 259V252.455H157.642V259H156.368ZM157.012 251.445C156.79 251.445 156.6 251.371 156.441 251.223C156.284 251.072 156.206 250.893 156.206 250.686C156.206 250.476 156.284 250.297 156.441 250.149C156.6 249.999 156.79 249.923 157.012 249.923C157.233 249.923 157.422 249.999 157.578 250.149C157.738 250.297 157.817 250.476 157.817 250.686C157.817 250.893 157.738 251.072 157.578 251.223C157.422 251.371 157.233 251.445 157.012 251.445ZM159.357 261.455V252.455H160.601V253.516H160.707C160.781 253.379 160.888 253.222 161.027 253.043C161.166 252.864 161.359 252.707 161.607 252.574C161.854 252.438 162.18 252.369 162.587 252.369C163.115 252.369 163.587 252.503 164.001 252.77C164.416 253.037 164.741 253.422 164.977 253.925C165.216 254.428 165.335 255.033 165.335 255.74C165.335 256.447 165.217 257.054 164.982 257.56C164.746 258.062 164.422 258.45 164.01 258.723C163.598 258.993 163.128 259.128 162.599 259.128C162.202 259.128 161.876 259.061 161.624 258.928C161.374 258.794 161.178 258.638 161.036 258.459C160.893 258.28 160.784 258.121 160.707 257.982H160.631V261.455H159.357ZM160.605 255.727C160.605 256.187 160.672 256.591 160.805 256.938C160.939 257.284 161.132 257.555 161.385 257.751C161.638 257.945 161.947 258.041 162.314 258.041C162.695 258.041 163.013 257.94 163.268 257.739C163.524 257.534 163.717 257.257 163.848 256.908C163.982 256.558 164.048 256.165 164.048 255.727C164.048 255.295 163.983 254.908 163.852 254.564C163.724 254.22 163.531 253.949 163.273 253.75C163.017 253.551 162.697 253.452 162.314 253.452C161.945 253.452 161.632 253.547 161.376 253.737C161.124 253.928 160.932 254.193 160.801 254.534C160.67 254.875 160.605 255.273 160.605 255.727ZM169.818 252.455V253.477H166.243V252.455H169.818ZM167.202 250.886H168.476V257.078C168.476 257.325 168.513 257.511 168.587 257.636C168.661 257.759 168.756 257.842 168.872 257.888C168.991 257.93 169.121 257.952 169.26 257.952C169.362 257.952 169.452 257.945 169.528 257.93C169.605 257.916 169.665 257.905 169.707 257.896L169.938 258.949C169.864 258.977 169.759 259.006 169.622 259.034C169.486 259.065 169.315 259.082 169.111 259.085C168.776 259.091 168.463 259.031 168.173 258.906C167.884 258.781 167.649 258.588 167.47 258.327C167.291 258.065 167.202 257.737 167.202 257.342V250.886ZM177.224 259.132C176.58 259.132 176.024 258.994 175.558 258.719C175.095 258.44 174.737 258.05 174.484 257.547C174.234 257.041 174.109 256.449 174.109 255.77C174.109 255.099 174.234 254.509 174.484 253.997C174.737 253.486 175.089 253.087 175.541 252.8C175.996 252.513 176.527 252.369 177.135 252.369C177.504 252.369 177.862 252.43 178.209 252.553C178.555 252.675 178.866 252.866 179.142 253.128C179.418 253.389 179.635 253.729 179.794 254.146C179.953 254.561 180.033 255.065 180.033 255.659V256.111H174.83V255.156H178.784C178.784 254.821 178.716 254.524 178.58 254.266C178.443 254.004 178.251 253.798 178.004 253.648C177.76 253.497 177.473 253.422 177.143 253.422C176.786 253.422 176.473 253.51 176.206 253.686C175.942 253.859 175.737 254.087 175.592 254.368C175.45 254.646 175.379 254.949 175.379 255.276V256.021C175.379 256.459 175.456 256.831 175.609 257.138C175.766 257.445 175.983 257.679 176.261 257.841C176.54 258 176.865 258.08 177.237 258.08C177.479 258.08 177.699 258.045 177.898 257.977C178.097 257.906 178.268 257.801 178.413 257.662C178.558 257.523 178.669 257.351 178.746 257.146L179.952 257.364C179.855 257.719 179.682 258.03 179.432 258.297C179.185 258.561 178.874 258.767 178.499 258.915C178.126 259.06 177.702 259.132 177.224 259.132ZM182.3 252.455L183.744 255.003L185.202 252.455H186.595L184.554 255.727L186.612 259H185.219L183.744 256.554L182.274 259H180.876L182.913 255.727L180.902 252.455H182.3ZM187.903 261.455V252.455H189.148V253.516H189.254C189.328 253.379 189.435 253.222 189.574 253.043C189.713 252.864 189.906 252.707 190.153 252.574C190.401 252.438 190.727 252.369 191.134 252.369C191.662 252.369 192.134 252.503 192.548 252.77C192.963 253.037 193.288 253.422 193.524 253.925C193.763 254.428 193.882 255.033 193.882 255.74C193.882 256.447 193.764 257.054 193.528 257.56C193.293 258.062 192.969 258.45 192.557 258.723C192.145 258.993 191.675 259.128 191.146 259.128C190.749 259.128 190.423 259.061 190.17 258.928C189.92 258.794 189.724 258.638 189.582 258.459C189.44 258.28 189.331 258.121 189.254 257.982H189.178V261.455H187.903ZM189.152 255.727C189.152 256.187 189.219 256.591 189.352 256.938C189.486 257.284 189.679 257.555 189.932 257.751C190.185 257.945 190.494 258.041 190.861 258.041C191.241 258.041 191.56 257.94 191.815 257.739C192.071 257.534 192.264 257.257 192.395 256.908C192.528 256.558 192.595 256.165 192.595 255.727C192.595 255.295 192.53 254.908 192.399 254.564C192.271 254.22 192.078 253.949 191.82 253.75C191.564 253.551 191.244 253.452 190.861 253.452C190.491 253.452 190.179 253.547 189.923 253.737C189.67 253.928 189.479 254.193 189.348 254.534C189.217 254.875 189.152 255.273 189.152 255.727ZM198.131 259.132C197.486 259.132 196.93 258.994 196.464 258.719C196.001 258.44 195.643 258.05 195.391 257.547C195.141 257.041 195.016 256.449 195.016 255.77C195.016 255.099 195.141 254.509 195.391 253.997C195.643 253.486 195.996 253.087 196.447 252.8C196.902 252.513 197.433 252.369 198.041 252.369C198.411 252.369 198.768 252.43 199.115 252.553C199.462 252.675 199.773 252.866 200.048 253.128C200.324 253.389 200.541 253.729 200.7 254.146C200.859 254.561 200.939 255.065 200.939 255.659V256.111H195.736V255.156H199.69C199.69 254.821 199.622 254.524 199.486 254.266C199.349 254.004 199.158 253.798 198.911 253.648C198.666 253.497 198.379 253.422 198.05 253.422C197.692 253.422 197.379 253.51 197.112 253.686C196.848 253.859 196.643 254.087 196.499 254.368C196.357 254.646 196.286 254.949 196.286 255.276V256.021C196.286 256.459 196.362 256.831 196.516 257.138C196.672 257.445 196.889 257.679 197.168 257.841C197.446 258 197.771 258.08 198.143 258.08C198.385 258.08 198.605 258.045 198.804 257.977C199.003 257.906 199.175 257.801 199.32 257.662C199.464 257.523 199.575 257.351 199.652 257.146L200.858 257.364C200.761 257.719 200.588 258.03 200.338 258.297C200.091 258.561 199.78 258.767 199.405 258.915C199.033 259.06 198.608 259.132 198.131 259.132ZM205.11 259.132C204.476 259.132 203.931 258.989 203.473 258.702C203.019 258.412 202.669 258.013 202.425 257.504C202.181 256.996 202.059 256.413 202.059 255.757C202.059 255.092 202.184 254.506 202.434 253.997C202.684 253.486 203.036 253.087 203.49 252.8C203.945 252.513 204.48 252.369 205.097 252.369C205.594 252.369 206.037 252.462 206.426 252.646C206.816 252.828 207.13 253.084 207.368 253.413C207.61 253.743 207.753 254.128 207.799 254.568H206.559C206.49 254.261 206.334 253.997 206.09 253.776C205.848 253.554 205.525 253.443 205.118 253.443C204.763 253.443 204.452 253.537 204.185 253.724C203.921 253.909 203.715 254.173 203.567 254.517C203.419 254.858 203.346 255.261 203.346 255.727C203.346 256.205 203.418 256.616 203.563 256.963C203.708 257.31 203.912 257.578 204.176 257.768C204.444 257.959 204.757 258.054 205.118 258.054C205.36 258.054 205.578 258.01 205.775 257.922C205.973 257.831 206.14 257.702 206.273 257.534C206.409 257.366 206.505 257.165 206.559 256.929H207.799C207.753 257.352 207.615 257.73 207.385 258.062C207.155 258.395 206.847 258.656 206.461 258.847C206.077 259.037 205.627 259.132 205.11 259.132ZM212.217 252.455V253.477H208.641V252.455H212.217ZM209.6 250.886H210.874V257.078C210.874 257.325 210.911 257.511 210.985 257.636C211.059 257.759 211.154 257.842 211.271 257.888C211.39 257.93 211.519 257.952 211.658 257.952C211.761 257.952 211.85 257.945 211.927 257.93C212.004 257.916 212.063 257.905 212.106 257.896L212.336 258.949C212.262 258.977 212.157 259.006 212.021 259.034C211.884 259.065 211.714 259.082 211.509 259.085C211.174 259.091 210.862 259.031 210.572 258.906C210.282 258.781 210.048 258.588 209.869 258.327C209.69 258.065 209.6 257.737 209.6 257.342V250.886ZM216.377 259.132C215.732 259.132 215.176 258.994 214.711 258.719C214.248 258.44 213.89 258.05 213.637 257.547C213.387 257.041 213.262 256.449 213.262 255.77C213.262 255.099 213.387 254.509 213.637 253.997C213.89 253.486 214.242 253.087 214.694 252.8C215.148 252.513 215.679 252.369 216.287 252.369C216.657 252.369 217.015 252.43 217.361 252.553C217.708 252.675 218.019 252.866 218.294 253.128C218.57 253.389 218.787 253.729 218.946 254.146C219.105 254.561 219.185 255.065 219.185 255.659V256.111H213.982V255.156H217.936C217.936 254.821 217.868 254.524 217.732 254.266C217.596 254.004 217.404 253.798 217.157 253.648C216.912 253.497 216.625 253.422 216.296 253.422C215.938 253.422 215.625 253.51 215.358 253.686C215.094 253.859 214.89 254.087 214.745 254.368C214.603 254.646 214.532 254.949 214.532 255.276V256.021C214.532 256.459 214.608 256.831 214.762 257.138C214.918 257.445 215.135 257.679 215.414 257.841C215.692 258 216.017 258.08 216.39 258.08C216.631 258.08 216.851 258.045 217.05 257.977C217.249 257.906 217.421 257.801 217.566 257.662C217.711 257.523 217.821 257.351 217.898 257.146L219.104 257.364C219.007 257.719 218.834 258.03 218.584 258.297C218.337 258.561 218.026 258.767 217.651 258.915C217.279 259.06 216.854 259.132 216.377 259.132ZM223.049 259.128C222.521 259.128 222.049 258.993 221.634 258.723C221.222 258.45 220.898 258.062 220.663 257.56C220.43 257.054 220.313 256.447 220.313 255.74C220.313 255.033 220.431 254.428 220.667 253.925C220.906 253.422 221.232 253.037 221.647 252.77C222.062 252.503 222.532 252.369 223.058 252.369C223.464 252.369 223.79 252.438 224.038 252.574C224.288 252.707 224.481 252.864 224.617 253.043C224.756 253.222 224.864 253.379 224.941 253.516H225.018V250.273H226.292V259H225.048V257.982H224.941C224.864 258.121 224.754 258.28 224.609 258.459C224.467 258.638 224.271 258.794 224.021 258.928C223.771 259.061 223.447 259.128 223.049 259.128ZM223.33 258.041C223.697 258.041 224.006 257.945 224.259 257.751C224.515 257.555 224.708 257.284 224.839 256.938C224.972 256.591 225.039 256.187 225.039 255.727C225.039 255.273 224.974 254.875 224.843 254.534C224.712 254.193 224.521 253.928 224.268 253.737C224.015 253.547 223.702 253.452 223.33 253.452C222.947 253.452 222.627 253.551 222.371 253.75C222.116 253.949 221.923 254.22 221.792 254.564C221.664 254.908 221.6 255.295 221.6 255.727C221.6 256.165 221.665 256.558 221.796 256.908C221.927 257.257 222.12 257.534 222.376 257.739C222.634 257.94 222.952 258.041 223.33 258.041ZM233.191 259.145C232.776 259.145 232.401 259.068 232.066 258.915C231.731 258.759 231.465 258.533 231.269 258.237C231.076 257.942 230.979 257.58 230.979 257.151C230.979 256.781 231.05 256.477 231.192 256.239C231.335 256 231.526 255.811 231.768 255.672C232.009 255.533 232.279 255.428 232.577 255.357C232.876 255.286 233.18 255.232 233.489 255.195C233.881 255.149 234.2 255.112 234.444 255.084C234.688 255.053 234.866 255.003 234.977 254.935C235.087 254.866 235.143 254.756 235.143 254.602V254.572C235.143 254.2 235.038 253.912 234.827 253.707C234.62 253.503 234.31 253.401 233.898 253.401C233.469 253.401 233.131 253.496 232.884 253.686C232.64 253.874 232.471 254.082 232.377 254.312L231.18 254.04C231.322 253.642 231.529 253.321 231.802 253.077C232.077 252.83 232.394 252.651 232.752 252.54C233.11 252.426 233.487 252.369 233.881 252.369C234.143 252.369 234.42 252.401 234.712 252.463C235.008 252.523 235.283 252.634 235.539 252.795C235.798 252.957 236.009 253.189 236.174 253.49C236.339 253.788 236.421 254.176 236.421 254.653V259H235.177V258.105H235.126C235.043 258.27 234.92 258.432 234.755 258.591C234.59 258.75 234.379 258.882 234.12 258.987C233.862 259.092 233.552 259.145 233.191 259.145ZM233.468 258.122C233.82 258.122 234.121 258.053 234.371 257.913C234.624 257.774 234.816 257.592 234.947 257.368C235.08 257.141 235.147 256.898 235.147 256.639V255.795C235.102 255.841 235.013 255.884 234.883 255.923C234.755 255.96 234.609 255.993 234.444 256.021C234.279 256.047 234.119 256.071 233.962 256.094C233.806 256.114 233.675 256.131 233.57 256.145C233.323 256.176 233.097 256.229 232.893 256.303C232.691 256.376 232.529 256.483 232.407 256.622C232.288 256.759 232.228 256.94 232.228 257.168C232.228 257.483 232.344 257.722 232.577 257.884C232.81 258.043 233.107 258.122 233.468 258.122ZM241.396 259V250.273H242.67V253.516H242.747C242.821 253.379 242.928 253.222 243.067 253.043C243.206 252.864 243.399 252.707 243.646 252.574C243.893 252.438 244.22 252.369 244.626 252.369C245.155 252.369 245.626 252.503 246.041 252.77C246.456 253.037 246.781 253.422 247.017 253.925C247.256 254.428 247.375 255.033 247.375 255.74C247.375 256.447 247.257 257.054 247.021 257.56C246.786 258.062 246.462 258.45 246.05 258.723C245.638 258.993 245.168 259.128 244.639 259.128C244.241 259.128 243.916 259.061 243.663 258.928C243.413 258.794 243.217 258.638 243.075 258.459C242.933 258.28 242.824 258.121 242.747 257.982H242.641V259H241.396ZM242.645 255.727C242.645 256.187 242.712 256.591 242.845 256.938C242.979 257.284 243.172 257.555 243.425 257.751C243.678 257.945 243.987 258.041 244.354 258.041C244.734 258.041 245.053 257.94 245.308 257.739C245.564 257.534 245.757 257.257 245.888 256.908C246.021 256.558 246.088 256.165 246.088 255.727C246.088 255.295 246.023 254.908 245.892 254.564C245.764 254.22 245.571 253.949 245.312 253.75C245.057 253.551 244.737 253.452 244.354 253.452C243.984 253.452 243.672 253.547 243.416 253.737C243.163 253.928 242.972 254.193 242.841 254.534C242.71 254.875 242.645 255.273 242.645 255.727ZM252.952 256.286V252.455H254.23V259H252.978V257.866H252.909C252.759 258.216 252.517 258.507 252.185 258.74C251.855 258.97 251.445 259.085 250.953 259.085C250.533 259.085 250.161 258.993 249.837 258.808C249.516 258.621 249.263 258.344 249.078 257.977C248.897 257.611 248.806 257.158 248.806 256.618V252.455H250.08V256.464C250.08 256.911 250.203 257.266 250.451 257.53C250.698 257.794 251.019 257.926 251.414 257.926C251.652 257.926 251.89 257.866 252.125 257.747C252.364 257.628 252.561 257.447 252.718 257.206C252.877 256.964 252.955 256.658 252.952 256.286ZM258.998 252.455V253.477H255.423V252.455H258.998ZM256.381 250.886H257.656V257.078C257.656 257.325 257.692 257.511 257.766 257.636C257.84 257.759 257.935 257.842 258.052 257.888C258.171 257.93 258.3 257.952 258.44 257.952C258.542 257.952 258.631 257.945 258.708 257.93C258.785 257.916 258.844 257.905 258.887 257.896L259.117 258.949C259.043 258.977 258.938 259.006 258.802 259.034C258.665 259.065 258.495 259.082 258.29 259.085C257.955 259.091 257.643 259.031 257.353 258.906C257.063 258.781 256.829 258.588 256.65 258.327C256.471 258.065 256.381 257.737 256.381 257.342V250.886ZM266.033 259.128C265.505 259.128 265.033 258.993 264.619 258.723C264.207 258.45 263.883 258.062 263.647 257.56C263.414 257.054 263.298 256.447 263.298 255.74C263.298 255.033 263.415 254.428 263.651 253.925C263.89 253.422 264.217 253.037 264.631 252.77C265.046 252.503 265.516 252.369 266.042 252.369C266.448 252.369 266.775 252.438 267.022 252.574C267.272 252.707 267.465 252.864 267.602 253.043C267.741 253.222 267.849 253.379 267.925 253.516H268.002V250.273H269.276V259H268.032V257.982H267.925C267.849 258.121 267.738 258.28 267.593 258.459C267.451 258.638 267.255 258.794 267.005 258.928C266.755 259.061 266.431 259.128 266.033 259.128ZM266.315 258.041C266.681 258.041 266.991 257.945 267.244 257.751C267.499 257.555 267.692 257.284 267.823 256.938C267.957 256.591 268.023 256.187 268.023 255.727C268.023 255.273 267.958 254.875 267.827 254.534C267.697 254.193 267.505 253.928 267.252 253.737C266.999 253.547 266.687 253.452 266.315 253.452C265.931 253.452 265.612 253.551 265.356 253.75C265.1 253.949 264.907 254.22 264.776 254.564C264.648 254.908 264.585 255.295 264.585 255.727C264.585 256.165 264.65 256.558 264.781 256.908C264.911 257.257 265.104 257.534 265.36 257.739C265.619 257.94 265.937 258.041 266.315 258.041ZM271.095 259V252.455H272.369V259H271.095ZM271.738 251.445C271.517 251.445 271.326 251.371 271.167 251.223C271.011 251.072 270.933 250.893 270.933 250.686C270.933 250.476 271.011 250.297 271.167 250.149C271.326 249.999 271.517 249.923 271.738 249.923C271.96 249.923 272.149 249.999 272.305 250.149C272.464 250.297 272.544 250.476 272.544 250.686C272.544 250.893 272.464 251.072 272.305 251.223C272.149 251.371 271.96 251.445 271.738 251.445ZM276.533 259.128C276.005 259.128 275.533 258.993 275.119 258.723C274.707 258.45 274.383 258.062 274.147 257.56C273.914 257.054 273.798 256.447 273.798 255.74C273.798 255.033 273.915 254.428 274.151 253.925C274.39 253.422 274.717 253.037 275.131 252.77C275.546 252.503 276.016 252.369 276.542 252.369C276.948 252.369 277.275 252.438 277.522 252.574C277.772 252.707 277.965 252.864 278.102 253.043C278.241 253.222 278.349 253.379 278.425 253.516H278.502V250.273H279.776V259H278.532V257.982H278.425C278.349 258.121 278.238 258.28 278.093 258.459C277.951 258.638 277.755 258.794 277.505 258.928C277.255 259.061 276.931 259.128 276.533 259.128ZM276.815 258.041C277.181 258.041 277.491 257.945 277.744 257.751C277.999 257.555 278.192 257.284 278.323 256.938C278.457 256.591 278.523 256.187 278.523 255.727C278.523 255.273 278.458 254.875 278.327 254.534C278.197 254.193 278.005 253.928 277.752 253.737C277.499 253.547 277.187 253.452 276.815 253.452C276.431 253.452 276.112 253.551 275.856 253.75C275.6 253.949 275.407 254.22 275.276 254.564C275.148 254.908 275.085 255.295 275.085 255.727C275.085 256.165 275.15 256.558 275.281 256.908C275.411 257.257 275.604 257.534 275.86 257.739C276.119 257.94 276.437 258.041 276.815 258.041ZM282.869 255.114V259H281.595V252.455H282.818V253.52H282.899C283.049 253.173 283.285 252.895 283.606 252.685C283.93 252.474 284.338 252.369 284.829 252.369C285.275 252.369 285.666 252.463 286.001 252.651C286.336 252.835 286.596 253.111 286.781 253.477C286.966 253.844 287.058 254.297 287.058 254.837V259H285.784V254.99C285.784 254.516 285.66 254.145 285.413 253.878C285.166 253.608 284.826 253.473 284.395 253.473C284.099 253.473 283.836 253.537 283.606 253.665C283.379 253.793 283.199 253.98 283.065 254.227C282.934 254.472 282.869 254.767 282.869 255.114ZM289.862 250.273V251.091C289.862 251.332 289.816 251.587 289.725 251.854C289.637 252.118 289.512 252.372 289.35 252.616C289.189 252.861 288.998 253.071 288.779 253.247L288.149 252.795C288.316 252.551 288.461 252.291 288.583 252.016C288.708 251.74 288.771 251.436 288.771 251.104V250.273H289.862ZM294.4 252.455V253.477H290.825V252.455H294.4ZM291.784 250.886H293.058V257.078C293.058 257.325 293.095 257.511 293.169 257.636C293.243 257.759 293.338 257.842 293.454 257.888C293.574 257.93 293.703 257.952 293.842 257.952C293.944 257.952 294.034 257.945 294.11 257.93C294.187 257.916 294.247 257.905 294.289 257.896L294.52 258.949C294.446 258.977 294.341 259.006 294.204 259.034C294.068 259.065 293.897 259.082 293.693 259.085C293.358 259.091 293.045 259.031 292.755 258.906C292.466 258.781 292.231 258.588 292.052 258.327C291.873 258.065 291.784 257.737 291.784 257.342V250.886ZM46.9716 267.455V268.477H43.2727V267.455H46.9716ZM44.2869 274V266.696C44.2869 266.287 44.3764 265.947 44.5554 265.678C44.7344 265.405 44.9716 265.202 45.267 265.068C45.5625 264.932 45.8835 264.864 46.2301 264.864C46.4858 264.864 46.7045 264.885 46.8864 264.928C47.0682 264.967 47.2031 265.004 47.2912 265.038L46.9929 266.07C46.9332 266.053 46.8565 266.033 46.7628 266.01C46.669 265.984 46.5554 265.972 46.4219 265.972C46.1122 265.972 45.8906 266.048 45.7571 266.202C45.6264 266.355 45.5611 266.577 45.5611 266.866V274H44.2869ZM48.2862 274V267.455H49.5604V274H48.2862ZM48.9297 266.445C48.7081 266.445 48.5178 266.371 48.3587 266.223C48.2024 266.072 48.1243 265.893 48.1243 265.686C48.1243 265.476 48.2024 265.297 48.3587 265.149C48.5178 264.999 48.7081 264.923 48.9297 264.923C49.1513 264.923 49.3402 264.999 49.4964 265.149C49.6555 265.297 49.7351 265.476 49.7351 265.686C49.7351 265.893 49.6555 266.072 49.4964 266.223C49.3402 266.371 49.1513 266.445 48.9297 266.445ZM52.5487 270.114V274H51.2745V267.455H52.4975V268.52H52.5785C52.729 268.173 52.9648 267.895 53.2859 267.685C53.6097 267.474 54.0174 267.369 54.5089 267.369C54.9549 267.369 55.3455 267.463 55.6808 267.651C56.016 267.835 56.2759 268.111 56.4606 268.477C56.6452 268.844 56.7376 269.297 56.7376 269.837V274H55.4634V269.99C55.4634 269.516 55.3398 269.145 55.0927 268.878C54.8455 268.608 54.506 268.473 54.0742 268.473C53.7788 268.473 53.516 268.537 53.2859 268.665C53.0586 268.793 52.8782 268.98 52.7447 269.227C52.614 269.472 52.5487 269.767 52.5487 270.114ZM60.8967 274.128C60.3683 274.128 59.8967 273.993 59.4819 273.723C59.07 273.45 58.7461 273.062 58.5103 272.56C58.2773 272.054 58.1609 271.447 58.1609 270.74C58.1609 270.033 58.2788 269.428 58.5146 268.925C58.7532 268.422 59.0799 268.037 59.4947 267.77C59.9094 267.503 60.3796 267.369 60.9052 267.369C61.3114 267.369 61.6381 267.438 61.8853 267.574C62.1353 267.707 62.3285 267.864 62.4648 268.043C62.604 268.222 62.712 268.379 62.7887 268.516H62.8654V265.273H64.1396V274H62.8952V272.982H62.7887C62.712 273.121 62.6012 273.28 62.4563 273.459C62.3143 273.638 62.1183 273.794 61.8683 273.928C61.6183 274.061 61.2944 274.128 60.8967 274.128ZM61.1779 273.041C61.5444 273.041 61.854 272.945 62.1069 272.751C62.3626 272.555 62.5558 272.284 62.6864 271.938C62.82 271.591 62.8867 271.187 62.8867 270.727C62.8867 270.273 62.8214 269.875 62.6907 269.534C62.56 269.193 62.3683 268.928 62.1154 268.737C61.8626 268.547 61.5501 268.452 61.1779 268.452C60.7944 268.452 60.4748 268.551 60.2191 268.75C59.9634 268.949 59.7702 269.22 59.6396 269.564C59.5117 269.908 59.4478 270.295 59.4478 270.727C59.4478 271.165 59.5131 271.558 59.6438 271.908C59.7745 272.257 59.9677 272.534 60.2234 272.739C60.4819 272.94 60.8001 273.041 61.1779 273.041ZM71.891 274.132C71.2773 274.132 70.7418 273.991 70.2844 273.71C69.8271 273.429 69.4719 273.036 69.2191 272.53C68.9663 272.024 68.8398 271.433 68.8398 270.757C68.8398 270.078 68.9663 269.484 69.2191 268.976C69.4719 268.467 69.8271 268.072 70.2844 267.791C70.7418 267.51 71.2773 267.369 71.891 267.369C72.5046 267.369 73.0401 267.51 73.4975 267.791C73.9549 268.072 74.31 268.467 74.5629 268.976C74.8157 269.484 74.9421 270.078 74.9421 270.757C74.9421 271.433 74.8157 272.024 74.5629 272.53C74.31 273.036 73.9549 273.429 73.4975 273.71C73.0401 273.991 72.5046 274.132 71.891 274.132ZM71.8952 273.062C72.293 273.062 72.6225 272.957 72.8839 272.747C73.1452 272.537 73.3384 272.257 73.4634 271.908C73.5913 271.558 73.6552 271.173 73.6552 270.753C73.6552 270.335 73.5913 269.952 73.4634 269.602C73.3384 269.25 73.1452 268.967 72.8839 268.754C72.6225 268.541 72.293 268.435 71.8952 268.435C71.4947 268.435 71.1623 268.541 70.8981 268.754C70.6367 268.967 70.4421 269.25 70.3143 269.602C70.1893 269.952 70.1268 270.335 70.1268 270.753C70.1268 271.173 70.1893 271.558 70.3143 271.908C70.4421 272.257 70.6367 272.537 70.8981 272.747C71.1623 272.957 71.4947 273.062 71.8952 273.062ZM77.6385 270.114V274H76.3643V267.455H77.5874V268.52H77.6683C77.8189 268.173 78.0547 267.895 78.3757 267.685C78.6996 267.474 79.1072 267.369 79.5987 267.369C80.0447 267.369 80.4354 267.463 80.7706 267.651C81.1058 267.835 81.3658 268.111 81.5504 268.477C81.7351 268.844 81.8274 269.297 81.8274 269.837V274H80.5533V269.99C80.5533 269.516 80.4297 269.145 80.1825 268.878C79.9354 268.608 79.5959 268.473 79.1641 268.473C78.8686 268.473 78.6058 268.537 78.3757 268.665C78.1484 268.793 77.968 268.98 77.8345 269.227C77.7038 269.472 77.6385 269.767 77.6385 270.114ZM86.3572 274.132C85.7124 274.132 85.157 273.994 84.6911 273.719C84.228 273.44 83.87 273.05 83.6172 272.547C83.3672 272.041 83.2422 271.449 83.2422 270.77C83.2422 270.099 83.3672 269.509 83.6172 268.997C83.87 268.486 84.2223 268.087 84.674 267.8C85.1286 267.513 85.6598 267.369 86.2678 267.369C86.6371 267.369 86.995 267.43 87.3416 267.553C87.6882 267.675 87.9993 267.866 88.2749 268.128C88.5504 268.389 88.7678 268.729 88.9268 269.146C89.0859 269.561 89.1655 270.065 89.1655 270.659V271.111H83.9624V270.156H87.9169C87.9169 269.821 87.8487 269.524 87.7124 269.266C87.576 269.004 87.3842 268.798 87.1371 268.648C86.8928 268.497 86.6058 268.422 86.2763 268.422C85.9183 268.422 85.6058 268.51 85.3388 268.686C85.0746 268.859 84.87 269.087 84.7251 269.368C84.5831 269.646 84.5121 269.949 84.5121 270.276V271.021C84.5121 271.459 84.5888 271.831 84.7422 272.138C84.8984 272.445 85.1158 272.679 85.3942 272.841C85.6726 273 85.9979 273.08 86.37 273.08C86.6115 273.08 86.8317 273.045 87.0305 272.977C87.2294 272.906 87.4013 272.801 87.5462 272.662C87.6911 272.523 87.8018 272.351 87.8786 272.146L89.0845 272.364C88.9879 272.719 88.8146 273.03 88.5646 273.297C88.3175 273.561 88.0064 273.767 87.6314 273.915C87.2592 274.06 86.8345 274.132 86.3572 274.132ZM91.4187 274.081C91.1857 274.081 90.9854 273.999 90.8178 273.834C90.6502 273.666 90.5664 273.464 90.5664 273.229C90.5664 272.996 90.6502 272.797 90.8178 272.632C90.9854 272.464 91.1857 272.381 91.4187 272.381C91.6516 272.381 91.8519 272.464 92.0195 272.632C92.1871 272.797 92.271 272.996 92.271 273.229C92.271 273.385 92.2312 273.528 92.1516 273.659C92.0749 273.787 91.9727 273.889 91.8448 273.966C91.717 274.043 91.5749 274.081 91.4187 274.081ZM94.8171 274.081C94.5842 274.081 94.3839 273.999 94.2163 273.834C94.0487 273.666 93.9648 273.464 93.9648 273.229C93.9648 272.996 94.0487 272.797 94.2163 272.632C94.3839 272.464 94.5842 272.381 94.8171 272.381C95.0501 272.381 95.2504 272.464 95.418 272.632C95.5856 272.797 95.6694 272.996 95.6694 273.229C95.6694 273.385 95.6296 273.528 95.5501 273.659C95.4734 273.787 95.3711 273.889 95.2433 273.966C95.1154 274.043 94.9734 274.081 94.8171 274.081ZM98.2156 274.081C97.9826 274.081 97.7823 273.999 97.6147 273.834C97.4471 273.666 97.3633 273.464 97.3633 273.229C97.3633 272.996 97.4471 272.797 97.6147 272.632C97.7823 272.464 97.9826 272.381 98.2156 272.381C98.4485 272.381 98.6488 272.464 98.8164 272.632C98.984 272.797 99.0678 272.996 99.0678 273.229C99.0678 273.385 99.0281 273.528 98.9485 273.659C98.8718 273.787 98.7695 273.889 98.6417 273.966C98.5138 274.043 98.3718 274.081 98.2156 274.081Z" fill="#7C7C7C"/>
</g>
</g>
<defs>
<filter id="filter0_n_99_7129" x="0" y="0" width="393" height="852" filterUnits="userSpaceOnUse" color-interpolation-filters="sRGB">
<feFlood flood-opacity="0" result="BackgroundImageFix"/>
<feBlend mode="normal" in="SourceGraphic" in2="BackgroundImageFix" result="shape"/>
<feTurbulence type="fractalNoise" baseFrequency="2.5 2.5" stitchTiles="stitch" numOctaves="3" result="noise" seed="3191" />
<feColorMatrix in="noise" type="luminanceToAlpha" result="alphaNoise" />
<feComponentTransfer in="alphaNoise" result="coloredNoise1">
<feFuncA type="discrete" tableValues="1 1 1 1 1 1 1 1 1 1 1 1 1 1 1 1 1 1 1 1 1 1 1 1 1 1 1 1 1 1 1 1 1 1 1 1 1 1 1 1 1 1 1 1 1 1 1 1 1 1 1 0 0 0 0 0 0 0 0 0 0 0 0 0 0 0 0 0 0 0 0 0 0 0 0 0 0 0 0 0 0 0 0 0 0 0 0 0 0 0 0 0 0 0 0 0 0 0 0 0 "/>
</feComponentTransfer>
<feComposite operator="in" in2="shape" in="coloredNoise1" result="noise1Clipped" />
<feFlood flood-color="rgba(245, 245, 245, 0.28)" result="color1Flood" />
<feComposite operator="in" in2="noise1Clipped" in="color1Flood" result="color1" />
<feMerge result="effect1_noise_99_7129">
<feMergeNode in="shape" />
<feMergeNode in="color1" />
</feMerge>
</filter>
<linearGradient id="paint0_linear_99_7129" x1="-14" y1="-82" x2="228" y2="868" gradientUnits="userSpaceOnUse">
<stop stop-color="#D8FACB"/>
<stop offset="0.5" stop-color="#A9FAA2"/>
<stop offset="0.75" stop-color="#9DF6A2"/>
<stop offset="1" stop-color="#A7F2D2"/>
</linearGradient>
<clipPath id="clip0_99_7129">
<rect width="393" height="852" fill="white"/>
</clipPath>
</defs>
</svg>
