<svg width="417" height="876" viewBox="0 0 417 876" fill="none" xmlns="http://www.w3.org/2000/svg">
<g filter="url(#filter0_n_106_8374)">
<rect width="417" height="876" rx="50" fill="url(#paint0_linear_106_8374)"/>
</g>
<g clip-path="url(#clip0_106_8374)">
<rect x="12" y="12" width="393" height="852" rx="40" fill="white"/>
<rect x="37" y="766" width="343.707" height="52" rx="26" fill="#F7F8FA"/>
<path d="M100.941 797.488H99.5356L103.6 786.42H104.984L109.048 797.488H107.643L104.335 788.171H104.248L100.941 797.488ZM101.46 793.165H107.124V794.354H101.46V793.165ZM116.479 791.046L115.333 791.37C115.261 791.179 115.155 790.994 115.015 790.814C114.878 790.63 114.69 790.478 114.452 790.36C114.215 790.241 113.91 790.181 113.539 790.181C113.031 790.181 112.608 790.298 112.269 790.532C111.934 790.763 111.766 791.057 111.766 791.413C111.766 791.731 111.882 791.981 112.112 792.165C112.343 792.348 112.703 792.502 113.193 792.624L114.425 792.927C115.168 793.107 115.721 793.383 116.085 793.754C116.449 794.121 116.631 794.595 116.631 795.175C116.631 795.651 116.494 796.076 116.22 796.451C115.95 796.825 115.571 797.121 115.085 797.337C114.598 797.553 114.033 797.661 113.388 797.661C112.541 797.661 111.84 797.477 111.285 797.11C110.73 796.742 110.379 796.206 110.231 795.499L111.442 795.197C111.557 795.643 111.775 795.979 112.096 796.202C112.42 796.425 112.844 796.537 113.366 796.537C113.961 796.537 114.433 796.411 114.782 796.159C115.135 795.903 115.312 795.597 115.312 795.24C115.312 794.952 115.211 794.71 115.009 794.516C114.807 794.318 114.498 794.17 114.08 794.073L112.696 793.748C111.936 793.568 111.377 793.289 111.021 792.911C110.667 792.529 110.491 792.051 110.491 791.478C110.491 791.01 110.622 790.596 110.885 790.235C111.152 789.875 111.514 789.592 111.972 789.387C112.433 789.181 112.955 789.079 113.539 789.079C114.361 789.079 115.006 789.259 115.474 789.619C115.946 789.979 116.281 790.455 116.479 791.046ZM119.74 794.462L119.718 792.884H119.977L123.609 789.187H125.187L121.318 793.1H121.21L119.74 794.462ZM118.551 797.488V786.42H119.826V797.488H118.551ZM123.825 797.488L120.583 793.381L121.491 792.494L125.447 797.488H123.825ZM132.385 792.494V797.488H131.11V786.42H132.385V790.484H132.493C132.688 790.055 132.98 789.715 133.369 789.462C133.762 789.207 134.284 789.079 134.936 789.079C135.502 789.079 135.997 789.192 136.422 789.419C136.848 789.643 137.177 789.987 137.411 790.451C137.649 790.913 137.768 791.5 137.768 792.213V797.488H136.493V792.3C136.493 791.64 136.322 791.131 135.979 790.77C135.641 790.406 135.17 790.224 134.569 790.224C134.151 790.224 133.776 790.313 133.444 790.489C133.117 790.666 132.857 790.923 132.666 791.262C132.479 791.601 132.385 792.012 132.385 792.494ZM143.582 797.661C142.782 797.661 142.092 797.485 141.512 797.132C140.936 796.775 140.491 796.278 140.177 795.64C139.867 794.999 139.712 794.253 139.712 793.402C139.712 792.552 139.867 791.803 140.177 791.154C140.491 790.502 140.927 789.994 141.485 789.63C142.047 789.262 142.703 789.079 143.453 789.079C143.885 789.079 144.312 789.151 144.733 789.295C145.155 789.439 145.539 789.673 145.885 789.997C146.23 790.318 146.506 790.743 146.712 791.273C146.917 791.803 147.02 792.455 147.02 793.229V793.77H140.62V792.667H145.722C145.722 792.199 145.629 791.781 145.441 791.413C145.258 791.046 144.995 790.756 144.652 790.543C144.314 790.331 143.914 790.224 143.453 790.224C142.944 790.224 142.505 790.351 142.134 790.603C141.766 790.851 141.483 791.176 141.285 791.576C141.087 791.976 140.988 792.404 140.988 792.862V793.597C140.988 794.224 141.096 794.755 141.312 795.191C141.532 795.624 141.837 795.953 142.226 796.18C142.615 796.404 143.067 796.515 143.582 796.515C143.917 796.515 144.22 796.469 144.49 796.375C144.764 796.278 145 796.134 145.198 795.943C145.396 795.748 145.55 795.507 145.658 795.218L146.89 795.564C146.76 795.982 146.542 796.35 146.236 796.667C145.93 796.98 145.551 797.225 145.101 797.402C144.651 797.575 144.144 797.661 143.582 797.661ZM148.96 797.488V789.187H150.192V790.441H150.279C150.43 790.03 150.704 789.697 151.1 789.441C151.496 789.185 151.943 789.057 152.44 789.057C152.534 789.057 152.651 789.059 152.792 789.062C152.932 789.066 153.039 789.071 153.111 789.079V790.376C153.067 790.365 152.968 790.349 152.813 790.327C152.662 790.302 152.502 790.289 152.332 790.289C151.929 790.289 151.568 790.374 151.251 790.543C150.938 790.709 150.689 790.94 150.506 791.235C150.325 791.527 150.235 791.86 150.235 792.235V797.488H148.96ZM161.346 797.683C160.82 797.683 160.343 797.584 159.914 797.386C159.485 797.184 159.144 796.894 158.892 796.515C158.64 796.134 158.514 795.672 158.514 795.132C158.514 794.656 158.608 794.271 158.795 793.975C158.982 793.676 159.233 793.442 159.546 793.273C159.86 793.103 160.206 792.977 160.584 792.894C160.966 792.808 161.35 792.739 161.735 792.689C162.24 792.624 162.648 792.575 162.962 792.543C163.279 792.507 163.51 792.448 163.654 792.365C163.801 792.282 163.875 792.138 163.875 791.932V791.889C163.875 791.356 163.729 790.941 163.438 790.646C163.149 790.351 162.712 790.203 162.124 790.203C161.515 790.203 161.038 790.336 160.692 790.603C160.346 790.869 160.103 791.154 159.962 791.457L158.752 791.024C158.968 790.52 159.256 790.127 159.616 789.846C159.98 789.561 160.377 789.363 160.806 789.252C161.238 789.136 161.663 789.079 162.081 789.079C162.348 789.079 162.654 789.111 163 789.176C163.349 789.237 163.686 789.365 164.01 789.56C164.338 789.754 164.61 790.048 164.827 790.441C165.043 790.833 165.151 791.359 165.151 792.019V797.488H163.875V796.364H163.81C163.724 796.544 163.58 796.737 163.378 796.942C163.176 797.148 162.908 797.323 162.573 797.467C162.238 797.611 161.829 797.683 161.346 797.683ZM161.541 796.537C162.045 796.537 162.47 796.438 162.816 796.24C163.166 796.042 163.429 795.786 163.605 795.472C163.785 795.159 163.875 794.829 163.875 794.483V793.316C163.821 793.381 163.702 793.44 163.519 793.494C163.338 793.545 163.13 793.59 162.892 793.629C162.658 793.665 162.429 793.698 162.205 793.727C161.986 793.752 161.807 793.773 161.67 793.791C161.339 793.835 161.029 793.905 160.741 794.002C160.456 794.096 160.225 794.238 160.049 794.429C159.876 794.617 159.789 794.872 159.789 795.197C159.789 795.64 159.953 795.975 160.281 796.202C160.613 796.425 161.033 796.537 161.541 796.537ZM168.754 792.494V797.488H167.479V789.187H168.711V790.484H168.819C169.014 790.062 169.309 789.724 169.706 789.468C170.102 789.208 170.614 789.079 171.241 789.079C171.803 789.079 172.294 789.194 172.716 789.425C173.138 789.652 173.465 789.997 173.7 790.462C173.934 790.923 174.051 791.507 174.051 792.213V797.488H172.775V792.3C172.775 791.648 172.606 791.14 172.267 790.776C171.929 790.408 171.464 790.224 170.873 790.224C170.466 790.224 170.102 790.313 169.781 790.489C169.464 790.666 169.214 790.923 169.03 791.262C168.846 791.601 168.754 792.012 168.754 792.494ZM176.906 800.601C176.69 800.601 176.497 800.583 176.328 800.547C176.158 800.515 176.041 800.482 175.976 800.45L176.301 799.326C176.611 799.405 176.884 799.434 177.122 799.412C177.36 799.391 177.571 799.284 177.755 799.093C177.942 798.906 178.113 798.602 178.268 798.18L178.506 797.532L175.436 789.187H176.819L179.111 795.802H179.198L181.489 789.187H182.873L179.349 798.699C179.19 799.128 178.994 799.483 178.76 799.764C178.526 800.048 178.254 800.259 177.944 800.396C177.637 800.533 177.292 800.601 176.906 800.601ZM188.167 789.187V790.268H183.864V789.187H188.167ZM185.118 787.198H186.394V795.11C186.394 795.471 186.446 795.741 186.551 795.921C186.659 796.097 186.796 796.216 186.961 796.278C187.131 796.335 187.309 796.364 187.496 796.364C187.637 796.364 187.752 796.357 187.842 796.342C187.932 796.324 188.004 796.31 188.058 796.299L188.318 797.445C188.231 797.477 188.111 797.51 187.956 797.542C187.801 797.578 187.604 797.596 187.367 797.596C187.006 797.596 186.653 797.519 186.307 797.364C185.965 797.209 185.68 796.973 185.453 796.656C185.23 796.339 185.118 795.939 185.118 795.456V787.198ZM191.539 792.494V797.488H190.264V786.42H191.539V790.484H191.647C191.842 790.055 192.134 789.715 192.523 789.462C192.915 789.207 193.438 789.079 194.09 789.079C194.656 789.079 195.151 789.192 195.576 789.419C196.002 789.643 196.331 789.987 196.565 790.451C196.803 790.913 196.922 791.5 196.922 792.213V797.488H195.647V792.3C195.647 791.64 195.475 791.131 195.133 790.77C194.794 790.406 194.324 790.224 193.723 790.224C193.305 790.224 192.93 790.313 192.598 790.489C192.271 790.666 192.011 790.923 191.82 791.262C191.633 791.601 191.539 792.012 191.539 792.494ZM199.256 797.488V789.187H200.531V797.488H199.256ZM199.904 787.803C199.656 787.803 199.441 787.718 199.261 787.549C199.084 787.38 198.996 787.176 198.996 786.938C198.996 786.701 199.084 786.497 199.261 786.328C199.441 786.158 199.656 786.074 199.904 786.074C200.153 786.074 200.365 786.158 200.542 786.328C200.722 786.497 200.812 786.701 200.812 786.938C200.812 787.176 200.722 787.38 200.542 787.549C200.365 787.718 200.153 787.803 199.904 787.803ZM204.143 792.494V797.488H202.867V789.187H204.1V790.484H204.208C204.402 790.062 204.698 789.724 205.094 789.468C205.49 789.208 206.002 789.079 206.629 789.079C207.191 789.079 207.683 789.194 208.104 789.425C208.526 789.652 208.854 789.997 209.088 790.462C209.322 790.923 209.439 791.507 209.439 792.213V797.488H208.164V792.3C208.164 791.648 207.994 791.14 207.656 790.776C207.317 790.408 206.852 790.224 206.261 790.224C205.854 790.224 205.49 790.313 205.17 790.489C204.853 790.666 204.602 790.923 204.418 791.262C204.235 791.601 204.143 792.012 204.143 792.494ZM215.121 800.774C214.505 800.774 213.975 800.695 213.532 800.537C213.089 800.382 212.719 800.176 212.424 799.92C212.132 799.668 211.9 799.398 211.727 799.11L212.743 798.396C212.858 798.548 213.004 798.721 213.181 798.915C213.357 799.113 213.599 799.284 213.905 799.429C214.215 799.576 214.62 799.65 215.121 799.65C215.791 799.65 216.344 799.488 216.78 799.164C217.216 798.839 217.434 798.331 217.434 797.64V795.953H217.326C217.232 796.105 217.099 796.292 216.926 796.515C216.757 796.735 216.512 796.932 216.191 797.105C215.874 797.274 215.445 797.359 214.905 797.359C214.235 797.359 213.633 797.2 213.1 796.883C212.57 796.566 212.15 796.105 211.84 795.499C211.534 794.894 211.381 794.159 211.381 793.294C211.381 792.444 211.53 791.703 211.83 791.073C212.129 790.439 212.545 789.949 213.078 789.603C213.611 789.253 214.227 789.079 214.926 789.079C215.467 789.079 215.896 789.169 216.213 789.349C216.533 789.525 216.778 789.727 216.948 789.954C217.121 790.178 217.254 790.361 217.348 790.505H217.477V789.187H218.71V797.726C218.71 798.44 218.547 799.02 218.223 799.466C217.903 799.917 217.47 800.246 216.926 800.455C216.386 800.668 215.784 800.774 215.121 800.774ZM215.078 796.213C215.589 796.213 216.022 796.096 216.375 795.861C216.728 795.627 216.996 795.29 217.18 794.851C217.364 794.411 217.456 793.885 217.456 793.273C217.456 792.675 217.366 792.147 217.186 791.689C217.005 791.231 216.739 790.873 216.386 790.614C216.033 790.354 215.597 790.224 215.078 790.224C214.537 790.224 214.087 790.361 213.727 790.635C213.37 790.909 213.101 791.277 212.921 791.738C212.745 792.199 212.656 792.711 212.656 793.273C212.656 793.849 212.747 794.359 212.927 794.802C213.11 795.242 213.381 795.588 213.737 795.84C214.098 796.088 214.544 796.213 215.078 796.213ZM221.974 797.575C221.707 797.575 221.479 797.479 221.288 797.288C221.097 797.097 221.001 796.869 221.001 796.602C221.001 796.335 221.097 796.106 221.288 795.916C221.479 795.725 221.707 795.629 221.974 795.629C222.241 795.629 222.469 795.725 222.66 795.916C222.851 796.106 222.947 796.335 222.947 796.602C222.947 796.778 222.902 796.941 222.812 797.088C222.725 797.236 222.608 797.355 222.46 797.445C222.316 797.532 222.154 797.575 221.974 797.575ZM226.165 797.575C225.899 797.575 225.67 797.479 225.479 797.288C225.288 797.097 225.193 796.869 225.193 796.602C225.193 796.335 225.288 796.106 225.479 795.916C225.67 795.725 225.899 795.629 226.165 795.629C226.432 795.629 226.661 795.725 226.852 795.916C227.043 796.106 227.138 796.335 227.138 796.602C227.138 796.778 227.093 796.941 227.003 797.088C226.917 797.236 226.8 797.355 226.652 797.445C226.508 797.532 226.346 797.575 226.165 797.575ZM230.357 797.575C230.09 797.575 229.861 797.479 229.67 797.288C229.479 797.097 229.384 796.869 229.384 796.602C229.384 796.335 229.479 796.106 229.67 795.916C229.861 795.725 230.09 795.629 230.357 795.629C230.623 795.629 230.852 795.725 231.043 795.916C231.234 796.106 231.33 796.335 231.33 796.602C231.33 796.778 231.284 796.941 231.194 797.088C231.108 797.236 230.991 797.355 230.843 797.445C230.699 797.532 230.537 797.575 230.357 797.575Z" fill="#B4B4B4"/>
<circle cx="353.439" cy="792" r="18.3902" fill="#B7FFA2"/>
<g clip-path="url(#clip1_106_8374)">
<path d="M358.547 790.979C358.547 793.798 356.259 796.087 353.439 796.087C350.619 796.087 348.33 793.798 348.33 790.979H346.287C346.287 794.585 348.954 797.548 352.417 798.049V801.195H354.461V798.049C357.924 797.548 360.591 794.585 360.591 790.979H358.547V790.979Z" fill="black"/>
<path d="M353.438 794.043C355.134 794.043 356.503 792.674 356.503 790.978V784.848C356.503 783.152 355.134 781.783 353.438 781.783C351.742 781.783 350.373 783.152 350.373 784.848V790.978C350.373 792.674 351.742 794.043 353.438 794.043ZM352.416 784.848C352.416 784.286 352.876 783.827 353.438 783.827C354 783.827 354.46 784.286 354.46 784.848V790.978C354.46 791.54 354 792 353.438 792C352.876 792 352.416 791.54 352.416 790.978V784.848Z" fill="black"/>
<path d="M353.438 794.043C355.134 794.043 356.503 792.674 356.503 790.978V784.848C356.503 783.152 355.134 781.783 353.438 781.783C351.742 781.783 350.373 783.152 350.373 784.848V790.978C350.373 792.674 351.742 794.043 353.438 794.043Z" fill="black"/>
</g>
<circle cx="64.2691" cy="793.269" r="18.3902" fill="white"/>
<path d="M63.8357 800.537V786.852H65.6841V800.537H63.8357ZM57.9122 794.613V792.776H71.6076V794.613H57.9122Z" fill="black"/>
<rect x="42" y="697" width="123" height="55" rx="10" fill="#F7F8FA"/>
<path d="M56.1186 720V709.818H62.4325V711.141H57.6548V714.243H61.9801V715.56H57.6548V720H56.1186ZM64.2024 720V712.364H65.6889V720H64.2024ZM64.9531 711.185C64.6946 711.185 64.4725 711.099 64.2869 710.927C64.1046 710.751 64.0135 710.542 64.0135 710.3C64.0135 710.055 64.1046 709.846 64.2869 709.674C64.4725 709.498 64.6946 709.411 64.9531 709.411C65.2116 709.411 65.4321 709.498 65.6143 709.674C65.8 709.846 65.8928 710.055 65.8928 710.3C65.8928 710.542 65.8 710.751 65.6143 710.927C65.4321 711.099 65.2116 711.185 64.9531 711.185ZM68.862 712.364L70.5474 715.337L72.2477 712.364H73.8734L71.492 716.182L73.8933 720H72.2676L70.5474 717.146L68.8322 720H67.2015L69.5779 716.182L67.2314 712.364H68.862ZM79.1048 720V712.364H80.5316V713.607H80.6261C80.7852 713.186 81.0453 712.857 81.4066 712.622C81.7679 712.384 82.2004 712.264 82.7042 712.264C83.2146 712.264 83.6422 712.384 83.9869 712.622C84.3349 712.861 84.5917 713.189 84.7575 713.607H84.837C85.0193 713.199 85.3093 712.874 85.707 712.632C86.1048 712.387 86.5787 712.264 87.1289 712.264C87.8216 712.264 88.3867 712.481 88.8242 712.915C89.265 713.35 89.4854 714.004 89.4854 714.879V720H87.9989V715.018C87.9989 714.501 87.8581 714.127 87.5763 713.895C87.2946 713.663 86.9582 713.547 86.5671 713.547C86.0832 713.547 85.707 713.696 85.4386 713.994C85.1701 714.289 85.0359 714.669 85.0359 715.133V720H83.5543V714.924C83.5543 714.51 83.4251 714.177 83.1665 713.925C82.908 713.673 82.5716 713.547 82.1573 713.547C81.8756 713.547 81.6154 713.621 81.3768 713.771C81.1415 713.916 80.9509 714.12 80.805 714.382C80.6625 714.644 80.5913 714.947 80.5913 715.292V720H79.1048ZM92.144 722.864C91.9219 722.864 91.7198 722.845 91.5375 722.809C91.3552 722.776 91.2193 722.739 91.1298 722.7L91.4877 721.482C91.7595 721.554 92.0015 721.586 92.2136 721.576C92.4257 721.566 92.613 721.487 92.7754 721.337C92.9411 721.188 93.0869 720.945 93.2129 720.607L93.3968 720.099L90.6028 712.364H92.1937L94.1277 718.29H94.2072L96.1412 712.364H97.737L94.59 721.019C94.4442 721.417 94.2586 721.753 94.0332 722.028C93.8078 722.307 93.5394 722.516 93.2278 722.655C92.9163 722.794 92.555 722.864 92.144 722.864ZM106.13 720.154C105.378 720.154 104.73 719.993 104.186 719.672C103.646 719.347 103.229 718.891 102.934 718.305C102.642 717.715 102.496 717.024 102.496 716.232C102.496 715.449 102.642 714.76 102.934 714.163C103.229 713.567 103.64 713.101 104.167 712.766C104.697 712.432 105.317 712.264 106.026 712.264C106.457 712.264 106.874 712.335 107.279 712.478C107.683 712.621 108.046 712.844 108.368 713.149C108.689 713.454 108.943 713.85 109.128 714.337C109.314 714.821 109.407 715.41 109.407 716.102V716.629H103.336V715.516H107.95C107.95 715.125 107.87 714.778 107.711 714.477C107.552 714.172 107.328 713.931 107.04 713.756C106.755 713.58 106.42 713.492 106.036 713.492C105.618 713.492 105.254 713.595 104.942 713.8C104.634 714.003 104.395 714.268 104.226 714.596C104.06 714.921 103.978 715.274 103.978 715.655V716.525C103.978 717.035 104.067 717.469 104.246 717.827C104.428 718.185 104.682 718.459 105.007 718.648C105.332 718.833 105.711 718.926 106.145 718.926C106.427 718.926 106.684 718.886 106.916 718.807C107.148 718.724 107.348 718.601 107.517 718.439C107.686 718.277 107.816 718.076 107.905 717.837L109.312 718.091C109.199 718.505 108.997 718.868 108.706 719.18C108.417 719.488 108.054 719.728 107.617 719.901C107.183 720.07 106.687 720.154 106.13 720.154ZM111.056 720V712.364H112.493V713.577H112.572C112.711 713.166 112.957 712.843 113.308 712.607C113.663 712.369 114.064 712.249 114.511 712.249C114.604 712.249 114.713 712.253 114.839 712.259C114.969 712.266 115.07 712.274 115.143 712.284V713.706C115.083 713.689 114.977 713.671 114.824 713.651C114.672 713.628 114.519 713.616 114.367 713.616C114.016 713.616 113.702 713.691 113.427 713.84C113.156 713.986 112.94 714.19 112.781 714.452C112.622 714.71 112.542 715.005 112.542 715.337V720H111.056ZM116.429 720V712.364H117.866V713.577H117.945C118.085 713.166 118.33 712.843 118.681 712.607C119.036 712.369 119.437 712.249 119.884 712.249C119.977 712.249 120.086 712.253 120.212 712.259C120.342 712.266 120.443 712.274 120.516 712.284V713.706C120.456 713.689 120.35 713.671 120.197 713.651C120.045 713.628 119.893 713.616 119.74 713.616C119.389 713.616 119.076 713.691 118.8 713.84C118.529 713.986 118.313 714.19 118.154 714.452C117.995 714.71 117.915 715.005 117.915 715.337V720H116.429ZM124.745 720.154C124.029 720.154 123.405 719.99 122.871 719.662C122.337 719.334 121.923 718.875 121.628 718.285C121.333 717.695 121.186 717.005 121.186 716.217C121.186 715.424 121.333 714.732 121.628 714.138C121.923 713.545 122.337 713.085 122.871 712.756C123.405 712.428 124.029 712.264 124.745 712.264C125.461 712.264 126.086 712.428 126.619 712.756C127.153 713.085 127.567 713.545 127.862 714.138C128.157 714.732 128.305 715.424 128.305 716.217C128.305 717.005 128.157 717.695 127.862 718.285C127.567 718.875 127.153 719.334 126.619 719.662C126.086 719.99 125.461 720.154 124.745 720.154ZM124.75 718.906C125.214 718.906 125.599 718.784 125.904 718.538C126.209 718.293 126.434 717.967 126.58 717.559C126.729 717.151 126.803 716.702 126.803 716.212C126.803 715.724 126.729 715.277 126.58 714.869C126.434 714.458 126.209 714.129 125.904 713.88C125.599 713.631 125.214 713.507 124.75 713.507C124.283 713.507 123.895 713.631 123.587 713.88C123.282 714.129 123.055 714.458 122.906 714.869C122.76 715.277 122.687 715.724 122.687 716.212C122.687 716.702 122.76 717.151 122.906 717.559C123.055 717.967 123.282 718.293 123.587 718.538C123.895 718.784 124.283 718.906 124.75 718.906ZM129.964 720V712.364H131.401V713.577H131.48C131.62 713.166 131.865 712.843 132.216 712.607C132.571 712.369 132.972 712.249 133.419 712.249C133.512 712.249 133.622 712.253 133.748 712.259C133.877 712.266 133.978 712.274 134.051 712.284V713.706C133.991 713.689 133.885 713.671 133.733 713.651C133.58 713.628 133.428 713.616 133.275 713.616C132.924 713.616 132.611 713.691 132.336 713.84C132.064 713.986 131.848 714.19 131.689 714.452C131.53 714.71 131.451 715.005 131.451 715.337V720H129.964Z" fill="black"/>
<path d="M60.5568 734.92L59.6534 735.176C59.5966 735.026 59.5128 734.879 59.402 734.737C59.294 734.592 59.1463 734.473 58.9588 734.379C58.7713 734.286 58.5312 734.239 58.2386 734.239C57.8381 734.239 57.5043 734.331 57.2372 734.516C56.973 734.697 56.8409 734.929 56.8409 735.21C56.8409 735.46 56.9318 735.658 57.1136 735.803C57.2955 735.947 57.5795 736.068 57.9659 736.165L58.9375 736.403C59.5227 736.545 59.9588 736.763 60.2457 737.055C60.5327 737.345 60.6761 737.719 60.6761 738.176C60.6761 738.551 60.5682 738.886 60.3523 739.182C60.1392 739.477 59.8409 739.71 59.4574 739.881C59.0739 740.051 58.6278 740.136 58.1193 740.136C57.4517 740.136 56.8991 739.991 56.4616 739.702C56.0241 739.412 55.7472 738.989 55.6307 738.432L56.5852 738.193C56.6761 738.545 56.848 738.81 57.1009 738.986C57.3565 739.162 57.6903 739.25 58.1023 739.25C58.571 739.25 58.9432 739.151 59.2188 738.952C59.4972 738.75 59.6364 738.509 59.6364 738.227C59.6364 738 59.5568 737.81 59.3977 737.656C59.2386 737.5 58.9943 737.384 58.6648 737.307L57.5739 737.051C56.9744 736.909 56.5341 736.689 56.2528 736.391C55.9744 736.089 55.8352 735.713 55.8352 735.261C55.8352 734.892 55.9389 734.565 56.1463 734.281C56.3565 733.997 56.642 733.774 57.0028 733.612C57.3665 733.45 57.7784 733.369 58.2386 733.369C58.8864 733.369 59.3949 733.511 59.7642 733.795C60.1364 734.08 60.4006 734.455 60.5568 734.92ZM63.1957 736.062V740H62.19V731.273H63.1957V734.477H63.2809C63.4343 734.139 63.6644 733.871 63.9712 733.672C64.2809 733.47 64.6928 733.369 65.207 733.369C65.6531 733.369 66.0437 733.459 66.3789 733.638C66.7141 733.814 66.9741 734.085 67.1587 734.452C67.3462 734.815 67.44 735.278 67.44 735.841V740H66.4343V735.909C66.4343 735.389 66.2994 734.987 66.0295 734.703C65.7624 734.416 65.3917 734.273 64.9173 734.273C64.5877 734.273 64.2923 734.342 64.0309 734.482C63.7724 734.621 63.5678 734.824 63.4173 735.091C63.2695 735.358 63.1957 735.682 63.1957 736.062ZM72.0241 740.136C71.3935 740.136 70.8494 739.997 70.392 739.719C69.9375 739.438 69.5866 739.045 69.3395 738.543C69.0952 738.037 68.973 737.449 68.973 736.778C68.973 736.108 69.0952 735.517 69.3395 735.006C69.5866 734.491 69.9304 734.091 70.3707 733.804C70.8139 733.514 71.331 733.369 71.9219 733.369C72.2628 733.369 72.5994 733.426 72.9318 733.54C73.2642 733.653 73.5668 733.838 73.8395 734.094C74.1122 734.347 74.3295 734.682 74.4915 735.099C74.6534 735.517 74.7344 736.031 74.7344 736.642V737.068H69.6889V736.199H73.7116C73.7116 735.83 73.6378 735.5 73.4901 735.21C73.3452 734.92 73.1378 734.692 72.8679 734.524C72.6009 734.357 72.2855 734.273 71.9219 734.273C71.5213 734.273 71.1747 734.372 70.8821 734.571C70.5923 734.767 70.3693 735.023 70.2131 735.338C70.0568 735.653 69.9787 735.991 69.9787 736.352V736.932C69.9787 737.426 70.0639 737.845 70.2344 738.189C70.4077 738.53 70.6477 738.79 70.9545 738.969C71.2614 739.145 71.6179 739.233 72.0241 739.233C72.2884 739.233 72.527 739.196 72.7401 739.122C72.956 739.045 73.142 738.932 73.2983 738.781C73.4545 738.628 73.5753 738.437 73.6605 738.21L74.6321 738.483C74.5298 738.812 74.358 739.102 74.1165 739.352C73.875 739.599 73.5767 739.793 73.2216 739.932C72.8665 740.068 72.4673 740.136 72.0241 740.136ZM82.2983 740.136C81.6847 740.136 81.1563 739.991 80.7131 739.702C80.2699 739.412 79.929 739.013 79.6903 738.504C79.4517 737.996 79.3324 737.415 79.3324 736.761C79.3324 736.097 79.4545 735.51 79.6989 735.001C79.946 734.49 80.2898 734.091 80.7301 733.804C81.1733 733.514 81.6903 733.369 82.2812 733.369C82.7415 733.369 83.1562 733.455 83.5256 733.625C83.8949 733.795 84.1974 734.034 84.4332 734.341C84.669 734.648 84.8153 735.006 84.8722 735.415H83.8665C83.7898 735.116 83.6193 734.852 83.3551 734.622C83.0938 734.389 82.7415 734.273 82.2983 734.273C81.9063 734.273 81.5625 734.375 81.267 734.58C80.9744 734.781 80.7457 735.067 80.581 735.436C80.419 735.803 80.3381 736.233 80.3381 736.727C80.3381 737.233 80.4176 737.673 80.5767 738.048C80.7386 738.423 80.9659 738.714 81.2585 738.922C81.554 739.129 81.9006 739.233 82.2983 739.233C82.5597 739.233 82.7969 739.188 83.0099 739.097C83.223 739.006 83.4034 738.875 83.5511 738.705C83.6989 738.534 83.804 738.33 83.8665 738.091H84.8722C84.8153 738.477 84.6747 738.825 84.4503 739.135C84.2287 739.442 83.9347 739.686 83.5682 739.868C83.2045 740.047 82.7813 740.136 82.2983 740.136ZM88.2685 740.153C87.8537 740.153 87.4773 740.075 87.1392 739.919C86.8011 739.76 86.5327 739.531 86.3338 739.233C86.1349 738.932 86.0355 738.568 86.0355 738.142C86.0355 737.767 86.1094 737.463 86.2571 737.23C86.4048 736.994 86.6023 736.81 86.8494 736.676C87.0966 736.543 87.3693 736.443 87.6676 736.378C87.9688 736.31 88.2713 736.256 88.5753 736.216C88.973 736.165 89.2955 736.126 89.5426 736.101C89.7926 736.072 89.9744 736.026 90.0881 735.96C90.2045 735.895 90.2628 735.781 90.2628 735.619V735.585C90.2628 735.165 90.1477 734.838 89.9176 734.605C89.6903 734.372 89.3452 734.256 88.8821 734.256C88.402 734.256 88.0256 734.361 87.7528 734.571C87.4801 734.781 87.2884 735.006 87.1776 735.244L86.223 734.903C86.3935 734.506 86.6207 734.196 86.9048 733.974C87.1918 733.75 87.5043 733.594 87.8423 733.506C88.1832 733.415 88.5185 733.369 88.848 733.369C89.0582 733.369 89.2997 733.395 89.5724 733.446C89.848 733.494 90.1136 733.595 90.3693 733.749C90.6278 733.902 90.8423 734.134 91.0128 734.443C91.1832 734.753 91.2685 735.168 91.2685 735.688V740H90.2628V739.114H90.2116C90.1435 739.256 90.0298 739.408 89.8707 739.57C89.7116 739.732 89.5 739.869 89.2358 739.983C88.9716 740.097 88.6491 740.153 88.2685 740.153ZM88.4219 739.25C88.8196 739.25 89.1548 739.172 89.4276 739.016C89.7031 738.859 89.9105 738.658 90.0497 738.411C90.1918 738.163 90.2628 737.903 90.2628 737.631V736.71C90.2202 736.761 90.1264 736.808 89.9815 736.851C89.8395 736.891 89.6747 736.926 89.4872 736.957C89.3026 736.986 89.1222 737.011 88.946 737.034C88.7727 737.054 88.6321 737.071 88.5241 737.085C88.2628 737.119 88.0185 737.175 87.7912 737.251C87.5668 737.325 87.3849 737.437 87.2457 737.588C87.1094 737.736 87.0412 737.937 87.0412 738.193C87.0412 738.543 87.1705 738.807 87.429 738.986C87.6903 739.162 88.0213 739.25 88.4219 739.25ZM94.1097 736.062V740H93.104V733.455H94.0756V734.477H94.1609C94.3143 734.145 94.5472 733.878 94.8597 733.676C95.1722 733.472 95.5756 733.369 96.07 733.369C96.5131 733.369 96.9009 733.46 97.2333 733.642C97.5657 733.821 97.8242 734.094 98.0089 734.46C98.1935 734.824 98.2859 735.284 98.2859 735.841V740H97.2802V735.909C97.2802 735.395 97.1467 734.994 96.8796 734.707C96.6126 734.418 96.2461 734.273 95.7802 734.273C95.4592 734.273 95.1722 734.342 94.9194 734.482C94.6694 734.621 94.4719 734.824 94.3271 735.091C94.1822 735.358 94.1097 735.682 94.1097 736.062ZM106.413 733.455V734.307H102.885V733.455H106.413ZM103.942 740V732.551C103.942 732.176 104.03 731.864 104.206 731.614C104.382 731.364 104.611 731.176 104.892 731.051C105.173 730.926 105.47 730.864 105.783 730.864C106.03 730.864 106.232 730.884 106.388 730.923C106.544 730.963 106.661 731 106.737 731.034L106.447 731.903C106.396 731.886 106.325 731.865 106.234 731.839C106.146 731.814 106.03 731.801 105.885 731.801C105.553 731.801 105.313 731.885 105.165 732.053C105.02 732.22 104.947 732.466 104.947 732.79V740H103.942ZM107.823 740V733.455H108.828V740H107.823ZM108.334 732.364C108.138 732.364 107.969 732.297 107.827 732.163C107.688 732.03 107.618 731.869 107.618 731.682C107.618 731.494 107.688 731.334 107.827 731.2C107.969 731.067 108.138 731 108.334 731C108.53 731 108.698 731.067 108.837 731.2C108.979 731.334 109.05 731.494 109.05 731.682C109.05 731.869 108.979 732.03 108.837 732.163C108.698 732.297 108.53 732.364 108.334 732.364ZM111.42 733.455L112.989 736.131L114.557 733.455H115.716L113.602 736.727L115.716 740H114.557L112.989 737.46L111.42 740H110.261L112.341 736.727L110.261 733.455H111.42ZM120.526 740V733.455H121.532V740H120.526ZM121.037 732.364C120.841 732.364 120.672 732.297 120.53 732.163C120.391 732.03 120.321 731.869 120.321 731.682C120.321 731.494 120.391 731.334 120.53 731.2C120.672 731.067 120.841 731 121.037 731C121.233 731 121.401 731.067 121.54 731.2C121.682 731.334 121.753 731.494 121.753 731.682C121.753 731.869 121.682 732.03 121.54 732.163C121.401 732.297 121.233 732.364 121.037 732.364ZM126.22 733.455V734.307H122.828V733.455H126.22ZM123.817 731.886H124.822V738.125C124.822 738.409 124.864 738.622 124.946 738.764C125.031 738.903 125.139 738.997 125.27 739.045C125.403 739.091 125.544 739.114 125.692 739.114C125.803 739.114 125.893 739.108 125.964 739.097C126.036 739.082 126.092 739.071 126.135 739.062L126.339 739.966C126.271 739.991 126.176 740.017 126.054 740.043C125.932 740.071 125.777 740.085 125.589 740.085C125.305 740.085 125.027 740.024 124.754 739.902C124.484 739.78 124.26 739.594 124.081 739.344C123.905 739.094 123.817 738.778 123.817 738.398V731.886Z" fill="#BDBDBD"/>
<rect x="173" y="697" width="135" height="55" rx="10" fill="#F7F8FA"/>
<path d="M187.119 720V709.818H193.502V711.141H188.655V714.243H193.169V715.56H188.655V718.678H193.562V720H187.119ZM196.608 712.364L198.294 715.337L199.994 712.364H201.619L199.238 716.182L201.639 720H200.014L198.294 717.146L196.578 720H194.948L197.324 716.182L194.977 712.364H196.608ZM203.146 722.864V712.364H204.597V713.602H204.722C204.808 713.442 204.932 713.259 205.095 713.05C205.257 712.841 205.482 712.659 205.771 712.503C206.059 712.344 206.44 712.264 206.914 712.264C207.531 712.264 208.081 712.42 208.565 712.732C209.049 713.043 209.428 713.492 209.703 714.079C209.982 714.665 210.121 715.371 210.121 716.197C210.121 717.022 209.983 717.73 209.708 718.32C209.433 718.906 209.055 719.359 208.575 719.677C208.094 719.992 207.546 720.149 206.929 720.149C206.465 720.149 206.086 720.071 205.791 719.915C205.499 719.76 205.27 719.577 205.105 719.369C204.939 719.16 204.811 718.974 204.722 718.812H204.632V722.864H203.146ZM204.602 716.182C204.602 716.719 204.68 717.189 204.836 717.594C204.992 717.998 205.217 718.315 205.512 718.543C205.807 718.769 206.169 718.881 206.596 718.881C207.04 718.881 207.411 718.764 207.71 718.528C208.008 718.29 208.233 717.967 208.386 717.559C208.542 717.151 208.619 716.692 208.619 716.182C208.619 715.678 208.543 715.226 208.391 714.825C208.242 714.424 208.016 714.107 207.715 713.875C207.416 713.643 207.044 713.527 206.596 713.527C206.165 713.527 205.801 713.638 205.502 713.86C205.207 714.082 204.984 714.392 204.831 714.79C204.679 715.187 204.602 715.652 204.602 716.182ZM213.273 709.818V720H211.786V709.818H213.273ZM217.495 720.169C217.011 720.169 216.574 720.08 216.183 719.901C215.791 719.718 215.482 719.455 215.253 719.11C215.027 718.765 214.915 718.343 214.915 717.842C214.915 717.411 214.998 717.057 215.163 716.778C215.329 716.5 215.553 716.28 215.835 716.117C216.116 715.955 216.431 715.832 216.779 715.749C217.127 715.666 217.482 715.603 217.843 715.56C218.3 715.507 218.672 715.464 218.957 715.431C219.242 715.395 219.449 715.337 219.578 715.257C219.707 715.178 219.772 715.048 219.772 714.869V714.835C219.772 714.4 219.649 714.064 219.404 713.825C219.162 713.587 218.801 713.467 218.32 713.467C217.82 713.467 217.425 713.578 217.137 713.8C216.852 714.019 216.655 714.263 216.545 714.531L215.148 714.213C215.314 713.749 215.556 713.375 215.874 713.089C216.196 712.801 216.565 712.592 216.983 712.463C217.401 712.33 217.84 712.264 218.3 712.264C218.605 712.264 218.929 712.301 219.27 712.374C219.615 712.443 219.936 712.572 220.234 712.761C220.536 712.95 220.783 713.22 220.975 713.572C221.167 713.92 221.263 714.372 221.263 714.929V720H219.812V718.956H219.752C219.656 719.148 219.512 719.337 219.32 719.523C219.127 719.708 218.88 719.862 218.579 719.985C218.277 720.108 217.916 720.169 217.495 720.169ZM217.818 718.976C218.229 718.976 218.58 718.895 218.872 718.732C219.167 718.57 219.391 718.358 219.543 718.096C219.699 717.831 219.777 717.547 219.777 717.246V716.261C219.724 716.314 219.621 716.364 219.469 716.411C219.32 716.454 219.149 716.492 218.957 716.525C218.764 716.555 218.577 716.583 218.395 716.609C218.213 716.633 218.06 716.652 217.938 716.669C217.649 716.705 217.386 716.767 217.147 716.853C216.912 716.939 216.723 717.063 216.58 717.226C216.441 717.385 216.371 717.597 216.371 717.862C216.371 718.23 216.507 718.509 216.779 718.697C217.051 718.883 217.397 718.976 217.818 718.976ZM223.243 720V712.364H224.73V720H223.243ZM223.994 711.185C223.736 711.185 223.514 711.099 223.328 710.927C223.146 710.751 223.055 710.542 223.055 710.3C223.055 710.055 223.146 709.846 223.328 709.674C223.514 709.498 223.736 709.411 223.994 709.411C224.253 709.411 224.473 709.498 224.655 709.674C224.841 709.846 224.934 710.055 224.934 710.3C224.934 710.542 224.841 710.751 224.655 710.927C224.473 711.099 224.253 711.185 223.994 711.185ZM228.216 715.466V720H226.73V712.364H228.157V713.607H228.251C228.427 713.202 228.702 712.877 229.076 712.632C229.454 712.387 229.93 712.264 230.503 712.264C231.024 712.264 231.479 712.374 231.87 712.592C232.261 712.808 232.565 713.129 232.78 713.557C232.996 713.984 233.103 714.513 233.103 715.143V720H231.617V715.322C231.617 714.768 231.473 714.336 231.184 714.024C230.896 713.709 230.5 713.552 229.996 713.552C229.651 713.552 229.345 713.626 229.076 713.776C228.811 713.925 228.601 714.143 228.445 714.432C228.292 714.717 228.216 715.062 228.216 715.466ZM238.802 720V712.364H240.229V713.607H240.323C240.482 713.186 240.743 712.857 241.104 712.622C241.465 712.384 241.898 712.264 242.401 712.264C242.912 712.264 243.339 712.384 243.684 712.622C244.032 712.861 244.289 713.189 244.455 713.607H244.534C244.717 713.199 245.007 712.874 245.404 712.632C245.802 712.387 246.276 712.264 246.826 712.264C247.519 712.264 248.084 712.481 248.521 712.915C248.962 713.35 249.183 714.004 249.183 714.879V720H247.696V715.018C247.696 714.501 247.555 714.127 247.274 713.895C246.992 713.663 246.655 713.547 246.264 713.547C245.78 713.547 245.404 713.696 245.136 713.994C244.867 714.289 244.733 714.669 244.733 715.133V720H243.252V714.924C243.252 714.51 243.122 714.177 242.864 713.925C242.605 713.673 242.269 713.547 241.855 713.547C241.573 713.547 241.313 713.621 241.074 713.771C240.839 713.916 240.648 714.12 240.502 714.382C240.36 714.644 240.289 714.947 240.289 715.292V720H238.802ZM251.841 722.864C251.619 722.864 251.417 722.845 251.235 722.809C251.052 722.776 250.917 722.739 250.827 722.7L251.185 721.482C251.457 721.554 251.699 721.586 251.911 721.576C252.123 721.566 252.31 721.487 252.473 721.337C252.638 721.188 252.784 720.945 252.91 720.607L253.094 720.099L250.3 712.364H251.891L253.825 718.29H253.904L255.838 712.364H257.434L254.287 721.019C254.141 721.417 253.956 721.753 253.73 722.028C253.505 722.307 253.237 722.516 252.925 722.655C252.614 722.794 252.252 722.864 251.841 722.864ZM265.828 720.154C265.075 720.154 264.427 719.993 263.884 719.672C263.343 719.347 262.926 718.891 262.631 718.305C262.339 717.715 262.193 717.024 262.193 716.232C262.193 715.449 262.339 714.76 262.631 714.163C262.926 713.567 263.337 713.101 263.864 712.766C264.394 712.432 265.014 712.264 265.723 712.264C266.154 712.264 266.572 712.335 266.976 712.478C267.38 712.621 267.743 712.844 268.065 713.149C268.386 713.454 268.64 713.85 268.825 714.337C269.011 714.821 269.104 715.41 269.104 716.102V716.629H263.034V715.516H267.647C267.647 715.125 267.568 714.778 267.409 714.477C267.249 714.172 267.026 713.931 266.737 713.756C266.452 713.58 266.118 713.492 265.733 713.492C265.316 713.492 264.951 713.595 264.639 713.8C264.331 714.003 264.093 714.268 263.923 714.596C263.758 714.921 263.675 715.274 263.675 715.655V716.525C263.675 717.035 263.764 717.469 263.943 717.827C264.126 718.185 264.379 718.459 264.704 718.648C265.029 718.833 265.408 718.926 265.843 718.926C266.124 718.926 266.381 718.886 266.613 718.807C266.845 718.724 267.046 718.601 267.215 718.439C267.384 718.277 267.513 718.076 267.602 717.837L269.009 718.091C268.897 718.505 268.695 718.868 268.403 719.18C268.115 719.488 267.752 719.728 267.314 719.901C266.88 720.07 266.384 720.154 265.828 720.154ZM270.753 720V712.364H272.19V713.577H272.27C272.409 713.166 272.654 712.843 273.005 712.607C273.36 712.369 273.761 712.249 274.208 712.249C274.301 712.249 274.411 712.253 274.537 712.259C274.666 712.266 274.767 712.274 274.84 712.284V713.706C274.78 713.689 274.674 713.671 274.522 713.651C274.369 713.628 274.217 713.616 274.064 713.616C273.713 713.616 273.4 713.691 273.125 713.84C272.853 713.986 272.637 714.19 272.478 714.452C272.319 714.71 272.24 715.005 272.24 715.337V720H270.753ZM276.126 720V712.364H277.563V713.577H277.643C277.782 713.166 278.027 712.843 278.378 712.607C278.733 712.369 279.134 712.249 279.581 712.249C279.674 712.249 279.784 712.253 279.91 712.259C280.039 712.266 280.14 712.274 280.213 712.284V713.706C280.153 713.689 280.047 713.671 279.895 713.651C279.742 713.628 279.59 713.616 279.437 713.616C279.086 713.616 278.773 713.691 278.498 713.84C278.226 713.986 278.01 714.19 277.851 714.452C277.692 714.71 277.613 715.005 277.613 715.337V720H276.126ZM284.442 720.154C283.727 720.154 283.102 719.99 282.568 719.662C282.035 719.334 281.62 718.875 281.325 718.285C281.03 717.695 280.883 717.005 280.883 716.217C280.883 715.424 281.03 714.732 281.325 714.138C281.62 713.545 282.035 713.085 282.568 712.756C283.102 712.428 283.727 712.264 284.442 712.264C285.158 712.264 285.783 712.428 286.317 712.756C286.85 713.085 287.265 713.545 287.56 714.138C287.855 714.732 288.002 715.424 288.002 716.217C288.002 717.005 287.855 717.695 287.56 718.285C287.265 718.875 286.85 719.334 286.317 719.662C285.783 719.99 285.158 720.154 284.442 720.154ZM284.447 718.906C284.911 718.906 285.296 718.784 285.601 718.538C285.906 718.293 286.131 717.967 286.277 717.559C286.426 717.151 286.501 716.702 286.501 716.212C286.501 715.724 286.426 715.277 286.277 714.869C286.131 714.458 285.906 714.129 285.601 713.88C285.296 713.631 284.911 713.507 284.447 713.507C283.98 713.507 283.592 713.631 283.284 713.88C282.979 714.129 282.752 714.458 282.603 714.869C282.457 715.277 282.384 715.724 282.384 716.212C282.384 716.702 282.457 717.151 282.603 717.559C282.752 717.967 282.979 718.293 283.284 718.538C283.592 718.784 283.98 718.906 284.447 718.906ZM289.661 720V712.364H291.098V713.577H291.178C291.317 713.166 291.562 712.843 291.914 712.607C292.268 712.369 292.669 712.249 293.117 712.249C293.209 712.249 293.319 712.253 293.445 712.259C293.574 712.266 293.675 712.274 293.748 712.284V713.706C293.688 713.689 293.582 713.671 293.43 713.651C293.277 713.628 293.125 713.616 292.972 713.616C292.621 713.616 292.308 713.691 292.033 713.84C291.761 713.986 291.546 714.19 291.387 714.452C291.227 714.71 291.148 715.005 291.148 715.337V720H289.661Z" fill="black"/>
<path d="M188.847 740.153C188.432 740.153 188.055 740.075 187.717 739.919C187.379 739.76 187.111 739.531 186.912 739.233C186.713 738.932 186.614 738.568 186.614 738.142C186.614 737.767 186.688 737.463 186.835 737.23C186.983 736.994 187.18 736.81 187.428 736.676C187.675 736.543 187.947 736.443 188.246 736.378C188.547 736.31 188.849 736.256 189.153 736.216C189.551 736.165 189.874 736.126 190.121 736.101C190.371 736.072 190.553 736.026 190.666 735.96C190.783 735.895 190.841 735.781 190.841 735.619V735.585C190.841 735.165 190.726 734.838 190.496 734.605C190.268 734.372 189.923 734.256 189.46 734.256C188.98 734.256 188.604 734.361 188.331 734.571C188.058 734.781 187.866 735.006 187.756 735.244L186.801 734.903C186.972 734.506 187.199 734.196 187.483 733.974C187.77 733.75 188.082 733.594 188.42 733.506C188.761 733.415 189.097 733.369 189.426 733.369C189.636 733.369 189.878 733.395 190.151 733.446C190.426 733.494 190.692 733.595 190.947 733.749C191.206 733.902 191.42 734.134 191.591 734.443C191.761 734.753 191.847 735.168 191.847 735.688V740H190.841V739.114H190.79C190.722 739.256 190.608 739.408 190.449 739.57C190.29 739.732 190.078 739.869 189.814 739.983C189.55 740.097 189.227 740.153 188.847 740.153ZM189 739.25C189.398 739.25 189.733 739.172 190.006 739.016C190.281 738.859 190.489 738.658 190.628 738.411C190.77 738.163 190.841 737.903 190.841 737.631V736.71C190.798 736.761 190.705 736.808 190.56 736.851C190.418 736.891 190.253 736.926 190.065 736.957C189.881 736.986 189.7 737.011 189.524 737.034C189.351 737.054 189.21 737.071 189.102 737.085C188.841 737.119 188.597 737.175 188.369 737.251C188.145 737.325 187.963 737.437 187.824 737.588C187.688 737.736 187.619 737.937 187.619 738.193C187.619 738.543 187.749 738.807 188.007 738.986C188.268 739.162 188.599 739.25 189 739.25ZM198.319 734.92L197.415 735.176C197.358 735.026 197.275 734.879 197.164 734.737C197.056 734.592 196.908 734.473 196.721 734.379C196.533 734.286 196.293 734.239 196 734.239C195.6 734.239 195.266 734.331 194.999 734.516C194.735 734.697 194.603 734.929 194.603 735.21C194.603 735.46 194.694 735.658 194.875 735.803C195.057 735.947 195.341 736.068 195.728 736.165L196.699 736.403C197.284 736.545 197.721 736.763 198.007 737.055C198.294 737.345 198.438 737.719 198.438 738.176C198.438 738.551 198.33 738.886 198.114 739.182C197.901 739.477 197.603 739.71 197.219 739.881C196.836 740.051 196.39 740.136 195.881 740.136C195.213 740.136 194.661 739.991 194.223 739.702C193.786 739.412 193.509 738.989 193.392 738.432L194.347 738.193C194.438 738.545 194.61 738.81 194.863 738.986C195.118 739.162 195.452 739.25 195.864 739.25C196.333 739.25 196.705 739.151 196.98 738.952C197.259 738.75 197.398 738.509 197.398 738.227C197.398 738 197.319 737.81 197.159 737.656C197 737.5 196.756 737.384 196.426 737.307L195.336 737.051C194.736 736.909 194.296 736.689 194.015 736.391C193.736 736.089 193.597 735.713 193.597 735.261C193.597 734.892 193.701 734.565 193.908 734.281C194.118 733.997 194.404 733.774 194.765 733.612C195.128 733.45 195.54 733.369 196 733.369C196.648 733.369 197.157 733.511 197.526 733.795C197.898 734.08 198.162 734.455 198.319 734.92ZM200.889 737.614L200.872 736.369H201.077L203.94 733.455H205.185L202.134 736.54H202.048L200.889 737.614ZM199.952 740V731.273H200.957V740H199.952ZM204.111 740L201.554 736.761L202.27 736.062L205.389 740H204.111ZM212.769 733.455V734.307H209.24V733.455H212.769ZM210.297 740V732.551C210.297 732.176 210.385 731.864 210.561 731.614C210.738 731.364 210.966 731.176 211.248 731.051C211.529 730.926 211.826 730.864 212.138 730.864C212.385 730.864 212.587 730.884 212.743 730.923C212.9 730.963 213.016 731 213.093 731.034L212.803 731.903C212.752 731.886 212.681 731.865 212.59 731.839C212.502 731.814 212.385 731.801 212.24 731.801C211.908 731.801 211.668 731.885 211.52 732.053C211.375 732.22 211.303 732.466 211.303 732.79V740H210.297ZM216.568 740.136C215.977 740.136 215.458 739.996 215.012 739.714C214.569 739.433 214.223 739.04 213.973 738.534C213.725 738.028 213.602 737.437 213.602 736.761C213.602 736.08 213.725 735.484 213.973 734.976C214.223 734.467 214.569 734.072 215.012 733.791C215.458 733.51 215.977 733.369 216.568 733.369C217.159 733.369 217.676 733.51 218.119 733.791C218.565 734.072 218.912 734.467 219.159 734.976C219.409 735.484 219.534 736.08 219.534 736.761C219.534 737.437 219.409 738.028 219.159 738.534C218.912 739.04 218.565 739.433 218.119 739.714C217.676 739.996 217.159 740.136 216.568 740.136ZM216.568 739.233C217.017 739.233 217.386 739.118 217.676 738.888C217.966 738.658 218.18 738.355 218.319 737.98C218.458 737.605 218.528 737.199 218.528 736.761C218.528 736.324 218.458 735.916 218.319 735.538C218.18 735.161 217.966 734.855 217.676 734.622C217.386 734.389 217.017 734.273 216.568 734.273C216.119 734.273 215.75 734.389 215.46 734.622C215.17 734.855 214.956 735.161 214.816 735.538C214.677 735.916 214.608 736.324 214.608 736.761C214.608 737.199 214.677 737.605 214.816 737.98C214.956 738.355 215.17 738.658 215.46 738.888C215.75 739.118 216.119 739.233 216.568 739.233ZM221.069 740V733.455H222.04V734.443H222.109C222.228 734.119 222.444 733.857 222.756 733.655C223.069 733.453 223.421 733.352 223.813 733.352C223.887 733.352 223.979 733.354 224.09 733.357C224.201 733.359 224.285 733.364 224.342 733.369V734.392C224.308 734.384 224.229 734.371 224.107 734.354C223.988 734.334 223.862 734.324 223.728 734.324C223.41 734.324 223.126 734.391 222.876 734.524C222.629 734.655 222.433 734.837 222.288 735.07C222.146 735.3 222.075 735.562 222.075 735.858V740H221.069ZM231.653 740.136C231.022 740.136 230.478 739.997 230.021 739.719C229.566 739.438 229.216 739.045 228.968 738.543C228.724 738.037 228.602 737.449 228.602 736.778C228.602 736.108 228.724 735.517 228.968 735.006C229.216 734.491 229.559 734.091 230 733.804C230.443 733.514 230.96 733.369 231.551 733.369C231.892 733.369 232.228 733.426 232.561 733.54C232.893 733.653 233.196 733.838 233.468 734.094C233.741 734.347 233.958 734.682 234.12 735.099C234.282 735.517 234.363 736.031 234.363 736.642V737.068H229.318V736.199H233.341C233.341 735.83 233.267 735.5 233.119 735.21C232.974 734.92 232.767 734.692 232.497 734.524C232.23 734.357 231.914 734.273 231.551 734.273C231.15 734.273 230.804 734.372 230.511 734.571C230.221 734.767 229.998 735.023 229.842 735.338C229.686 735.653 229.608 735.991 229.608 736.352V736.932C229.608 737.426 229.693 737.845 229.863 738.189C230.037 738.53 230.277 738.79 230.583 738.969C230.89 739.145 231.247 739.233 231.653 739.233C231.917 739.233 232.156 739.196 232.369 739.122C232.585 739.045 232.771 738.932 232.927 738.781C233.083 738.628 233.204 738.437 233.289 738.21L234.261 738.483C234.159 738.812 233.987 739.102 233.745 739.352C233.504 739.599 233.206 739.793 232.85 739.932C232.495 740.068 232.096 740.136 231.653 740.136ZM236.467 733.455L238.036 736.131L239.604 733.455H240.763L238.649 736.727L240.763 740H239.604L238.036 737.46L236.467 740H235.308L237.388 736.727L235.308 733.455H236.467ZM242.198 742.455V733.455H243.169V734.494H243.289C243.363 734.381 243.465 734.236 243.596 734.06C243.729 733.881 243.919 733.722 244.167 733.582C244.417 733.44 244.755 733.369 245.181 733.369C245.732 733.369 246.218 733.507 246.638 733.783C247.059 734.058 247.387 734.449 247.623 734.955C247.858 735.46 247.976 736.057 247.976 736.744C247.976 737.438 247.858 738.038 247.623 738.547C247.387 739.053 247.06 739.445 246.642 739.723C246.225 739.999 245.743 740.136 245.198 740.136C244.777 740.136 244.441 740.067 244.188 739.928C243.935 739.786 243.74 739.625 243.604 739.446C243.468 739.264 243.363 739.114 243.289 738.994H243.203V742.455H242.198ZM243.186 736.727C243.186 737.222 243.259 737.658 243.404 738.036C243.549 738.411 243.76 738.705 244.039 738.918C244.317 739.128 244.658 739.233 245.061 739.233C245.482 739.233 245.833 739.122 246.114 738.901C246.398 738.676 246.611 738.375 246.753 737.997C246.898 737.616 246.971 737.193 246.971 736.727C246.971 736.267 246.9 735.852 246.757 735.483C246.618 735.111 246.407 734.817 246.123 734.601C245.841 734.382 245.488 734.273 245.061 734.273C244.652 734.273 244.309 734.376 244.03 734.584C243.752 734.788 243.542 735.075 243.4 735.445C243.257 735.811 243.186 736.239 243.186 736.727ZM250.516 731.273V740H249.51V731.273H250.516ZM254.284 740.153C253.869 740.153 253.493 740.075 253.155 739.919C252.817 739.76 252.548 739.531 252.349 739.233C252.151 738.932 252.051 738.568 252.051 738.142C252.051 737.767 252.125 737.463 252.273 737.23C252.42 736.994 252.618 736.81 252.865 736.676C253.112 736.543 253.385 736.443 253.683 736.378C253.984 736.31 254.287 736.256 254.591 736.216C254.989 736.165 255.311 736.126 255.558 736.101C255.808 736.072 255.99 736.026 256.104 735.96C256.22 735.895 256.278 735.781 256.278 735.619V735.585C256.278 735.165 256.163 734.838 255.933 734.605C255.706 734.372 255.361 734.256 254.898 734.256C254.418 734.256 254.041 734.361 253.768 734.571C253.496 734.781 253.304 735.006 253.193 735.244L252.239 734.903C252.409 734.506 252.636 734.196 252.92 733.974C253.207 733.75 253.52 733.594 253.858 733.506C254.199 733.415 254.534 733.369 254.864 733.369C255.074 733.369 255.315 733.395 255.588 733.446C255.864 733.494 256.129 733.595 256.385 733.749C256.643 733.902 256.858 734.134 257.028 734.443C257.199 734.753 257.284 735.168 257.284 735.688V740H256.278V739.114H256.227C256.159 739.256 256.045 739.408 255.886 739.57C255.727 739.732 255.516 739.869 255.251 739.983C254.987 740.097 254.665 740.153 254.284 740.153ZM254.438 739.25C254.835 739.25 255.17 739.172 255.443 739.016C255.719 738.859 255.926 738.658 256.065 738.411C256.207 738.163 256.278 737.903 256.278 737.631V736.71C256.236 736.761 256.142 736.808 255.997 736.851C255.855 736.891 255.69 736.926 255.503 736.957C255.318 736.986 255.138 737.011 254.962 737.034C254.788 737.054 254.648 737.071 254.54 737.085C254.278 737.119 254.034 737.175 253.807 737.251C253.582 737.325 253.401 737.437 253.261 737.588C253.125 737.736 253.057 737.937 253.057 738.193C253.057 738.543 253.186 738.807 253.445 738.986C253.706 739.162 254.037 739.25 254.438 739.25ZM259.12 740V733.455H260.125V740H259.12ZM259.631 732.364C259.435 732.364 259.266 732.297 259.124 732.163C258.985 732.03 258.915 731.869 258.915 731.682C258.915 731.494 258.985 731.334 259.124 731.2C259.266 731.067 259.435 731 259.631 731C259.827 731 259.995 731.067 260.134 731.2C260.276 731.334 260.347 731.494 260.347 731.682C260.347 731.869 260.276 732.03 260.134 732.163C259.995 732.297 259.827 732.364 259.631 732.364ZM262.973 736.062V740H261.967V733.455H262.939V734.477H263.024C263.178 734.145 263.411 733.878 263.723 733.676C264.036 733.472 264.439 733.369 264.933 733.369C265.376 733.369 265.764 733.46 266.097 733.642C266.429 733.821 266.688 734.094 266.872 734.46C267.057 734.824 267.149 735.284 267.149 735.841V740H266.143V735.909C266.143 735.395 266.01 734.994 265.743 734.707C265.476 734.418 265.109 734.273 264.643 734.273C264.322 734.273 264.036 734.342 263.783 734.482C263.533 734.621 263.335 734.824 263.19 735.091C263.045 735.358 262.973 735.682 262.973 736.062ZM270.913 740.153C270.498 740.153 270.122 740.075 269.784 739.919C269.446 739.76 269.177 739.531 268.978 739.233C268.779 738.932 268.68 738.568 268.68 738.142C268.68 737.767 268.754 737.463 268.902 737.23C269.049 736.994 269.247 736.81 269.494 736.676C269.741 736.543 270.014 736.443 270.312 736.378C270.613 736.31 270.916 736.256 271.22 736.216C271.618 736.165 271.94 736.126 272.187 736.101C272.437 736.072 272.619 736.026 272.733 735.96C272.849 735.895 272.907 735.781 272.907 735.619V735.585C272.907 735.165 272.792 734.838 272.562 734.605C272.335 734.372 271.99 734.256 271.527 734.256C271.047 734.256 270.67 734.361 270.397 734.571C270.125 734.781 269.933 735.006 269.822 735.244L268.868 734.903C269.038 734.506 269.265 734.196 269.549 733.974C269.836 733.75 270.149 733.594 270.487 733.506C270.828 733.415 271.163 733.369 271.493 733.369C271.703 733.369 271.944 733.395 272.217 733.446C272.493 733.494 272.758 733.595 273.014 733.749C273.272 733.902 273.487 734.134 273.657 734.443C273.828 734.753 273.913 735.168 273.913 735.688V740H272.907V739.114H272.856C272.788 739.256 272.674 739.408 272.515 739.57C272.356 739.732 272.145 739.869 271.88 739.983C271.616 740.097 271.294 740.153 270.913 740.153ZM271.066 739.25C271.464 739.25 271.799 739.172 272.072 739.016C272.348 738.859 272.555 738.658 272.694 738.411C272.836 738.163 272.907 737.903 272.907 737.631V736.71C272.865 736.761 272.771 736.808 272.626 736.851C272.484 736.891 272.319 736.926 272.132 736.957C271.947 736.986 271.767 737.011 271.591 737.034C271.417 737.054 271.277 737.071 271.169 737.085C270.907 737.119 270.663 737.175 270.436 737.251C270.211 737.325 270.029 737.437 269.89 737.588C269.754 737.736 269.686 737.937 269.686 738.193C269.686 738.543 269.815 738.807 270.074 738.986C270.335 739.162 270.666 739.25 271.066 739.25ZM278.595 733.455V734.307H275.203V733.455H278.595ZM276.192 731.886H277.197V738.125C277.197 738.409 277.239 738.622 277.321 738.764C277.406 738.903 277.514 738.997 277.645 739.045C277.778 739.091 277.919 739.114 278.067 739.114C278.178 739.114 278.268 739.108 278.339 739.097C278.411 739.082 278.467 739.071 278.51 739.062L278.714 739.966C278.646 739.991 278.551 740.017 278.429 740.043C278.307 740.071 278.152 740.085 277.964 740.085C277.68 740.085 277.402 740.024 277.129 739.902C276.859 739.78 276.635 739.594 276.456 739.344C276.28 739.094 276.192 738.778 276.192 738.398V731.886ZM280.108 740V733.455H281.114V740H280.108ZM280.619 732.364C280.423 732.364 280.254 732.297 280.112 732.163C279.973 732.03 279.903 731.869 279.903 731.682C279.903 731.494 279.973 731.334 280.112 731.2C280.254 731.067 280.423 731 280.619 731C280.815 731 280.983 731.067 281.122 731.2C281.264 731.334 281.335 731.494 281.335 731.682C281.335 731.869 281.264 732.03 281.122 732.163C280.983 732.297 280.815 732.364 280.619 732.364ZM285.615 740.136C285.024 740.136 284.505 739.996 284.059 739.714C283.616 739.433 283.27 739.04 283.02 738.534C282.772 738.028 282.649 737.437 282.649 736.761C282.649 736.08 282.772 735.484 283.02 734.976C283.27 734.467 283.616 734.072 284.059 733.791C284.505 733.51 285.024 733.369 285.615 733.369C286.206 733.369 286.723 733.51 287.166 733.791C287.612 734.072 287.958 734.467 288.206 734.976C288.456 735.484 288.581 736.08 288.581 736.761C288.581 737.437 288.456 738.028 288.206 738.534C287.958 739.04 287.612 739.433 287.166 739.714C286.723 739.996 286.206 740.136 285.615 740.136ZM285.615 739.233C286.064 739.233 286.433 739.118 286.723 738.888C287.012 738.658 287.227 738.355 287.366 737.98C287.505 737.605 287.575 737.199 287.575 736.761C287.575 736.324 287.505 735.916 287.366 735.538C287.227 735.161 287.012 734.855 286.723 734.622C286.433 734.389 286.064 734.273 285.615 734.273C285.166 734.273 284.797 734.389 284.507 734.622C284.217 734.855 284.002 735.161 283.863 735.538C283.724 735.916 283.654 736.324 283.654 736.761C283.654 737.199 283.724 737.605 283.863 737.98C284.002 738.355 284.217 738.658 284.507 738.888C284.797 739.118 285.166 739.233 285.615 739.233ZM291.121 736.062V740H290.116V733.455H291.087V734.477H291.173C291.326 734.145 291.559 733.878 291.871 733.676C292.184 733.472 292.587 733.369 293.082 733.369C293.525 733.369 293.913 733.46 294.245 733.642C294.577 733.821 294.836 734.094 295.021 734.46C295.205 734.824 295.298 735.284 295.298 735.841V740H294.292V735.909C294.292 735.395 294.158 734.994 293.891 734.707C293.624 734.418 293.258 734.273 292.792 734.273C292.471 734.273 292.184 734.342 291.931 734.482C291.681 734.621 291.484 734.824 291.339 735.091C291.194 735.358 291.121 735.682 291.121 736.062Z" fill="#BDBDBD"/>
<rect x="316" y="697" width="135" height="55" rx="10" fill="#F7F8FA"/>
<path d="M330.119 720V709.818H331.655V718.678H336.268V720H330.119ZM341.118 720.154C340.402 720.154 339.778 719.99 339.244 719.662C338.71 719.334 338.296 718.875 338.001 718.285C337.706 717.695 337.559 717.005 337.559 716.217C337.559 715.424 337.706 714.732 338.001 714.138C338.296 713.545 338.71 713.085 339.244 712.756C339.778 712.428 340.402 712.264 341.118 712.264C341.834 712.264 342.459 712.428 342.993 712.756C343.526 713.085 343.94 713.545 344.235 714.138C344.53 714.732 344.678 715.424 344.678 716.217C344.678 717.005 344.53 717.695 344.235 718.285C343.94 718.875 343.526 719.334 342.993 719.662C342.459 719.99 341.834 720.154 341.118 720.154ZM341.123 718.906C341.587 718.906 341.972 718.784 342.277 718.538C342.582 718.293 342.807 717.967 342.953 717.559C343.102 717.151 343.176 716.702 343.176 716.212C343.176 715.724 343.102 715.277 342.953 714.869C342.807 714.458 342.582 714.129 342.277 713.88C341.972 713.631 341.587 713.507 341.123 713.507C340.656 713.507 340.268 713.631 339.96 713.88C339.655 714.129 339.428 714.458 339.279 714.869C339.133 715.277 339.06 715.724 339.06 716.212C339.06 716.702 339.133 717.151 339.279 717.559C339.428 717.967 339.655 718.293 339.96 718.538C340.268 718.784 340.656 718.906 341.123 718.906ZM349.539 723.023C348.932 723.023 348.41 722.943 347.973 722.784C347.539 722.625 347.184 722.415 346.909 722.153C346.634 721.891 346.428 721.604 346.292 721.293L347.57 720.766C347.66 720.911 347.779 721.066 347.928 721.228C348.081 721.394 348.286 721.535 348.545 721.651C348.806 721.767 349.143 721.825 349.554 721.825C350.117 721.825 350.583 721.687 350.951 721.412C351.319 721.14 351.503 720.706 351.503 720.109V718.608H351.408C351.319 718.77 351.189 718.951 351.02 719.15C350.855 719.349 350.626 719.521 350.334 719.667C350.043 719.813 349.663 719.886 349.196 719.886C348.593 719.886 348.049 719.745 347.565 719.463C347.085 719.178 346.703 718.759 346.422 718.205C346.143 717.648 346.004 716.964 346.004 716.152C346.004 715.34 346.142 714.644 346.417 714.064C346.695 713.484 347.076 713.04 347.56 712.732C348.044 712.42 348.593 712.264 349.206 712.264C349.68 712.264 350.063 712.344 350.354 712.503C350.646 712.659 350.873 712.841 351.035 713.05C351.201 713.259 351.329 713.442 351.418 713.602H351.528V712.364H352.984V720.169C352.984 720.825 352.832 721.364 352.527 721.785C352.222 722.206 351.809 722.517 351.289 722.719C350.772 722.922 350.189 723.023 349.539 723.023ZM349.524 718.653C349.952 718.653 350.313 718.553 350.608 718.354C350.906 718.152 351.131 717.864 351.284 717.489C351.44 717.112 351.518 716.659 351.518 716.132C351.518 715.618 351.441 715.166 351.289 714.775C351.136 714.384 350.913 714.079 350.618 713.86C350.323 713.638 349.958 713.527 349.524 713.527C349.077 713.527 348.704 713.643 348.405 713.875C348.107 714.104 347.882 714.415 347.729 714.81C347.58 715.204 347.506 715.645 347.506 716.132C347.506 716.633 347.582 717.072 347.734 717.45C347.887 717.827 348.112 718.122 348.41 718.335C348.712 718.547 349.083 718.653 349.524 718.653ZM358.683 720V712.364H360.11V713.607H360.204C360.363 713.186 360.623 712.857 360.985 712.622C361.346 712.384 361.779 712.264 362.282 712.264C362.793 712.264 363.22 712.384 363.565 712.622C363.913 712.861 364.17 713.189 364.336 713.607H364.415C364.597 713.199 364.887 712.874 365.285 712.632C365.683 712.387 366.157 712.264 366.707 712.264C367.4 712.264 367.965 712.481 368.402 712.915C368.843 713.35 369.064 714.004 369.064 714.879V720H367.577V715.018C367.577 714.501 367.436 714.127 367.154 713.895C366.873 713.663 366.536 713.547 366.145 713.547C365.661 713.547 365.285 713.696 365.017 713.994C364.748 714.289 364.614 714.669 364.614 715.133V720H363.132V714.924C363.132 714.51 363.003 714.177 362.745 713.925C362.486 713.673 362.15 713.547 361.735 713.547C361.454 713.547 361.194 713.621 360.955 713.771C360.72 713.916 360.529 714.12 360.383 714.382C360.241 714.644 360.169 714.947 360.169 715.292V720H358.683ZM371.722 722.864C371.5 722.864 371.298 722.845 371.116 722.809C370.933 722.776 370.797 722.739 370.708 722.7L371.066 721.482C371.338 721.554 371.58 721.586 371.792 721.576C372.004 721.566 372.191 721.487 372.354 721.337C372.519 721.188 372.665 720.945 372.791 720.607L372.975 720.099L370.181 712.364H371.772L373.706 718.29H373.785L375.719 712.364H377.315L374.168 721.019C374.022 721.417 373.837 721.753 373.611 722.028C373.386 722.307 373.117 722.516 372.806 722.655C372.494 722.794 372.133 722.864 371.722 722.864ZM385.708 720.154C384.956 720.154 384.308 719.993 383.765 719.672C383.224 719.347 382.807 718.891 382.512 718.305C382.22 717.715 382.074 717.024 382.074 716.232C382.074 715.449 382.22 714.76 382.512 714.163C382.807 713.567 383.218 713.101 383.745 712.766C384.275 712.432 384.895 712.264 385.604 712.264C386.035 712.264 386.453 712.335 386.857 712.478C387.261 712.621 387.624 712.844 387.946 713.149C388.267 713.454 388.521 713.85 388.706 714.337C388.892 714.821 388.985 715.41 388.985 716.102V716.629H382.914V715.516H387.528C387.528 715.125 387.449 714.778 387.289 714.477C387.13 714.172 386.907 713.931 386.618 713.756C386.333 713.58 385.998 713.492 385.614 713.492C385.196 713.492 384.832 713.595 384.52 713.8C384.212 714.003 383.973 714.268 383.804 714.596C383.639 714.921 383.556 715.274 383.556 715.655V716.525C383.556 717.035 383.645 717.469 383.824 717.827C384.007 718.185 384.26 718.459 384.585 718.648C384.91 718.833 385.289 718.926 385.723 718.926C386.005 718.926 386.262 718.886 386.494 718.807C386.726 718.724 386.926 718.601 387.096 718.439C387.265 718.277 387.394 718.076 387.483 717.837L388.89 718.091C388.778 718.505 388.575 718.868 388.284 719.18C387.995 719.488 387.632 719.728 387.195 719.901C386.761 720.07 386.265 720.154 385.708 720.154ZM390.634 720V712.364H392.071V713.577H392.15C392.29 713.166 392.535 712.843 392.886 712.607C393.241 712.369 393.642 712.249 394.089 712.249C394.182 712.249 394.291 712.253 394.417 712.259C394.547 712.266 394.648 712.274 394.721 712.284V713.706C394.661 713.689 394.555 713.671 394.403 713.651C394.25 713.628 394.098 713.616 393.945 713.616C393.594 713.616 393.281 713.691 393.006 713.84C392.734 713.986 392.518 714.19 392.359 714.452C392.2 714.71 392.121 715.005 392.121 715.337V720H390.634ZM396.007 720V712.364H397.444V713.577H397.523C397.663 713.166 397.908 712.843 398.259 712.607C398.614 712.369 399.015 712.249 399.462 712.249C399.555 712.249 399.665 712.253 399.79 712.259C399.92 712.266 400.021 712.274 400.094 712.284V713.706C400.034 713.689 399.928 713.671 399.776 713.651C399.623 713.628 399.471 713.616 399.318 713.616C398.967 713.616 398.654 713.691 398.379 713.84C398.107 713.986 397.891 714.19 397.732 714.452C397.573 714.71 397.494 715.005 397.494 715.337V720H396.007ZM404.323 720.154C403.607 720.154 402.983 719.99 402.449 719.662C401.915 719.334 401.501 718.875 401.206 718.285C400.911 717.695 400.764 717.005 400.764 716.217C400.764 715.424 400.911 714.732 401.206 714.138C401.501 713.545 401.915 713.085 402.449 712.756C402.983 712.428 403.607 712.264 404.323 712.264C405.039 712.264 405.664 712.428 406.198 712.756C406.731 713.085 407.146 713.545 407.441 714.138C407.735 714.732 407.883 715.424 407.883 716.217C407.883 717.005 407.735 717.695 407.441 718.285C407.146 718.875 406.731 719.334 406.198 719.662C405.664 719.99 405.039 720.154 404.323 720.154ZM404.328 718.906C404.792 718.906 405.177 718.784 405.482 718.538C405.787 718.293 406.012 717.967 406.158 717.559C406.307 717.151 406.382 716.702 406.382 716.212C406.382 715.724 406.307 715.277 406.158 714.869C406.012 714.458 405.787 714.129 405.482 713.88C405.177 713.631 404.792 713.507 404.328 713.507C403.861 713.507 403.473 713.631 403.165 713.88C402.86 714.129 402.633 714.458 402.484 714.869C402.338 715.277 402.265 715.724 402.265 716.212C402.265 716.702 402.338 717.151 402.484 717.559C402.633 717.967 402.86 718.293 403.165 718.538C403.473 718.784 403.861 718.906 404.328 718.906ZM409.542 720V712.364H410.979V713.577H411.059C411.198 713.166 411.443 712.843 411.794 712.607C412.149 712.369 412.55 712.249 412.998 712.249C413.09 712.249 413.2 712.253 413.326 712.259C413.455 712.266 413.556 712.274 413.629 712.284V713.706C413.569 713.689 413.463 713.671 413.311 713.651C413.158 713.628 413.006 713.616 412.853 713.616C412.502 713.616 412.189 713.691 411.914 713.84C411.642 713.986 411.426 714.19 411.267 714.452C411.108 714.71 411.029 715.005 411.029 715.337V720H409.542Z" fill="black"/>
<path d="M330.858 737.614L330.841 736.369H331.045L333.909 733.455H335.153L332.102 736.54H332.017L330.858 737.614ZM329.92 740V731.273H330.926V740H329.92ZM334.08 740L331.523 736.761L332.239 736.062L335.358 740H334.08ZM338.923 740.136C338.292 740.136 337.748 739.997 337.29 739.719C336.836 739.438 336.485 739.045 336.238 738.543C335.994 738.037 335.871 737.449 335.871 736.778C335.871 736.108 335.994 735.517 336.238 735.006C336.485 734.491 336.829 734.091 337.269 733.804C337.712 733.514 338.229 733.369 338.82 733.369C339.161 733.369 339.498 733.426 339.83 733.54C340.163 733.653 340.465 733.838 340.738 734.094C341.011 734.347 341.228 734.682 341.39 735.099C341.552 735.517 341.633 736.031 341.633 736.642V737.068H336.587V736.199H340.61C340.61 735.83 340.536 735.5 340.388 735.21C340.244 734.92 340.036 734.692 339.766 734.524C339.499 734.357 339.184 734.273 338.82 734.273C338.42 734.273 338.073 734.372 337.781 734.571C337.491 734.767 337.268 735.023 337.112 735.338C336.955 735.653 336.877 735.991 336.877 736.352V736.932C336.877 737.426 336.962 737.845 337.133 738.189C337.306 738.53 337.546 738.79 337.853 738.969C338.16 739.145 338.516 739.233 338.923 739.233C339.187 739.233 339.425 739.196 339.638 739.122C339.854 739.045 340.04 738.932 340.197 738.781C340.353 738.628 340.474 738.437 340.559 738.21L341.531 738.483C341.428 738.812 341.256 739.102 341.015 739.352C340.773 739.599 340.475 739.793 340.12 739.932C339.765 740.068 339.366 740.136 338.923 740.136ZM345.907 740.136C345.276 740.136 344.732 739.997 344.275 739.719C343.82 739.438 343.469 739.045 343.222 738.543C342.978 738.037 342.856 737.449 342.856 736.778C342.856 736.108 342.978 735.517 343.222 735.006C343.469 734.491 343.813 734.091 344.254 733.804C344.697 733.514 345.214 733.369 345.805 733.369C346.146 733.369 346.482 733.426 346.815 733.54C347.147 733.653 347.45 733.838 347.722 734.094C347.995 734.347 348.212 734.682 348.374 735.099C348.536 735.517 348.617 736.031 348.617 736.642V737.068H343.572V736.199H347.594C347.594 735.83 347.521 735.5 347.373 735.21C347.228 734.92 347.021 734.692 346.751 734.524C346.484 734.357 346.168 734.273 345.805 734.273C345.404 734.273 345.058 734.372 344.765 734.571C344.475 734.767 344.252 735.023 344.096 735.338C343.94 735.653 343.862 735.991 343.862 736.352V736.932C343.862 737.426 343.947 737.845 344.117 738.189C344.29 738.53 344.531 738.79 344.837 738.969C345.144 739.145 345.501 739.233 345.907 739.233C346.171 739.233 346.41 739.196 346.623 739.122C346.839 739.045 347.025 738.932 347.181 738.781C347.337 738.628 347.458 738.437 347.543 738.21L348.515 738.483C348.413 738.812 348.241 739.102 347.999 739.352C347.758 739.599 347.46 739.793 347.104 739.932C346.749 740.068 346.35 740.136 345.907 740.136ZM350.147 742.455V733.455H351.119V734.494H351.238C351.312 734.381 351.414 734.236 351.545 734.06C351.678 733.881 351.869 733.722 352.116 733.582C352.366 733.44 352.704 733.369 353.13 733.369C353.681 733.369 354.167 733.507 354.587 733.783C355.008 734.058 355.336 734.449 355.572 734.955C355.808 735.46 355.925 736.057 355.925 736.744C355.925 737.438 355.808 738.038 355.572 738.547C355.336 739.053 355.009 739.445 354.592 739.723C354.174 739.999 353.692 740.136 353.147 740.136C352.727 740.136 352.39 740.067 352.137 739.928C351.884 739.786 351.69 739.625 351.553 739.446C351.417 739.264 351.312 739.114 351.238 738.994H351.153V742.455H350.147ZM351.136 736.727C351.136 737.222 351.208 737.658 351.353 738.036C351.498 738.411 351.71 738.705 351.988 738.918C352.266 739.128 352.607 739.233 353.011 739.233C353.431 739.233 353.782 739.122 354.063 738.901C354.347 738.676 354.56 738.375 354.702 737.997C354.847 737.616 354.92 737.193 354.92 736.727C354.92 736.267 354.849 735.852 354.707 735.483C354.567 735.111 354.356 734.817 354.072 734.601C353.79 734.382 353.437 734.273 353.011 734.273C352.602 734.273 352.258 734.376 351.979 734.584C351.701 734.788 351.491 735.075 351.349 735.445C351.207 735.811 351.136 736.239 351.136 736.727ZM362.761 740.153C362.346 740.153 361.969 740.075 361.631 739.919C361.293 739.76 361.025 739.531 360.826 739.233C360.627 738.932 360.528 738.568 360.528 738.142C360.528 737.767 360.602 737.463 360.749 737.23C360.897 736.994 361.094 736.81 361.342 736.676C361.589 736.543 361.862 736.443 362.16 736.378C362.461 736.31 362.763 736.256 363.067 736.216C363.465 736.165 363.788 736.126 364.035 736.101C364.285 736.072 364.467 736.026 364.58 735.96C364.697 735.895 364.755 735.781 364.755 735.619V735.585C364.755 735.165 364.64 734.838 364.41 734.605C364.183 734.372 363.837 734.256 363.374 734.256C362.894 734.256 362.518 734.361 362.245 734.571C361.972 734.781 361.781 735.006 361.67 735.244L360.715 734.903C360.886 734.506 361.113 734.196 361.397 733.974C361.684 733.75 361.996 733.594 362.335 733.506C362.675 733.415 363.011 733.369 363.34 733.369C363.55 733.369 363.792 733.395 364.065 733.446C364.34 733.494 364.606 733.595 364.862 733.749C365.12 733.902 365.335 734.134 365.505 734.443C365.675 734.753 365.761 735.168 365.761 735.688V740H364.755V739.114H364.704C364.636 739.256 364.522 739.408 364.363 739.57C364.204 739.732 363.992 739.869 363.728 739.983C363.464 740.097 363.141 740.153 362.761 740.153ZM362.914 739.25C363.312 739.25 363.647 739.172 363.92 739.016C364.195 738.859 364.403 738.658 364.542 738.411C364.684 738.163 364.755 737.903 364.755 737.631V736.71C364.712 736.761 364.619 736.808 364.474 736.851C364.332 736.891 364.167 736.926 363.979 736.957C363.795 736.986 363.614 737.011 363.438 737.034C363.265 737.054 363.124 737.071 363.016 737.085C362.755 737.119 362.511 737.175 362.283 737.251C362.059 737.325 361.877 737.437 361.738 737.588C361.602 737.736 361.533 737.937 361.533 738.193C361.533 738.543 361.663 738.807 361.921 738.986C362.183 739.162 362.513 739.25 362.914 739.25ZM371.977 736.062V740H370.971V733.455H371.943V734.477H372.028C372.181 734.145 372.414 733.878 372.727 733.676C373.039 733.472 373.443 733.369 373.937 733.369C374.38 733.369 374.768 733.46 375.1 733.642C375.433 733.821 375.691 734.094 375.876 734.46C376.061 734.824 376.153 735.284 376.153 735.841V740H375.147V735.909C375.147 735.395 375.014 734.994 374.747 734.707C374.48 734.418 374.113 734.273 373.647 734.273C373.326 734.273 373.039 734.342 372.787 734.482C372.537 734.621 372.339 734.824 372.194 735.091C372.049 735.358 371.977 735.682 371.977 736.062ZM380.65 740.136C380.059 740.136 379.54 739.996 379.094 739.714C378.651 739.433 378.305 739.04 378.055 738.534C377.808 738.028 377.684 737.437 377.684 736.761C377.684 736.08 377.808 735.484 378.055 734.976C378.305 734.467 378.651 734.072 379.094 733.791C379.54 733.51 380.059 733.369 380.65 733.369C381.241 733.369 381.758 733.51 382.201 733.791C382.647 734.072 382.994 734.467 383.241 734.976C383.491 735.484 383.616 736.08 383.616 736.761C383.616 737.437 383.491 738.028 383.241 738.534C382.994 739.04 382.647 739.433 382.201 739.714C381.758 739.996 381.241 740.136 380.65 740.136ZM380.65 739.233C381.099 739.233 381.468 739.118 381.758 738.888C382.048 738.658 382.262 738.355 382.401 737.98C382.54 737.605 382.61 737.199 382.61 736.761C382.61 736.324 382.54 735.916 382.401 735.538C382.262 735.161 382.048 734.855 381.758 734.622C381.468 734.389 381.099 734.273 380.65 734.273C380.201 734.273 379.832 734.389 379.542 734.622C379.252 734.855 379.038 735.161 378.898 735.538C378.759 735.916 378.69 736.324 378.69 736.761C378.69 737.199 378.759 737.605 378.898 737.98C379.038 738.355 379.252 738.658 379.542 738.888C379.832 739.118 380.201 739.233 380.65 739.233ZM387.998 733.455V734.307H384.605V733.455H387.998ZM385.594 731.886H386.6V738.125C386.6 738.409 386.641 738.622 386.723 738.764C386.809 738.903 386.917 738.997 387.047 739.045C387.181 739.091 387.321 739.114 387.469 739.114C387.58 739.114 387.671 739.108 387.742 739.097C387.813 739.082 387.87 739.071 387.912 739.062L388.117 739.966C388.049 739.991 387.953 740.017 387.831 740.043C387.709 740.071 387.554 740.085 387.367 740.085C387.083 740.085 386.804 740.024 386.532 739.902C386.262 739.78 386.037 739.594 385.858 739.344C385.682 739.094 385.594 738.778 385.594 738.398V731.886ZM392.184 740.136C391.554 740.136 391.01 739.997 390.552 739.719C390.098 739.438 389.747 739.045 389.5 738.543C389.255 738.037 389.133 737.449 389.133 736.778C389.133 736.108 389.255 735.517 389.5 735.006C389.747 734.491 390.091 734.091 390.531 733.804C390.974 733.514 391.491 733.369 392.082 733.369C392.423 733.369 392.76 733.426 393.092 733.54C393.424 733.653 393.727 733.838 394 734.094C394.272 734.347 394.49 734.682 394.652 735.099C394.814 735.517 394.895 736.031 394.895 736.642V737.068H389.849V736.199H393.872C393.872 735.83 393.798 735.5 393.65 735.21C393.505 734.92 393.298 734.692 393.028 734.524C392.761 734.357 392.446 734.273 392.082 734.273C391.681 734.273 391.335 734.372 391.042 734.571C390.752 734.767 390.529 735.023 390.373 735.338C390.217 735.653 390.139 735.991 390.139 736.352V736.932C390.139 737.426 390.224 737.845 390.395 738.189C390.568 738.53 390.808 738.79 391.115 738.969C391.422 739.145 391.778 739.233 392.184 739.233C392.449 739.233 392.687 739.196 392.9 739.122C393.116 739.045 393.302 738.932 393.458 738.781C393.615 738.628 393.735 738.437 393.821 738.21L394.792 738.483C394.69 738.812 394.518 739.102 394.277 739.352C394.035 739.599 393.737 739.793 393.382 739.932C393.027 740.068 392.627 740.136 392.184 740.136ZM402.458 740.136C401.868 740.136 401.349 739.996 400.903 739.714C400.46 739.433 400.113 739.04 399.863 738.534C399.616 738.028 399.493 737.437 399.493 736.761C399.493 736.08 399.616 735.484 399.863 734.976C400.113 734.467 400.46 734.072 400.903 733.791C401.349 733.51 401.868 733.369 402.458 733.369C403.049 733.369 403.566 733.51 404.01 733.791C404.456 734.072 404.802 734.467 405.049 734.976C405.299 735.484 405.424 736.08 405.424 736.761C405.424 737.437 405.299 738.028 405.049 738.534C404.802 739.04 404.456 739.433 404.01 739.714C403.566 739.996 403.049 740.136 402.458 740.136ZM402.458 739.233C402.907 739.233 403.277 739.118 403.566 738.888C403.856 738.658 404.071 738.355 404.21 737.98C404.349 737.605 404.419 737.199 404.419 736.761C404.419 736.324 404.349 735.916 404.21 735.538C404.071 735.161 403.856 734.855 403.566 734.622C403.277 734.389 402.907 734.273 402.458 734.273C402.01 734.273 401.64 734.389 401.35 734.622C401.061 734.855 400.846 735.161 400.707 735.538C400.568 735.916 400.498 736.324 400.498 736.761C400.498 737.199 400.568 737.605 400.707 737.98C400.846 738.355 401.061 738.658 401.35 738.888C401.64 739.118 402.01 739.233 402.458 739.233ZM409.874 733.455V734.307H406.346V733.455H409.874ZM407.403 740V732.551C407.403 732.176 407.491 731.864 407.667 731.614C407.843 731.364 408.072 731.176 408.353 731.051C408.634 730.926 408.931 730.864 409.244 730.864C409.491 730.864 409.692 730.884 409.849 730.923C410.005 730.963 410.121 731 410.198 731.034L409.908 731.903C409.857 731.886 409.786 731.865 409.695 731.839C409.607 731.814 409.491 731.801 409.346 731.801C409.013 731.801 408.773 731.885 408.626 732.053C408.481 732.22 408.408 732.466 408.408 732.79V740H407.403ZM414.659 740V733.455H415.664V740H414.659ZM415.17 732.364C414.974 732.364 414.805 732.297 414.663 732.163C414.524 732.03 414.454 731.869 414.454 731.682C414.454 731.494 414.524 731.334 414.663 731.2C414.805 731.067 414.974 731 415.17 731C415.366 731 415.534 731.067 415.673 731.2C415.815 731.334 415.886 731.494 415.886 731.682C415.886 731.869 415.815 732.03 415.673 732.163C415.534 732.297 415.366 732.364 415.17 732.364ZM420.353 733.455V734.307H416.961V733.455H420.353ZM417.95 731.886H418.955V738.125C418.955 738.409 418.996 738.622 419.079 738.764C419.164 738.903 419.272 738.997 419.403 739.045C419.536 739.091 419.677 739.114 419.825 739.114C419.935 739.114 420.026 739.108 420.097 739.097C420.168 739.082 420.225 739.071 420.268 739.062L420.472 739.966C420.404 739.991 420.309 740.017 420.187 740.043C420.065 740.071 419.91 740.085 419.722 740.085C419.438 740.085 419.16 740.024 418.887 739.902C418.617 739.78 418.393 739.594 418.214 739.344C418.038 739.094 417.95 738.778 417.95 738.398V731.886Z" fill="#BDBDBD"/>
<circle cx="50.002" cy="112.002" r="23.002" fill="#F7F8FC"/>
<rect x="41.9512" y="116.833" width="16.1014" height="1.84016" rx="0.920078" fill="black"/>
<rect x="41.9512" y="111.082" width="11.5" height="1.84" rx="0.92" fill="black"/>
<rect x="41.9512" y="105.332" width="16.1014" height="1.84016" rx="0.920078" fill="black"/>
<path d="M64.2666 38.4731C64.9085 38.4731 65.5173 38.5921 66.0928 38.8301C66.6683 39.0625 67.1774 39.4277 67.6201 39.9258C68.0684 40.4183 68.4198 41.0519 68.6743 41.8267C68.9289 42.5959 69.0562 43.5228 69.0562 44.6074V44.624C69.0562 45.9688 68.8625 47.1198 68.4751 48.0771C68.0877 49.0345 67.5316 49.7705 66.8066 50.2852C66.0872 50.7943 65.2267 51.0488 64.2251 51.0488C63.4891 51.0488 62.825 50.916 62.2329 50.6504C61.6463 50.3792 61.1593 50.0085 60.772 49.5381C60.3901 49.0622 60.1328 48.5199 60 47.9111L59.9834 47.8198H62.0835L62.1167 47.9028C62.2218 48.1795 62.3713 48.423 62.5649 48.6333C62.7642 48.8436 63.0021 49.0068 63.2788 49.123C63.561 49.2337 63.8765 49.2891 64.2251 49.2891C64.856 49.2891 65.3706 49.1037 65.769 48.7329C66.173 48.3566 66.4746 47.8558 66.6738 47.2305C66.8786 46.5996 66.9948 45.9023 67.0225 45.1387C67.028 45.0557 67.0308 44.9754 67.0308 44.8979C67.0308 44.8149 67.0308 44.7347 67.0308 44.6572L66.6572 42.6567C66.6572 42.203 66.5521 41.7907 66.3418 41.4199C66.1315 41.0492 65.8465 40.7559 65.4868 40.54C65.1326 40.3242 64.7314 40.2163 64.2832 40.2163C63.8516 40.2163 63.4559 40.3215 63.0962 40.5317C62.7365 40.742 62.4487 41.0298 62.2329 41.395C62.0171 41.7547 61.9092 42.1587 61.9092 42.6069V42.6235C61.9092 43.0884 62.0116 43.5007 62.2163 43.8604C62.4211 44.2145 62.7005 44.494 63.0547 44.6987C63.4089 44.9035 63.8128 45.0059 64.2666 45.0059C64.7204 45.0059 65.1271 44.9062 65.4868 44.707C65.8465 44.5078 66.1315 44.2311 66.3418 43.877C66.5521 43.5228 66.6572 43.1216 66.6572 42.6733V42.6567H67.1553V44.8647H66.8647C66.7209 45.1802 66.5078 45.4735 66.2256 45.7446C65.9434 46.0158 65.5947 46.2344 65.1797 46.4004C64.7702 46.5664 64.2887 46.6494 63.7354 46.6494C62.9717 46.6494 62.2965 46.4779 61.71 46.1348C61.1234 45.7917 60.6613 45.3213 60.3237 44.7236C59.9917 44.126 59.8257 43.4508 59.8257 42.6982V42.6816C59.8257 41.8682 60.0138 41.146 60.3901 40.5151C60.772 39.8787 61.2977 39.3807 61.9673 39.021C62.6424 38.6558 63.4089 38.4731 64.2666 38.4731ZM72.8247 49.1396C72.4484 49.1396 72.133 49.0151 71.8784 48.7661C71.6294 48.5116 71.5049 48.2017 71.5049 47.8364C71.5049 47.4657 71.6294 47.1558 71.8784 46.9067C72.133 46.6522 72.4484 46.5249 72.8247 46.5249C73.2065 46.5249 73.522 46.6522 73.771 46.9067C74.02 47.1558 74.1445 47.4657 74.1445 47.8364C74.1445 48.2017 74.02 48.5116 73.771 48.7661C73.522 49.0151 73.2065 49.1396 72.8247 49.1396ZM72.8247 42.9805C72.4484 42.9805 72.133 42.856 71.8784 42.6069C71.6294 42.3524 71.5049 42.0425 71.5049 41.6772C71.5049 41.3065 71.6294 40.9966 71.8784 40.7476C72.133 40.493 72.4484 40.3657 72.8247 40.3657C73.2065 40.3657 73.522 40.493 73.771 40.7476C74.02 40.9966 74.1445 41.3065 74.1445 41.6772C74.1445 42.0425 74.02 42.3524 73.771 42.6069C73.522 42.856 73.2065 42.9805 72.8247 42.9805ZM82.4038 50.75V48.4507H76.5435V46.6992C76.8589 46.1624 77.1743 45.6229 77.4897 45.0806C77.8107 44.5382 78.1344 43.9987 78.4609 43.4619C78.793 42.9196 79.1222 42.3856 79.4487 41.8599C79.7808 41.3286 80.11 40.8057 80.4365 40.291C80.7686 39.7708 81.1006 39.2645 81.4326 38.772H84.4458V46.6826H86.0645V48.4507H84.4458V50.75H82.4038ZM78.5356 46.7324H82.437V40.4819H82.3125C82.069 40.8582 81.8172 41.2456 81.5571 41.644C81.3026 42.0425 81.0452 42.4492 80.7852 42.8643C80.5251 43.2793 80.2677 43.6971 80.0132 44.1177C79.7586 44.5327 79.5068 44.9505 79.2578 45.3711C79.0088 45.7861 78.7681 46.1984 78.5356 46.6079V46.7324ZM91.02 50.75V40.8804H90.8706L87.8906 42.9805V40.9717L91.02 38.772H93.1533V50.75H91.02Z" fill="black"/>
<path fill-rule="evenodd" clip-rule="evenodd" d="M310.866 39.5329C310.866 38.8999 310.388 38.3867 309.799 38.3867H308.733C308.144 38.3867 307.666 38.8999 307.666 39.5329V49.4669C307.666 50.0999 308.144 50.6131 308.733 50.6131H309.799C310.388 50.6131 310.866 50.0999 310.866 49.4669V39.5329ZM303.432 40.832H304.499C305.088 40.832 305.565 41.3575 305.565 42.0057V49.4394C305.565 50.0876 305.088 50.6131 304.499 50.6131H303.432C302.843 50.6131 302.365 50.0876 302.365 49.4394V42.0057C302.365 41.3575 302.843 40.832 303.432 40.832ZM299.1 43.481H298.033C297.444 43.481 296.967 44.0132 296.967 44.6697V49.4244C296.967 50.0809 297.444 50.6131 298.033 50.6131H299.1C299.689 50.6131 300.167 50.0809 300.167 49.4244V44.6697C300.167 44.0132 299.689 43.481 299.1 43.481ZM293.799 45.9263H292.733C292.144 45.9263 291.666 46.4509 291.666 47.098V49.4414C291.666 50.0885 292.144 50.6131 292.733 50.6131H293.799C294.388 50.6131 294.866 50.0885 294.866 49.4414V47.098C294.866 46.4509 294.388 45.9263 293.799 45.9263Z" fill="black"/>
<path fill-rule="evenodd" clip-rule="evenodd" d="M326.437 40.8022C328.924 40.8023 331.316 41.7244 333.118 43.3779C333.254 43.5055 333.471 43.5039 333.605 43.3743L334.902 42.1108C334.97 42.045 335.007 41.956 335.007 41.8633C335.006 41.7706 334.968 41.682 334.899 41.617C330.168 37.2423 322.704 37.2423 317.973 41.617C317.905 41.6819 317.866 41.7705 317.865 41.8632C317.865 41.9559 317.902 42.045 317.97 42.1108L319.268 43.3743C319.401 43.5041 319.619 43.5057 319.754 43.3779C321.557 41.7243 323.949 40.8022 326.437 40.8022ZM326.433 45.0225C327.791 45.0224 329.099 45.5342 330.106 46.4583C330.242 46.5894 330.456 46.5866 330.589 46.4519L331.876 45.1326C331.944 45.0634 331.981 44.9695 331.98 44.8719C331.979 44.7744 331.94 44.6813 331.871 44.6135C328.807 41.7227 324.062 41.7227 320.998 44.6135C320.929 44.6813 320.89 44.7744 320.889 44.872C320.888 44.9696 320.926 45.0635 320.993 45.1326L322.28 46.4519C322.413 46.5866 322.627 46.5894 322.763 46.4583C323.769 45.5348 325.077 45.0231 326.433 45.0225ZM328.958 47.816C328.96 47.9214 328.922 48.023 328.855 48.0968L326.679 50.5515C326.615 50.6236 326.528 50.6642 326.437 50.6642C326.346 50.6642 326.259 50.6236 326.195 50.5515L324.018 48.0968C323.951 48.0229 323.914 47.9213 323.916 47.816C323.918 47.7106 323.959 47.6108 324.029 47.5402C325.419 46.2263 327.455 46.2263 328.845 47.5402C328.915 47.6109 328.956 47.7107 328.958 47.816Z" fill="black"/>
<rect opacity="0.35" x="342.506" y="38.5" width="24" height="12" rx="3.8" stroke="black"/>
<path opacity="0.4" d="M368.006 42.5V46.5755C368.811 46.2303 369.334 45.4273 369.334 44.5377C369.334 43.6481 368.811 42.8452 368.006 42.5" fill="black"/>
<rect x="344.006" y="40" width="21" height="9" rx="2.5" fill="black"/>
</g>
<defs>
<filter id="filter0_n_106_8374" x="0" y="0" width="417" height="876" filterUnits="userSpaceOnUse" color-interpolation-filters="sRGB">
<feFlood flood-opacity="0" result="BackgroundImageFix"/>
<feBlend mode="normal" in="SourceGraphic" in2="BackgroundImageFix" result="shape"/>
<feTurbulence type="fractalNoise" baseFrequency="2.5 2.5" stitchTiles="stitch" numOctaves="3" result="noise" seed="755" />
<feColorMatrix in="noise" type="luminanceToAlpha" result="alphaNoise" />
<feComponentTransfer in="alphaNoise" result="coloredNoise1">
<feFuncA type="discrete" tableValues="1 1 1 1 1 1 1 1 1 1 1 1 1 1 1 1 1 1 1 1 1 1 1 1 1 1 1 1 1 1 1 1 1 1 1 1 1 1 1 1 1 1 1 1 1 1 1 1 1 1 1 0 0 0 0 0 0 0 0 0 0 0 0 0 0 0 0 0 0 0 0 0 0 0 0 0 0 0 0 0 0 0 0 0 0 0 0 0 0 0 0 0 0 0 0 0 0 0 0 0 "/>
</feComponentTransfer>
<feComposite operator="in" in2="shape" in="coloredNoise1" result="noise1Clipped" />
<feFlood flood-color="rgba(255, 255, 255, 0.11)" result="color1Flood" />
<feComposite operator="in" in2="noise1Clipped" in="color1Flood" result="color1" />
<feMerge result="effect1_noise_106_8374">
<feMergeNode in="shape" />
<feMergeNode in="color1" />
</feMerge>
</filter>
<linearGradient id="paint0_linear_106_8374" x1="177" y1="-132.5" x2="417" y2="1162.5" gradientUnits="userSpaceOnUse">
<stop stop-color="#E0FFD8"/>
<stop offset="1" stop-color="#97E9EA"/>
</linearGradient>
<clipPath id="clip0_106_8374">
<rect x="12" y="12" width="393" height="852" rx="40" fill="white"/>
</clipPath>
<clipPath id="clip1_106_8374">
<rect width="24.5203" height="24.5203" fill="white" transform="translate(341.178 779.739)"/>
</clipPath>
</defs>
</svg>
